G04 #@! TF.GenerationSoftware,KiCad,Pcbnew,10.0.3*
G04 #@! TF.CreationDate,2026-07-12T18:16:33+02:00*
G04 #@! TF.ProjectId,temphum_node,74656d70-6875-46d5-9f6e-6f64652e6b69,rev?*
G04 #@! TF.SameCoordinates,Original*
G04 #@! TF.FileFunction,Copper,L3,Inr*
G04 #@! TF.FilePolarity,Positive*
%FSLAX46Y46*%
G04 Gerber Fmt 4.6, Leading zero omitted, Abs format (unit mm)*
G04 Created by KiCad (PCBNEW 10.0.3) date 2026-07-12 18:16:33*
%MOMM*%
%LPD*%
G01*
G04 APERTURE LIST*
G04 #@! TA.AperFunction,ComponentPad*
%ADD10C,0.400000*%
G04 #@! TD*
G04 #@! TA.AperFunction,ComponentPad*
%ADD11O,2.000000X1.100000*%
G04 #@! TD*
G04 #@! TA.AperFunction,ComponentPad*
%ADD12O,1.800000X1.200000*%
G04 #@! TD*
G04 #@! TA.AperFunction,ComponentPad*
%ADD13C,0.500000*%
G04 #@! TD*
G04 #@! TA.AperFunction,ComponentPad*
%ADD14C,0.800000*%
G04 #@! TD*
G04 #@! TA.AperFunction,ComponentPad*
%ADD15C,1.700000*%
G04 #@! TD*
G04 #@! TA.AperFunction,ViaPad*
%ADD16C,0.400000*%
G04 #@! TD*
G04 #@! TA.AperFunction,Conductor*
%ADD17C,1.000000*%
G04 #@! TD*
G04 #@! TA.AperFunction,Conductor*
%ADD18C,0.500000*%
G04 #@! TD*
G04 APERTURE END LIST*
D10*
X118345000Y-105235000D03*
X118705000Y-105985000D03*
X117985000Y-105985000D03*
X118345000Y-106735000D03*
X110260000Y-111900000D03*
X111010000Y-112250000D03*
X109510000Y-112250000D03*
X110260000Y-112600000D03*
D11*
X124017500Y-104320000D03*
D12*
X128227500Y-104320000D03*
D11*
X124017500Y-95680000D03*
D12*
X128227500Y-95680000D03*
D13*
X88885000Y-105995000D03*
X87625000Y-105995000D03*
X86365000Y-105995000D03*
X89945000Y-107055000D03*
X88885000Y-107055000D03*
X87625000Y-107055000D03*
X86365000Y-107055000D03*
X85305000Y-107055000D03*
X89945000Y-108315000D03*
X88885000Y-108315000D03*
X87625000Y-108315000D03*
X86365000Y-108315000D03*
X85305000Y-108315000D03*
X89945000Y-109575000D03*
X88885000Y-109575000D03*
X87625000Y-109575000D03*
X86365000Y-109575000D03*
X85305000Y-109575000D03*
X88885000Y-110635000D03*
X87625000Y-110635000D03*
X86365000Y-110635000D03*
D14*
X90150000Y-73570000D03*
X92150000Y-73570000D03*
X92150000Y-78570000D03*
X94150000Y-73570000D03*
X94150000Y-78570000D03*
X96150000Y-73570000D03*
X96150000Y-78570000D03*
X98150000Y-73570000D03*
X98150000Y-78570000D03*
X100150000Y-73570000D03*
X100150000Y-78570000D03*
X102150000Y-73570000D03*
X102150000Y-78570000D03*
X104150000Y-73570000D03*
X104150000Y-78570000D03*
X106150000Y-73570000D03*
X106150000Y-78570000D03*
X108150000Y-73570000D03*
X108150000Y-78570000D03*
X110150000Y-73570000D03*
X110150000Y-78570000D03*
D15*
X117680000Y-114027500D03*
X120180000Y-114027500D03*
D16*
X126170000Y-88930000D03*
X122340000Y-90380000D03*
X118280000Y-90240000D03*
X115540000Y-90520000D03*
X107290000Y-90540000D03*
X111570000Y-90710000D03*
X123780000Y-88930000D03*
X121200000Y-89070000D03*
X113690000Y-116260000D03*
X109900000Y-105420000D03*
X90350000Y-125210000D03*
X113450000Y-100040000D03*
X80760000Y-117240000D03*
X114870000Y-89070000D03*
X110290000Y-102810000D03*
X118890000Y-89130000D03*
X107540000Y-117660000D03*
X114450000Y-103830000D03*
X102250000Y-109110000D03*
X115500000Y-98220000D03*
X73450000Y-90700000D03*
X102230000Y-102550000D03*
X124100000Y-91640000D03*
X106410000Y-120820000D03*
X106730000Y-116260000D03*
X109210000Y-118040000D03*
X87900000Y-101800000D03*
X92850000Y-102080000D03*
X110680000Y-89020000D03*
X126170000Y-91640000D03*
X88920000Y-124040000D03*
X99350000Y-106910000D03*
X121810000Y-111410000D03*
X81720000Y-114050000D03*
X101350000Y-97010000D03*
X91290000Y-93640000D03*
X116550000Y-94160000D03*
X91290000Y-92070000D03*
X107650000Y-111230000D03*
X92060000Y-100420000D03*
X83740000Y-97650000D03*
X109380000Y-126030000D03*
X101520000Y-88960000D03*
X121990000Y-94960000D03*
X93700000Y-95000000D03*
X93320000Y-97740000D03*
X84940000Y-124650000D03*
X83650000Y-94420000D03*
X82410000Y-101280000D03*
X113870000Y-95110000D03*
X110260000Y-114340000D03*
X116730000Y-96690000D03*
X124140000Y-109500000D03*
X113270000Y-117540000D03*
X94060000Y-103690000D03*
X77050000Y-91280000D03*
X103820000Y-88990000D03*
X88030000Y-93540000D03*
X89990000Y-117900000D03*
X75820000Y-115360000D03*
X93280000Y-88910000D03*
X113930000Y-91980000D03*
X82530000Y-103090000D03*
X120220000Y-91470000D03*
X85590000Y-115340000D03*
X105610000Y-101050000D03*
X115640000Y-103700000D03*
X112040000Y-111220000D03*
X108510000Y-89020000D03*
X106980000Y-125480000D03*
X110290000Y-101140000D03*
X109430000Y-96010000D03*
X127760000Y-106750000D03*
X86340000Y-89100000D03*
X99330000Y-104300000D03*
X111950000Y-119840000D03*
X77650000Y-88990000D03*
X95310000Y-99060000D03*
X119210000Y-111570000D03*
X126090000Y-110910000D03*
X87330000Y-122500000D03*
X91370000Y-99180000D03*
X95930000Y-96340000D03*
X113180000Y-102030000D03*
X98060000Y-122310000D03*
X97980000Y-98090000D03*
X88930000Y-96510000D03*
X83010000Y-89040000D03*
X91310000Y-88850000D03*
X84170000Y-113030000D03*
X86740000Y-118150000D03*
X89590000Y-122430000D03*
X112800000Y-111220000D03*
X106300000Y-99050000D03*
X106210000Y-92110000D03*
X86880000Y-114430000D03*
X116010000Y-116030000D03*
X122640000Y-93100000D03*
X74790000Y-113120000D03*
X109400000Y-91980000D03*
X85730000Y-93330000D03*
X128030000Y-101820000D03*
X111590000Y-94620000D03*
X89160000Y-90190000D03*
X82110000Y-119650000D03*
X91630000Y-103720000D03*
X80220000Y-121450000D03*
X84760000Y-89100000D03*
X86960000Y-112980000D03*
X71730000Y-97040000D03*
X111180000Y-118080000D03*
X115310000Y-100360000D03*
X118310000Y-101200000D03*
X110180000Y-121610000D03*
X104600000Y-107030000D03*
X107790000Y-105380000D03*
X116620000Y-89070000D03*
X98230000Y-102450000D03*
X113200000Y-97720000D03*
X91380000Y-97780000D03*
X87760000Y-100000000D03*
X88260000Y-89070000D03*
X71990000Y-106010000D03*
X128010000Y-99580000D03*
X76900000Y-100820000D03*
X82390000Y-99720000D03*
X102090000Y-106710000D03*
X84660000Y-100450000D03*
X76910000Y-101690000D03*
X89140000Y-92090000D03*
X103350000Y-125860000D03*
X124800000Y-112380000D03*
X83680000Y-103850000D03*
X116030000Y-122530000D03*
X119000000Y-103930000D03*
X98190000Y-111600000D03*
X107460000Y-122510000D03*
X92640000Y-111470000D03*
X95470000Y-88930000D03*
X84770000Y-102980000D03*
X104500000Y-99790000D03*
X88220000Y-98180000D03*
X108510000Y-111210000D03*
X92230000Y-96360000D03*
X105600000Y-96210000D03*
X126010000Y-108070000D03*
X96580000Y-91170000D03*
X107660000Y-115610000D03*
X113760000Y-111790000D03*
X88970000Y-94830000D03*
X127920000Y-97950000D03*
X79830000Y-115290000D03*
X85580000Y-117060000D03*
X81010000Y-112280000D03*
X75630000Y-88990000D03*
X128200000Y-93490000D03*
X119740000Y-101490000D03*
X101570000Y-125890000D03*
X106380000Y-89040000D03*
X86190000Y-97660000D03*
X97640000Y-88910000D03*
X79490000Y-88930000D03*
X96770000Y-120940000D03*
X73490000Y-88930000D03*
X102500000Y-95400000D03*
X93990000Y-100230000D03*
X96900000Y-100460000D03*
X102960000Y-115800000D03*
X82900000Y-117280000D03*
X86480000Y-95650000D03*
X86860000Y-91090000D03*
X97800000Y-94350000D03*
X112870000Y-115590000D03*
X107510000Y-102710000D03*
X114540000Y-118730000D03*
X108370000Y-94300000D03*
X72430000Y-102610000D03*
X120270000Y-97570000D03*
X115440000Y-102180000D03*
X77700000Y-102130000D03*
X105660000Y-105080000D03*
X107810000Y-101090000D03*
X121930000Y-106690000D03*
X94890000Y-111450000D03*
X92210000Y-125880000D03*
X93820000Y-91020000D03*
X121990000Y-96470000D03*
X95220000Y-92870000D03*
X79960000Y-91020000D03*
X74930000Y-104380000D03*
X114200000Y-121670000D03*
X110340000Y-124080000D03*
X98360000Y-113120000D03*
X91770000Y-123120000D03*
X71880000Y-93990000D03*
X122620000Y-116950000D03*
X91310000Y-90170000D03*
X71080000Y-100530000D03*
X83930000Y-91510000D03*
X116640000Y-111620000D03*
X114070000Y-124150000D03*
X84340000Y-121690000D03*
X103380000Y-98860000D03*
X85970000Y-100470000D03*
X123650000Y-107920000D03*
X123820000Y-114810000D03*
X127140000Y-90680000D03*
X105010000Y-119020000D03*
X91270000Y-95350000D03*
X99750000Y-88930000D03*
X119920000Y-102640000D03*
X118960000Y-116320000D03*
X86100000Y-103610000D03*
X116690000Y-91680000D03*
X112710000Y-89040000D03*
X89790000Y-115890000D03*
X100850000Y-91550000D03*
X96060000Y-122500000D03*
X90980000Y-116910000D03*
X120970000Y-119190000D03*
X82900000Y-115420000D03*
X81430000Y-89020000D03*
X73320000Y-99870000D03*
X123080000Y-105650000D03*
X97220000Y-108120000D03*
X94790000Y-121160000D03*
X98890000Y-108840000D03*
X95340000Y-102030000D03*
X117700000Y-98680000D03*
X108610000Y-119860000D03*
X88360000Y-118410000D03*
X99480000Y-114580000D03*
X103090000Y-112420000D03*
X97300000Y-110570000D03*
X100770000Y-120910000D03*
X82500000Y-110060000D03*
X95070000Y-108310000D03*
X92310000Y-114630000D03*
X82370000Y-104840000D03*
X93540000Y-113820000D03*
X99630000Y-120940000D03*
X100140000Y-122390000D03*
X99380000Y-125740000D03*
X94700000Y-120010000D03*
X93820000Y-123390000D03*
X95790000Y-120050000D03*
X98090000Y-125760000D03*
X99610000Y-120060000D03*
X102100000Y-120830000D03*
X102990000Y-117240000D03*
X80740000Y-103970000D03*
X95240000Y-117150000D03*
X116645000Y-108335000D03*
X108430000Y-114230000D03*
X107690000Y-114230000D03*
X107280000Y-113530000D03*
X95420000Y-116180000D03*
X108820000Y-113500000D03*
X103280000Y-106360000D03*
X94160000Y-117400000D03*
X76080000Y-100700000D03*
X78670000Y-106535000D03*
X76080000Y-102730000D03*
X102650000Y-119440000D03*
X125330000Y-100510000D03*
X118180000Y-96690000D03*
X120960000Y-96490000D03*
X125340000Y-98990000D03*
X97030000Y-115400000D03*
X99620000Y-113510000D03*
X87910000Y-117560000D03*
X88810000Y-117570000D03*
X88800000Y-116870000D03*
X87920000Y-116860000D03*
X92790000Y-105430000D03*
X92550000Y-107210000D03*
X103100000Y-118980000D03*
X77990000Y-107060000D03*
D17*
X95100000Y-108310000D02*
X95070000Y-108310000D01*
X96235000Y-109445000D02*
X95100000Y-108310000D01*
X96235000Y-112665000D02*
X96235000Y-109445000D01*
X92310000Y-118130000D02*
X90910000Y-119530000D01*
X90910000Y-119530000D02*
X86290000Y-119530000D01*
X82370000Y-104840000D02*
X82370000Y-113120000D01*
X84140000Y-114890000D02*
X84140000Y-117380000D01*
X95080000Y-113820000D02*
X96235000Y-112665000D01*
X86290000Y-119530000D02*
X84140000Y-117380000D01*
X92310000Y-114630000D02*
X92310000Y-113820000D01*
X82370000Y-113120000D02*
X84140000Y-114890000D01*
X92310000Y-114630000D02*
X92310000Y-118130000D01*
X92310000Y-113820000D02*
X95080000Y-113820000D01*
D18*
X79950000Y-104760000D02*
X79950000Y-113470000D01*
X91700000Y-121260000D02*
X94430000Y-118530000D01*
X85230000Y-121260000D02*
X91700000Y-121260000D01*
X101700000Y-118530000D02*
X102990000Y-117240000D01*
X94430000Y-118530000D02*
X101700000Y-118530000D01*
X80740000Y-103970000D02*
X79950000Y-104760000D01*
X81930000Y-117960000D02*
X85230000Y-121260000D01*
X81930000Y-115450000D02*
X81930000Y-117960000D01*
X79950000Y-113470000D02*
X81930000Y-115450000D01*
D17*
X98690000Y-116910000D02*
X95480000Y-116910000D01*
D18*
X106330000Y-114170000D02*
X106330000Y-111450000D01*
X109445000Y-108335000D02*
X116645000Y-108335000D01*
D17*
X105310000Y-114000000D02*
X101600000Y-114000000D01*
D18*
X106330000Y-111450000D02*
X103280000Y-108400000D01*
D17*
X101600000Y-114000000D02*
X98690000Y-116910000D01*
D18*
X103280000Y-108400000D02*
X103280000Y-106360000D01*
X106330000Y-111450000D02*
X109445000Y-108335000D01*
D17*
X88360000Y-113850000D02*
X88360000Y-115770000D01*
X92790000Y-105430000D02*
X92790000Y-109420000D01*
X92790000Y-109420000D02*
X88360000Y-113850000D01*
G04 #@! TA.AperFunction,Conductor*
G36*
X88958314Y-115287852D02*
G01*
X88994321Y-115337321D01*
X88999193Y-115367909D01*
X89000000Y-116299989D01*
X89000001Y-116300015D01*
X89029638Y-116645776D01*
X89030000Y-116654231D01*
X89030000Y-117691000D01*
X89011093Y-117749191D01*
X88961593Y-117785155D01*
X88931000Y-117790000D01*
X87799000Y-117790000D01*
X87740809Y-117771093D01*
X87704845Y-117721593D01*
X87700000Y-117691000D01*
X87700000Y-116655479D01*
X87700606Y-116644546D01*
X87739998Y-116290017D01*
X87740000Y-116290000D01*
X87740000Y-115368914D01*
X87758907Y-115310723D01*
X87808407Y-115274759D01*
X87838911Y-115269914D01*
X88900109Y-115268995D01*
X88958314Y-115287852D01*
G37*
G04 #@! TD.AperFunction*
G04 #@! TA.AperFunction,Conductor*
G36*
X109194148Y-113106125D02*
G01*
X109208582Y-113107567D01*
X109263573Y-113118588D01*
X109290247Y-113129688D01*
X109330639Y-113156780D01*
X109351035Y-113177255D01*
X109377970Y-113217753D01*
X109388967Y-113244473D01*
X109399773Y-113299494D01*
X109401160Y-113313947D01*
X109400253Y-113662795D01*
X109398584Y-113678231D01*
X109385942Y-113736742D01*
X109373269Y-113764897D01*
X109337850Y-113813158D01*
X109327402Y-113824641D01*
X108001809Y-115004964D01*
X107991017Y-115012944D01*
X107946640Y-115039900D01*
X107921662Y-115049423D01*
X107870609Y-115058852D01*
X107857244Y-115060083D01*
X104628497Y-115063377D01*
X104614060Y-115061970D01*
X104559098Y-115051096D01*
X104532411Y-115040074D01*
X104491977Y-115013117D01*
X104471539Y-114992721D01*
X104444498Y-114952340D01*
X104433422Y-114925676D01*
X104422436Y-114870738D01*
X104420999Y-114856308D01*
X104420768Y-114629941D01*
X104420768Y-114629889D01*
X104420768Y-114629837D01*
X104420104Y-113307645D01*
X104421521Y-113293205D01*
X104432449Y-113238183D01*
X104443509Y-113211479D01*
X104466385Y-113177255D01*
X104470545Y-113171030D01*
X104490990Y-113150601D01*
X104531462Y-113123595D01*
X104558173Y-113112557D01*
X104613199Y-113101672D01*
X104627647Y-113100266D01*
X109194148Y-113106125D01*
G37*
G04 #@! TD.AperFunction*
G04 #@! TA.AperFunction,Conductor*
G36*
X95737312Y-115672106D02*
G01*
X95792276Y-115682830D01*
X95818978Y-115693772D01*
X95859472Y-115720604D01*
X95879957Y-115740928D01*
X95907106Y-115781204D01*
X95918261Y-115807820D01*
X95929420Y-115862698D01*
X95930903Y-115877121D01*
X95933537Y-116480000D01*
X95939056Y-117743806D01*
X95937697Y-117758250D01*
X95927006Y-117813246D01*
X95916074Y-117839967D01*
X95889251Y-117880494D01*
X95868922Y-117901001D01*
X95828632Y-117928176D01*
X95802007Y-117939341D01*
X95747106Y-117950511D01*
X95732675Y-117951996D01*
X94942161Y-117955449D01*
X94030641Y-117959428D01*
X94010805Y-117956810D01*
X93946900Y-117939341D01*
X93937025Y-117936641D01*
X93902979Y-117916322D01*
X93850201Y-117860961D01*
X93838480Y-117844748D01*
X93136380Y-116529422D01*
X93132529Y-116520967D01*
X93119640Y-116487196D01*
X93115250Y-116469169D01*
X93111168Y-116433264D01*
X93110700Y-116423980D01*
X93117419Y-115886439D01*
X93120124Y-115867517D01*
X93139776Y-115796955D01*
X93158969Y-115764255D01*
X93203903Y-115719721D01*
X93236774Y-115700821D01*
X93307507Y-115681802D01*
X93326447Y-115679265D01*
X95031961Y-115673195D01*
X95722887Y-115670736D01*
X95737312Y-115672106D01*
G37*
G04 #@! TD.AperFunction*
G04 #@! TA.AperFunction,Conductor*
G36*
X92752109Y-104459987D02*
G01*
X93113359Y-104460108D01*
X93127783Y-104461534D01*
X93182739Y-104472484D01*
X93209407Y-104483542D01*
X93249806Y-104510555D01*
X93270216Y-104530978D01*
X93297201Y-104571393D01*
X93308242Y-104598073D01*
X93319154Y-104653029D01*
X93320571Y-104667466D01*
X93320069Y-106172779D01*
X93318643Y-106187211D01*
X93307699Y-106242150D01*
X93296645Y-106268816D01*
X93276865Y-106298407D01*
X93269643Y-106309211D01*
X93249227Y-106329619D01*
X93208825Y-106356607D01*
X93182156Y-106367652D01*
X93127212Y-106378579D01*
X93112778Y-106380000D01*
X92457288Y-106380000D01*
X92442851Y-106378578D01*
X92387899Y-106367647D01*
X92361224Y-106356598D01*
X92320815Y-106329597D01*
X92300402Y-106309184D01*
X92273400Y-106268773D01*
X92262352Y-106242099D01*
X92251422Y-106187147D01*
X92250000Y-106172711D01*
X92250000Y-104667178D01*
X92251422Y-104652739D01*
X92262357Y-104597775D01*
X92273411Y-104571095D01*
X92300223Y-104530978D01*
X92300421Y-104530681D01*
X92320841Y-104510267D01*
X92361272Y-104483265D01*
X92387948Y-104472224D01*
X92442918Y-104461306D01*
X92457350Y-104459889D01*
X92752109Y-104459987D01*
G37*
G04 #@! TD.AperFunction*
G04 #@! TA.AperFunction,Conductor*
G36*
X127227749Y-88232971D02*
G01*
X127245547Y-88240334D01*
X127285553Y-88280223D01*
X127610033Y-89058060D01*
X127610542Y-89059311D01*
X127611042Y-89060574D01*
X127611512Y-89061795D01*
X127985243Y-90056868D01*
X127985702Y-90058124D01*
X127986159Y-90059411D01*
X127986590Y-90060660D01*
X128324355Y-91068573D01*
X128324767Y-91069840D01*
X128325161Y-91071090D01*
X128325548Y-91072358D01*
X128626879Y-92091710D01*
X128627236Y-92092959D01*
X128627610Y-92094311D01*
X128627952Y-92095591D01*
X128664634Y-92238356D01*
X128892486Y-93125160D01*
X128892809Y-93126468D01*
X128893116Y-93127760D01*
X128893408Y-93129038D01*
X129120778Y-94167399D01*
X129121052Y-94168705D01*
X129121324Y-94170064D01*
X129121572Y-94171365D01*
X129311495Y-95217209D01*
X129311720Y-95218510D01*
X129311941Y-95219864D01*
X129312144Y-95221187D01*
X129464384Y-96273218D01*
X129464551Y-96274451D01*
X129464721Y-96275786D01*
X129464875Y-96277098D01*
X129579237Y-97334021D01*
X129579371Y-97335384D01*
X129579488Y-97336691D01*
X129579592Y-97337976D01*
X129655908Y-98398214D01*
X129655992Y-98399546D01*
X129656065Y-98400901D01*
X129656124Y-98402224D01*
X129694306Y-99464492D01*
X129694341Y-99465780D01*
X129694366Y-99467130D01*
X129694379Y-99468500D01*
X129694379Y-100531498D01*
X129694366Y-100532868D01*
X129694341Y-100534218D01*
X129694306Y-100535506D01*
X129656124Y-101597774D01*
X129656065Y-101599097D01*
X129655992Y-101600452D01*
X129655908Y-101601784D01*
X129579592Y-102662022D01*
X129579488Y-102663307D01*
X129579371Y-102664614D01*
X129579237Y-102665977D01*
X129464875Y-103722900D01*
X129464724Y-103724181D01*
X129464563Y-103725459D01*
X129464384Y-103726780D01*
X129312144Y-104778811D01*
X129311941Y-104780134D01*
X129311720Y-104781488D01*
X129311495Y-104782789D01*
X129121572Y-105828633D01*
X129121324Y-105829934D01*
X129121052Y-105831293D01*
X129120778Y-105832599D01*
X128893408Y-106870960D01*
X128893116Y-106872238D01*
X128892809Y-106873530D01*
X128892486Y-106874838D01*
X128627961Y-107904373D01*
X128627610Y-107905687D01*
X128627236Y-107907039D01*
X128626879Y-107908288D01*
X128325548Y-108927640D01*
X128325161Y-108928908D01*
X128324767Y-108930158D01*
X128324355Y-108931425D01*
X127986590Y-109939338D01*
X127986159Y-109940587D01*
X127985702Y-109941874D01*
X127985243Y-109943130D01*
X127611512Y-110938203D01*
X127611042Y-110939424D01*
X127610542Y-110940687D01*
X127610033Y-110941938D01*
X127200766Y-111923027D01*
X127200241Y-111924254D01*
X127199717Y-111925449D01*
X127199174Y-111926657D01*
X126754961Y-112892344D01*
X126754396Y-112893544D01*
X126753797Y-112894787D01*
X126753208Y-112895982D01*
X126274576Y-113845124D01*
X126273959Y-113846320D01*
X126273370Y-113847437D01*
X126272748Y-113848593D01*
X125760299Y-114779991D01*
X125759633Y-114781174D01*
X125758957Y-114782351D01*
X125758299Y-114783473D01*
X125212776Y-115695776D01*
X125212079Y-115696920D01*
X125211369Y-115698060D01*
X125210661Y-115699173D01*
X124632713Y-116591303D01*
X124632004Y-116592378D01*
X124631274Y-116593463D01*
X124630498Y-116594593D01*
X124020857Y-117465415D01*
X124020078Y-117466507D01*
X124019264Y-117467626D01*
X124018479Y-117468684D01*
X123378017Y-118316959D01*
X123377225Y-118317990D01*
X123376388Y-118319059D01*
X123375541Y-118320121D01*
X122704919Y-119144971D01*
X122704097Y-119145962D01*
X122703271Y-119146943D01*
X122703232Y-119146989D01*
X122702392Y-119147966D01*
X122002624Y-119948136D01*
X122001746Y-119949122D01*
X122000825Y-119950138D01*
X121999917Y-119951122D01*
X121271833Y-120725666D01*
X121270928Y-120726611D01*
X121270070Y-120727492D01*
X121269120Y-120728451D01*
X120513650Y-121476377D01*
X120512674Y-121477325D01*
X120511712Y-121478243D01*
X120510765Y-121479131D01*
X119728967Y-122199391D01*
X119728034Y-122200236D01*
X119727487Y-122200722D01*
X119727054Y-122201107D01*
X119726041Y-122201993D01*
X118918833Y-122893742D01*
X118917778Y-122894629D01*
X118916737Y-122895488D01*
X118915742Y-122896294D01*
X118084331Y-123558505D01*
X118083258Y-123559344D01*
X118082130Y-123560209D01*
X118081094Y-123560989D01*
X117226424Y-124192913D01*
X117225345Y-124193696D01*
X117224224Y-124194494D01*
X117223138Y-124195253D01*
X116346240Y-124796124D01*
X116345160Y-124796850D01*
X116344061Y-124797575D01*
X116342921Y-124798312D01*
X115445016Y-125367290D01*
X115443864Y-125368005D01*
X115442705Y-125368710D01*
X115441586Y-125369377D01*
X114523852Y-125905718D01*
X114522698Y-125906379D01*
X114521542Y-125907027D01*
X114520377Y-125907666D01*
X113583982Y-126410690D01*
X113582772Y-126411326D01*
X113581524Y-126411967D01*
X113580370Y-126412547D01*
X112626523Y-126881604D01*
X112625336Y-126882175D01*
X112624076Y-126882767D01*
X112622857Y-126883326D01*
X111652766Y-127317823D01*
X111651525Y-127318365D01*
X111650253Y-127318907D01*
X111649048Y-127319408D01*
X110731530Y-127691391D01*
X110717895Y-127695444D01*
X110704120Y-127698131D01*
X110689952Y-127699500D01*
X89309719Y-127699500D01*
X89295552Y-127698131D01*
X89281776Y-127695444D01*
X89268140Y-127691391D01*
X88350621Y-127319408D01*
X88349416Y-127318907D01*
X88348144Y-127318365D01*
X88346903Y-127317823D01*
X87376812Y-126883326D01*
X87375593Y-126882767D01*
X87374333Y-126882175D01*
X87373146Y-126881604D01*
X86419299Y-126412547D01*
X86418145Y-126411967D01*
X86416897Y-126411326D01*
X86415687Y-126410690D01*
X86126546Y-126255366D01*
X85564025Y-125953184D01*
X85479292Y-125907666D01*
X85478127Y-125907027D01*
X85476946Y-125906364D01*
X85475817Y-125905718D01*
X84666409Y-125432685D01*
X84558439Y-125369585D01*
X84558067Y-125369367D01*
X84556963Y-125368710D01*
X84556101Y-125368185D01*
X84555762Y-125367979D01*
X84554636Y-125367279D01*
X84022916Y-125030342D01*
X83930010Y-124971470D01*
X94364200Y-124971470D01*
X94364200Y-125108528D01*
X94390936Y-125242948D01*
X94390939Y-125242959D01*
X94390940Y-125242964D01*
X94423527Y-125321634D01*
X94443387Y-125369580D01*
X94443389Y-125369583D01*
X94443390Y-125369585D01*
X94519537Y-125483547D01*
X94616453Y-125580463D01*
X94730415Y-125656610D01*
X94730420Y-125656612D01*
X94730419Y-125656612D01*
X94733577Y-125657920D01*
X94733580Y-125657922D01*
X94780629Y-125677409D01*
X94820936Y-125694105D01*
X94857043Y-125709061D01*
X94991470Y-125735800D01*
X94991471Y-125735800D01*
X95128529Y-125735800D01*
X95128530Y-125735800D01*
X95262957Y-125709061D01*
X95299064Y-125694105D01*
X97589500Y-125694105D01*
X97589500Y-125825894D01*
X97623606Y-125953181D01*
X97623607Y-125953184D01*
X97623608Y-125953186D01*
X97689500Y-126067314D01*
X97782686Y-126160500D01*
X97896814Y-126226392D01*
X98019424Y-126259244D01*
X98023122Y-126260500D01*
X98155894Y-126260500D01*
X98166157Y-126260500D01*
X98175045Y-126255367D01*
X98283186Y-126226392D01*
X98397314Y-126160500D01*
X98490500Y-126067314D01*
X98556392Y-125953186D01*
X98585367Y-125845045D01*
X98590500Y-125836156D01*
X98590500Y-125694105D01*
X98588973Y-125688407D01*
X98588972Y-125688403D01*
X98585141Y-125674105D01*
X98879500Y-125674105D01*
X98879500Y-125805894D01*
X98913606Y-125933181D01*
X98913607Y-125933184D01*
X98913608Y-125933186D01*
X98979500Y-126047314D01*
X99072686Y-126140500D01*
X99186814Y-126206392D01*
X99309424Y-126239244D01*
X99313122Y-126240500D01*
X99445894Y-126240500D01*
X99456157Y-126240500D01*
X99465045Y-126235367D01*
X99573186Y-126206392D01*
X99687314Y-126140500D01*
X99780500Y-126047314D01*
X99846392Y-125933186D01*
X99875367Y-125825045D01*
X99880500Y-125816156D01*
X99880500Y-125673121D01*
X99879244Y-125669424D01*
X99846542Y-125547377D01*
X99846405Y-125546847D01*
X99846393Y-125546816D01*
X99846389Y-125546809D01*
X99780500Y-125432686D01*
X99687314Y-125339500D01*
X99687311Y-125339498D01*
X99687310Y-125339497D01*
X99573202Y-125273616D01*
X99573193Y-125273611D01*
X99573190Y-125273610D01*
X99573183Y-125273607D01*
X99573184Y-125273607D01*
X99573182Y-125273606D01*
X99573181Y-125273606D01*
X99445894Y-125239500D01*
X99445893Y-125239500D01*
X99314107Y-125239500D01*
X99314106Y-125239500D01*
X99213707Y-125266401D01*
X99186814Y-125273607D01*
X99186796Y-125273616D01*
X99072688Y-125339497D01*
X98979497Y-125432688D01*
X98913616Y-125546796D01*
X98913608Y-125546814D01*
X98913606Y-125546818D01*
X98879500Y-125674105D01*
X98585141Y-125674105D01*
X98580453Y-125656610D01*
X98556534Y-125567346D01*
X98556404Y-125566845D01*
X98556393Y-125566816D01*
X98556389Y-125566809D01*
X98490500Y-125452686D01*
X98397314Y-125359500D01*
X98362673Y-125339500D01*
X98283190Y-125293610D01*
X98283183Y-125293607D01*
X98283184Y-125293607D01*
X98283182Y-125293606D01*
X98283181Y-125293606D01*
X98155894Y-125259500D01*
X98155893Y-125259500D01*
X98024107Y-125259500D01*
X98024106Y-125259500D01*
X97923707Y-125286401D01*
X97896814Y-125293607D01*
X97896796Y-125293616D01*
X97782688Y-125359497D01*
X97689497Y-125452688D01*
X97623616Y-125566796D01*
X97623608Y-125566814D01*
X97623606Y-125566818D01*
X97589500Y-125694105D01*
X95299064Y-125694105D01*
X95389585Y-125656610D01*
X95503547Y-125580463D01*
X95600463Y-125483547D01*
X95676610Y-125369585D01*
X95729061Y-125242957D01*
X95755800Y-125108530D01*
X95755800Y-124971470D01*
X95729061Y-124837043D01*
X95729059Y-124837038D01*
X95676612Y-124710419D01*
X95676611Y-124710417D01*
X95676610Y-124710415D01*
X95600463Y-124596453D01*
X95503547Y-124499537D01*
X95430691Y-124450856D01*
X95421045Y-124436420D01*
X95262964Y-124370940D01*
X95262959Y-124370939D01*
X95262948Y-124370936D01*
X95161680Y-124350793D01*
X95128534Y-124344200D01*
X95128530Y-124344200D01*
X94991470Y-124344200D01*
X94991468Y-124344200D01*
X94973741Y-124347726D01*
X94964877Y-124349489D01*
X94857050Y-124370936D01*
X94857039Y-124370939D01*
X94857034Y-124370940D01*
X94730418Y-124423387D01*
X94616183Y-124499716D01*
X94614807Y-124501182D01*
X94521182Y-124594807D01*
X94519716Y-124596183D01*
X94443388Y-124710417D01*
X94390940Y-124837034D01*
X94390939Y-124837039D01*
X94390936Y-124837050D01*
X94364200Y-124971470D01*
X83930010Y-124971470D01*
X83656726Y-124798297D01*
X83655609Y-124797575D01*
X83654544Y-124796873D01*
X83653442Y-124796132D01*
X83543503Y-124720800D01*
X83543502Y-124720800D01*
X82776515Y-124195242D01*
X82775418Y-124194476D01*
X82774355Y-124193719D01*
X82773287Y-124192943D01*
X82638831Y-124093530D01*
X82453459Y-123956470D01*
X101984200Y-123956470D01*
X101984200Y-124093528D01*
X102010936Y-124227948D01*
X102010939Y-124227959D01*
X102010940Y-124227964D01*
X102043527Y-124306634D01*
X102063387Y-124354580D01*
X102063389Y-124354583D01*
X102063390Y-124354585D01*
X102139537Y-124468547D01*
X102236453Y-124565463D01*
X102350415Y-124641610D01*
X102350420Y-124641612D01*
X102350419Y-124641612D01*
X102477038Y-124694059D01*
X102477043Y-124694061D01*
X102611470Y-124720800D01*
X102611471Y-124720800D01*
X102748529Y-124720800D01*
X102748530Y-124720800D01*
X102882957Y-124694061D01*
X103009585Y-124641610D01*
X103123547Y-124565463D01*
X103220463Y-124468547D01*
X103296610Y-124354585D01*
X103349061Y-124227957D01*
X103375800Y-124093530D01*
X103375800Y-123956470D01*
X103349061Y-123822043D01*
X103349059Y-123822038D01*
X103296612Y-123695419D01*
X103296611Y-123695417D01*
X103296610Y-123695415D01*
X103220463Y-123581453D01*
X103123547Y-123484537D01*
X103050691Y-123435856D01*
X103041045Y-123421420D01*
X102882964Y-123355940D01*
X102882959Y-123355939D01*
X102882948Y-123355936D01*
X102781680Y-123335793D01*
X102748534Y-123329200D01*
X102748530Y-123329200D01*
X102611470Y-123329200D01*
X102611468Y-123329200D01*
X102593741Y-123332726D01*
X102584877Y-123334489D01*
X102477050Y-123355936D01*
X102477039Y-123355939D01*
X102477034Y-123355940D01*
X102350418Y-123408387D01*
X102236183Y-123484716D01*
X102234807Y-123486182D01*
X102141182Y-123579807D01*
X102139716Y-123581183D01*
X102063388Y-123695417D01*
X102010940Y-123822034D01*
X102010939Y-123822039D01*
X102010936Y-123822050D01*
X101984200Y-123956470D01*
X82453459Y-123956470D01*
X81918535Y-123560959D01*
X81917504Y-123560183D01*
X81917206Y-123559955D01*
X81916402Y-123559337D01*
X81915434Y-123558581D01*
X81905241Y-123550463D01*
X81905239Y-123550461D01*
X81687630Y-123377138D01*
X81662660Y-123357250D01*
X81621046Y-123324105D01*
X93319500Y-123324105D01*
X93319500Y-123455894D01*
X93353606Y-123583181D01*
X93353607Y-123583184D01*
X93353608Y-123583186D01*
X93419500Y-123697314D01*
X93512686Y-123790500D01*
X93626814Y-123856392D01*
X93749424Y-123889244D01*
X93753122Y-123890500D01*
X93885894Y-123890500D01*
X93896161Y-123890500D01*
X93905053Y-123885365D01*
X93909676Y-123884127D01*
X93920015Y-123881358D01*
X93920017Y-123881357D01*
X93930219Y-123878622D01*
X93971034Y-123867686D01*
X94013186Y-123856392D01*
X94127314Y-123790500D01*
X94220500Y-123697314D01*
X94286392Y-123583186D01*
X94320499Y-123455894D01*
X94320500Y-123455894D01*
X94320500Y-123410795D01*
X94320838Y-123407269D01*
X94322542Y-123404060D01*
X94326131Y-123386015D01*
X94329181Y-123378651D01*
X94343805Y-123364027D01*
X94347405Y-123357250D01*
X94351984Y-123355847D01*
X94369228Y-123338604D01*
X94425853Y-123338598D01*
X94428439Y-123339669D01*
X94461659Y-123366927D01*
X94489362Y-123408388D01*
X94519537Y-123453547D01*
X94616453Y-123550463D01*
X94730415Y-123626610D01*
X94730420Y-123626612D01*
X94730419Y-123626612D01*
X94857038Y-123679059D01*
X94857043Y-123679061D01*
X94991470Y-123705800D01*
X94991471Y-123705800D01*
X95128529Y-123705800D01*
X95128530Y-123705800D01*
X95262957Y-123679061D01*
X95389585Y-123626610D01*
X95503547Y-123550463D01*
X95600463Y-123453547D01*
X95676610Y-123339585D01*
X95729061Y-123212957D01*
X95755800Y-123078530D01*
X95755800Y-122941470D01*
X95729061Y-122807043D01*
X95676610Y-122680415D01*
X95600463Y-122566453D01*
X95503547Y-122469537D01*
X95483124Y-122455891D01*
X95463944Y-122443075D01*
X95389585Y-122393390D01*
X95389582Y-122393388D01*
X95389581Y-122393388D01*
X95388960Y-122392974D01*
X95386207Y-122391990D01*
X95382406Y-122390416D01*
X95382399Y-122390413D01*
X95375661Y-122387622D01*
X95262964Y-122340940D01*
X95262959Y-122340939D01*
X95262948Y-122340936D01*
X95178331Y-122324105D01*
X99639500Y-122324105D01*
X99639500Y-122455894D01*
X99673606Y-122583181D01*
X99673607Y-122583184D01*
X99673608Y-122583186D01*
X99739500Y-122697314D01*
X99832686Y-122790500D01*
X99946814Y-122856392D01*
X100069424Y-122889244D01*
X100073122Y-122890500D01*
X100205894Y-122890500D01*
X100216157Y-122890500D01*
X100225045Y-122885367D01*
X100333186Y-122856392D01*
X100447314Y-122790500D01*
X100540500Y-122697314D01*
X100606392Y-122583186D01*
X100635367Y-122475045D01*
X100640500Y-122466156D01*
X100640500Y-122323121D01*
X100639244Y-122319424D01*
X100606542Y-122197377D01*
X100606405Y-122196847D01*
X100606393Y-122196816D01*
X100606389Y-122196809D01*
X100540500Y-122082686D01*
X100447314Y-121989500D01*
X100447311Y-121989498D01*
X100447310Y-121989497D01*
X100333202Y-121923616D01*
X100333193Y-121923611D01*
X100333190Y-121923610D01*
X100333183Y-121923607D01*
X100333184Y-121923607D01*
X100333182Y-121923606D01*
X100333181Y-121923606D01*
X100205894Y-121889500D01*
X100205893Y-121889500D01*
X100074107Y-121889500D01*
X100074106Y-121889500D01*
X99973707Y-121916401D01*
X99946814Y-121923607D01*
X99946796Y-121923616D01*
X99832688Y-121989497D01*
X99739497Y-122082688D01*
X99673616Y-122196796D01*
X99673608Y-122196814D01*
X99673606Y-122196818D01*
X99639500Y-122324105D01*
X95178331Y-122324105D01*
X95161680Y-122320793D01*
X95128534Y-122314200D01*
X95128530Y-122314200D01*
X94991470Y-122314200D01*
X94991468Y-122314200D01*
X94973741Y-122317726D01*
X94964877Y-122319489D01*
X94857050Y-122340936D01*
X94857039Y-122340939D01*
X94857034Y-122340940D01*
X94730418Y-122393387D01*
X94616183Y-122469716D01*
X94614807Y-122471182D01*
X94521182Y-122564807D01*
X94519716Y-122566183D01*
X94443387Y-122680418D01*
X94390940Y-122807034D01*
X94390939Y-122807039D01*
X94390936Y-122807050D01*
X94364200Y-122941470D01*
X94364200Y-123040690D01*
X94358564Y-123069015D01*
X94355515Y-123076374D01*
X94315463Y-123116419D01*
X94258834Y-123116417D01*
X94257255Y-123115763D01*
X94223701Y-123086338D01*
X94223451Y-123086531D01*
X94222482Y-123085269D01*
X94221487Y-123084396D01*
X94220499Y-123082685D01*
X94178504Y-123040690D01*
X94127314Y-122989500D01*
X94127311Y-122989498D01*
X94127310Y-122989497D01*
X94013202Y-122923616D01*
X94013193Y-122923611D01*
X94013190Y-122923610D01*
X94013183Y-122923607D01*
X94013184Y-122923607D01*
X94013182Y-122923606D01*
X94013181Y-122923606D01*
X93885894Y-122889500D01*
X93885893Y-122889500D01*
X93754107Y-122889500D01*
X93754106Y-122889500D01*
X93653707Y-122916401D01*
X93626814Y-122923607D01*
X93626796Y-122923616D01*
X93512688Y-122989497D01*
X93419497Y-123082688D01*
X93353616Y-123196796D01*
X93353610Y-123196809D01*
X93353606Y-123196818D01*
X93319500Y-123324105D01*
X81621046Y-123324105D01*
X81449189Y-123187222D01*
X81083927Y-122896294D01*
X81082932Y-122895488D01*
X81082775Y-122895358D01*
X81081850Y-122894594D01*
X81080874Y-122893774D01*
X80273580Y-122201951D01*
X80272673Y-122201159D01*
X80271631Y-122200233D01*
X80270702Y-122199391D01*
X79488904Y-121479131D01*
X79487957Y-121478243D01*
X79486995Y-121477325D01*
X79486019Y-121476377D01*
X79449779Y-121440499D01*
X78730531Y-120728433D01*
X78729636Y-120727529D01*
X78728724Y-120726593D01*
X78727836Y-120725666D01*
X78612232Y-120602685D01*
X77999741Y-119951111D01*
X77998854Y-119950149D01*
X77997929Y-119949129D01*
X77997080Y-119948176D01*
X77990367Y-119940500D01*
X77990365Y-119940497D01*
X77319333Y-119173186D01*
X77297251Y-119147936D01*
X77296438Y-119146989D01*
X77295569Y-119145959D01*
X77294767Y-119144991D01*
X77242334Y-119080500D01*
X76624110Y-118320099D01*
X76623281Y-118319059D01*
X76622444Y-118317990D01*
X76621652Y-118316959D01*
X76576239Y-118256811D01*
X75981159Y-117468642D01*
X75980433Y-117467663D01*
X75979563Y-117466468D01*
X75978841Y-117465456D01*
X75810504Y-117225000D01*
X75672247Y-117027511D01*
X75369168Y-116594587D01*
X75368422Y-116593501D01*
X75367705Y-116592437D01*
X75366966Y-116591318D01*
X75348420Y-116562690D01*
X75348415Y-116562684D01*
X75163444Y-116277160D01*
X74788991Y-115699147D01*
X74788302Y-115698062D01*
X74787577Y-115696898D01*
X74786944Y-115695862D01*
X74377719Y-115011496D01*
X74241370Y-114783473D01*
X74240726Y-114782376D01*
X74240029Y-114781163D01*
X74239356Y-114779966D01*
X74237727Y-114777006D01*
X74233728Y-114769737D01*
X74233727Y-114769735D01*
X74233727Y-114769736D01*
X74233726Y-114769735D01*
X73816001Y-114010500D01*
X73726921Y-113848593D01*
X73726299Y-113847437D01*
X73725673Y-113846249D01*
X73725117Y-113845172D01*
X73550638Y-113499174D01*
X73246421Y-112895901D01*
X73245848Y-112894738D01*
X73245275Y-112893548D01*
X73244720Y-112892369D01*
X73241969Y-112886389D01*
X72800465Y-111926591D01*
X72799928Y-111925395D01*
X72799413Y-111924218D01*
X72798911Y-111923044D01*
X72629923Y-111517950D01*
X72516674Y-111246470D01*
X74174200Y-111246470D01*
X74174200Y-111383528D01*
X74200936Y-111517948D01*
X74200939Y-111517959D01*
X74200940Y-111517964D01*
X74233527Y-111596634D01*
X74253387Y-111644580D01*
X74253389Y-111644583D01*
X74253390Y-111644585D01*
X74329537Y-111758547D01*
X74426453Y-111855463D01*
X74540415Y-111931610D01*
X74540420Y-111931612D01*
X74540419Y-111931612D01*
X74543573Y-111932918D01*
X74543574Y-111932919D01*
X74667009Y-111984047D01*
X74667038Y-111984059D01*
X74667043Y-111984061D01*
X74801470Y-112010800D01*
X74801471Y-112010800D01*
X74938529Y-112010800D01*
X74938530Y-112010800D01*
X75072957Y-111984061D01*
X75199585Y-111931610D01*
X75313547Y-111855463D01*
X75410463Y-111758547D01*
X75486610Y-111644585D01*
X75539061Y-111517957D01*
X75565800Y-111383530D01*
X75565800Y-111246470D01*
X75539061Y-111112043D01*
X75521853Y-111070499D01*
X75511141Y-111044637D01*
X75486617Y-110985430D01*
X75486614Y-110985424D01*
X75486612Y-110985419D01*
X75486611Y-110985417D01*
X75486610Y-110985415D01*
X75410463Y-110871453D01*
X75313547Y-110774537D01*
X75240691Y-110725856D01*
X75231045Y-110711420D01*
X75072964Y-110645940D01*
X75072959Y-110645939D01*
X75072948Y-110645936D01*
X74971680Y-110625793D01*
X74938534Y-110619200D01*
X74938530Y-110619200D01*
X74801470Y-110619200D01*
X74801468Y-110619200D01*
X74783741Y-110622726D01*
X74774877Y-110624489D01*
X74667050Y-110645936D01*
X74667039Y-110645939D01*
X74667034Y-110645940D01*
X74540418Y-110698387D01*
X74426183Y-110774716D01*
X74424807Y-110776182D01*
X74331182Y-110869807D01*
X74329716Y-110871183D01*
X74253388Y-110985417D01*
X74253387Y-110985419D01*
X74248466Y-110997298D01*
X74200940Y-111112034D01*
X74200939Y-111112039D01*
X74200936Y-111112050D01*
X74174200Y-111246470D01*
X72516674Y-111246470D01*
X72401079Y-110969368D01*
X72389634Y-110941932D01*
X72389128Y-110940687D01*
X72388633Y-110939437D01*
X72388160Y-110938211D01*
X72363086Y-110871452D01*
X72363086Y-110871451D01*
X72177310Y-110376814D01*
X72052849Y-110045431D01*
X72014386Y-109943023D01*
X72013967Y-109941874D01*
X72013510Y-109940587D01*
X72013096Y-109939389D01*
X71675299Y-108931381D01*
X71674926Y-108930233D01*
X71674484Y-108928830D01*
X71674121Y-108927640D01*
X71671147Y-108917581D01*
X71372782Y-107908261D01*
X71372428Y-107907024D01*
X71372044Y-107905637D01*
X71371704Y-107904356D01*
X71369170Y-107894492D01*
X71369169Y-107894490D01*
X71137828Y-106994105D01*
X77489500Y-106994105D01*
X77489500Y-107125894D01*
X77523606Y-107253181D01*
X77523607Y-107253184D01*
X77523608Y-107253186D01*
X77589500Y-107367314D01*
X77682686Y-107460500D01*
X77796814Y-107526392D01*
X77919424Y-107559244D01*
X77923122Y-107560500D01*
X78055894Y-107560500D01*
X78066157Y-107560500D01*
X78075045Y-107555367D01*
X78183186Y-107526392D01*
X78297314Y-107460500D01*
X78390500Y-107367314D01*
X78456392Y-107253186D01*
X78490499Y-107125894D01*
X78490500Y-107125894D01*
X78490500Y-107110348D01*
X78491424Y-107104557D01*
X78493485Y-107101201D01*
X78496129Y-107087906D01*
X78500443Y-107077491D01*
X78520176Y-107057755D01*
X78521071Y-107056299D01*
X78521808Y-107056122D01*
X78540482Y-107037445D01*
X78545124Y-107035522D01*
X78592591Y-107032414D01*
X78599479Y-107034259D01*
X78604107Y-107035500D01*
X78735894Y-107035500D01*
X78746157Y-107035500D01*
X78755045Y-107030367D01*
X78863186Y-107001392D01*
X78977314Y-106935500D01*
X79070500Y-106842314D01*
X79136392Y-106728186D01*
X79165367Y-106620045D01*
X79170500Y-106611156D01*
X79170500Y-106468121D01*
X79169244Y-106464424D01*
X79136542Y-106342377D01*
X79136405Y-106341847D01*
X79136393Y-106341816D01*
X79136389Y-106341809D01*
X79070500Y-106227686D01*
X78977314Y-106134500D01*
X78977311Y-106134498D01*
X78977310Y-106134497D01*
X78863202Y-106068616D01*
X78863193Y-106068611D01*
X78863190Y-106068610D01*
X78863181Y-106068606D01*
X78735894Y-106034500D01*
X78735893Y-106034500D01*
X78604107Y-106034500D01*
X78604106Y-106034500D01*
X78503707Y-106061401D01*
X78476814Y-106068607D01*
X78476796Y-106068616D01*
X78362688Y-106134497D01*
X78269497Y-106227688D01*
X78203616Y-106341796D01*
X78203608Y-106341814D01*
X78203606Y-106341818D01*
X78170757Y-106464416D01*
X78169500Y-106469106D01*
X78169500Y-106478783D01*
X78163867Y-106507101D01*
X78159556Y-106517509D01*
X78119508Y-106557557D01*
X78119500Y-106557561D01*
X78114873Y-106559477D01*
X78067412Y-106562586D01*
X78055893Y-106559500D01*
X78055892Y-106559500D01*
X77924108Y-106559500D01*
X77924106Y-106559500D01*
X77894242Y-106567502D01*
X77796814Y-106593607D01*
X77796796Y-106593616D01*
X77682688Y-106659497D01*
X77589497Y-106752688D01*
X77523616Y-106866796D01*
X77523610Y-106866809D01*
X77523606Y-106866818D01*
X77489500Y-106994105D01*
X71137828Y-106994105D01*
X71122770Y-106935500D01*
X71107174Y-106874801D01*
X71106862Y-106873541D01*
X71106554Y-106872245D01*
X71106272Y-106871008D01*
X70951999Y-106166470D01*
X73158200Y-106166470D01*
X73158200Y-106303528D01*
X73184936Y-106437948D01*
X73184939Y-106437959D01*
X73184940Y-106437964D01*
X73217527Y-106516634D01*
X73237387Y-106564580D01*
X73237389Y-106564583D01*
X73237390Y-106564585D01*
X73313537Y-106678547D01*
X73410453Y-106775463D01*
X73524415Y-106851610D01*
X73524420Y-106851612D01*
X73524419Y-106851612D01*
X73527573Y-106852918D01*
X73527574Y-106852919D01*
X73580492Y-106874838D01*
X73651038Y-106904059D01*
X73651043Y-106904061D01*
X73785470Y-106930800D01*
X73785471Y-106930800D01*
X73922529Y-106930800D01*
X73922530Y-106930800D01*
X74056957Y-106904061D01*
X74183585Y-106851610D01*
X74297547Y-106775463D01*
X74394463Y-106678547D01*
X74470610Y-106564585D01*
X74523061Y-106437957D01*
X74549800Y-106303530D01*
X74549800Y-106166470D01*
X75190200Y-106166470D01*
X75190200Y-106303528D01*
X75216936Y-106437948D01*
X75216939Y-106437959D01*
X75216940Y-106437964D01*
X75249527Y-106516634D01*
X75269387Y-106564580D01*
X75269389Y-106564583D01*
X75269390Y-106564585D01*
X75345537Y-106678547D01*
X75442453Y-106775463D01*
X75556415Y-106851610D01*
X75556420Y-106851612D01*
X75556419Y-106851612D01*
X75559573Y-106852918D01*
X75559574Y-106852919D01*
X75612492Y-106874838D01*
X75683038Y-106904059D01*
X75683043Y-106904061D01*
X75817470Y-106930800D01*
X75817471Y-106930800D01*
X75954529Y-106930800D01*
X75954530Y-106930800D01*
X76088957Y-106904061D01*
X76215585Y-106851610D01*
X76329547Y-106775463D01*
X76426463Y-106678547D01*
X76502610Y-106564585D01*
X76555061Y-106437957D01*
X76581800Y-106303530D01*
X76581800Y-106166470D01*
X76555061Y-106032043D01*
X76555059Y-106032039D01*
X76550896Y-106021988D01*
X76550895Y-106021985D01*
X76502617Y-105905430D01*
X76502614Y-105905424D01*
X76502612Y-105905419D01*
X76502611Y-105905417D01*
X76502610Y-105905415D01*
X76426463Y-105791453D01*
X76329547Y-105694537D01*
X76256691Y-105645856D01*
X76247045Y-105631420D01*
X76088964Y-105565940D01*
X76088959Y-105565939D01*
X76088948Y-105565936D01*
X75987680Y-105545793D01*
X75954534Y-105539200D01*
X75954530Y-105539200D01*
X75817470Y-105539200D01*
X75817468Y-105539200D01*
X75799741Y-105542726D01*
X75790877Y-105544489D01*
X75683050Y-105565936D01*
X75683039Y-105565939D01*
X75683034Y-105565940D01*
X75556418Y-105618387D01*
X75442183Y-105694716D01*
X75440807Y-105696182D01*
X75347182Y-105789807D01*
X75345716Y-105791183D01*
X75269388Y-105905417D01*
X75269387Y-105905419D01*
X75264466Y-105917298D01*
X75216940Y-106032034D01*
X75216939Y-106032039D01*
X75216936Y-106032050D01*
X75190200Y-106166470D01*
X74549800Y-106166470D01*
X74523061Y-106032043D01*
X74523059Y-106032039D01*
X74518896Y-106021988D01*
X74518895Y-106021985D01*
X74470617Y-105905430D01*
X74470614Y-105905424D01*
X74470612Y-105905419D01*
X74470611Y-105905417D01*
X74470610Y-105905415D01*
X74394463Y-105791453D01*
X74297547Y-105694537D01*
X74224691Y-105645856D01*
X74215045Y-105631420D01*
X74056964Y-105565940D01*
X74056959Y-105565939D01*
X74056948Y-105565936D01*
X73955680Y-105545793D01*
X73922534Y-105539200D01*
X73922530Y-105539200D01*
X73785470Y-105539200D01*
X73785468Y-105539200D01*
X73767741Y-105542726D01*
X73758877Y-105544489D01*
X73651050Y-105565936D01*
X73651039Y-105565939D01*
X73651034Y-105565940D01*
X73524418Y-105618387D01*
X73410183Y-105694716D01*
X73408807Y-105696182D01*
X73315182Y-105789807D01*
X73313716Y-105791183D01*
X73237388Y-105905417D01*
X73237387Y-105905419D01*
X73232466Y-105917298D01*
X73184940Y-106032034D01*
X73184939Y-106032039D01*
X73184936Y-106032050D01*
X73158200Y-106166470D01*
X70951999Y-106166470D01*
X70878872Y-105832512D01*
X70878626Y-105831343D01*
X70878328Y-105829853D01*
X70878120Y-105828760D01*
X70874623Y-105809500D01*
X70688150Y-104782654D01*
X70687949Y-104781488D01*
X70687722Y-104780096D01*
X70687530Y-104778844D01*
X70675147Y-104693270D01*
X70674315Y-104687519D01*
X79399500Y-104687519D01*
X79399500Y-113542479D01*
X79413812Y-113595890D01*
X79413812Y-113595891D01*
X79413813Y-113595891D01*
X79413813Y-113595892D01*
X79437014Y-113682482D01*
X79483852Y-113763608D01*
X79509490Y-113808015D01*
X81347418Y-115645943D01*
X81363457Y-115669946D01*
X81373868Y-115695080D01*
X81379500Y-115723395D01*
X81379500Y-118032476D01*
X81380550Y-118036393D01*
X81389689Y-118070500D01*
X81417016Y-118172485D01*
X81489490Y-118298015D01*
X84891985Y-121700510D01*
X84964459Y-121742352D01*
X85017511Y-121772982D01*
X85017512Y-121772982D01*
X85017515Y-121772984D01*
X85017517Y-121772985D01*
X85059108Y-121784129D01*
X85115915Y-121799351D01*
X85115920Y-121799351D01*
X85115929Y-121799354D01*
X85152849Y-121809247D01*
X85156540Y-121810500D01*
X91772477Y-121810500D01*
X91782739Y-121810500D01*
X91791629Y-121805367D01*
X91870889Y-121784129D01*
X91912482Y-121772985D01*
X91912482Y-121772984D01*
X91912485Y-121772984D01*
X91912487Y-121772982D01*
X91918752Y-121771304D01*
X91925225Y-121765628D01*
X92038015Y-121700510D01*
X93794419Y-119944105D01*
X94199500Y-119944105D01*
X94199500Y-120075894D01*
X94232123Y-120197645D01*
X94233607Y-120203183D01*
X94233619Y-120203208D01*
X94262477Y-120253189D01*
X94262478Y-120253190D01*
X94299500Y-120317314D01*
X94392686Y-120410500D01*
X94506814Y-120476392D01*
X94629424Y-120509244D01*
X94633122Y-120510500D01*
X94765894Y-120510500D01*
X94776157Y-120510500D01*
X94785045Y-120505367D01*
X94893186Y-120476392D01*
X95007314Y-120410500D01*
X95100500Y-120317314D01*
X95166392Y-120203186D01*
X95166393Y-120203180D01*
X95166530Y-120202851D01*
X95176186Y-120186121D01*
X95181971Y-120178580D01*
X95231017Y-120150261D01*
X95285708Y-120164904D01*
X95285722Y-120164915D01*
X95285725Y-120164916D01*
X95285726Y-120164917D01*
X95287063Y-120165943D01*
X95313512Y-120205510D01*
X95322592Y-120239394D01*
X95323607Y-120243183D01*
X95323611Y-120243192D01*
X95354050Y-120295913D01*
X95374019Y-120330500D01*
X95389500Y-120357314D01*
X95482686Y-120450500D01*
X95596814Y-120516392D01*
X95719424Y-120549244D01*
X95723122Y-120550500D01*
X95855894Y-120550500D01*
X95866157Y-120550500D01*
X95875045Y-120545367D01*
X95983186Y-120516392D01*
X96097314Y-120450500D01*
X96190500Y-120357314D01*
X96256392Y-120243186D01*
X96285367Y-120135045D01*
X96290500Y-120126156D01*
X96290500Y-119994105D01*
X99109500Y-119994105D01*
X99109500Y-120125894D01*
X99143606Y-120253181D01*
X99143607Y-120253183D01*
X99143610Y-120253190D01*
X99209497Y-120367310D01*
X99209498Y-120367311D01*
X99209500Y-120367314D01*
X99251686Y-120409500D01*
X99289452Y-120447266D01*
X99305492Y-120471273D01*
X99305493Y-120471274D01*
X99309804Y-120481682D01*
X99309804Y-120538319D01*
X99309803Y-120538320D01*
X99305492Y-120548727D01*
X99289452Y-120572733D01*
X99229498Y-120632686D01*
X99163616Y-120746796D01*
X99163608Y-120746814D01*
X99163606Y-120746818D01*
X99129500Y-120874105D01*
X99129500Y-121005894D01*
X99163606Y-121133181D01*
X99163607Y-121133184D01*
X99163608Y-121133186D01*
X99229500Y-121247314D01*
X99322686Y-121340500D01*
X99436814Y-121406392D01*
X99559424Y-121439244D01*
X99563122Y-121440500D01*
X99695894Y-121440500D01*
X99706157Y-121440500D01*
X99715045Y-121435367D01*
X99823186Y-121406392D01*
X99937314Y-121340500D01*
X100030500Y-121247314D01*
X100096392Y-121133186D01*
X100108291Y-121088776D01*
X100127639Y-121016569D01*
X100135024Y-120998737D01*
X100137153Y-120995048D01*
X100141721Y-120987133D01*
X100186648Y-120952649D01*
X100242802Y-120960033D01*
X100277288Y-121004961D01*
X100277290Y-121004972D01*
X100303605Y-121103178D01*
X100303605Y-121103180D01*
X100303608Y-121103186D01*
X100303610Y-121103191D01*
X100329033Y-121147224D01*
X100369497Y-121217310D01*
X100369498Y-121217311D01*
X100369500Y-121217314D01*
X100462686Y-121310500D01*
X100576814Y-121376392D01*
X100699424Y-121409244D01*
X100703122Y-121410500D01*
X100835894Y-121410500D01*
X100846157Y-121410500D01*
X100855045Y-121405367D01*
X100963186Y-121376392D01*
X101077314Y-121310500D01*
X101170500Y-121217314D01*
X101236392Y-121103186D01*
X101265367Y-120995045D01*
X101270500Y-120986156D01*
X101270500Y-120843122D01*
X101269245Y-120839424D01*
X101252897Y-120778411D01*
X101252897Y-120778410D01*
X101252897Y-120778409D01*
X101252888Y-120778378D01*
X101249064Y-120764106D01*
X101249064Y-120764105D01*
X101599500Y-120764105D01*
X101599500Y-120895894D01*
X101633606Y-121023181D01*
X101633607Y-121023184D01*
X101633608Y-121023186D01*
X101699500Y-121137314D01*
X101792686Y-121230500D01*
X101906814Y-121296392D01*
X102029424Y-121329244D01*
X102033122Y-121330500D01*
X102165894Y-121330500D01*
X102176157Y-121330500D01*
X102185045Y-121325367D01*
X102293186Y-121296392D01*
X102407314Y-121230500D01*
X102500500Y-121137314D01*
X102566392Y-121023186D01*
X102595367Y-120915045D01*
X102600500Y-120906156D01*
X102600500Y-120763121D01*
X102599241Y-120759412D01*
X102595866Y-120746818D01*
X102590830Y-120728021D01*
X102566392Y-120636814D01*
X102500500Y-120522686D01*
X102407314Y-120429500D01*
X102374405Y-120410500D01*
X102293190Y-120363610D01*
X102293183Y-120363607D01*
X102293184Y-120363607D01*
X102293182Y-120363606D01*
X102293181Y-120363606D01*
X102165894Y-120329500D01*
X102165893Y-120329500D01*
X102034107Y-120329500D01*
X102034106Y-120329500D01*
X101933707Y-120356401D01*
X101906814Y-120363607D01*
X101906796Y-120363616D01*
X101792688Y-120429497D01*
X101699497Y-120522688D01*
X101633616Y-120636796D01*
X101633608Y-120636814D01*
X101633606Y-120636818D01*
X101599500Y-120764105D01*
X101249064Y-120764105D01*
X101236546Y-120717389D01*
X101236405Y-120716846D01*
X101236393Y-120716816D01*
X101236389Y-120716809D01*
X101170500Y-120602686D01*
X101077314Y-120509500D01*
X101019971Y-120476393D01*
X101019970Y-120476392D01*
X100963208Y-120443619D01*
X100963193Y-120443612D01*
X100963190Y-120443610D01*
X100963181Y-120443606D01*
X100835894Y-120409500D01*
X100835893Y-120409500D01*
X100704107Y-120409500D01*
X100704106Y-120409500D01*
X100603707Y-120436401D01*
X100576814Y-120443607D01*
X100576796Y-120443616D01*
X100462688Y-120509497D01*
X100369497Y-120602688D01*
X100303616Y-120716796D01*
X100303607Y-120716815D01*
X100303605Y-120716818D01*
X100303605Y-120716819D01*
X100272357Y-120833439D01*
X100264958Y-120851297D01*
X100258265Y-120862885D01*
X100213326Y-120897356D01*
X100157175Y-120889953D01*
X100122712Y-120845024D01*
X100122708Y-120845026D01*
X100122705Y-120845015D01*
X100122704Y-120845014D01*
X100122703Y-120845008D01*
X100096393Y-120746818D01*
X100096392Y-120746815D01*
X100096392Y-120746814D01*
X100030500Y-120632686D01*
X99950545Y-120552731D01*
X99934505Y-120528725D01*
X99930193Y-120518314D01*
X99930193Y-120461685D01*
X99934506Y-120451270D01*
X99950543Y-120427269D01*
X100010500Y-120367314D01*
X100076392Y-120253186D01*
X100089788Y-120203190D01*
X100091274Y-120197644D01*
X116909500Y-120197644D01*
X116909500Y-120402354D01*
X116921227Y-120476392D01*
X116932683Y-120548727D01*
X116941523Y-120604536D01*
X116941529Y-120604560D01*
X117004775Y-120799210D01*
X117004777Y-120799214D01*
X117063797Y-120915048D01*
X117097712Y-120981610D01*
X117127919Y-121023186D01*
X117210837Y-121137314D01*
X117218034Y-121147219D01*
X117362781Y-121291966D01*
X117408753Y-121325366D01*
X117429583Y-121340500D01*
X117528388Y-121412287D01*
X117583759Y-121440499D01*
X117706936Y-121503261D01*
X117707878Y-121503812D01*
X117710074Y-121504876D01*
X117711301Y-121505485D01*
X117713540Y-121506117D01*
X117905455Y-121568474D01*
X117905461Y-121568475D01*
X117905466Y-121568477D01*
X117905469Y-121568477D01*
X117905471Y-121568478D01*
X117929070Y-121572215D01*
X118006557Y-121584488D01*
X118107645Y-121600500D01*
X118107646Y-121600500D01*
X118107648Y-121600500D01*
X118312354Y-121600500D01*
X118393224Y-121587690D01*
X118514534Y-121568477D01*
X118514541Y-121568474D01*
X118514544Y-121568474D01*
X118514551Y-121568471D01*
X118514688Y-121568450D01*
X118515730Y-121568131D01*
X118516408Y-121567935D01*
X118517719Y-121567442D01*
X118709213Y-121505222D01*
X118709213Y-121505221D01*
X118709214Y-121505220D01*
X118709219Y-121505220D01*
X118709222Y-121505217D01*
X118709266Y-121505204D01*
X118719522Y-121501871D01*
X118725039Y-121497158D01*
X118891610Y-121412287D01*
X119057219Y-121291966D01*
X119201966Y-121147219D01*
X119322287Y-120981610D01*
X119415220Y-120799219D01*
X119432246Y-120746818D01*
X119477443Y-120607716D01*
X119477937Y-120606402D01*
X119478131Y-120605732D01*
X119478454Y-120604677D01*
X119478770Y-120602686D01*
X119503966Y-120443606D01*
X119510500Y-120402353D01*
X119510500Y-120197646D01*
X119510331Y-120196582D01*
X119503237Y-120151789D01*
X119478477Y-119995468D01*
X119478474Y-119995455D01*
X119478468Y-119995438D01*
X119458950Y-119935366D01*
X119415222Y-119800786D01*
X119415220Y-119800783D01*
X119415220Y-119800781D01*
X119413877Y-119798146D01*
X119413694Y-119797676D01*
X119413261Y-119796937D01*
X119390715Y-119752688D01*
X119365238Y-119702685D01*
X119365238Y-119702684D01*
X119343234Y-119659500D01*
X119322287Y-119618389D01*
X119311735Y-119603866D01*
X119243174Y-119509500D01*
X119214131Y-119469525D01*
X119201966Y-119452781D01*
X119057219Y-119308034D01*
X118972956Y-119246814D01*
X118891610Y-119187712D01*
X118863101Y-119173186D01*
X118709214Y-119094777D01*
X118709210Y-119094775D01*
X118514560Y-119031529D01*
X118514536Y-119031523D01*
X118514533Y-119031522D01*
X118514531Y-119031522D01*
X118434383Y-119018827D01*
X118312356Y-118999500D01*
X118312354Y-118999500D01*
X118312352Y-118999500D01*
X118107648Y-118999500D01*
X118107646Y-118999500D01*
X118107644Y-118999500D01*
X117905462Y-119031523D01*
X117905438Y-119031529D01*
X117710788Y-119094775D01*
X117710784Y-119094777D01*
X117528389Y-119187711D01*
X117362785Y-119308029D01*
X117215349Y-119455465D01*
X117212881Y-119459873D01*
X117097711Y-119618389D01*
X117004777Y-119800784D01*
X117004775Y-119800788D01*
X116941529Y-119995438D01*
X116941523Y-119995462D01*
X116909500Y-120197644D01*
X100091274Y-120197644D01*
X100096345Y-120178723D01*
X100097187Y-120175581D01*
X100097187Y-120175580D01*
X100097751Y-120173473D01*
X100097754Y-120173457D01*
X100108562Y-120133123D01*
X100109170Y-120131520D01*
X100110500Y-120125890D01*
X100110500Y-119993120D01*
X100109240Y-119989408D01*
X100107819Y-119984104D01*
X100107819Y-119984105D01*
X100076392Y-119866814D01*
X100010500Y-119752686D01*
X99917314Y-119659500D01*
X99917311Y-119659498D01*
X99917310Y-119659497D01*
X99820957Y-119603868D01*
X99820956Y-119603866D01*
X99803202Y-119593616D01*
X99803193Y-119593611D01*
X99803190Y-119593610D01*
X99803181Y-119593606D01*
X99675894Y-119559500D01*
X99675893Y-119559500D01*
X99544107Y-119559500D01*
X99544106Y-119559500D01*
X99454139Y-119583606D01*
X99416814Y-119593607D01*
X99416796Y-119593616D01*
X99302688Y-119659497D01*
X99209497Y-119752688D01*
X99143616Y-119866796D01*
X99143608Y-119866814D01*
X99143606Y-119866818D01*
X99109500Y-119994105D01*
X96290500Y-119994105D01*
X96290500Y-119994060D01*
X96290500Y-119984106D01*
X96290499Y-119984105D01*
X96270202Y-119908356D01*
X96256392Y-119856814D01*
X96190500Y-119742686D01*
X96097314Y-119649500D01*
X96069064Y-119633190D01*
X95983190Y-119583610D01*
X95983183Y-119583607D01*
X95983184Y-119583607D01*
X95983182Y-119583606D01*
X95983181Y-119583606D01*
X95855894Y-119549500D01*
X95855893Y-119549500D01*
X95724107Y-119549500D01*
X95724106Y-119549500D01*
X95686785Y-119559500D01*
X95596814Y-119583607D01*
X95596796Y-119583616D01*
X95482688Y-119649497D01*
X95389497Y-119742688D01*
X95323616Y-119856796D01*
X95323602Y-119856824D01*
X95322624Y-119859025D01*
X95313716Y-119874007D01*
X95308027Y-119881421D01*
X95258978Y-119909739D01*
X95204271Y-119895080D01*
X95202908Y-119894034D01*
X95176486Y-119854486D01*
X95166534Y-119817346D01*
X95166404Y-119816845D01*
X95166393Y-119816816D01*
X95166389Y-119816809D01*
X95100500Y-119702686D01*
X95007314Y-119609500D01*
X95007311Y-119609498D01*
X95007310Y-119609497D01*
X94979785Y-119593606D01*
X94893202Y-119543616D01*
X94893193Y-119543611D01*
X94893190Y-119543610D01*
X94893183Y-119543607D01*
X94893184Y-119543607D01*
X94893182Y-119543606D01*
X94893181Y-119543606D01*
X94765894Y-119509500D01*
X94765893Y-119509500D01*
X94634107Y-119509500D01*
X94634106Y-119509500D01*
X94622660Y-119512567D01*
X94506814Y-119543607D01*
X94506796Y-119543616D01*
X94392688Y-119609497D01*
X94299497Y-119702688D01*
X94233616Y-119816796D01*
X94233608Y-119816814D01*
X94233606Y-119816818D01*
X94199500Y-119944105D01*
X93794419Y-119944105D01*
X94364419Y-119374105D01*
X102149500Y-119374105D01*
X102149500Y-119505894D01*
X102173003Y-119593610D01*
X102183607Y-119633184D01*
X102183610Y-119633190D01*
X102223733Y-119702685D01*
X102249497Y-119747310D01*
X102249498Y-119747311D01*
X102249500Y-119747314D01*
X102342686Y-119840500D01*
X102456814Y-119906392D01*
X102579424Y-119939244D01*
X102583122Y-119940500D01*
X102715894Y-119940500D01*
X102726157Y-119940500D01*
X102735045Y-119935367D01*
X102843186Y-119906392D01*
X102957314Y-119840500D01*
X103050500Y-119747314D01*
X103116392Y-119633186D01*
X103141772Y-119538461D01*
X103154540Y-119512570D01*
X103167291Y-119495953D01*
X103206842Y-119469526D01*
X103293186Y-119446392D01*
X103407314Y-119380500D01*
X103500500Y-119287314D01*
X103566392Y-119173186D01*
X103595367Y-119065045D01*
X103600500Y-119056156D01*
X103600500Y-118913120D01*
X103599241Y-118909411D01*
X103595581Y-118895751D01*
X103595581Y-118895752D01*
X103566392Y-118786814D01*
X103500500Y-118672686D01*
X103407314Y-118579500D01*
X103407311Y-118579498D01*
X103407310Y-118579497D01*
X103293202Y-118513616D01*
X103293193Y-118513611D01*
X103293190Y-118513610D01*
X103293183Y-118513607D01*
X103293184Y-118513607D01*
X103293182Y-118513606D01*
X103293181Y-118513606D01*
X103165894Y-118479500D01*
X103165893Y-118479500D01*
X103034107Y-118479500D01*
X103034106Y-118479500D01*
X102933707Y-118506401D01*
X102906814Y-118513607D01*
X102906796Y-118513616D01*
X102792688Y-118579497D01*
X102699497Y-118672688D01*
X102633616Y-118786796D01*
X102633607Y-118786815D01*
X102633605Y-118786818D01*
X102633605Y-118786819D01*
X102608227Y-118881532D01*
X102595456Y-118907429D01*
X102582706Y-118924044D01*
X102543152Y-118950472D01*
X102456823Y-118973604D01*
X102456807Y-118973611D01*
X102456796Y-118973616D01*
X102342688Y-119039497D01*
X102249497Y-119132688D01*
X102183616Y-119246796D01*
X102183608Y-119246814D01*
X102183607Y-119246814D01*
X102183606Y-119246818D01*
X102149500Y-119374105D01*
X94364419Y-119374105D01*
X94625946Y-119112578D01*
X94649949Y-119096541D01*
X94675080Y-119086131D01*
X94703396Y-119080500D01*
X101782740Y-119080500D01*
X101791628Y-119075367D01*
X101901625Y-119045894D01*
X101912482Y-119042985D01*
X101912482Y-119042984D01*
X101912485Y-119042984D01*
X102038015Y-118970510D01*
X103430509Y-117578015D01*
X103502984Y-117452485D01*
X103540499Y-117312475D01*
X103540499Y-117167526D01*
X103502984Y-117027515D01*
X103448765Y-116933606D01*
X103430511Y-116901989D01*
X103430510Y-116901988D01*
X103430509Y-116901986D01*
X103328014Y-116799491D01*
X103328008Y-116799486D01*
X103253427Y-116756427D01*
X103202489Y-116727018D01*
X103202485Y-116727016D01*
X103062474Y-116689501D01*
X103062473Y-116689501D01*
X102917526Y-116689501D01*
X102917525Y-116689501D01*
X102847520Y-116708258D01*
X102847519Y-116708257D01*
X102777515Y-116727015D01*
X102777511Y-116727017D01*
X102651987Y-116799488D01*
X101504056Y-117947418D01*
X101480050Y-117963458D01*
X101454920Y-117973867D01*
X101426604Y-117979500D01*
X96293981Y-117979500D01*
X96241655Y-117957826D01*
X96219981Y-117905500D01*
X96223074Y-117884328D01*
X96226892Y-117871543D01*
X96237583Y-117816547D01*
X96241854Y-117786867D01*
X96242729Y-117777568D01*
X96269210Y-117727502D01*
X96316404Y-117710500D01*
X98768840Y-117710500D01*
X98768842Y-117710500D01*
X98923497Y-117679737D01*
X99069179Y-117619394D01*
X99200289Y-117531789D01*
X101899499Y-114832578D01*
X101923502Y-114816541D01*
X101948633Y-114806131D01*
X101976949Y-114800500D01*
X104042303Y-114800500D01*
X104094629Y-114822174D01*
X104116210Y-114870787D01*
X104117004Y-114886592D01*
X104118440Y-114901012D01*
X104122863Y-114930619D01*
X104122870Y-114930662D01*
X104133852Y-114985579D01*
X104151293Y-115042866D01*
X104162365Y-115069523D01*
X104162372Y-115069538D01*
X104190653Y-115122319D01*
X104190653Y-115122320D01*
X104217699Y-115162708D01*
X104217701Y-115162710D01*
X104255732Y-115208955D01*
X104255745Y-115208969D01*
X104276165Y-115229348D01*
X104276171Y-115229353D01*
X104276178Y-115229360D01*
X104322512Y-115267305D01*
X104333321Y-115274511D01*
X104362929Y-115294251D01*
X104362937Y-115294256D01*
X104362946Y-115294262D01*
X104362950Y-115294264D01*
X104362953Y-115294266D01*
X104375583Y-115301000D01*
X104415791Y-115322439D01*
X104431803Y-115329052D01*
X104442472Y-115333459D01*
X104442476Y-115333460D01*
X104442478Y-115333461D01*
X104499805Y-115350787D01*
X104554767Y-115361661D01*
X104564287Y-115363063D01*
X104584417Y-115366028D01*
X104584426Y-115366028D01*
X104584427Y-115366029D01*
X104598864Y-115367436D01*
X104628809Y-115368877D01*
X104628822Y-115368876D01*
X104628823Y-115368877D01*
X104674381Y-115368830D01*
X107857556Y-115365583D01*
X107885264Y-115364295D01*
X107898629Y-115363064D01*
X107926094Y-115359271D01*
X107977147Y-115349842D01*
X108030494Y-115334880D01*
X108030500Y-115334877D01*
X108030503Y-115334877D01*
X108042983Y-115330118D01*
X108055472Y-115325357D01*
X108105243Y-115301004D01*
X108149620Y-115274048D01*
X108172652Y-115258584D01*
X108183444Y-115250604D01*
X108204966Y-115233125D01*
X109530559Y-114052802D01*
X109553366Y-114030239D01*
X109563814Y-114018756D01*
X109584140Y-113993911D01*
X109619559Y-113945650D01*
X109624632Y-113936952D01*
X116529500Y-113936952D01*
X116529500Y-114118046D01*
X116557829Y-114296911D01*
X116557835Y-114296935D01*
X116613784Y-114469126D01*
X116613996Y-114469763D01*
X116615166Y-114471843D01*
X116644491Y-114529394D01*
X116691569Y-114621790D01*
X116693362Y-114625309D01*
X116694854Y-114628912D01*
X116696005Y-114630496D01*
X116714904Y-114656508D01*
X116802447Y-114777001D01*
X116930499Y-114905053D01*
X117077006Y-115011496D01*
X117115850Y-115031288D01*
X117190459Y-115069304D01*
X117200912Y-115081544D01*
X117282550Y-115108069D01*
X117410580Y-115149668D01*
X117410586Y-115149669D01*
X117410591Y-115149671D01*
X117410592Y-115149671D01*
X117410595Y-115149672D01*
X117529833Y-115168557D01*
X117559643Y-115173278D01*
X117589452Y-115178000D01*
X117589453Y-115178000D01*
X117589454Y-115178000D01*
X117770547Y-115178000D01*
X117815261Y-115170917D01*
X117949409Y-115149671D01*
X117949416Y-115149668D01*
X117949419Y-115149668D01*
X117949426Y-115149665D01*
X117949563Y-115149644D01*
X117950605Y-115149325D01*
X117951283Y-115149129D01*
X117952593Y-115148636D01*
X118065396Y-115111985D01*
X118065397Y-115111985D01*
X118095885Y-115102078D01*
X118121639Y-115093711D01*
X118282994Y-115011496D01*
X118429501Y-114905053D01*
X118557553Y-114777001D01*
X118663996Y-114630494D01*
X118746211Y-114469139D01*
X118802171Y-114296909D01*
X118830500Y-114118046D01*
X118830500Y-113936954D01*
X118823409Y-113892186D01*
X118809967Y-113807314D01*
X118802171Y-113758091D01*
X118802170Y-113758089D01*
X118802146Y-113757936D01*
X118802032Y-113757498D01*
X118801981Y-113757326D01*
X118801413Y-113755757D01*
X118781878Y-113695635D01*
X118756164Y-113616493D01*
X118747110Y-113588627D01*
X118747110Y-113588628D01*
X118746212Y-113585864D01*
X118746211Y-113585863D01*
X118746211Y-113585861D01*
X118746209Y-113585857D01*
X118746029Y-113585303D01*
X118744897Y-113583281D01*
X118702041Y-113499174D01*
X118663996Y-113424506D01*
X118557553Y-113277999D01*
X118429501Y-113149947D01*
X118310665Y-113063608D01*
X118282996Y-113043505D01*
X118282993Y-113043503D01*
X118282991Y-113043502D01*
X118169540Y-112985696D01*
X118159084Y-112973454D01*
X117949435Y-112905335D01*
X117949411Y-112905329D01*
X117949408Y-112905328D01*
X117949406Y-112905328D01*
X117829847Y-112886392D01*
X117770548Y-112877000D01*
X117770547Y-112877000D01*
X117770546Y-112877000D01*
X117589454Y-112877000D01*
X117589453Y-112877000D01*
X117589452Y-112877000D01*
X117477457Y-112894738D01*
X117424882Y-112903065D01*
X117410587Y-112905329D01*
X117410563Y-112905335D01*
X117238366Y-112961285D01*
X117238362Y-112961287D01*
X117082193Y-113040860D01*
X117078588Y-113042353D01*
X116963419Y-113126028D01*
X116963419Y-113126029D01*
X116943142Y-113140760D01*
X116930497Y-113149948D01*
X116930494Y-113149952D01*
X116799762Y-113280683D01*
X116797294Y-113285091D01*
X116694853Y-113426088D01*
X116693360Y-113429693D01*
X116613787Y-113585862D01*
X116613785Y-113585866D01*
X116557835Y-113758063D01*
X116557829Y-113758087D01*
X116529500Y-113936952D01*
X109624632Y-113936952D01*
X109651849Y-113890290D01*
X109664522Y-113862135D01*
X109684552Y-113801260D01*
X109697194Y-113742749D01*
X109702314Y-113711071D01*
X109703983Y-113695635D01*
X109705752Y-113663589D01*
X109706659Y-113314741D01*
X109705263Y-113284763D01*
X109703876Y-113270310D01*
X109699546Y-113240619D01*
X109688740Y-113185598D01*
X109671476Y-113128202D01*
X109660479Y-113101482D01*
X109632346Y-113048569D01*
X109605411Y-113008071D01*
X109605410Y-113008070D01*
X109605405Y-113008062D01*
X109567485Y-112961666D01*
X109567478Y-112961659D01*
X109567473Y-112961652D01*
X109560762Y-112954915D01*
X109547085Y-112941184D01*
X109547071Y-112941172D01*
X109500823Y-112903074D01*
X109500814Y-112903067D01*
X109500812Y-112903065D01*
X109460423Y-112875975D01*
X109460422Y-112875974D01*
X109454070Y-112872565D01*
X109407619Y-112847635D01*
X109380945Y-112836535D01*
X109380939Y-112836533D01*
X109380934Y-112836531D01*
X109323618Y-112819048D01*
X109323600Y-112819043D01*
X109268627Y-112808026D01*
X109268592Y-112808019D01*
X109238970Y-112803582D01*
X109238937Y-112803578D01*
X109224540Y-112802139D01*
X109224524Y-112802138D01*
X109194523Y-112800624D01*
X109194554Y-112800624D01*
X106954405Y-112797749D01*
X106902107Y-112776008D01*
X106880500Y-112723749D01*
X106880500Y-111723395D01*
X106886131Y-111695081D01*
X106896542Y-111669946D01*
X106912578Y-111645946D01*
X109640946Y-108917578D01*
X109664949Y-108901541D01*
X109690080Y-108891131D01*
X109718396Y-108885500D01*
X116727740Y-108885500D01*
X116736628Y-108880367D01*
X116857485Y-108847984D01*
X116983015Y-108775509D01*
X117085509Y-108673015D01*
X117157984Y-108547485D01*
X117190367Y-108426628D01*
X117195500Y-108417739D01*
X117195500Y-108261536D01*
X117194244Y-108257836D01*
X117157986Y-108122523D01*
X117157985Y-108122518D01*
X117157983Y-108122513D01*
X117085508Y-107996984D01*
X116983015Y-107894491D01*
X116983012Y-107894489D01*
X116983011Y-107894488D01*
X116857485Y-107822015D01*
X116857475Y-107822012D01*
X116717479Y-107784500D01*
X116717477Y-107784500D01*
X116717475Y-107784500D01*
X109372525Y-107784500D01*
X109372523Y-107784500D01*
X109232517Y-107822014D01*
X109232515Y-107822014D01*
X109232515Y-107822015D01*
X109106983Y-107894490D01*
X106392733Y-110608741D01*
X106368727Y-110624781D01*
X106358320Y-110629092D01*
X106301683Y-110629093D01*
X106301682Y-110629093D01*
X106301681Y-110629092D01*
X106291274Y-110624782D01*
X106267266Y-110608741D01*
X103862581Y-108204056D01*
X103846541Y-108180050D01*
X103836131Y-108154918D01*
X103830500Y-108126604D01*
X103830500Y-106286536D01*
X103829244Y-106282836D01*
X103805938Y-106195861D01*
X103792985Y-106147518D01*
X103792983Y-106147513D01*
X103747426Y-106068606D01*
X103726316Y-106032043D01*
X103720511Y-106021988D01*
X103720510Y-106021987D01*
X103720509Y-106021985D01*
X103618015Y-105919491D01*
X103618012Y-105919489D01*
X103618011Y-105919488D01*
X103593635Y-105905415D01*
X103492485Y-105847015D01*
X103492475Y-105847012D01*
X103352479Y-105809500D01*
X103352477Y-105809500D01*
X103352475Y-105809500D01*
X103207525Y-105809500D01*
X103207523Y-105809500D01*
X103207521Y-105809500D01*
X103067522Y-105847012D01*
X103067513Y-105847015D01*
X102941987Y-105919488D01*
X102839488Y-106021987D01*
X102767015Y-106147513D01*
X102767012Y-106147523D01*
X102729500Y-106287519D01*
X102729500Y-108472479D01*
X102758556Y-108580913D01*
X102767016Y-108612485D01*
X102767017Y-108612487D01*
X102767018Y-108612490D01*
X102839490Y-108738015D01*
X105747418Y-111645943D01*
X105763457Y-111669946D01*
X105773868Y-111695080D01*
X105779500Y-111723395D01*
X105779500Y-112722147D01*
X105757826Y-112774473D01*
X105705500Y-112796147D01*
X105705405Y-112796147D01*
X104647869Y-112794791D01*
X104628039Y-112794766D01*
X104628038Y-112794766D01*
X104628025Y-112794766D01*
X104598083Y-112796200D01*
X104598052Y-112796202D01*
X104583613Y-112797607D01*
X104553932Y-112801975D01*
X104553907Y-112801980D01*
X104498880Y-112812865D01*
X104441513Y-112830210D01*
X104441501Y-112830214D01*
X104441498Y-112830215D01*
X104429760Y-112835065D01*
X104414779Y-112841256D01*
X104361901Y-112869470D01*
X104321417Y-112896484D01*
X104275055Y-112934492D01*
X104275045Y-112934501D01*
X104254615Y-112954915D01*
X104216555Y-113001267D01*
X104189523Y-113041710D01*
X104189517Y-113041719D01*
X104161260Y-113094577D01*
X104161260Y-113094578D01*
X104150198Y-113121286D01*
X104142413Y-113146968D01*
X104106491Y-113190756D01*
X104071595Y-113199500D01*
X101521157Y-113199500D01*
X101477313Y-113208219D01*
X101477314Y-113208220D01*
X101366510Y-113230259D01*
X101366503Y-113230261D01*
X101366493Y-113230265D01*
X101287292Y-113263070D01*
X101287289Y-113263073D01*
X101220820Y-113290605D01*
X101089441Y-113378389D01*
X101088060Y-113379861D01*
X98390503Y-116077418D01*
X98366497Y-116093458D01*
X98341367Y-116103867D01*
X98313051Y-116109500D01*
X96311098Y-116109500D01*
X96258772Y-116087826D01*
X96237099Y-116035823D01*
X96236485Y-115895366D01*
X96236400Y-115875786D01*
X96234801Y-115845874D01*
X96233318Y-115831451D01*
X96228793Y-115801823D01*
X96217634Y-115746945D01*
X96205849Y-115708677D01*
X96200020Y-115689747D01*
X96200016Y-115689734D01*
X96188861Y-115663118D01*
X96160428Y-115610446D01*
X96148793Y-115593186D01*
X96133274Y-115570163D01*
X96095129Y-115524062D01*
X96095125Y-115524057D01*
X96074644Y-115503736D01*
X96074642Y-115503735D01*
X96074639Y-115503732D01*
X96028218Y-115465938D01*
X95987724Y-115439106D01*
X95934818Y-115411086D01*
X95908116Y-115400144D01*
X95908109Y-115400142D01*
X95908107Y-115400141D01*
X95908107Y-115400140D01*
X95850785Y-115382985D01*
X95795805Y-115372258D01*
X95772432Y-115368877D01*
X95766197Y-115367975D01*
X95766193Y-115367974D01*
X95766189Y-115367974D01*
X95751751Y-115366603D01*
X95721815Y-115365238D01*
X95721801Y-115365238D01*
X95721800Y-115365238D01*
X94482262Y-115369649D01*
X93325346Y-115373767D01*
X93285887Y-115376469D01*
X93266946Y-115379006D01*
X93266942Y-115379006D01*
X93228202Y-115386775D01*
X93228170Y-115386783D01*
X93203714Y-115393359D01*
X93147555Y-115386015D01*
X93113038Y-115341111D01*
X93112113Y-115334105D01*
X96529500Y-115334105D01*
X96529500Y-115465894D01*
X96563606Y-115593181D01*
X96563607Y-115593183D01*
X96563616Y-115593202D01*
X96573573Y-115610447D01*
X96623170Y-115696350D01*
X96629500Y-115707314D01*
X96722686Y-115800500D01*
X96836814Y-115866392D01*
X96959424Y-115899244D01*
X96963122Y-115900500D01*
X97095894Y-115900500D01*
X97106157Y-115900500D01*
X97115045Y-115895367D01*
X97223186Y-115866392D01*
X97337314Y-115800500D01*
X97430500Y-115707314D01*
X97496392Y-115593186D01*
X97525367Y-115485045D01*
X97530500Y-115476156D01*
X97530500Y-115333121D01*
X97529244Y-115329424D01*
X97496542Y-115207377D01*
X97496405Y-115206847D01*
X97496393Y-115206816D01*
X97496389Y-115206809D01*
X97430500Y-115092686D01*
X97337314Y-114999500D01*
X97337311Y-114999498D01*
X97337310Y-114999497D01*
X97223202Y-114933616D01*
X97223193Y-114933611D01*
X97223190Y-114933610D01*
X97223183Y-114933607D01*
X97223184Y-114933607D01*
X97223182Y-114933606D01*
X97223181Y-114933606D01*
X97095894Y-114899500D01*
X97095893Y-114899500D01*
X96964107Y-114899500D01*
X96964106Y-114899500D01*
X96863707Y-114926401D01*
X96836814Y-114933607D01*
X96836796Y-114933616D01*
X96722688Y-114999497D01*
X96629497Y-115092688D01*
X96563616Y-115206796D01*
X96563608Y-115206814D01*
X96563606Y-115206818D01*
X96529500Y-115334105D01*
X93112113Y-115334105D01*
X93110500Y-115321897D01*
X93110500Y-114709218D01*
X93116129Y-114680909D01*
X93120443Y-114670494D01*
X93160482Y-114630448D01*
X93170911Y-114626128D01*
X93199219Y-114620500D01*
X95158840Y-114620500D01*
X95158842Y-114620500D01*
X95313497Y-114589737D01*
X95459179Y-114529394D01*
X95590289Y-114441789D01*
X96587973Y-113444105D01*
X99119500Y-113444105D01*
X99119500Y-113575894D01*
X99153606Y-113703181D01*
X99153607Y-113703183D01*
X99153616Y-113703202D01*
X99188490Y-113763604D01*
X99188493Y-113763608D01*
X99219500Y-113817314D01*
X99312686Y-113910500D01*
X99426814Y-113976392D01*
X99549424Y-114009244D01*
X99553122Y-114010500D01*
X99685894Y-114010500D01*
X99696157Y-114010500D01*
X99705045Y-114005367D01*
X99813186Y-113976392D01*
X99927314Y-113910500D01*
X100020500Y-113817314D01*
X100086392Y-113703186D01*
X100115367Y-113595045D01*
X100120500Y-113586156D01*
X100120500Y-113443120D01*
X100119240Y-113439408D01*
X100117819Y-113434104D01*
X100117819Y-113434105D01*
X100086392Y-113316814D01*
X100020500Y-113202686D01*
X99927314Y-113109500D01*
X99909994Y-113099500D01*
X99909992Y-113099498D01*
X99813191Y-113043610D01*
X99813186Y-113043608D01*
X99813184Y-113043607D01*
X99813182Y-113043606D01*
X99813181Y-113043606D01*
X99685894Y-113009500D01*
X99685893Y-113009500D01*
X99554107Y-113009500D01*
X99554106Y-113009500D01*
X99484241Y-113028220D01*
X99426814Y-113043607D01*
X99426796Y-113043616D01*
X99312688Y-113109497D01*
X99219497Y-113202688D01*
X99153616Y-113316796D01*
X99153608Y-113316814D01*
X99153606Y-113316818D01*
X99119500Y-113444105D01*
X96587973Y-113444105D01*
X96856789Y-113175289D01*
X96944394Y-113044179D01*
X97004738Y-112898497D01*
X97035500Y-112743842D01*
X97035500Y-112586157D01*
X97035500Y-112354105D01*
X102589500Y-112354105D01*
X102589500Y-112485894D01*
X102623606Y-112613181D01*
X102623607Y-112613183D01*
X102623616Y-112613202D01*
X102689497Y-112727310D01*
X102689498Y-112727311D01*
X102689500Y-112727314D01*
X102782686Y-112820500D01*
X102896814Y-112886392D01*
X103019424Y-112919244D01*
X103023122Y-112920500D01*
X103155894Y-112920500D01*
X103166157Y-112920500D01*
X103175045Y-112915367D01*
X103283186Y-112886392D01*
X103397314Y-112820500D01*
X103490500Y-112727314D01*
X103556392Y-112613186D01*
X103585367Y-112505045D01*
X103590500Y-112496156D01*
X103590500Y-112353121D01*
X103589244Y-112349424D01*
X103556542Y-112227377D01*
X103556405Y-112226847D01*
X103556393Y-112226816D01*
X103556389Y-112226809D01*
X103490500Y-112112686D01*
X103397314Y-112019500D01*
X103397311Y-112019498D01*
X103397310Y-112019497D01*
X103335929Y-111984059D01*
X103283191Y-111953610D01*
X103283186Y-111953608D01*
X103283184Y-111953607D01*
X103283182Y-111953606D01*
X103283181Y-111953606D01*
X103155894Y-111919500D01*
X103155893Y-111919500D01*
X103024107Y-111919500D01*
X103024106Y-111919500D01*
X102974025Y-111932919D01*
X102896814Y-111953607D01*
X102896796Y-111953616D01*
X102782688Y-112019497D01*
X102689497Y-112112688D01*
X102623616Y-112226796D01*
X102623608Y-112226814D01*
X102623606Y-112226818D01*
X102589500Y-112354105D01*
X97035500Y-112354105D01*
X97035500Y-111128440D01*
X97041129Y-111100131D01*
X97045443Y-111089716D01*
X97085482Y-111049670D01*
X97090124Y-111047747D01*
X97137585Y-111044637D01*
X97193499Y-111059618D01*
X97229423Y-111069244D01*
X97233121Y-111070500D01*
X97365894Y-111070500D01*
X97376157Y-111070500D01*
X97385045Y-111065367D01*
X97493186Y-111036392D01*
X97607314Y-110970500D01*
X97700500Y-110877314D01*
X97766392Y-110763186D01*
X97795367Y-110655045D01*
X97800500Y-110646156D01*
X97800500Y-110503121D01*
X97799244Y-110499424D01*
X97766542Y-110377377D01*
X97766405Y-110376847D01*
X97766393Y-110376816D01*
X97700499Y-110262685D01*
X97607314Y-110169500D01*
X97607311Y-110169498D01*
X97607310Y-110169497D01*
X97564500Y-110144781D01*
X97493191Y-110103610D01*
X97493186Y-110103608D01*
X97493184Y-110103607D01*
X97493182Y-110103606D01*
X97493181Y-110103606D01*
X97365894Y-110069500D01*
X97365893Y-110069500D01*
X97234106Y-110069500D01*
X97142868Y-110093946D01*
X97114060Y-110095834D01*
X97102891Y-110094364D01*
X97053842Y-110066048D01*
X97050785Y-110062065D01*
X97035500Y-110017025D01*
X97035500Y-109366159D01*
X97004595Y-109210786D01*
X97003349Y-109208152D01*
X96944396Y-109065825D01*
X96944395Y-109065823D01*
X96944394Y-109065821D01*
X96856789Y-108934711D01*
X96745289Y-108823211D01*
X95610289Y-107688211D01*
X95520285Y-107628072D01*
X95510639Y-107613635D01*
X95333505Y-107540265D01*
X95333500Y-107540263D01*
X95333489Y-107540260D01*
X95229925Y-107519661D01*
X95229924Y-107519660D01*
X95178842Y-107509500D01*
X94991158Y-107509500D01*
X94947314Y-107518219D01*
X94947315Y-107518220D01*
X94836511Y-107540259D01*
X94836493Y-107540265D01*
X94690825Y-107600602D01*
X94559441Y-107688390D01*
X94558065Y-107689856D01*
X94449856Y-107798065D01*
X94448390Y-107799441D01*
X94360602Y-107930825D01*
X94300265Y-108076493D01*
X94300263Y-108076499D01*
X94300260Y-108076509D01*
X94287369Y-108141323D01*
X94269500Y-108231158D01*
X94269500Y-108388841D01*
X94273207Y-108407478D01*
X94273207Y-108407479D01*
X94300260Y-108543489D01*
X94300263Y-108543500D01*
X94300265Y-108543505D01*
X94360602Y-108689173D01*
X94448209Y-108820287D01*
X94559711Y-108931789D01*
X94641037Y-108986129D01*
X94646870Y-108990455D01*
X94652463Y-108995045D01*
X94657844Y-108999922D01*
X95402418Y-109744496D01*
X95418457Y-109768499D01*
X95428868Y-109793633D01*
X95434500Y-109821948D01*
X95434500Y-112288051D01*
X95428867Y-112316367D01*
X95418459Y-112341497D01*
X95402418Y-112365503D01*
X94780503Y-112987418D01*
X94756497Y-113003458D01*
X94731367Y-113013867D01*
X94703051Y-113019500D01*
X92231158Y-113019500D01*
X92187314Y-113028219D01*
X92187315Y-113028220D01*
X92076511Y-113050259D01*
X92076493Y-113050265D01*
X91930825Y-113110602D01*
X91799441Y-113198390D01*
X91798065Y-113199856D01*
X91689856Y-113308065D01*
X91688390Y-113309441D01*
X91600602Y-113440825D01*
X91540265Y-113586493D01*
X91540263Y-113586499D01*
X91540260Y-113586509D01*
X91509500Y-113741159D01*
X91509500Y-117753051D01*
X91503867Y-117781367D01*
X91493459Y-117806497D01*
X91477418Y-117830503D01*
X90610503Y-118697418D01*
X90586497Y-118713458D01*
X90561367Y-118723867D01*
X90533051Y-118729500D01*
X86666949Y-118729500D01*
X86638631Y-118723867D01*
X86613502Y-118713458D01*
X86589496Y-118697418D01*
X84972581Y-117080503D01*
X84956541Y-117056497D01*
X84946131Y-117031365D01*
X84940500Y-117003051D01*
X84940500Y-116655493D01*
X87394500Y-116655493D01*
X87394500Y-117690999D01*
X87398260Y-117738784D01*
X87403103Y-117769364D01*
X87403106Y-117769381D01*
X87409512Y-117799752D01*
X87409513Y-117799754D01*
X87457691Y-117901162D01*
X87457693Y-117901165D01*
X87457695Y-117901168D01*
X87493653Y-117950660D01*
X87493659Y-117950667D01*
X87515608Y-117973867D01*
X87547823Y-118007919D01*
X87646406Y-118061641D01*
X87667434Y-118068473D01*
X87704586Y-118080545D01*
X87704592Y-118080546D01*
X87704597Y-118080548D01*
X87744677Y-118086896D01*
X87798999Y-118095500D01*
X87799000Y-118095500D01*
X88930999Y-118095500D01*
X88931000Y-118095500D01*
X88978786Y-118091739D01*
X89009379Y-118086894D01*
X89039754Y-118080487D01*
X89141162Y-118032309D01*
X89190662Y-117996345D01*
X89247919Y-117942177D01*
X89301641Y-117843594D01*
X89320063Y-117786895D01*
X89320545Y-117785413D01*
X89320545Y-117785410D01*
X89320548Y-117785403D01*
X89335500Y-117691000D01*
X89335500Y-116654231D01*
X89335220Y-116641163D01*
X89335109Y-116638568D01*
X89334860Y-116632741D01*
X89334858Y-116632708D01*
X89334022Y-116619686D01*
X89305754Y-116289913D01*
X89305485Y-116283664D01*
X89305479Y-116277160D01*
X89304693Y-115367644D01*
X89300890Y-115319855D01*
X89296018Y-115289267D01*
X89289585Y-115258905D01*
X89241320Y-115157538D01*
X89205313Y-115108069D01*
X89180788Y-115082190D01*
X89160500Y-115031288D01*
X89160500Y-114226948D01*
X89166131Y-114198634D01*
X89176542Y-114173499D01*
X89192578Y-114149499D01*
X93411788Y-109930290D01*
X93411789Y-109930289D01*
X93499394Y-109799179D01*
X93559737Y-109653497D01*
X93590500Y-109498842D01*
X93590500Y-109341158D01*
X93590500Y-106368188D01*
X93593692Y-106346688D01*
X93595172Y-106341814D01*
X93607312Y-106301834D01*
X93618256Y-106246895D01*
X93622663Y-106217251D01*
X93624089Y-106202819D01*
X93625569Y-106172881D01*
X93626071Y-104667568D01*
X93624610Y-104637624D01*
X93623193Y-104623187D01*
X93618804Y-104593531D01*
X93607892Y-104538575D01*
X93590525Y-104481255D01*
X93579484Y-104454575D01*
X93551271Y-104401751D01*
X93524286Y-104361336D01*
X93524285Y-104361334D01*
X93486311Y-104315032D01*
X93486305Y-104315025D01*
X93479299Y-104308015D01*
X93465896Y-104294603D01*
X93419616Y-104256597D01*
X93409516Y-104249843D01*
X93379223Y-104229587D01*
X93326421Y-104201340D01*
X93299756Y-104190283D01*
X93299743Y-104190279D01*
X93242452Y-104172877D01*
X93242438Y-104172873D01*
X93242436Y-104172873D01*
X93242432Y-104172872D01*
X93242423Y-104172870D01*
X93187507Y-104161928D01*
X93187491Y-104161925D01*
X93187480Y-104161923D01*
X93187470Y-104161921D01*
X93187450Y-104161918D01*
X93157840Y-104157515D01*
X93157831Y-104157514D01*
X93143415Y-104156090D01*
X93138564Y-104155850D01*
X93113461Y-104154608D01*
X93113458Y-104154607D01*
X93113438Y-104154607D01*
X92752211Y-104154487D01*
X92457452Y-104154389D01*
X92457451Y-104154389D01*
X92457450Y-104154389D01*
X92427504Y-104155850D01*
X92413056Y-104157269D01*
X92383432Y-104161654D01*
X92383408Y-104161658D01*
X92383403Y-104161659D01*
X92383394Y-104161660D01*
X92383376Y-104161664D01*
X92328439Y-104172575D01*
X92328438Y-104172575D01*
X92271115Y-104189947D01*
X92244448Y-104200984D01*
X92244435Y-104200990D01*
X92191610Y-104229208D01*
X92191596Y-104229217D01*
X92151171Y-104256214D01*
X92104858Y-104294207D01*
X92084428Y-104314631D01*
X92084428Y-104314632D01*
X92046420Y-104360933D01*
X92019417Y-104401337D01*
X92019416Y-104401339D01*
X91991174Y-104454163D01*
X91991172Y-104454168D01*
X91980120Y-104480842D01*
X91962731Y-104538156D01*
X91962729Y-104538162D01*
X91962729Y-104538165D01*
X91960868Y-104547521D01*
X91951791Y-104593143D01*
X91947392Y-104622800D01*
X91945971Y-104637225D01*
X91945235Y-104652207D01*
X91944500Y-104667178D01*
X91944500Y-106172711D01*
X91945429Y-106191625D01*
X91945971Y-106202666D01*
X91947392Y-106217089D01*
X91947393Y-106217096D01*
X91951785Y-106246707D01*
X91951795Y-106246766D01*
X91962717Y-106301683D01*
X91962720Y-106301692D01*
X91962721Y-106301696D01*
X91966428Y-106313918D01*
X91980102Y-106358998D01*
X91983867Y-106368087D01*
X91989500Y-106396406D01*
X91989500Y-109043051D01*
X91983867Y-109071367D01*
X91973459Y-109096497D01*
X91957418Y-109120503D01*
X87739856Y-113338065D01*
X87738390Y-113339441D01*
X87650602Y-113470825D01*
X87590265Y-113616493D01*
X87590263Y-113616499D01*
X87590260Y-113616509D01*
X87569042Y-113723186D01*
X87559500Y-113771158D01*
X87559500Y-115050476D01*
X87537826Y-115102802D01*
X87536356Y-115104231D01*
X87522084Y-115117733D01*
X87522077Y-115117741D01*
X87468358Y-115216321D01*
X87449454Y-115274500D01*
X87449451Y-115274513D01*
X87434500Y-115368913D01*
X87434500Y-116268988D01*
X87434047Y-116277160D01*
X87396976Y-116610789D01*
X87395574Y-116627634D01*
X87394968Y-116638568D01*
X87394500Y-116655493D01*
X84940500Y-116655493D01*
X84940500Y-114811159D01*
X84909595Y-114655786D01*
X84908349Y-114653152D01*
X84890686Y-114610509D01*
X84849401Y-114510836D01*
X84849398Y-114510830D01*
X84849396Y-114510825D01*
X84849395Y-114510823D01*
X84849394Y-114510821D01*
X84761789Y-114379711D01*
X84650289Y-114268211D01*
X83202581Y-112820503D01*
X83186541Y-112796497D01*
X83176131Y-112771365D01*
X83170500Y-112743051D01*
X83170500Y-104761159D01*
X83159368Y-104705197D01*
X83159368Y-104705196D01*
X83145848Y-104637225D01*
X83139737Y-104606503D01*
X83139735Y-104606498D01*
X83111601Y-104538575D01*
X83079401Y-104460836D01*
X83079398Y-104460830D01*
X83079396Y-104460825D01*
X83079395Y-104460823D01*
X83079394Y-104460821D01*
X82991789Y-104329711D01*
X82880289Y-104218211D01*
X82855041Y-104201341D01*
X82811990Y-104172575D01*
X82790285Y-104158072D01*
X82780639Y-104143635D01*
X82603505Y-104070265D01*
X82603500Y-104070263D01*
X82603489Y-104070260D01*
X82499925Y-104049661D01*
X82499924Y-104049660D01*
X82448842Y-104039500D01*
X82291158Y-104039500D01*
X82247314Y-104048219D01*
X82247315Y-104048220D01*
X82136511Y-104070259D01*
X82136493Y-104070265D01*
X81990825Y-104130602D01*
X81859441Y-104218390D01*
X81858065Y-104219856D01*
X81749856Y-104328065D01*
X81748390Y-104329441D01*
X81660604Y-104460823D01*
X81660603Y-104460823D01*
X81600265Y-104606493D01*
X81600263Y-104606499D01*
X81600260Y-104606509D01*
X81583003Y-104693272D01*
X81583003Y-104693273D01*
X81569500Y-104761158D01*
X81569500Y-113041158D01*
X81569500Y-113198842D01*
X81570265Y-113202686D01*
X81574044Y-113221687D01*
X81600260Y-113353489D01*
X81600263Y-113353500D01*
X81600265Y-113353505D01*
X81660603Y-113499174D01*
X81689537Y-113542477D01*
X81748209Y-113630287D01*
X83307418Y-115189496D01*
X83323457Y-115213499D01*
X83333868Y-115238633D01*
X83339500Y-115266948D01*
X83339500Y-117458841D01*
X83341134Y-117467057D01*
X83370260Y-117613489D01*
X83370263Y-117613500D01*
X83370265Y-117613505D01*
X83430603Y-117759175D01*
X83430604Y-117759176D01*
X83430605Y-117759177D01*
X83430606Y-117759179D01*
X83474997Y-117825615D01*
X83508088Y-117875140D01*
X83508089Y-117875141D01*
X83508088Y-117875141D01*
X83518207Y-117890284D01*
X83518209Y-117890287D01*
X83518211Y-117890289D01*
X85668211Y-120040289D01*
X85779711Y-120151789D01*
X85910821Y-120239394D01*
X85910826Y-120239396D01*
X85910825Y-120239396D01*
X86047271Y-120295913D01*
X86056503Y-120299737D01*
X86211157Y-120330500D01*
X86211158Y-120330500D01*
X86211159Y-120330500D01*
X90988840Y-120330500D01*
X90988842Y-120330500D01*
X91143497Y-120299737D01*
X91289179Y-120239394D01*
X91420289Y-120151789D01*
X92931789Y-118640289D01*
X93019394Y-118509179D01*
X93079737Y-118363497D01*
X93110500Y-118208842D01*
X93110500Y-118051158D01*
X93110500Y-117425476D01*
X93132174Y-117373150D01*
X93184500Y-117351476D01*
X93236826Y-117373150D01*
X93249781Y-117390628D01*
X93291446Y-117468684D01*
X93568970Y-117988604D01*
X93590894Y-118023720D01*
X93590897Y-118023725D01*
X93590902Y-118023732D01*
X93602623Y-118039945D01*
X93602628Y-118039952D01*
X93602631Y-118039955D01*
X93629076Y-118071755D01*
X93629086Y-118071765D01*
X93681857Y-118127119D01*
X93681865Y-118127127D01*
X93746410Y-118178651D01*
X93746422Y-118178659D01*
X93769707Y-118192555D01*
X93780462Y-118198974D01*
X93821341Y-118216375D01*
X93860997Y-118256811D01*
X93860446Y-118313446D01*
X93844684Y-118336789D01*
X91504056Y-120677418D01*
X91480050Y-120693458D01*
X91454920Y-120703867D01*
X91426604Y-120709500D01*
X85503396Y-120709500D01*
X85475078Y-120703867D01*
X85449949Y-120693458D01*
X85425943Y-120677418D01*
X82512581Y-117764056D01*
X82496541Y-117740050D01*
X82486131Y-117714918D01*
X82480500Y-117686604D01*
X82480500Y-115376538D01*
X82479241Y-115372829D01*
X82477940Y-115367975D01*
X82468865Y-115334105D01*
X82468865Y-115334103D01*
X82442985Y-115237519D01*
X82442984Y-115237515D01*
X82394817Y-115154087D01*
X82370510Y-115111985D01*
X80532581Y-113274056D01*
X80516541Y-113250050D01*
X80506131Y-113224918D01*
X80500500Y-113196604D01*
X80500500Y-105033395D01*
X80506131Y-105005081D01*
X80516542Y-104979946D01*
X80532578Y-104955946D01*
X80783328Y-104705197D01*
X80941010Y-104547515D01*
X81180510Y-104308015D01*
X81252984Y-104182485D01*
X81285367Y-104061627D01*
X81290500Y-104052738D01*
X81290500Y-103896539D01*
X81289244Y-103892842D01*
X81252985Y-103757517D01*
X81180509Y-103631984D01*
X81078015Y-103529490D01*
X80952482Y-103457014D01*
X80812476Y-103419500D01*
X80812474Y-103419500D01*
X80667525Y-103419500D01*
X80667524Y-103419500D01*
X80597520Y-103438257D01*
X80527516Y-103457014D01*
X80527515Y-103457015D01*
X80401983Y-103529490D01*
X79509490Y-104421983D01*
X79437015Y-104547515D01*
X79437012Y-104547521D01*
X79399500Y-104687519D01*
X70674315Y-104687519D01*
X70640606Y-104454579D01*
X70535274Y-103726696D01*
X70535116Y-103725534D01*
X70534942Y-103724160D01*
X70534802Y-103722967D01*
X70420997Y-102671190D01*
X70420615Y-102664105D01*
X75579500Y-102664105D01*
X75579500Y-102795894D01*
X75586002Y-102820159D01*
X75613607Y-102923184D01*
X75613608Y-102923186D01*
X75613610Y-102923191D01*
X75634771Y-102959842D01*
X75679497Y-103037310D01*
X75679498Y-103037311D01*
X75679500Y-103037314D01*
X75772686Y-103130500D01*
X75886814Y-103196392D01*
X76009424Y-103229244D01*
X76013122Y-103230500D01*
X76145894Y-103230500D01*
X76156157Y-103230500D01*
X76165045Y-103225367D01*
X76273186Y-103196392D01*
X76387314Y-103130500D01*
X76480500Y-103037314D01*
X76546392Y-102923186D01*
X76573998Y-102820158D01*
X124017000Y-102820158D01*
X124017000Y-102959842D01*
X124053152Y-103094765D01*
X124053153Y-103094768D01*
X124096102Y-103169156D01*
X124111825Y-103196389D01*
X124122994Y-103215735D01*
X124221765Y-103314506D01*
X124342735Y-103384348D01*
X124477658Y-103420500D01*
X124477660Y-103420500D01*
X124617340Y-103420500D01*
X124617342Y-103420500D01*
X124752265Y-103384348D01*
X124873235Y-103314506D01*
X124972006Y-103215735D01*
X125041848Y-103094765D01*
X125078000Y-102959842D01*
X125078000Y-102820158D01*
X125041848Y-102685235D01*
X125031442Y-102667212D01*
X124972005Y-102564264D01*
X124873235Y-102465494D01*
X124799093Y-102422688D01*
X124752269Y-102395654D01*
X124752267Y-102395653D01*
X124752266Y-102395652D01*
X124752265Y-102395652D01*
X124617342Y-102359500D01*
X124617341Y-102359500D01*
X124477659Y-102359500D01*
X124477658Y-102359500D01*
X124434669Y-102371018D01*
X124343804Y-102395365D01*
X124342801Y-102395617D01*
X124342766Y-102395634D01*
X124342740Y-102395648D01*
X124221763Y-102465494D01*
X124122994Y-102564263D01*
X124053148Y-102685240D01*
X124053134Y-102685266D01*
X124053117Y-102685301D01*
X124052865Y-102686304D01*
X124028518Y-102777169D01*
X124017000Y-102820158D01*
X76573998Y-102820158D01*
X76580500Y-102795892D01*
X76580500Y-102664108D01*
X76580500Y-102664106D01*
X76580500Y-102663121D01*
X76579244Y-102659424D01*
X76546542Y-102537377D01*
X76546405Y-102536847D01*
X76546393Y-102536816D01*
X76546389Y-102536809D01*
X76480500Y-102422686D01*
X76387314Y-102329500D01*
X76387311Y-102329498D01*
X76387310Y-102329497D01*
X76273202Y-102263616D01*
X76273193Y-102263611D01*
X76273190Y-102263610D01*
X76273183Y-102263607D01*
X76273184Y-102263607D01*
X76273182Y-102263606D01*
X76273181Y-102263606D01*
X76145894Y-102229500D01*
X76145893Y-102229500D01*
X76014107Y-102229500D01*
X76014106Y-102229500D01*
X75913707Y-102256401D01*
X75886814Y-102263607D01*
X75886796Y-102263616D01*
X75772688Y-102329497D01*
X75679497Y-102422688D01*
X75613616Y-102536796D01*
X75613608Y-102536814D01*
X75613606Y-102536818D01*
X75579500Y-102664105D01*
X70420615Y-102664105D01*
X70420568Y-102663229D01*
X70420568Y-102656636D01*
X70419377Y-102652297D01*
X70343752Y-101601677D01*
X70343683Y-101600578D01*
X70343595Y-101598939D01*
X70343550Y-101597905D01*
X70305362Y-100535465D01*
X70305328Y-100534163D01*
X70305304Y-100532813D01*
X70305292Y-100531498D01*
X70305292Y-99468500D01*
X70305304Y-99467185D01*
X70305328Y-99465835D01*
X70305364Y-99464492D01*
X70305656Y-99456392D01*
X70325243Y-98911422D01*
X70343545Y-98402224D01*
X70343604Y-98400919D01*
X70343678Y-98399543D01*
X70343760Y-98398229D01*
X70420082Y-97337914D01*
X70420184Y-97336651D01*
X70420295Y-97335410D01*
X70420430Y-97334042D01*
X70534805Y-96277001D01*
X70534948Y-96275786D01*
X70535119Y-96274435D01*
X70535272Y-96273314D01*
X70687543Y-95221065D01*
X70687721Y-95219909D01*
X70687951Y-95218494D01*
X70688152Y-95217330D01*
X70822280Y-94478732D01*
X72939500Y-94478732D01*
X72939500Y-97719389D01*
X72976670Y-97894267D01*
X72976788Y-97894605D01*
X72977353Y-97895801D01*
X73049384Y-98057588D01*
X73049386Y-98057591D01*
X73049388Y-98057593D01*
X73049391Y-98057599D01*
X73154471Y-98202227D01*
X73154472Y-98202228D01*
X73154473Y-98202229D01*
X73285898Y-98320565D01*
X73286954Y-98321567D01*
X73287334Y-98321859D01*
X73370310Y-98369765D01*
X73370309Y-98369765D01*
X73442166Y-98411251D01*
X73612184Y-98466493D01*
X73612185Y-98466493D01*
X73612197Y-98466497D01*
X73612208Y-98466498D01*
X73614969Y-98467085D01*
X73634902Y-98474437D01*
X73655013Y-98485355D01*
X73684139Y-98513995D01*
X74579998Y-100100000D01*
X74579999Y-100100000D01*
X75827339Y-100100000D01*
X75855653Y-100105631D01*
X75863016Y-100108681D01*
X75903064Y-100148728D01*
X75903075Y-100205343D01*
X75902422Y-100206921D01*
X75871045Y-100242712D01*
X75772684Y-100299500D01*
X75679497Y-100392688D01*
X75613616Y-100506796D01*
X75613608Y-100506814D01*
X75613606Y-100506818D01*
X75579500Y-100634105D01*
X75579500Y-100765894D01*
X75593277Y-100817310D01*
X75613607Y-100893184D01*
X75613608Y-100893186D01*
X75613610Y-100893191D01*
X75623604Y-100910500D01*
X75679497Y-101007310D01*
X75679498Y-101007311D01*
X75679500Y-101007314D01*
X75772686Y-101100500D01*
X75886814Y-101166392D01*
X76009424Y-101199244D01*
X76013122Y-101200500D01*
X76145894Y-101200500D01*
X76156157Y-101200500D01*
X76165045Y-101195367D01*
X76273186Y-101166392D01*
X76387314Y-101100500D01*
X76480500Y-101007314D01*
X76546392Y-100893186D01*
X76575367Y-100785045D01*
X76580500Y-100776156D01*
X76580500Y-100633122D01*
X76579245Y-100629428D01*
X76553540Y-100533493D01*
X76551415Y-100525564D01*
X76546393Y-100506816D01*
X76546389Y-100506809D01*
X76510187Y-100444105D01*
X124829500Y-100444105D01*
X124829500Y-100575894D01*
X124845098Y-100634106D01*
X124863607Y-100703183D01*
X124863616Y-100703202D01*
X124929497Y-100817310D01*
X124929498Y-100817311D01*
X124929500Y-100817314D01*
X125022686Y-100910500D01*
X125136814Y-100976392D01*
X125259424Y-101009244D01*
X125263122Y-101010500D01*
X125395894Y-101010500D01*
X125406157Y-101010500D01*
X125415045Y-101005367D01*
X125523186Y-100976392D01*
X125637314Y-100910500D01*
X125730500Y-100817314D01*
X125796392Y-100703186D01*
X125825367Y-100595045D01*
X125830500Y-100586156D01*
X125830500Y-100443121D01*
X125829244Y-100439424D01*
X125796542Y-100317377D01*
X125796405Y-100316847D01*
X125796393Y-100316816D01*
X125796389Y-100316809D01*
X125730500Y-100202686D01*
X125637314Y-100109500D01*
X125637311Y-100109498D01*
X125637309Y-100109496D01*
X125620859Y-100099999D01*
X125620858Y-100099999D01*
X125523191Y-100043610D01*
X125523186Y-100043608D01*
X125523184Y-100043607D01*
X125523182Y-100043606D01*
X125523181Y-100043606D01*
X125395894Y-100009500D01*
X125395893Y-100009500D01*
X125264107Y-100009500D01*
X125264106Y-100009500D01*
X125163707Y-100036401D01*
X125136814Y-100043607D01*
X125136796Y-100043616D01*
X125022688Y-100109497D01*
X124929497Y-100202688D01*
X124863616Y-100316796D01*
X124863608Y-100316814D01*
X124863606Y-100316818D01*
X124829500Y-100444105D01*
X76510187Y-100444105D01*
X76480500Y-100392686D01*
X76387314Y-100299500D01*
X76387311Y-100299498D01*
X76387310Y-100299497D01*
X76293687Y-100245444D01*
X76271976Y-100226402D01*
X76267128Y-100220083D01*
X76252473Y-100165375D01*
X76280793Y-100116329D01*
X76282166Y-100115276D01*
X76327194Y-100100000D01*
X80900000Y-100100000D01*
X81735634Y-98924105D01*
X124839500Y-98924105D01*
X124839500Y-99055894D01*
X124873606Y-99183181D01*
X124873607Y-99183184D01*
X124873608Y-99183186D01*
X124939500Y-99297314D01*
X125032686Y-99390500D01*
X125146814Y-99456392D01*
X125269424Y-99489244D01*
X125273122Y-99490500D01*
X125405894Y-99490500D01*
X125416157Y-99490500D01*
X125425045Y-99485367D01*
X125533186Y-99456392D01*
X125647314Y-99390500D01*
X125740500Y-99297314D01*
X125806392Y-99183186D01*
X125835367Y-99075045D01*
X125840500Y-99066156D01*
X125840500Y-98923121D01*
X125839244Y-98919424D01*
X125806542Y-98797377D01*
X125806405Y-98796847D01*
X125806393Y-98796816D01*
X125806389Y-98796809D01*
X125740500Y-98682686D01*
X125647314Y-98589500D01*
X125647311Y-98589498D01*
X125647310Y-98589497D01*
X125533202Y-98523616D01*
X125533193Y-98523611D01*
X125533190Y-98523610D01*
X125533183Y-98523607D01*
X125533184Y-98523607D01*
X125533182Y-98523606D01*
X125533181Y-98523606D01*
X125405894Y-98489500D01*
X125405893Y-98489500D01*
X125274107Y-98489500D01*
X125274106Y-98489500D01*
X125173707Y-98516401D01*
X125146814Y-98523607D01*
X125146796Y-98523616D01*
X125032688Y-98589497D01*
X124939497Y-98682688D01*
X124873616Y-98796796D01*
X124873608Y-98796814D01*
X124873606Y-98796818D01*
X124839500Y-98924105D01*
X81735634Y-98924105D01*
X82024314Y-98517877D01*
X82045308Y-98498060D01*
X82066566Y-98484725D01*
X82098152Y-98473817D01*
X82167803Y-98466497D01*
X82337835Y-98411250D01*
X82492665Y-98321859D01*
X82625526Y-98202230D01*
X82730612Y-98057593D01*
X82803329Y-97894267D01*
X82840500Y-97719391D01*
X82840500Y-97630000D01*
X82840500Y-97582405D01*
X82840500Y-96624105D01*
X117679500Y-96624105D01*
X117679500Y-96755894D01*
X117713606Y-96883181D01*
X117713610Y-96883190D01*
X117713613Y-96883196D01*
X117713619Y-96883207D01*
X117726334Y-96905229D01*
X117726335Y-96905230D01*
X117779497Y-96997310D01*
X117779498Y-96997311D01*
X117779500Y-96997314D01*
X117872686Y-97090500D01*
X117986814Y-97156392D01*
X118109424Y-97189244D01*
X118113122Y-97190500D01*
X118245894Y-97190500D01*
X118256157Y-97190500D01*
X118265045Y-97185367D01*
X118373186Y-97156392D01*
X118487314Y-97090500D01*
X118537656Y-97040158D01*
X124017000Y-97040158D01*
X124017000Y-97179842D01*
X124053152Y-97314765D01*
X124053153Y-97314767D01*
X124053154Y-97314769D01*
X124064642Y-97334667D01*
X124122994Y-97435735D01*
X124221765Y-97534506D01*
X124342735Y-97604348D01*
X124477658Y-97640500D01*
X124477660Y-97640500D01*
X124617340Y-97640500D01*
X124617342Y-97640500D01*
X124752265Y-97604348D01*
X124873235Y-97534506D01*
X124972006Y-97435735D01*
X125041848Y-97314765D01*
X125078000Y-97179842D01*
X125078000Y-97040158D01*
X125041848Y-96905235D01*
X125033340Y-96890499D01*
X124979540Y-96797314D01*
X124972006Y-96784265D01*
X124873235Y-96685494D01*
X124873234Y-96685493D01*
X124869246Y-96683191D01*
X124869229Y-96683181D01*
X124760702Y-96620523D01*
X124756804Y-96617531D01*
X124747728Y-96613772D01*
X124742856Y-96613131D01*
X124617342Y-96579500D01*
X124617341Y-96579500D01*
X124477659Y-96579500D01*
X124477658Y-96579500D01*
X124434669Y-96591018D01*
X124343804Y-96615365D01*
X124342801Y-96615617D01*
X124342766Y-96615634D01*
X124342740Y-96615648D01*
X124221763Y-96685494D01*
X124122994Y-96784263D01*
X124053148Y-96905240D01*
X124053134Y-96905266D01*
X124053117Y-96905301D01*
X124052865Y-96906304D01*
X124038444Y-96960126D01*
X124017000Y-97040158D01*
X118537656Y-97040158D01*
X118580500Y-96997314D01*
X118646392Y-96883186D01*
X118675367Y-96775045D01*
X118680500Y-96766156D01*
X118680500Y-96623120D01*
X118679239Y-96619405D01*
X118678233Y-96615650D01*
X118646392Y-96496814D01*
X118604413Y-96424105D01*
X120459500Y-96424105D01*
X120459500Y-96555894D01*
X120493606Y-96683181D01*
X120493607Y-96683183D01*
X120493610Y-96683191D01*
X120526343Y-96739885D01*
X120559497Y-96797310D01*
X120559498Y-96797311D01*
X120559500Y-96797314D01*
X120652686Y-96890500D01*
X120766814Y-96956392D01*
X120889424Y-96989244D01*
X120893122Y-96990500D01*
X121025894Y-96990500D01*
X121036157Y-96990500D01*
X121045047Y-96985367D01*
X121045046Y-96985367D01*
X121083551Y-96975050D01*
X121125428Y-96963830D01*
X121139246Y-96960127D01*
X121139248Y-96960127D01*
X121143458Y-96958998D01*
X121153186Y-96956392D01*
X121267314Y-96890500D01*
X121360500Y-96797314D01*
X121426392Y-96683186D01*
X121455367Y-96575045D01*
X121460500Y-96566156D01*
X121460500Y-96423121D01*
X121459244Y-96419424D01*
X121426542Y-96297377D01*
X121426405Y-96296847D01*
X121426393Y-96296816D01*
X121426389Y-96296809D01*
X121360500Y-96182686D01*
X121267314Y-96089500D01*
X121267311Y-96089498D01*
X121267310Y-96089497D01*
X121153202Y-96023616D01*
X121153193Y-96023611D01*
X121153190Y-96023610D01*
X121153183Y-96023607D01*
X121153184Y-96023607D01*
X121153182Y-96023606D01*
X121153181Y-96023606D01*
X121025894Y-95989500D01*
X121025893Y-95989500D01*
X120894107Y-95989500D01*
X120894106Y-95989500D01*
X120793707Y-96016401D01*
X120766814Y-96023607D01*
X120766796Y-96023616D01*
X120652688Y-96089497D01*
X120559497Y-96182688D01*
X120493616Y-96296796D01*
X120493608Y-96296814D01*
X120493606Y-96296818D01*
X120459500Y-96424105D01*
X118604413Y-96424105D01*
X118580500Y-96382686D01*
X118487314Y-96289500D01*
X118460202Y-96273847D01*
X118373190Y-96223610D01*
X118373183Y-96223607D01*
X118373184Y-96223607D01*
X118373182Y-96223606D01*
X118373181Y-96223606D01*
X118245894Y-96189500D01*
X118245893Y-96189500D01*
X118114107Y-96189500D01*
X118114106Y-96189500D01*
X118013707Y-96216401D01*
X117986814Y-96223607D01*
X117986796Y-96223616D01*
X117872688Y-96289497D01*
X117779497Y-96382688D01*
X117713616Y-96496796D01*
X117713608Y-96496814D01*
X117713606Y-96496818D01*
X117679500Y-96624105D01*
X82840500Y-96624105D01*
X82840500Y-94590438D01*
X82840500Y-94478748D01*
X82804037Y-94178449D01*
X82731643Y-93884734D01*
X82624373Y-93601887D01*
X82483792Y-93334033D01*
X82311950Y-93085076D01*
X82311947Y-93085072D01*
X82111352Y-92858648D01*
X82111351Y-92858647D01*
X82111346Y-92858642D01*
X81884927Y-92658052D01*
X81884923Y-92658049D01*
X81884918Y-92658045D01*
X81637162Y-92487033D01*
X81636357Y-92486453D01*
X81635969Y-92486208D01*
X81368111Y-92345626D01*
X81368109Y-92345625D01*
X81288891Y-92315581D01*
X81085264Y-92238355D01*
X80860777Y-92183025D01*
X80801342Y-92168376D01*
X80801338Y-92168375D01*
X80791551Y-92165963D01*
X80791549Y-92165962D01*
X80791546Y-92165962D01*
X80784498Y-92165106D01*
X80784492Y-92165105D01*
X80491266Y-92129500D01*
X80491259Y-92129500D01*
X80491252Y-92129500D01*
X80379562Y-92129500D01*
X75487595Y-92129500D01*
X75440000Y-92129500D01*
X75288748Y-92129500D01*
X75288740Y-92129500D01*
X75288732Y-92129500D01*
X74988457Y-92165961D01*
X74694734Y-92238355D01*
X74411887Y-92345626D01*
X74144029Y-92486208D01*
X74143636Y-92486457D01*
X74142836Y-92487033D01*
X73895080Y-92658045D01*
X73895075Y-92658049D01*
X73895071Y-92658052D01*
X73668652Y-92858642D01*
X73668642Y-92858652D01*
X73468052Y-93085071D01*
X73468049Y-93085075D01*
X73468045Y-93085080D01*
X73297033Y-93332836D01*
X73296457Y-93333636D01*
X73296208Y-93334029D01*
X73155626Y-93601887D01*
X73048355Y-93884734D01*
X72975961Y-94178457D01*
X72939500Y-94478732D01*
X70822280Y-94478732D01*
X70878113Y-94171281D01*
X70878356Y-94170006D01*
X70878605Y-94168761D01*
X70878881Y-94167445D01*
X70878891Y-94167399D01*
X71106278Y-93128961D01*
X71106553Y-93127760D01*
X71106870Y-93126424D01*
X71107178Y-93125182D01*
X71117484Y-93085071D01*
X71371741Y-92095500D01*
X71372067Y-92094280D01*
X71372426Y-92092982D01*
X71372765Y-92091794D01*
X71674145Y-91072278D01*
X71674474Y-91071199D01*
X71674936Y-91069732D01*
X71675288Y-91068650D01*
X72013108Y-90060574D01*
X72013489Y-90059469D01*
X72013997Y-90058040D01*
X72014385Y-90056978D01*
X72388192Y-89061701D01*
X72388635Y-89060554D01*
X72389116Y-89059339D01*
X72389582Y-89058190D01*
X72700853Y-88312015D01*
X72716952Y-88288052D01*
X72730607Y-88274466D01*
X72782764Y-88252925D01*
X127199434Y-88227352D01*
X127227749Y-88232971D01*
G37*
G04 #@! TD.AperFunction*
M02*
