G04 #@! TF.GenerationSoftware,KiCad,Pcbnew,10.0.3*
G04 #@! TF.CreationDate,2026-07-12T18:16:33+02:00*
G04 #@! TF.ProjectId,temphum_node,74656d70-6875-46d5-9f6e-6f64652e6b69,rev?*
G04 #@! TF.SameCoordinates,Original*
G04 #@! TF.FileFunction,Copper,L4,Bot*
G04 #@! TF.FilePolarity,Positive*
%FSLAX46Y46*%
G04 Gerber Fmt 4.6, Leading zero omitted, Abs format (unit mm)*
G04 Created by KiCad (PCBNEW 10.0.3) date 2026-07-12 18:16:33*
%MOMM*%
%LPD*%
G01*
G04 APERTURE LIST*
G04 Aperture macros list*
%AMHorizOval*
0 Thick line with rounded ends*
0 $1 width*
0 $2 $3 position (X,Y) of the first rounded end (center of the circle)*
0 $4 $5 position (X,Y) of the second rounded end (center of the circle)*
0 Add line between two ends*
20,1,$1,$2,$3,$4,$5,0*
0 Add two circle primitives to create the rounded ends*
1,1,$1,$2,$3*
1,1,$1,$4,$5*%
G04 Aperture macros list end*
G04 #@! TA.AperFunction,ComponentPad*
%ADD10C,0.400000*%
G04 #@! TD*
G04 #@! TA.AperFunction,ComponentPad*
%ADD11O,2.000000X1.100000*%
G04 #@! TD*
G04 #@! TA.AperFunction,ComponentPad*
%ADD12O,1.800000X1.200000*%
G04 #@! TD*
G04 #@! TA.AperFunction,ComponentPad*
%ADD13C,0.500000*%
G04 #@! TD*
G04 #@! TA.AperFunction,ComponentPad*
%ADD14C,0.800000*%
G04 #@! TD*
G04 #@! TA.AperFunction,SMDPad,CuDef*
%ADD15HorizOval,1.000000X-0.498510X0.498510X0.498510X-0.498510X0*%
G04 #@! TD*
G04 #@! TA.AperFunction,SMDPad,CuDef*
%ADD16O,1.000000X4.000000*%
G04 #@! TD*
G04 #@! TA.AperFunction,ComponentPad*
%ADD17C,1.700000*%
G04 #@! TD*
G04 #@! TA.AperFunction,ViaPad*
%ADD18C,0.400000*%
G04 #@! TD*
G04 #@! TA.AperFunction,Conductor*
%ADD19C,0.250000*%
G04 #@! TD*
G04 APERTURE END LIST*
D10*
X118345000Y-105235000D03*
X118705000Y-105985000D03*
X117985000Y-105985000D03*
X118345000Y-106735000D03*
X110260000Y-111900000D03*
X111010000Y-112250000D03*
X109510000Y-112250000D03*
X110260000Y-112600000D03*
D11*
X124017500Y-104320000D03*
D12*
X128227500Y-104320000D03*
D11*
X124017500Y-95680000D03*
D12*
X128227500Y-95680000D03*
D13*
X88885000Y-105995000D03*
X87625000Y-105995000D03*
X86365000Y-105995000D03*
X89945000Y-107055000D03*
X88885000Y-107055000D03*
X87625000Y-107055000D03*
X86365000Y-107055000D03*
X85305000Y-107055000D03*
X89945000Y-108315000D03*
X88885000Y-108315000D03*
X87625000Y-108315000D03*
X86365000Y-108315000D03*
X85305000Y-108315000D03*
X89945000Y-109575000D03*
X88885000Y-109575000D03*
X87625000Y-109575000D03*
X86365000Y-109575000D03*
X85305000Y-109575000D03*
X88885000Y-110635000D03*
X87625000Y-110635000D03*
X86365000Y-110635000D03*
D14*
X90150000Y-73570000D03*
D15*
X90650000Y-74070000D03*
D16*
X91150000Y-76070000D03*
D15*
X91650000Y-78070000D03*
D14*
X92150000Y-73570000D03*
X92150000Y-78570000D03*
D15*
X92650000Y-74070000D03*
D16*
X93150000Y-76070000D03*
D15*
X93650000Y-78070000D03*
D14*
X94150000Y-73570000D03*
X94150000Y-78570000D03*
D15*
X94650000Y-74070000D03*
D16*
X95150000Y-76070000D03*
D15*
X95650000Y-78070000D03*
D14*
X96150000Y-73570000D03*
X96150000Y-78570000D03*
D15*
X96650000Y-74070000D03*
D16*
X97150000Y-76070000D03*
D15*
X97650000Y-78070000D03*
D14*
X98150000Y-73570000D03*
X98150000Y-78570000D03*
D15*
X98650000Y-74070000D03*
D16*
X99150000Y-76070000D03*
D15*
X99650000Y-78070000D03*
D14*
X100150000Y-73570000D03*
X100150000Y-78570000D03*
D15*
X100650000Y-74070000D03*
D16*
X101150000Y-76070000D03*
D15*
X101650000Y-78070000D03*
D14*
X102150000Y-73570000D03*
X102150000Y-78570000D03*
D15*
X102650000Y-74070000D03*
D16*
X103150000Y-76070000D03*
D15*
X103650000Y-78070000D03*
D14*
X104150000Y-73570000D03*
X104150000Y-78570000D03*
D15*
X104650000Y-74070000D03*
D16*
X105150000Y-76070000D03*
D15*
X105650000Y-78070000D03*
D14*
X106150000Y-73570000D03*
X106150000Y-78570000D03*
D15*
X106650000Y-74070000D03*
D16*
X107150000Y-76070000D03*
D15*
X107650000Y-78070000D03*
D14*
X108150000Y-73570000D03*
X108150000Y-78570000D03*
D15*
X108650000Y-74070000D03*
D16*
X109150000Y-76070000D03*
D15*
X109650000Y-78070000D03*
D14*
X110150000Y-73570000D03*
X110150000Y-78570000D03*
D17*
X117680000Y-114027500D03*
X120180000Y-114027500D03*
D18*
X126170000Y-88930000D03*
X122340000Y-90380000D03*
X118280000Y-90240000D03*
X115540000Y-90520000D03*
X107290000Y-90540000D03*
X111570000Y-90710000D03*
X123780000Y-88930000D03*
X121200000Y-89070000D03*
X113690000Y-116260000D03*
X109900000Y-105420000D03*
X90350000Y-125210000D03*
X113450000Y-100040000D03*
X80760000Y-117240000D03*
X114870000Y-89070000D03*
X110290000Y-102810000D03*
X118890000Y-89130000D03*
X107540000Y-117660000D03*
X114450000Y-103830000D03*
X102250000Y-109110000D03*
X115500000Y-98220000D03*
X73450000Y-90700000D03*
X102230000Y-102550000D03*
X124100000Y-91640000D03*
X106410000Y-120820000D03*
X106730000Y-116260000D03*
X109210000Y-118040000D03*
X87900000Y-101800000D03*
X92850000Y-102080000D03*
X110680000Y-89020000D03*
X126170000Y-91640000D03*
X88920000Y-124040000D03*
X99350000Y-106910000D03*
X121810000Y-111410000D03*
X81720000Y-114050000D03*
X101350000Y-97010000D03*
X91290000Y-93640000D03*
X116550000Y-94160000D03*
X91290000Y-92070000D03*
X107650000Y-111230000D03*
X92060000Y-100420000D03*
X83740000Y-97650000D03*
X109380000Y-126030000D03*
X101520000Y-88960000D03*
X121990000Y-94960000D03*
X93700000Y-95000000D03*
X93320000Y-97740000D03*
X84940000Y-124650000D03*
X83650000Y-94420000D03*
X82410000Y-101280000D03*
X113870000Y-95110000D03*
X110260000Y-114340000D03*
X116730000Y-96690000D03*
X124140000Y-109500000D03*
X113270000Y-117540000D03*
X94060000Y-103690000D03*
X77050000Y-91280000D03*
X103820000Y-88990000D03*
X88030000Y-93540000D03*
X89990000Y-117900000D03*
X75820000Y-115360000D03*
X93280000Y-88910000D03*
X113930000Y-91980000D03*
X82530000Y-103090000D03*
X120220000Y-91470000D03*
X85590000Y-115340000D03*
X105610000Y-101050000D03*
X115640000Y-103700000D03*
X112040000Y-111220000D03*
X108510000Y-89020000D03*
X106980000Y-125480000D03*
X110290000Y-101140000D03*
X109430000Y-96010000D03*
X127760000Y-106750000D03*
X86340000Y-89100000D03*
X99330000Y-104300000D03*
X111950000Y-119840000D03*
X77650000Y-88990000D03*
X95310000Y-99060000D03*
X119210000Y-111570000D03*
X126090000Y-110910000D03*
X87330000Y-122500000D03*
X91370000Y-99180000D03*
X95930000Y-96340000D03*
X113180000Y-102030000D03*
X98060000Y-122310000D03*
X97980000Y-98090000D03*
X88930000Y-96510000D03*
X83010000Y-89040000D03*
X91310000Y-88850000D03*
X84170000Y-113030000D03*
X86740000Y-118150000D03*
X89590000Y-122430000D03*
X112800000Y-111220000D03*
X106300000Y-99050000D03*
X106210000Y-92110000D03*
X86880000Y-114430000D03*
X116010000Y-116030000D03*
X122640000Y-93100000D03*
X74790000Y-113120000D03*
X109400000Y-91980000D03*
X85730000Y-93330000D03*
X128030000Y-101820000D03*
X111590000Y-94620000D03*
X89160000Y-90190000D03*
X82110000Y-119650000D03*
X91630000Y-103720000D03*
X80220000Y-121450000D03*
X84760000Y-89100000D03*
X86960000Y-112980000D03*
X71730000Y-97040000D03*
X111180000Y-118080000D03*
X115310000Y-100360000D03*
X118310000Y-101200000D03*
X110180000Y-121610000D03*
X104600000Y-107030000D03*
X107790000Y-105380000D03*
X116620000Y-89070000D03*
X98230000Y-102450000D03*
X113200000Y-97720000D03*
X91380000Y-97780000D03*
X87760000Y-100000000D03*
X88260000Y-89070000D03*
X71990000Y-106010000D03*
X128010000Y-99580000D03*
X76900000Y-100820000D03*
X82390000Y-99720000D03*
X102090000Y-106710000D03*
X84660000Y-100450000D03*
X76910000Y-101690000D03*
X89140000Y-92090000D03*
X103350000Y-125860000D03*
X124800000Y-112380000D03*
X83680000Y-103850000D03*
X116030000Y-122530000D03*
X119000000Y-103930000D03*
X98190000Y-111600000D03*
X107460000Y-122510000D03*
X92640000Y-111470000D03*
X95470000Y-88930000D03*
X84770000Y-102980000D03*
X104500000Y-99790000D03*
X88220000Y-98180000D03*
X108510000Y-111210000D03*
X92230000Y-96360000D03*
X105600000Y-96210000D03*
X126010000Y-108070000D03*
X96580000Y-91170000D03*
X107660000Y-115610000D03*
X113760000Y-111790000D03*
X88970000Y-94830000D03*
X127920000Y-97950000D03*
X79830000Y-115290000D03*
X85580000Y-117060000D03*
X81010000Y-112280000D03*
X75630000Y-88990000D03*
X128200000Y-93490000D03*
X119740000Y-101490000D03*
X101570000Y-125890000D03*
X106380000Y-89040000D03*
X86190000Y-97660000D03*
X97640000Y-88910000D03*
X79490000Y-88930000D03*
X96770000Y-120940000D03*
X73490000Y-88930000D03*
X102500000Y-95400000D03*
X93990000Y-100230000D03*
X96900000Y-100460000D03*
X102960000Y-115800000D03*
X82900000Y-117280000D03*
X86480000Y-95650000D03*
X86860000Y-91090000D03*
X97800000Y-94350000D03*
X112870000Y-115590000D03*
X107510000Y-102710000D03*
X114540000Y-118730000D03*
X108370000Y-94300000D03*
X72430000Y-102610000D03*
X120270000Y-97570000D03*
X115440000Y-102180000D03*
X77700000Y-102130000D03*
X105660000Y-105080000D03*
X107810000Y-101090000D03*
X121930000Y-106690000D03*
X94890000Y-111450000D03*
X92210000Y-125880000D03*
X93820000Y-91020000D03*
X121990000Y-96470000D03*
X95220000Y-92870000D03*
X79960000Y-91020000D03*
X74930000Y-104380000D03*
X114200000Y-121670000D03*
X110340000Y-124080000D03*
X98360000Y-113120000D03*
X91770000Y-123120000D03*
X71880000Y-93990000D03*
X122620000Y-116950000D03*
X91310000Y-90170000D03*
X71080000Y-100530000D03*
X83930000Y-91510000D03*
X116640000Y-111620000D03*
X114070000Y-124150000D03*
X84340000Y-121690000D03*
X103380000Y-98860000D03*
X85970000Y-100470000D03*
X123650000Y-107920000D03*
X123820000Y-114810000D03*
X127140000Y-90680000D03*
X105010000Y-119020000D03*
X91270000Y-95350000D03*
X99750000Y-88930000D03*
X119920000Y-102640000D03*
X118960000Y-116320000D03*
X86100000Y-103610000D03*
X116690000Y-91680000D03*
X112710000Y-89040000D03*
X89790000Y-115890000D03*
X100850000Y-91550000D03*
X96060000Y-122500000D03*
X90980000Y-116910000D03*
X120970000Y-119190000D03*
X82900000Y-115420000D03*
X81430000Y-89020000D03*
X73320000Y-99870000D03*
X123080000Y-105650000D03*
X97220000Y-108120000D03*
X94790000Y-121160000D03*
X98890000Y-108840000D03*
X95340000Y-102030000D03*
X117700000Y-98680000D03*
X108610000Y-119860000D03*
X88360000Y-118410000D03*
X99480000Y-114580000D03*
X103090000Y-112420000D03*
X97300000Y-110570000D03*
X100770000Y-120910000D03*
X82500000Y-110060000D03*
X95070000Y-108310000D03*
X92310000Y-114630000D03*
X82370000Y-104840000D03*
X93540000Y-113820000D03*
X99630000Y-120940000D03*
X100140000Y-122390000D03*
X99380000Y-125740000D03*
X94700000Y-120010000D03*
X93820000Y-123390000D03*
X95790000Y-120050000D03*
X98090000Y-125760000D03*
X99610000Y-120060000D03*
X102100000Y-120830000D03*
X102990000Y-117240000D03*
X80740000Y-103970000D03*
X95240000Y-117150000D03*
X116645000Y-108335000D03*
X108430000Y-114230000D03*
X107690000Y-114230000D03*
X107280000Y-113530000D03*
X95420000Y-116180000D03*
X108820000Y-113500000D03*
X103280000Y-106360000D03*
X94160000Y-117400000D03*
X76080000Y-100700000D03*
X78670000Y-106535000D03*
X76080000Y-102730000D03*
X102650000Y-119440000D03*
X125330000Y-100510000D03*
X118180000Y-96690000D03*
X120960000Y-96490000D03*
X125340000Y-98990000D03*
X97030000Y-115400000D03*
X99620000Y-113510000D03*
X87910000Y-117560000D03*
X88810000Y-117570000D03*
X88800000Y-116870000D03*
X87920000Y-116860000D03*
X92790000Y-105430000D03*
X92550000Y-107210000D03*
X103100000Y-118980000D03*
X77990000Y-107060000D03*
D19*
X97300000Y-110570000D02*
X98660000Y-110570000D01*
X98660000Y-110570000D02*
X100510000Y-112420000D01*
X100510000Y-112420000D02*
X103090000Y-112420000D01*
X100740000Y-120940000D02*
X100770000Y-120910000D01*
X99630000Y-120940000D02*
X100740000Y-120940000D01*
X100140000Y-124980000D02*
X100140000Y-122390000D01*
X99380000Y-125740000D02*
X100140000Y-124980000D01*
X93820000Y-120890000D02*
X94700000Y-120010000D01*
X93820000Y-123390000D02*
X93820000Y-120890000D01*
X93830000Y-123420000D02*
X93820000Y-123410000D01*
X93820000Y-123410000D02*
X93820000Y-123390000D01*
X97540000Y-125210000D02*
X97540000Y-123080000D01*
X98090000Y-125760000D02*
X97540000Y-125210000D01*
X97540000Y-123080000D02*
X95790000Y-121330000D01*
X95790000Y-121330000D02*
X95790000Y-120050000D01*
X99610000Y-120060000D02*
X101330000Y-120060000D01*
X101330000Y-120060000D02*
X102100000Y-120830000D01*
X89510000Y-126810000D02*
X85370000Y-122670000D01*
X76080000Y-100700000D02*
X76080000Y-102730000D01*
X78670000Y-106535000D02*
X78670000Y-117880000D01*
X105150000Y-125863604D02*
X104203604Y-126810000D01*
X104203604Y-126810000D02*
X89510000Y-126810000D01*
X102650000Y-119440000D02*
X105150000Y-121940000D01*
X85370000Y-122670000D02*
X83460000Y-122670000D01*
X83460000Y-122670000D02*
X78670000Y-117880000D01*
X105150000Y-121940000D02*
X105150000Y-125863604D01*
X122000000Y-100510000D02*
X118180000Y-96690000D01*
X125330000Y-100510000D02*
X122000000Y-100510000D01*
X118180000Y-96740000D02*
X118180000Y-96690000D01*
X120960000Y-97650000D02*
X120960000Y-96490000D01*
X122300000Y-98990000D02*
X120960000Y-97650000D01*
X125340000Y-98990000D02*
X122300000Y-98990000D01*
X99620000Y-113510000D02*
X97730000Y-115400000D01*
X97730000Y-115400000D02*
X97030000Y-115400000D01*
X103100000Y-118980000D02*
X105640000Y-121520000D01*
X89250000Y-127420000D02*
X85050000Y-123220000D01*
X105640000Y-126010000D02*
X104230000Y-127420000D01*
X105640000Y-121520000D02*
X105640000Y-126010000D01*
X77990000Y-107060000D02*
X77990000Y-118030000D01*
X85050000Y-123220000D02*
X83180000Y-123220000D01*
X83180000Y-123220000D02*
X77990000Y-118030000D01*
X104230000Y-127420000D02*
X89250000Y-127420000D01*
G04 #@! TA.AperFunction,Conductor*
G36*
X127266471Y-88248960D02*
G01*
X127282466Y-88272821D01*
X127610293Y-89058682D01*
X127611272Y-89061154D01*
X127985484Y-90057510D01*
X127986374Y-90060015D01*
X128324563Y-91069193D01*
X128325362Y-91071728D01*
X128627079Y-92092385D01*
X128627787Y-92094948D01*
X128892651Y-93125802D01*
X128893266Y-93128388D01*
X129120927Y-94168077D01*
X129121449Y-94170684D01*
X129311618Y-95217885D01*
X129312046Y-95220509D01*
X129464475Y-96273847D01*
X129464809Y-96276484D01*
X129579307Y-97334667D01*
X129579545Y-97337315D01*
X129655957Y-98398888D01*
X129656100Y-98401543D01*
X129694331Y-99465171D01*
X129694379Y-99467829D01*
X129694379Y-100532170D01*
X129694331Y-100534828D01*
X129656100Y-101598456D01*
X129655957Y-101601111D01*
X129579545Y-102662684D01*
X129579307Y-102665332D01*
X129464809Y-103723515D01*
X129464475Y-103726152D01*
X129312046Y-104779490D01*
X129311618Y-104782114D01*
X129121449Y-105829315D01*
X129120927Y-105831922D01*
X128893266Y-106871611D01*
X128892651Y-106874197D01*
X128627787Y-107905051D01*
X128627079Y-107907614D01*
X128325362Y-108928271D01*
X128324563Y-108930806D01*
X127986374Y-109939984D01*
X127985484Y-109942489D01*
X127611272Y-110938845D01*
X127610293Y-110941317D01*
X127200518Y-111923624D01*
X127199450Y-111926059D01*
X126754672Y-112892974D01*
X126753518Y-112895369D01*
X126274289Y-113845694D01*
X126273050Y-113848046D01*
X125759977Y-114780578D01*
X125758653Y-114782884D01*
X125212434Y-115696350D01*
X125211029Y-115698606D01*
X124632356Y-116591856D01*
X124630871Y-116594061D01*
X124020464Y-117465977D01*
X124018900Y-117468127D01*
X123377601Y-118317511D01*
X123375962Y-118319604D01*
X122704524Y-119145457D01*
X122702810Y-119147489D01*
X122002171Y-119948655D01*
X122000385Y-119950625D01*
X121271410Y-120726117D01*
X121269555Y-120728021D01*
X120513182Y-121476841D01*
X120511259Y-121478677D01*
X119728503Y-122199820D01*
X119726516Y-122201586D01*
X118918328Y-122894175D01*
X118916278Y-122895868D01*
X118083773Y-123558950D01*
X118081664Y-123560569D01*
X117225865Y-124193327D01*
X117223700Y-124194869D01*
X116345700Y-124796495D01*
X116343480Y-124797958D01*
X115444449Y-125367650D01*
X115442178Y-125369032D01*
X114523280Y-125906053D01*
X114520961Y-125907353D01*
X113583361Y-126411024D01*
X113580997Y-126412240D01*
X112625898Y-126881912D01*
X112623492Y-126883042D01*
X111652138Y-127318105D01*
X111649692Y-127319148D01*
X110894056Y-127625500D01*
X110764991Y-127677826D01*
X110724904Y-127694078D01*
X110697101Y-127699500D01*
X104589478Y-127699500D01*
X104537152Y-127677826D01*
X104515478Y-127625500D01*
X104537151Y-127573175D01*
X105900465Y-126209862D01*
X105943318Y-126135639D01*
X105965500Y-126052853D01*
X105965500Y-125967147D01*
X105965500Y-121477147D01*
X105965500Y-121477145D01*
X105965499Y-121477144D01*
X105959737Y-121455641D01*
X105943318Y-121394362D01*
X105900465Y-121320138D01*
X105839862Y-121259535D01*
X104777973Y-120197646D01*
X116909500Y-120197646D01*
X116909500Y-120402353D01*
X116941522Y-120604531D01*
X116941525Y-120604544D01*
X117004777Y-120799213D01*
X117097712Y-120981610D01*
X117151381Y-121055478D01*
X117218034Y-121147219D01*
X117362781Y-121291966D01*
X117429583Y-121340500D01*
X117528389Y-121412287D01*
X117613473Y-121455639D01*
X117710781Y-121505220D01*
X117710783Y-121505220D01*
X117710786Y-121505222D01*
X117905455Y-121568474D01*
X117905461Y-121568475D01*
X117905466Y-121568477D01*
X118006557Y-121584488D01*
X118107646Y-121600500D01*
X118107648Y-121600500D01*
X118312354Y-121600500D01*
X118393224Y-121587690D01*
X118514534Y-121568477D01*
X118514541Y-121568474D01*
X118514544Y-121568474D01*
X118709213Y-121505222D01*
X118709213Y-121505221D01*
X118709219Y-121505220D01*
X118891610Y-121412287D01*
X119057219Y-121291966D01*
X119201966Y-121147219D01*
X119322287Y-120981610D01*
X119415220Y-120799219D01*
X119419706Y-120785413D01*
X119478474Y-120604544D01*
X119478474Y-120604541D01*
X119478477Y-120604534D01*
X119505613Y-120433207D01*
X119510500Y-120402353D01*
X119510500Y-120197646D01*
X119494488Y-120096557D01*
X119478477Y-119995466D01*
X119478475Y-119995461D01*
X119478474Y-119995455D01*
X119415222Y-119800786D01*
X119415220Y-119800783D01*
X119415220Y-119800781D01*
X119356692Y-119685913D01*
X119322287Y-119618389D01*
X119268745Y-119544695D01*
X119201966Y-119452781D01*
X119057219Y-119308034D01*
X118993040Y-119261406D01*
X118891610Y-119187712D01*
X118709213Y-119094777D01*
X118514544Y-119031525D01*
X118514531Y-119031522D01*
X118312354Y-118999500D01*
X118312352Y-118999500D01*
X118107648Y-118999500D01*
X118107646Y-118999500D01*
X117905468Y-119031522D01*
X117905455Y-119031525D01*
X117710786Y-119094777D01*
X117528389Y-119187712D01*
X117362785Y-119308031D01*
X117362781Y-119308034D01*
X117218034Y-119452781D01*
X117218031Y-119452784D01*
X117218031Y-119452785D01*
X117097712Y-119618389D01*
X117004777Y-119800786D01*
X116941525Y-119995455D01*
X116941522Y-119995468D01*
X116909500Y-120197646D01*
X104777973Y-120197646D01*
X103511921Y-118931594D01*
X103492769Y-118898422D01*
X103473207Y-118825413D01*
X103420480Y-118734087D01*
X103345913Y-118659520D01*
X103254591Y-118606795D01*
X103254582Y-118606791D01*
X103152729Y-118579500D01*
X103152727Y-118579500D01*
X103047273Y-118579500D01*
X103047271Y-118579500D01*
X102945417Y-118606791D01*
X102945408Y-118606795D01*
X102854086Y-118659520D01*
X102779520Y-118734086D01*
X102726795Y-118825408D01*
X102726791Y-118825417D01*
X102699500Y-118927270D01*
X102699500Y-118965500D01*
X102677826Y-119017826D01*
X102625500Y-119039500D01*
X102597271Y-119039500D01*
X102495417Y-119066791D01*
X102495408Y-119066795D01*
X102404086Y-119119520D01*
X102329520Y-119194086D01*
X102276795Y-119285408D01*
X102276791Y-119285417D01*
X102249500Y-119387270D01*
X102249500Y-119492729D01*
X102276791Y-119594582D01*
X102276795Y-119594591D01*
X102301162Y-119636795D01*
X102329520Y-119685913D01*
X102404087Y-119760480D01*
X102495413Y-119813207D01*
X102568422Y-119832769D01*
X102601594Y-119851921D01*
X104802826Y-122053153D01*
X104824500Y-122105479D01*
X104824500Y-125698125D01*
X104802826Y-125750451D01*
X104090451Y-126462826D01*
X104038125Y-126484500D01*
X89675479Y-126484500D01*
X89623153Y-126462826D01*
X88180488Y-125020161D01*
X88131797Y-124971470D01*
X94364200Y-124971470D01*
X94364200Y-125108529D01*
X94390937Y-125242950D01*
X94390940Y-125242961D01*
X94443387Y-125369580D01*
X94443389Y-125369583D01*
X94443390Y-125369585D01*
X94519537Y-125483547D01*
X94616453Y-125580463D01*
X94730415Y-125656610D01*
X94730420Y-125656612D01*
X94730419Y-125656612D01*
X94852726Y-125707273D01*
X94857043Y-125709061D01*
X94991470Y-125735800D01*
X94991471Y-125735800D01*
X95128529Y-125735800D01*
X95128530Y-125735800D01*
X95262957Y-125709061D01*
X95389585Y-125656610D01*
X95503547Y-125580463D01*
X95600463Y-125483547D01*
X95676610Y-125369585D01*
X95729061Y-125242957D01*
X95755800Y-125108530D01*
X95755800Y-124971470D01*
X95729061Y-124837043D01*
X95719732Y-124814520D01*
X95676612Y-124710419D01*
X95676611Y-124710417D01*
X95676610Y-124710415D01*
X95600463Y-124596453D01*
X95503547Y-124499537D01*
X95389585Y-124423390D01*
X95389581Y-124423388D01*
X95389579Y-124423387D01*
X95389580Y-124423387D01*
X95262961Y-124370940D01*
X95262950Y-124370937D01*
X95161680Y-124350793D01*
X95128530Y-124344200D01*
X94991470Y-124344200D01*
X94964877Y-124349489D01*
X94857049Y-124370937D01*
X94857038Y-124370940D01*
X94730419Y-124423387D01*
X94616453Y-124499536D01*
X94616452Y-124499538D01*
X94519538Y-124596452D01*
X94519536Y-124596453D01*
X94443387Y-124710419D01*
X94390940Y-124837038D01*
X94390937Y-124837049D01*
X94364200Y-124971470D01*
X88131797Y-124971470D01*
X87388277Y-124227950D01*
X86497597Y-123337270D01*
X93419500Y-123337270D01*
X93419500Y-123442729D01*
X93446791Y-123544582D01*
X93446795Y-123544591D01*
X93494149Y-123626610D01*
X93499520Y-123635913D01*
X93574087Y-123710480D01*
X93665413Y-123763207D01*
X93767270Y-123790499D01*
X93767271Y-123790500D01*
X93767273Y-123790500D01*
X93872729Y-123790500D01*
X93872729Y-123790499D01*
X93974587Y-123763207D01*
X94065913Y-123710480D01*
X94140480Y-123635913D01*
X94193207Y-123544587D01*
X94220499Y-123442729D01*
X94220500Y-123442729D01*
X94220500Y-123337271D01*
X94220499Y-123337270D01*
X94193208Y-123235417D01*
X94193207Y-123235413D01*
X94181321Y-123214826D01*
X94155414Y-123169951D01*
X94145500Y-123132952D01*
X94145500Y-122941470D01*
X94364200Y-122941470D01*
X94364200Y-123078529D01*
X94390937Y-123212950D01*
X94390940Y-123212961D01*
X94443387Y-123339580D01*
X94443389Y-123339583D01*
X94443390Y-123339585D01*
X94454318Y-123355940D01*
X94512308Y-123442729D01*
X94519537Y-123453547D01*
X94616453Y-123550463D01*
X94730415Y-123626610D01*
X94730420Y-123626612D01*
X94730419Y-123626612D01*
X94752874Y-123635913D01*
X94857043Y-123679061D01*
X94991470Y-123705800D01*
X94991471Y-123705800D01*
X95128529Y-123705800D01*
X95128530Y-123705800D01*
X95262957Y-123679061D01*
X95389585Y-123626610D01*
X95503547Y-123550463D01*
X95600463Y-123453547D01*
X95676610Y-123339585D01*
X95729061Y-123212957D01*
X95755800Y-123078530D01*
X95755800Y-122941470D01*
X95729061Y-122807043D01*
X95676610Y-122680415D01*
X95600463Y-122566453D01*
X95503547Y-122469537D01*
X95389585Y-122393390D01*
X95389581Y-122393388D01*
X95389579Y-122393387D01*
X95389580Y-122393387D01*
X95262961Y-122340940D01*
X95262950Y-122340937D01*
X95161680Y-122320793D01*
X95128530Y-122314200D01*
X94991470Y-122314200D01*
X94964877Y-122319489D01*
X94857049Y-122340937D01*
X94857038Y-122340940D01*
X94730419Y-122393387D01*
X94616453Y-122469536D01*
X94616452Y-122469538D01*
X94519538Y-122566452D01*
X94519536Y-122566453D01*
X94443387Y-122680419D01*
X94390940Y-122807038D01*
X94390937Y-122807049D01*
X94364200Y-122941470D01*
X94145500Y-122941470D01*
X94145500Y-121055478D01*
X94167173Y-121003153D01*
X94748406Y-120421919D01*
X94781574Y-120402770D01*
X94854587Y-120383207D01*
X94945913Y-120330480D01*
X95020480Y-120255913D01*
X95073207Y-120164587D01*
X95100499Y-120062729D01*
X95100500Y-120062729D01*
X95100500Y-119997270D01*
X95389500Y-119997270D01*
X95389500Y-120102729D01*
X95416791Y-120204582D01*
X95416795Y-120204591D01*
X95454586Y-120270046D01*
X95464500Y-120307046D01*
X95464500Y-121287147D01*
X95464500Y-121372853D01*
X95486682Y-121455639D01*
X95486683Y-121455641D01*
X95486684Y-121455643D01*
X95529532Y-121529858D01*
X95529533Y-121529859D01*
X95529535Y-121529862D01*
X96393061Y-122393387D01*
X97192826Y-123193152D01*
X97214500Y-123245478D01*
X97214500Y-125167147D01*
X97214500Y-125252853D01*
X97236682Y-125335639D01*
X97236683Y-125335641D01*
X97236684Y-125335643D01*
X97279532Y-125409858D01*
X97279533Y-125409859D01*
X97279535Y-125409862D01*
X97678079Y-125808406D01*
X97697229Y-125841575D01*
X97711433Y-125894582D01*
X97716793Y-125914588D01*
X97716795Y-125914591D01*
X97769520Y-126005913D01*
X97844087Y-126080480D01*
X97935413Y-126133207D01*
X98037270Y-126160499D01*
X98037271Y-126160500D01*
X98037273Y-126160500D01*
X98142729Y-126160500D01*
X98142729Y-126160499D01*
X98244587Y-126133207D01*
X98335913Y-126080480D01*
X98410480Y-126005913D01*
X98463207Y-125914587D01*
X98490499Y-125812729D01*
X98490500Y-125812729D01*
X98490500Y-125707271D01*
X98488974Y-125701577D01*
X98488974Y-125701576D01*
X98485141Y-125687270D01*
X98979500Y-125687270D01*
X98979500Y-125792729D01*
X99006791Y-125894582D01*
X99006795Y-125894591D01*
X99018342Y-125914591D01*
X99059520Y-125985913D01*
X99134087Y-126060480D01*
X99225413Y-126113207D01*
X99327270Y-126140499D01*
X99327271Y-126140500D01*
X99327273Y-126140500D01*
X99432729Y-126140500D01*
X99432729Y-126140499D01*
X99534587Y-126113207D01*
X99625913Y-126060480D01*
X99700480Y-125985913D01*
X99753207Y-125894587D01*
X99772770Y-125821574D01*
X99791919Y-125788406D01*
X100400465Y-125179862D01*
X100443317Y-125105639D01*
X100443318Y-125105638D01*
X100465499Y-125022855D01*
X100465500Y-125022855D01*
X100465500Y-123956470D01*
X101984200Y-123956470D01*
X101984200Y-124093529D01*
X102010937Y-124227950D01*
X102010940Y-124227961D01*
X102063387Y-124354580D01*
X102063389Y-124354583D01*
X102063390Y-124354585D01*
X102139537Y-124468547D01*
X102236453Y-124565463D01*
X102350415Y-124641610D01*
X102350420Y-124641612D01*
X102350419Y-124641612D01*
X102477038Y-124694059D01*
X102477043Y-124694061D01*
X102611470Y-124720800D01*
X102611471Y-124720800D01*
X102748529Y-124720800D01*
X102748530Y-124720800D01*
X102882957Y-124694061D01*
X103009585Y-124641610D01*
X103123547Y-124565463D01*
X103220463Y-124468547D01*
X103296610Y-124354585D01*
X103349061Y-124227957D01*
X103375800Y-124093530D01*
X103375800Y-123956470D01*
X103349061Y-123822043D01*
X103349059Y-123822038D01*
X103296612Y-123695419D01*
X103296611Y-123695417D01*
X103296610Y-123695415D01*
X103220463Y-123581453D01*
X103123547Y-123484537D01*
X103117451Y-123480464D01*
X103095343Y-123465691D01*
X103009585Y-123408390D01*
X103009581Y-123408388D01*
X103009579Y-123408387D01*
X103009580Y-123408387D01*
X102882961Y-123355940D01*
X102882950Y-123355937D01*
X102781680Y-123335793D01*
X102748530Y-123329200D01*
X102611470Y-123329200D01*
X102584877Y-123334489D01*
X102477049Y-123355937D01*
X102477038Y-123355940D01*
X102350419Y-123408387D01*
X102236453Y-123484536D01*
X102236452Y-123484538D01*
X102139538Y-123581452D01*
X102139536Y-123581453D01*
X102063387Y-123695419D01*
X102010940Y-123822038D01*
X102010937Y-123822049D01*
X101984200Y-123956470D01*
X100465500Y-123956470D01*
X100465500Y-122647046D01*
X100475414Y-122610046D01*
X100513207Y-122544587D01*
X100540499Y-122442729D01*
X100540500Y-122442729D01*
X100540500Y-122337271D01*
X100540499Y-122337270D01*
X100513208Y-122235417D01*
X100513207Y-122235413D01*
X100460480Y-122144087D01*
X100385913Y-122069520D01*
X100294591Y-122016795D01*
X100294582Y-122016791D01*
X100192729Y-121989500D01*
X100192727Y-121989500D01*
X100087273Y-121989500D01*
X100087271Y-121989500D01*
X99985417Y-122016791D01*
X99985408Y-122016795D01*
X99894086Y-122069520D01*
X99819520Y-122144086D01*
X99766795Y-122235408D01*
X99766791Y-122235417D01*
X99739500Y-122337270D01*
X99739500Y-122442729D01*
X99766791Y-122544582D01*
X99766795Y-122544591D01*
X99804586Y-122610046D01*
X99814500Y-122647046D01*
X99814500Y-124814520D01*
X99792826Y-124866846D01*
X99331593Y-125328078D01*
X99298420Y-125347230D01*
X99225416Y-125366791D01*
X99225411Y-125366793D01*
X99134086Y-125419520D01*
X99059520Y-125494086D01*
X99006795Y-125585408D01*
X99006791Y-125585417D01*
X98979500Y-125687270D01*
X98485141Y-125687270D01*
X98463208Y-125605417D01*
X98463207Y-125605413D01*
X98410480Y-125514087D01*
X98335913Y-125439520D01*
X98244587Y-125386793D01*
X98171575Y-125367229D01*
X98138405Y-125348078D01*
X97887174Y-125096847D01*
X97865500Y-125044521D01*
X97865500Y-123128824D01*
X97865501Y-123128811D01*
X97865501Y-123037145D01*
X97865500Y-123037144D01*
X97843319Y-122954364D01*
X97843317Y-122954359D01*
X97812603Y-122901162D01*
X97808757Y-122894500D01*
X97800465Y-122880138D01*
X97739862Y-122819535D01*
X97739859Y-122819533D01*
X96137174Y-121216847D01*
X96115500Y-121164521D01*
X96115500Y-120307046D01*
X96125414Y-120270046D01*
X96157431Y-120214591D01*
X96163207Y-120204587D01*
X96190499Y-120102729D01*
X96190500Y-120102729D01*
X96190500Y-120007270D01*
X99209500Y-120007270D01*
X99209500Y-120112729D01*
X99236791Y-120214582D01*
X99236795Y-120214591D01*
X99268812Y-120270046D01*
X99289520Y-120305913D01*
X99364087Y-120380480D01*
X99455413Y-120433207D01*
X99455419Y-120433208D01*
X99459891Y-120435061D01*
X99459257Y-120436591D01*
X99499476Y-120467453D01*
X99506868Y-120523605D01*
X99472390Y-120568538D01*
X99384086Y-120619520D01*
X99309520Y-120694086D01*
X99256795Y-120785408D01*
X99256791Y-120785417D01*
X99229500Y-120887270D01*
X99229500Y-120992729D01*
X99256791Y-121094582D01*
X99256795Y-121094591D01*
X99297169Y-121164521D01*
X99309520Y-121185913D01*
X99384087Y-121260480D01*
X99475413Y-121313207D01*
X99577270Y-121340499D01*
X99577271Y-121340500D01*
X99577273Y-121340500D01*
X99682729Y-121340500D01*
X99682729Y-121340499D01*
X99784587Y-121313207D01*
X99850046Y-121275413D01*
X99887046Y-121265500D01*
X100564915Y-121265500D01*
X100601915Y-121275414D01*
X100615413Y-121283207D01*
X100717273Y-121310500D01*
X100717274Y-121310500D01*
X100822729Y-121310500D01*
X100822729Y-121310499D01*
X100924587Y-121283207D01*
X101015913Y-121230480D01*
X101090480Y-121155913D01*
X101143207Y-121064587D01*
X101170499Y-120962729D01*
X101170500Y-120962729D01*
X101170500Y-120857271D01*
X101170499Y-120857270D01*
X101149063Y-120777270D01*
X101143207Y-120755413D01*
X101090480Y-120664087D01*
X101015913Y-120589520D01*
X100976549Y-120566793D01*
X100924591Y-120536795D01*
X100924582Y-120536791D01*
X100902886Y-120530978D01*
X100857953Y-120496500D01*
X100850561Y-120440347D01*
X100885039Y-120395414D01*
X100922039Y-120385500D01*
X101164521Y-120385500D01*
X101216847Y-120407174D01*
X101688078Y-120878405D01*
X101707229Y-120911575D01*
X101726792Y-120984582D01*
X101726794Y-120984589D01*
X101767722Y-121055478D01*
X101779520Y-121075913D01*
X101854087Y-121150480D01*
X101945413Y-121203207D01*
X102047270Y-121230499D01*
X102047271Y-121230500D01*
X102047273Y-121230500D01*
X102152729Y-121230500D01*
X102152729Y-121230499D01*
X102254587Y-121203207D01*
X102345913Y-121150480D01*
X102420480Y-121075913D01*
X102473207Y-120984587D01*
X102500499Y-120882729D01*
X102500500Y-120882729D01*
X102500500Y-120777271D01*
X102500499Y-120777270D01*
X102494970Y-120756637D01*
X102473207Y-120675413D01*
X102420480Y-120584087D01*
X102345913Y-120509520D01*
X102323362Y-120496500D01*
X102254588Y-120456793D01*
X102238032Y-120452357D01*
X102181575Y-120437229D01*
X102148406Y-120418079D01*
X101529862Y-119799535D01*
X101529859Y-119799533D01*
X101529858Y-119799532D01*
X101455643Y-119756684D01*
X101455641Y-119756683D01*
X101455640Y-119756682D01*
X101455639Y-119756682D01*
X101372853Y-119734500D01*
X101372851Y-119734500D01*
X99867046Y-119734500D01*
X99830046Y-119724586D01*
X99764591Y-119686795D01*
X99764582Y-119686791D01*
X99662729Y-119659500D01*
X99662727Y-119659500D01*
X99557273Y-119659500D01*
X99557271Y-119659500D01*
X99455417Y-119686791D01*
X99455408Y-119686795D01*
X99364086Y-119739520D01*
X99289520Y-119814086D01*
X99236795Y-119905408D01*
X99236791Y-119905417D01*
X99209500Y-120007270D01*
X96190500Y-120007270D01*
X96190500Y-119997271D01*
X96190499Y-119997270D01*
X96179781Y-119957271D01*
X96163207Y-119895413D01*
X96110480Y-119804087D01*
X96035913Y-119729520D01*
X95961908Y-119686793D01*
X95944591Y-119676795D01*
X95944582Y-119676791D01*
X95842729Y-119649500D01*
X95842727Y-119649500D01*
X95737273Y-119649500D01*
X95737271Y-119649500D01*
X95635417Y-119676791D01*
X95635408Y-119676795D01*
X95544086Y-119729520D01*
X95469520Y-119804086D01*
X95416795Y-119895408D01*
X95416791Y-119895417D01*
X95389500Y-119997270D01*
X95100500Y-119997270D01*
X95100500Y-119957271D01*
X95100499Y-119957270D01*
X95098572Y-119950080D01*
X95073207Y-119855413D01*
X95020480Y-119764087D01*
X94945913Y-119689520D01*
X94941186Y-119686791D01*
X94854591Y-119636795D01*
X94854582Y-119636791D01*
X94752729Y-119609500D01*
X94752727Y-119609500D01*
X94647273Y-119609500D01*
X94647271Y-119609500D01*
X94545417Y-119636791D01*
X94545408Y-119636795D01*
X94454086Y-119689520D01*
X94379520Y-119764086D01*
X94326793Y-119855411D01*
X94326791Y-119855416D01*
X94307230Y-119928420D01*
X94288078Y-119961593D01*
X93559533Y-120690139D01*
X93516684Y-120764356D01*
X93516680Y-120764365D01*
X93507341Y-120799218D01*
X93507342Y-120799219D01*
X93494500Y-120847148D01*
X93494500Y-123132952D01*
X93484586Y-123169951D01*
X93446795Y-123235408D01*
X93446791Y-123235417D01*
X93419500Y-123337270D01*
X86497597Y-123337270D01*
X85569862Y-122409535D01*
X85569859Y-122409533D01*
X85569858Y-122409532D01*
X85495643Y-122366684D01*
X85495641Y-122366683D01*
X85495640Y-122366682D01*
X85495639Y-122366682D01*
X85412853Y-122344500D01*
X85412851Y-122344500D01*
X83625479Y-122344500D01*
X83573153Y-122322826D01*
X79017174Y-117766847D01*
X78995500Y-117714521D01*
X78995500Y-117507270D01*
X87509500Y-117507270D01*
X87509500Y-117612729D01*
X87536791Y-117714582D01*
X87536795Y-117714591D01*
X87542566Y-117724587D01*
X87589520Y-117805913D01*
X87664087Y-117880480D01*
X87755413Y-117933207D01*
X87857270Y-117960499D01*
X87857271Y-117960500D01*
X87857273Y-117960500D01*
X87962729Y-117960500D01*
X87962729Y-117960499D01*
X88064587Y-117933207D01*
X88155913Y-117880480D01*
X88230480Y-117805913D01*
X88283207Y-117714587D01*
X88287182Y-117699751D01*
X88321659Y-117654819D01*
X88377811Y-117647425D01*
X88422745Y-117681903D01*
X88430138Y-117699751D01*
X88436791Y-117724582D01*
X88436795Y-117724591D01*
X88489520Y-117815913D01*
X88564087Y-117890480D01*
X88655413Y-117943207D01*
X88757270Y-117970499D01*
X88757271Y-117970500D01*
X88757273Y-117970500D01*
X88862729Y-117970500D01*
X88862729Y-117970499D01*
X88964587Y-117943207D01*
X89055913Y-117890480D01*
X89130480Y-117815913D01*
X89183207Y-117724587D01*
X89210499Y-117622729D01*
X89210500Y-117622729D01*
X89210500Y-117517271D01*
X89210499Y-117517270D01*
X89207820Y-117507273D01*
X89183207Y-117415413D01*
X89143865Y-117347270D01*
X93759500Y-117347270D01*
X93759500Y-117452729D01*
X93786791Y-117554582D01*
X93786795Y-117554591D01*
X93790195Y-117560480D01*
X93839520Y-117645913D01*
X93914087Y-117720480D01*
X94005413Y-117773207D01*
X94107270Y-117800499D01*
X94107271Y-117800500D01*
X94107273Y-117800500D01*
X94212729Y-117800500D01*
X94212729Y-117800499D01*
X94314587Y-117773207D01*
X94405913Y-117720480D01*
X94480480Y-117645913D01*
X94533207Y-117554587D01*
X94560499Y-117452729D01*
X94560500Y-117452729D01*
X94560500Y-117347271D01*
X94560499Y-117347270D01*
X94549063Y-117304591D01*
X94533207Y-117245413D01*
X94480480Y-117154087D01*
X94423663Y-117097270D01*
X94839500Y-117097270D01*
X94839500Y-117202729D01*
X94866791Y-117304582D01*
X94866795Y-117304591D01*
X94910472Y-117380242D01*
X94919520Y-117395913D01*
X94994087Y-117470480D01*
X95085413Y-117523207D01*
X95187270Y-117550499D01*
X95187271Y-117550500D01*
X95187273Y-117550500D01*
X95292729Y-117550500D01*
X95292729Y-117550499D01*
X95394587Y-117523207D01*
X95485913Y-117470480D01*
X95560480Y-117395913D01*
X95613207Y-117304587D01*
X95640499Y-117202729D01*
X95640500Y-117202729D01*
X95640500Y-117187270D01*
X102589500Y-117187270D01*
X102589500Y-117292729D01*
X102616791Y-117394582D01*
X102616795Y-117394591D01*
X102659251Y-117468127D01*
X102669520Y-117485913D01*
X102744087Y-117560480D01*
X102835413Y-117613207D01*
X102937270Y-117640499D01*
X102937271Y-117640500D01*
X102937273Y-117640500D01*
X103042729Y-117640500D01*
X103042729Y-117640499D01*
X103144587Y-117613207D01*
X103235913Y-117560480D01*
X103310480Y-117485913D01*
X103363207Y-117394587D01*
X103390499Y-117292729D01*
X103390500Y-117292729D01*
X103390500Y-117187271D01*
X103390499Y-117187270D01*
X103363208Y-117085417D01*
X103363207Y-117085413D01*
X103310480Y-116994087D01*
X103235913Y-116919520D01*
X103209182Y-116904087D01*
X103144591Y-116866795D01*
X103144582Y-116866791D01*
X103042729Y-116839500D01*
X103042727Y-116839500D01*
X102937273Y-116839500D01*
X102937271Y-116839500D01*
X102835417Y-116866791D01*
X102835408Y-116866795D01*
X102744086Y-116919520D01*
X102669520Y-116994086D01*
X102616795Y-117085408D01*
X102616791Y-117085417D01*
X102589500Y-117187270D01*
X95640500Y-117187270D01*
X95640500Y-117097271D01*
X95640499Y-117097270D01*
X95613208Y-116995417D01*
X95613207Y-116995413D01*
X95560480Y-116904087D01*
X95485913Y-116829520D01*
X95447375Y-116807270D01*
X95394591Y-116776795D01*
X95394582Y-116776791D01*
X95292729Y-116749500D01*
X95292727Y-116749500D01*
X95187273Y-116749500D01*
X95187271Y-116749500D01*
X95085417Y-116776791D01*
X95085408Y-116776795D01*
X94994086Y-116829520D01*
X94919520Y-116904086D01*
X94866795Y-116995408D01*
X94866791Y-116995417D01*
X94839500Y-117097270D01*
X94423663Y-117097270D01*
X94405913Y-117079520D01*
X94314591Y-117026795D01*
X94314582Y-117026791D01*
X94212729Y-116999500D01*
X94212727Y-116999500D01*
X94107273Y-116999500D01*
X94107271Y-116999500D01*
X94005417Y-117026791D01*
X94005408Y-117026795D01*
X93914086Y-117079520D01*
X93839520Y-117154086D01*
X93786795Y-117245408D01*
X93786791Y-117245417D01*
X93759500Y-117347270D01*
X89143865Y-117347270D01*
X89130480Y-117324087D01*
X89073719Y-117267326D01*
X89052045Y-117215000D01*
X89073719Y-117162674D01*
X89083719Y-117152674D01*
X89120480Y-117115913D01*
X89173207Y-117024587D01*
X89200499Y-116922729D01*
X89200500Y-116922729D01*
X89200500Y-116817271D01*
X89200499Y-116817270D01*
X89197820Y-116807273D01*
X89173207Y-116715413D01*
X89120480Y-116624087D01*
X89045913Y-116549520D01*
X88954591Y-116496795D01*
X88954582Y-116496791D01*
X88852729Y-116469500D01*
X88852727Y-116469500D01*
X88747273Y-116469500D01*
X88747271Y-116469500D01*
X88645417Y-116496791D01*
X88645408Y-116496795D01*
X88554086Y-116549520D01*
X88479520Y-116624086D01*
X88426451Y-116716004D01*
X88381517Y-116750483D01*
X88325365Y-116743090D01*
X88295881Y-116709468D01*
X88295632Y-116709613D01*
X88294907Y-116708358D01*
X88293997Y-116707320D01*
X88293207Y-116705413D01*
X88240479Y-116614086D01*
X88165913Y-116539520D01*
X88074591Y-116486795D01*
X88074582Y-116486791D01*
X87972729Y-116459500D01*
X87972727Y-116459500D01*
X87867273Y-116459500D01*
X87867271Y-116459500D01*
X87765417Y-116486791D01*
X87765408Y-116486795D01*
X87674086Y-116539520D01*
X87599520Y-116614086D01*
X87546795Y-116705408D01*
X87546791Y-116705417D01*
X87519500Y-116807270D01*
X87519500Y-116912729D01*
X87546791Y-117014582D01*
X87546795Y-117014591D01*
X87599520Y-117105913D01*
X87646281Y-117152674D01*
X87667955Y-117205000D01*
X87646281Y-117257326D01*
X87589520Y-117314086D01*
X87536795Y-117405408D01*
X87536791Y-117405417D01*
X87509500Y-117507270D01*
X78995500Y-117507270D01*
X78995500Y-116127270D01*
X95019500Y-116127270D01*
X95019500Y-116232729D01*
X95046791Y-116334582D01*
X95046792Y-116334585D01*
X95046793Y-116334587D01*
X95099520Y-116425913D01*
X95174087Y-116500480D01*
X95265413Y-116553207D01*
X95367270Y-116580499D01*
X95367271Y-116580500D01*
X95367273Y-116580500D01*
X95472729Y-116580500D01*
X95472729Y-116580499D01*
X95574587Y-116553207D01*
X95665913Y-116500480D01*
X95740480Y-116425913D01*
X95793207Y-116334587D01*
X95820499Y-116232729D01*
X95820500Y-116232729D01*
X95820500Y-116127271D01*
X95820499Y-116127270D01*
X95793208Y-116025417D01*
X95793207Y-116025413D01*
X95740480Y-115934087D01*
X95665913Y-115859520D01*
X95574591Y-115806795D01*
X95574582Y-115806791D01*
X95472729Y-115779500D01*
X95472727Y-115779500D01*
X95367273Y-115779500D01*
X95367271Y-115779500D01*
X95265417Y-115806791D01*
X95265408Y-115806795D01*
X95174086Y-115859520D01*
X95099520Y-115934086D01*
X95046795Y-116025408D01*
X95046791Y-116025417D01*
X95019500Y-116127270D01*
X78995500Y-116127270D01*
X78995500Y-115347270D01*
X96629500Y-115347270D01*
X96629500Y-115452729D01*
X96656791Y-115554582D01*
X96656792Y-115554585D01*
X96656793Y-115554587D01*
X96709520Y-115645913D01*
X96784087Y-115720480D01*
X96875413Y-115773207D01*
X96977270Y-115800499D01*
X96977271Y-115800500D01*
X96977273Y-115800500D01*
X97082729Y-115800500D01*
X97082729Y-115800499D01*
X97184587Y-115773207D01*
X97250046Y-115735413D01*
X97287046Y-115725500D01*
X97772851Y-115725500D01*
X97772853Y-115725500D01*
X97855639Y-115703318D01*
X97929862Y-115660465D01*
X99668404Y-113921920D01*
X99701574Y-113902769D01*
X99774587Y-113883207D01*
X99865913Y-113830480D01*
X99940480Y-113755913D01*
X99993207Y-113664587D01*
X100020499Y-113562729D01*
X100020500Y-113562729D01*
X100020500Y-113477270D01*
X106879500Y-113477270D01*
X106879500Y-113582729D01*
X106906791Y-113684582D01*
X106906795Y-113684591D01*
X106947735Y-113755500D01*
X106959520Y-113775913D01*
X107034087Y-113850480D01*
X107125413Y-113903207D01*
X107227270Y-113930499D01*
X107227271Y-113930500D01*
X107272287Y-113930500D01*
X107324613Y-113952174D01*
X107346287Y-114004500D01*
X107336373Y-114041497D01*
X107324285Y-114062434D01*
X107316793Y-114075412D01*
X107316791Y-114075417D01*
X107289500Y-114177270D01*
X107289500Y-114282729D01*
X107316791Y-114384582D01*
X107316795Y-114384591D01*
X107358627Y-114457045D01*
X107369520Y-114475913D01*
X107444087Y-114550480D01*
X107535413Y-114603207D01*
X107637270Y-114630499D01*
X107637271Y-114630500D01*
X107637273Y-114630500D01*
X107742729Y-114630500D01*
X107742729Y-114630499D01*
X107844587Y-114603207D01*
X107935913Y-114550480D01*
X108007674Y-114478719D01*
X108060000Y-114457045D01*
X108112326Y-114478719D01*
X108184087Y-114550480D01*
X108275413Y-114603207D01*
X108377270Y-114630499D01*
X108377271Y-114630500D01*
X108377273Y-114630500D01*
X108482729Y-114630500D01*
X108482729Y-114630499D01*
X108584587Y-114603207D01*
X108675913Y-114550480D01*
X108750480Y-114475913D01*
X108803207Y-114384587D01*
X108830499Y-114282729D01*
X108830500Y-114282729D01*
X108830500Y-114177271D01*
X108830499Y-114177270D01*
X108803208Y-114075417D01*
X108803207Y-114075413D01*
X108766307Y-114011500D01*
X108758915Y-113955347D01*
X108782941Y-113924035D01*
X116629500Y-113924035D01*
X116629500Y-114130965D01*
X116631393Y-114140480D01*
X116669868Y-114333913D01*
X116669870Y-114333920D01*
X116749059Y-114525098D01*
X116854382Y-114682727D01*
X116864023Y-114697155D01*
X117010345Y-114843477D01*
X117182402Y-114958441D01*
X117373580Y-115037630D01*
X117576535Y-115078000D01*
X117576536Y-115078000D01*
X117783464Y-115078000D01*
X117783465Y-115078000D01*
X117986420Y-115037630D01*
X118177598Y-114958441D01*
X118349655Y-114843477D01*
X118495977Y-114697155D01*
X118610941Y-114525098D01*
X118690130Y-114333920D01*
X118730500Y-114130965D01*
X118730500Y-113924035D01*
X118690130Y-113721080D01*
X118610941Y-113529902D01*
X118495977Y-113357845D01*
X118349655Y-113211523D01*
X118346657Y-113209520D01*
X118177598Y-113096559D01*
X117986420Y-113017370D01*
X117986413Y-113017368D01*
X117833516Y-112986955D01*
X117783465Y-112977000D01*
X117576535Y-112977000D01*
X117536385Y-112984986D01*
X117373586Y-113017368D01*
X117373579Y-113017370D01*
X117182401Y-113096559D01*
X117010345Y-113211522D01*
X117010344Y-113211524D01*
X116864024Y-113357844D01*
X116864022Y-113357845D01*
X116749059Y-113529901D01*
X116669870Y-113721079D01*
X116669868Y-113721086D01*
X116633643Y-113903207D01*
X116629500Y-113924035D01*
X108782941Y-113924035D01*
X108793393Y-113910414D01*
X108830393Y-113900500D01*
X108872729Y-113900500D01*
X108872729Y-113900499D01*
X108974587Y-113873207D01*
X108996306Y-113860667D01*
X109003847Y-113856314D01*
X109018167Y-113848046D01*
X109065913Y-113820480D01*
X109140480Y-113745913D01*
X109193207Y-113654587D01*
X109220499Y-113552729D01*
X109220500Y-113552729D01*
X109220500Y-113447271D01*
X109220499Y-113447270D01*
X109195887Y-113355417D01*
X109193207Y-113345413D01*
X109140480Y-113254087D01*
X109065913Y-113179520D01*
X108991908Y-113136793D01*
X108974591Y-113126795D01*
X108974582Y-113126791D01*
X108872729Y-113099500D01*
X108872727Y-113099500D01*
X108767273Y-113099500D01*
X108767271Y-113099500D01*
X108665417Y-113126791D01*
X108665408Y-113126795D01*
X108574086Y-113179520D01*
X108499520Y-113254086D01*
X108446795Y-113345408D01*
X108446791Y-113345417D01*
X108419500Y-113447270D01*
X108419500Y-113552729D01*
X108446791Y-113654582D01*
X108446795Y-113654591D01*
X108483693Y-113718500D01*
X108491085Y-113774653D01*
X108456607Y-113819586D01*
X108419607Y-113829500D01*
X108377271Y-113829500D01*
X108275417Y-113856791D01*
X108275408Y-113856795D01*
X108184086Y-113909520D01*
X108112326Y-113981281D01*
X108060000Y-114002955D01*
X108007674Y-113981281D01*
X107935913Y-113909520D01*
X107844591Y-113856795D01*
X107844582Y-113856791D01*
X107742729Y-113829500D01*
X107742727Y-113829500D01*
X107697713Y-113829500D01*
X107645387Y-113807826D01*
X107623713Y-113755500D01*
X107633627Y-113718500D01*
X107653207Y-113684587D01*
X107680499Y-113582729D01*
X107680500Y-113582729D01*
X107680500Y-113477271D01*
X107680499Y-113477270D01*
X107675140Y-113457271D01*
X107653207Y-113375413D01*
X107600480Y-113284087D01*
X107525913Y-113209520D01*
X107491272Y-113189520D01*
X107434591Y-113156795D01*
X107434582Y-113156791D01*
X107332729Y-113129500D01*
X107332727Y-113129500D01*
X107227273Y-113129500D01*
X107227271Y-113129500D01*
X107125417Y-113156791D01*
X107125408Y-113156795D01*
X107034086Y-113209520D01*
X106959520Y-113284086D01*
X106906795Y-113375408D01*
X106906791Y-113375417D01*
X106879500Y-113477270D01*
X100020500Y-113477270D01*
X100020500Y-113457271D01*
X100020499Y-113457270D01*
X100017820Y-113447273D01*
X99993207Y-113355413D01*
X99940480Y-113264087D01*
X99865913Y-113189520D01*
X99774591Y-113136795D01*
X99774582Y-113136791D01*
X99672729Y-113109500D01*
X99672727Y-113109500D01*
X99567273Y-113109500D01*
X99567271Y-113109500D01*
X99465417Y-113136791D01*
X99465408Y-113136795D01*
X99374086Y-113189520D01*
X99299520Y-113264086D01*
X99246793Y-113355411D01*
X99246791Y-113355416D01*
X99227230Y-113428421D01*
X99208078Y-113461594D01*
X97616847Y-115052826D01*
X97564521Y-115074500D01*
X97287046Y-115074500D01*
X97250046Y-115064586D01*
X97229677Y-115052826D01*
X97203359Y-115037631D01*
X97184591Y-115026795D01*
X97184582Y-115026791D01*
X97082729Y-114999500D01*
X97082727Y-114999500D01*
X96977273Y-114999500D01*
X96977271Y-114999500D01*
X96875417Y-115026791D01*
X96875408Y-115026795D01*
X96784086Y-115079520D01*
X96709520Y-115154086D01*
X96656795Y-115245408D01*
X96656791Y-115245417D01*
X96629500Y-115347270D01*
X78995500Y-115347270D01*
X78995500Y-114577270D01*
X91909500Y-114577270D01*
X91909500Y-114682729D01*
X91936791Y-114784582D01*
X91936795Y-114784591D01*
X91970793Y-114843477D01*
X91989520Y-114875913D01*
X92064087Y-114950480D01*
X92155413Y-115003207D01*
X92257270Y-115030499D01*
X92257271Y-115030500D01*
X92257273Y-115030500D01*
X92362729Y-115030500D01*
X92362729Y-115030499D01*
X92464587Y-115003207D01*
X92555913Y-114950480D01*
X92630480Y-114875913D01*
X92683207Y-114784587D01*
X92710499Y-114682729D01*
X92710500Y-114682729D01*
X92710500Y-114577271D01*
X92710499Y-114577270D01*
X92703320Y-114550479D01*
X92683207Y-114475413D01*
X92630480Y-114384087D01*
X92555913Y-114309520D01*
X92509506Y-114282727D01*
X92464591Y-114256795D01*
X92464582Y-114256791D01*
X92362729Y-114229500D01*
X92362727Y-114229500D01*
X92257273Y-114229500D01*
X92257271Y-114229500D01*
X92155417Y-114256791D01*
X92155408Y-114256795D01*
X92064086Y-114309520D01*
X91989520Y-114384086D01*
X91936795Y-114475408D01*
X91936791Y-114475417D01*
X91909500Y-114577270D01*
X78995500Y-114577270D01*
X78995500Y-113767270D01*
X93139500Y-113767270D01*
X93139500Y-113872729D01*
X93166791Y-113974582D01*
X93166795Y-113974591D01*
X93172278Y-113984087D01*
X93219520Y-114065913D01*
X93294087Y-114140480D01*
X93385413Y-114193207D01*
X93487270Y-114220499D01*
X93487271Y-114220500D01*
X93487273Y-114220500D01*
X93592729Y-114220500D01*
X93592729Y-114220499D01*
X93694587Y-114193207D01*
X93785913Y-114140480D01*
X93860480Y-114065913D01*
X93913207Y-113974587D01*
X93940499Y-113872729D01*
X93940500Y-113872729D01*
X93940500Y-113767271D01*
X93940499Y-113767270D01*
X93934776Y-113745913D01*
X93913207Y-113665413D01*
X93860480Y-113574087D01*
X93785913Y-113499520D01*
X93747375Y-113477270D01*
X93694591Y-113446795D01*
X93694582Y-113446791D01*
X93592729Y-113419500D01*
X93592727Y-113419500D01*
X93487273Y-113419500D01*
X93487271Y-113419500D01*
X93385417Y-113446791D01*
X93385408Y-113446795D01*
X93294086Y-113499520D01*
X93219520Y-113574086D01*
X93166795Y-113665408D01*
X93166791Y-113665417D01*
X93139500Y-113767270D01*
X78995500Y-113767270D01*
X78995500Y-110517270D01*
X96899500Y-110517270D01*
X96899500Y-110622729D01*
X96926791Y-110724582D01*
X96926795Y-110724591D01*
X96955632Y-110774538D01*
X96979520Y-110815913D01*
X97054087Y-110890480D01*
X97145413Y-110943207D01*
X97247270Y-110970499D01*
X97247271Y-110970500D01*
X97247273Y-110970500D01*
X97352729Y-110970500D01*
X97352729Y-110970499D01*
X97454587Y-110943207D01*
X97520046Y-110905413D01*
X97557046Y-110895500D01*
X98494521Y-110895500D01*
X98546847Y-110917174D01*
X100310138Y-112680465D01*
X100384361Y-112723318D01*
X100467147Y-112745500D01*
X102832954Y-112745500D01*
X102869953Y-112755413D01*
X102935413Y-112793207D01*
X103037270Y-112820499D01*
X103037271Y-112820500D01*
X103037273Y-112820500D01*
X103142729Y-112820500D01*
X103142729Y-112820499D01*
X103244587Y-112793207D01*
X103335913Y-112740480D01*
X103410480Y-112665913D01*
X103463207Y-112574587D01*
X103490499Y-112472729D01*
X103490500Y-112472729D01*
X103490500Y-112367271D01*
X103490499Y-112367270D01*
X103463208Y-112265417D01*
X103463207Y-112265413D01*
X103410480Y-112174087D01*
X103335913Y-112099520D01*
X103289678Y-112072826D01*
X103244591Y-112046795D01*
X103244582Y-112046791D01*
X103142729Y-112019500D01*
X103142727Y-112019500D01*
X103037273Y-112019500D01*
X103037271Y-112019500D01*
X102935417Y-112046791D01*
X102935408Y-112046795D01*
X102869954Y-112084586D01*
X102832954Y-112094500D01*
X100675479Y-112094500D01*
X100623153Y-112072826D01*
X99796797Y-111246470D01*
X98859862Y-110309535D01*
X98859859Y-110309533D01*
X98859858Y-110309532D01*
X98785643Y-110266684D01*
X98785641Y-110266683D01*
X98785640Y-110266682D01*
X98785639Y-110266682D01*
X98702853Y-110244500D01*
X98702851Y-110244500D01*
X97557046Y-110244500D01*
X97520046Y-110234586D01*
X97454591Y-110196795D01*
X97454582Y-110196791D01*
X97352729Y-110169500D01*
X97352727Y-110169500D01*
X97247273Y-110169500D01*
X97247271Y-110169500D01*
X97145417Y-110196791D01*
X97145408Y-110196795D01*
X97054086Y-110249520D01*
X96979520Y-110324086D01*
X96926795Y-110415408D01*
X96926791Y-110415417D01*
X96899500Y-110517270D01*
X78995500Y-110517270D01*
X78995500Y-110007270D01*
X82099500Y-110007270D01*
X82099500Y-110112729D01*
X82126791Y-110214582D01*
X82126795Y-110214591D01*
X82156871Y-110266684D01*
X82179520Y-110305913D01*
X82254087Y-110380480D01*
X82345413Y-110433207D01*
X82447270Y-110460499D01*
X82447271Y-110460500D01*
X82447273Y-110460500D01*
X82552729Y-110460500D01*
X82552729Y-110460499D01*
X82600185Y-110447783D01*
X82625709Y-110440945D01*
X82637938Y-110437668D01*
X82654587Y-110433207D01*
X82745913Y-110380480D01*
X82820480Y-110305913D01*
X82873207Y-110214587D01*
X82900499Y-110112729D01*
X82900500Y-110112729D01*
X82900500Y-110007271D01*
X82900499Y-110007270D01*
X82873208Y-109905417D01*
X82873207Y-109905413D01*
X82820480Y-109814087D01*
X82745913Y-109739520D01*
X82654591Y-109686795D01*
X82654582Y-109686791D01*
X82552729Y-109659500D01*
X82552727Y-109659500D01*
X82447273Y-109659500D01*
X82447271Y-109659500D01*
X82345417Y-109686791D01*
X82345408Y-109686795D01*
X82254086Y-109739520D01*
X82179520Y-109814086D01*
X82126795Y-109905408D01*
X82126791Y-109905417D01*
X82099500Y-110007270D01*
X78995500Y-110007270D01*
X78995500Y-108257270D01*
X94669500Y-108257270D01*
X94669500Y-108362729D01*
X94696791Y-108464582D01*
X94696792Y-108464585D01*
X94696793Y-108464587D01*
X94749520Y-108555913D01*
X94824087Y-108630480D01*
X94915413Y-108683207D01*
X95017270Y-108710499D01*
X95017271Y-108710500D01*
X95017273Y-108710500D01*
X95122729Y-108710500D01*
X95122729Y-108710499D01*
X95224587Y-108683207D01*
X95315913Y-108630480D01*
X95390480Y-108555913D01*
X95443207Y-108464587D01*
X95470499Y-108362729D01*
X95470500Y-108362729D01*
X95470500Y-108282270D01*
X116244500Y-108282270D01*
X116244500Y-108387729D01*
X116271791Y-108489582D01*
X116271792Y-108489585D01*
X116271793Y-108489587D01*
X116324520Y-108580913D01*
X116399087Y-108655480D01*
X116490413Y-108708207D01*
X116592270Y-108735499D01*
X116592271Y-108735500D01*
X116592273Y-108735500D01*
X116697729Y-108735500D01*
X116697729Y-108735499D01*
X116799587Y-108708207D01*
X116890913Y-108655480D01*
X116965480Y-108580913D01*
X117018207Y-108489587D01*
X117045499Y-108387729D01*
X117045500Y-108387729D01*
X117045500Y-108282271D01*
X117045499Y-108282270D01*
X117038800Y-108257270D01*
X117018207Y-108180413D01*
X116965480Y-108089087D01*
X116890913Y-108014520D01*
X116847612Y-107989520D01*
X116799591Y-107961795D01*
X116799582Y-107961791D01*
X116697729Y-107934500D01*
X116697727Y-107934500D01*
X116592273Y-107934500D01*
X116592271Y-107934500D01*
X116490417Y-107961791D01*
X116490408Y-107961795D01*
X116399086Y-108014520D01*
X116324520Y-108089086D01*
X116271795Y-108180408D01*
X116271791Y-108180417D01*
X116244500Y-108282270D01*
X95470500Y-108282270D01*
X95470500Y-108257271D01*
X95470499Y-108257270D01*
X95443208Y-108155417D01*
X95443207Y-108155413D01*
X95390480Y-108064087D01*
X95315913Y-107989520D01*
X95267892Y-107961795D01*
X95224591Y-107936795D01*
X95224582Y-107936791D01*
X95122729Y-107909500D01*
X95122727Y-107909500D01*
X95017273Y-107909500D01*
X95017271Y-107909500D01*
X94915417Y-107936791D01*
X94915408Y-107936795D01*
X94824086Y-107989520D01*
X94749520Y-108064086D01*
X94696795Y-108155408D01*
X94696791Y-108155417D01*
X94669500Y-108257270D01*
X78995500Y-108257270D01*
X78995500Y-107157270D01*
X92149500Y-107157270D01*
X92149500Y-107262729D01*
X92176791Y-107364582D01*
X92176792Y-107364585D01*
X92176793Y-107364587D01*
X92229520Y-107455913D01*
X92304087Y-107530480D01*
X92395413Y-107583207D01*
X92497270Y-107610499D01*
X92497271Y-107610500D01*
X92497273Y-107610500D01*
X92602729Y-107610500D01*
X92602729Y-107610499D01*
X92704587Y-107583207D01*
X92795913Y-107530480D01*
X92870480Y-107455913D01*
X92923207Y-107364587D01*
X92950499Y-107262729D01*
X92950500Y-107262729D01*
X92950500Y-107157271D01*
X92950499Y-107157270D01*
X92938564Y-107112729D01*
X92923207Y-107055413D01*
X92870480Y-106964087D01*
X92795913Y-106889520D01*
X92764894Y-106871611D01*
X92704591Y-106836795D01*
X92704582Y-106836791D01*
X92602729Y-106809500D01*
X92602727Y-106809500D01*
X92497273Y-106809500D01*
X92497271Y-106809500D01*
X92395417Y-106836791D01*
X92395408Y-106836795D01*
X92304086Y-106889520D01*
X92229520Y-106964086D01*
X92176795Y-107055408D01*
X92176791Y-107055417D01*
X92149500Y-107157270D01*
X78995500Y-107157270D01*
X78995500Y-106792046D01*
X79005414Y-106755046D01*
X79018023Y-106733207D01*
X79043207Y-106689587D01*
X79070499Y-106587729D01*
X79070500Y-106587729D01*
X79070500Y-106482271D01*
X79070499Y-106482270D01*
X79043208Y-106380417D01*
X79043207Y-106380413D01*
X79000978Y-106307270D01*
X102879500Y-106307270D01*
X102879500Y-106412729D01*
X102906791Y-106514582D01*
X102906792Y-106514585D01*
X102906793Y-106514587D01*
X102959520Y-106605913D01*
X103034087Y-106680480D01*
X103125413Y-106733207D01*
X103227270Y-106760499D01*
X103227271Y-106760500D01*
X103227273Y-106760500D01*
X103332729Y-106760500D01*
X103332729Y-106760499D01*
X103434587Y-106733207D01*
X103525913Y-106680480D01*
X103600480Y-106605913D01*
X103653207Y-106514587D01*
X103680499Y-106412729D01*
X103680500Y-106412729D01*
X103680500Y-106307271D01*
X103680499Y-106307270D01*
X103653208Y-106205417D01*
X103653207Y-106205413D01*
X103600480Y-106114087D01*
X103525913Y-106039520D01*
X103512973Y-106032049D01*
X103434591Y-105986795D01*
X103434582Y-105986791D01*
X103332729Y-105959500D01*
X103332727Y-105959500D01*
X103227273Y-105959500D01*
X103227271Y-105959500D01*
X103125417Y-105986791D01*
X103125408Y-105986795D01*
X103034086Y-106039520D01*
X102959520Y-106114086D01*
X102906795Y-106205408D01*
X102906791Y-106205417D01*
X102879500Y-106307270D01*
X79000978Y-106307270D01*
X78990480Y-106289087D01*
X78915913Y-106214520D01*
X78900131Y-106205408D01*
X78824591Y-106161795D01*
X78824582Y-106161791D01*
X78722729Y-106134500D01*
X78722727Y-106134500D01*
X78617273Y-106134500D01*
X78617271Y-106134500D01*
X78515417Y-106161791D01*
X78515408Y-106161795D01*
X78424086Y-106214520D01*
X78349520Y-106289086D01*
X78296795Y-106380408D01*
X78296791Y-106380417D01*
X78269500Y-106482270D01*
X78269500Y-106587729D01*
X78277524Y-106617675D01*
X78270132Y-106673828D01*
X78225199Y-106708306D01*
X78169046Y-106700914D01*
X78144591Y-106686795D01*
X78144582Y-106686791D01*
X78042729Y-106659500D01*
X78042727Y-106659500D01*
X77937273Y-106659500D01*
X77937271Y-106659500D01*
X77835417Y-106686791D01*
X77835408Y-106686795D01*
X77744086Y-106739520D01*
X77669520Y-106814086D01*
X77616795Y-106905408D01*
X77616791Y-106905417D01*
X77589500Y-107007270D01*
X77589500Y-107112729D01*
X77616791Y-107214582D01*
X77616795Y-107214591D01*
X77654586Y-107280046D01*
X77664500Y-107317046D01*
X77664500Y-117987147D01*
X77664500Y-118072853D01*
X77686682Y-118155639D01*
X77686683Y-118155641D01*
X77686684Y-118155643D01*
X77729532Y-118229858D01*
X77729533Y-118229859D01*
X77729535Y-118229862D01*
X82919534Y-123419861D01*
X82919535Y-123419862D01*
X82980138Y-123480465D01*
X83054362Y-123523318D01*
X83137144Y-123545499D01*
X83137145Y-123545500D01*
X83137147Y-123545500D01*
X83222853Y-123545500D01*
X84884521Y-123545500D01*
X84936847Y-123567174D01*
X88661885Y-127292212D01*
X88683559Y-127344538D01*
X88661885Y-127396864D01*
X88609559Y-127418538D01*
X88581756Y-127413116D01*
X88349978Y-127319148D01*
X88347532Y-127318105D01*
X87376178Y-126883042D01*
X87373772Y-126881912D01*
X86418673Y-126412240D01*
X86416309Y-126411024D01*
X85478709Y-125907353D01*
X85476390Y-125906053D01*
X84643882Y-125419520D01*
X84557481Y-125369025D01*
X84555221Y-125367650D01*
X84553865Y-125366791D01*
X83656181Y-124797952D01*
X83653970Y-124796495D01*
X83543502Y-124720800D01*
X82775961Y-124194863D01*
X82773805Y-124193327D01*
X82638831Y-124093530D01*
X81917995Y-123560560D01*
X81915897Y-123558950D01*
X81905240Y-123550462D01*
X81509699Y-123235417D01*
X81083392Y-122895868D01*
X81081342Y-122894175D01*
X80273154Y-122201586D01*
X80271167Y-122199820D01*
X79488411Y-121478677D01*
X79486488Y-121476841D01*
X78730115Y-120728021D01*
X78728260Y-120726117D01*
X78151665Y-120112729D01*
X77999280Y-119950619D01*
X77997499Y-119948655D01*
X77979803Y-119928420D01*
X77296842Y-119147468D01*
X77295163Y-119145478D01*
X76623708Y-118319604D01*
X76622069Y-118317511D01*
X75980770Y-117468127D01*
X75979206Y-117465977D01*
X75766871Y-117162674D01*
X75368786Y-116594042D01*
X75367314Y-116591856D01*
X75359957Y-116580500D01*
X74806064Y-115725500D01*
X74788641Y-115698606D01*
X74787236Y-115696350D01*
X74462982Y-115154086D01*
X74241011Y-114782873D01*
X74239693Y-114780578D01*
X74071795Y-114475417D01*
X73851713Y-114075408D01*
X73726620Y-113848046D01*
X73725381Y-113845694D01*
X73539593Y-113477271D01*
X73246140Y-112895344D01*
X73245010Y-112892999D01*
X72800204Y-111926024D01*
X72799167Y-111923658D01*
X72516674Y-111246470D01*
X74174200Y-111246470D01*
X74174200Y-111383529D01*
X74200937Y-111517950D01*
X74200940Y-111517961D01*
X74253387Y-111644580D01*
X74253389Y-111644583D01*
X74253390Y-111644585D01*
X74329537Y-111758547D01*
X74426453Y-111855463D01*
X74540415Y-111931610D01*
X74540420Y-111931612D01*
X74540419Y-111931612D01*
X74667038Y-111984059D01*
X74667043Y-111984061D01*
X74801470Y-112010800D01*
X74801471Y-112010800D01*
X74938529Y-112010800D01*
X74938530Y-112010800D01*
X75072957Y-111984061D01*
X75199585Y-111931610D01*
X75313547Y-111855463D01*
X75410463Y-111758547D01*
X75486610Y-111644585D01*
X75539061Y-111517957D01*
X75565800Y-111383530D01*
X75565800Y-111246470D01*
X75539061Y-111112043D01*
X75486610Y-110985415D01*
X75410463Y-110871453D01*
X75313547Y-110774537D01*
X75199585Y-110698390D01*
X75199581Y-110698388D01*
X75199579Y-110698387D01*
X75199580Y-110698387D01*
X75072961Y-110645940D01*
X75072950Y-110645937D01*
X74971680Y-110625793D01*
X74938530Y-110619200D01*
X74801470Y-110619200D01*
X74774877Y-110624489D01*
X74667049Y-110645937D01*
X74667038Y-110645940D01*
X74540419Y-110698387D01*
X74426453Y-110774536D01*
X74426452Y-110774538D01*
X74329538Y-110871452D01*
X74329536Y-110871453D01*
X74253387Y-110985419D01*
X74200940Y-111112038D01*
X74200937Y-111112049D01*
X74174200Y-111246470D01*
X72516674Y-111246470D01*
X72389372Y-110941304D01*
X72388398Y-110938845D01*
X72372118Y-110895500D01*
X72078124Y-110112727D01*
X72014186Y-109942489D01*
X72013296Y-109939984D01*
X71675107Y-108930806D01*
X71674308Y-108928271D01*
X71396803Y-107989520D01*
X71372589Y-107907609D01*
X71371883Y-107905051D01*
X71289189Y-107583204D01*
X71107010Y-106874163D01*
X71106412Y-106871647D01*
X70951999Y-106166470D01*
X73158200Y-106166470D01*
X73158200Y-106303529D01*
X73184937Y-106437950D01*
X73184940Y-106437961D01*
X73237387Y-106564580D01*
X73237389Y-106564583D01*
X73237390Y-106564585D01*
X73313537Y-106678547D01*
X73410453Y-106775463D01*
X73524415Y-106851610D01*
X73524420Y-106851612D01*
X73524419Y-106851612D01*
X73615938Y-106889520D01*
X73651043Y-106904061D01*
X73785470Y-106930800D01*
X73785471Y-106930800D01*
X73922529Y-106930800D01*
X73922530Y-106930800D01*
X74056957Y-106904061D01*
X74183585Y-106851610D01*
X74297547Y-106775463D01*
X74394463Y-106678547D01*
X74470610Y-106564585D01*
X74523061Y-106437957D01*
X74549800Y-106303530D01*
X74549800Y-106166470D01*
X75190200Y-106166470D01*
X75190200Y-106303529D01*
X75216937Y-106437950D01*
X75216940Y-106437961D01*
X75269387Y-106564580D01*
X75269389Y-106564583D01*
X75269390Y-106564585D01*
X75345537Y-106678547D01*
X75442453Y-106775463D01*
X75556415Y-106851610D01*
X75556420Y-106851612D01*
X75556419Y-106851612D01*
X75647938Y-106889520D01*
X75683043Y-106904061D01*
X75817470Y-106930800D01*
X75817471Y-106930800D01*
X75954529Y-106930800D01*
X75954530Y-106930800D01*
X76088957Y-106904061D01*
X76215585Y-106851610D01*
X76329547Y-106775463D01*
X76426463Y-106678547D01*
X76502610Y-106564585D01*
X76555061Y-106437957D01*
X76581800Y-106303530D01*
X76581800Y-106166470D01*
X76555061Y-106032043D01*
X76502610Y-105905415D01*
X76426463Y-105791453D01*
X76329547Y-105694537D01*
X76215585Y-105618390D01*
X76215581Y-105618388D01*
X76215579Y-105618387D01*
X76215580Y-105618387D01*
X76088961Y-105565940D01*
X76088950Y-105565937D01*
X75987680Y-105545793D01*
X75954530Y-105539200D01*
X75817470Y-105539200D01*
X75790877Y-105544489D01*
X75683049Y-105565937D01*
X75683038Y-105565940D01*
X75556419Y-105618387D01*
X75442453Y-105694536D01*
X75442452Y-105694538D01*
X75345538Y-105791452D01*
X75345536Y-105791453D01*
X75269387Y-105905419D01*
X75216940Y-106032038D01*
X75216937Y-106032049D01*
X75190200Y-106166470D01*
X74549800Y-106166470D01*
X74523061Y-106032043D01*
X74470610Y-105905415D01*
X74394463Y-105791453D01*
X74297547Y-105694537D01*
X74183585Y-105618390D01*
X74183581Y-105618388D01*
X74183579Y-105618387D01*
X74183580Y-105618387D01*
X74056961Y-105565940D01*
X74056950Y-105565937D01*
X73955680Y-105545793D01*
X73922530Y-105539200D01*
X73785470Y-105539200D01*
X73758877Y-105544489D01*
X73651049Y-105565937D01*
X73651038Y-105565940D01*
X73524419Y-105618387D01*
X73410453Y-105694536D01*
X73410452Y-105694538D01*
X73313538Y-105791452D01*
X73313536Y-105791453D01*
X73237387Y-105905419D01*
X73184940Y-106032038D01*
X73184937Y-106032049D01*
X73158200Y-106166470D01*
X70951999Y-106166470D01*
X70878738Y-105831898D01*
X70878221Y-105829315D01*
X70873480Y-105803208D01*
X70796131Y-105377270D01*
X92389500Y-105377270D01*
X92389500Y-105482729D01*
X92416791Y-105584582D01*
X92416792Y-105584585D01*
X92416793Y-105584587D01*
X92469520Y-105675913D01*
X92544087Y-105750480D01*
X92635413Y-105803207D01*
X92737270Y-105830499D01*
X92737271Y-105830500D01*
X92737273Y-105830500D01*
X92842729Y-105830500D01*
X92842729Y-105830499D01*
X92944587Y-105803207D01*
X93035913Y-105750480D01*
X93110480Y-105675913D01*
X93163207Y-105584587D01*
X93190499Y-105482729D01*
X93190500Y-105482729D01*
X93190500Y-105377271D01*
X93190499Y-105377270D01*
X93163208Y-105275417D01*
X93163207Y-105275413D01*
X93110480Y-105184087D01*
X93035913Y-105109520D01*
X92944591Y-105056795D01*
X92944582Y-105056791D01*
X92842729Y-105029500D01*
X92842727Y-105029500D01*
X92737273Y-105029500D01*
X92737271Y-105029500D01*
X92635417Y-105056791D01*
X92635408Y-105056795D01*
X92544086Y-105109520D01*
X92469520Y-105184086D01*
X92416795Y-105275408D01*
X92416791Y-105275417D01*
X92389500Y-105377270D01*
X70796131Y-105377270D01*
X70688988Y-104787270D01*
X81969500Y-104787270D01*
X81969500Y-104892729D01*
X81996791Y-104994582D01*
X81996795Y-104994591D01*
X82032709Y-105056795D01*
X82049520Y-105085913D01*
X82124087Y-105160480D01*
X82215413Y-105213207D01*
X82317270Y-105240499D01*
X82317271Y-105240500D01*
X82317273Y-105240500D01*
X82422729Y-105240500D01*
X82422729Y-105240499D01*
X82524587Y-105213207D01*
X82615913Y-105160480D01*
X82690480Y-105085913D01*
X82743207Y-104994587D01*
X82770499Y-104892729D01*
X82770500Y-104892729D01*
X82770500Y-104787271D01*
X82770499Y-104787270D01*
X82769117Y-104782114D01*
X82743207Y-104685413D01*
X82690480Y-104594087D01*
X82615913Y-104519520D01*
X82524591Y-104466795D01*
X82524582Y-104466791D01*
X82422729Y-104439500D01*
X82422727Y-104439500D01*
X82317273Y-104439500D01*
X82317271Y-104439500D01*
X82215417Y-104466791D01*
X82215408Y-104466795D01*
X82124086Y-104519520D01*
X82049520Y-104594086D01*
X81996795Y-104685408D01*
X81996791Y-104685417D01*
X81969500Y-104787270D01*
X70688988Y-104787270D01*
X70688048Y-104782094D01*
X70687628Y-104779520D01*
X70562852Y-103917270D01*
X80339500Y-103917270D01*
X80339500Y-104022729D01*
X80366791Y-104124582D01*
X80366792Y-104124585D01*
X80366793Y-104124587D01*
X80419520Y-104215913D01*
X80494087Y-104290480D01*
X80585413Y-104343207D01*
X80687270Y-104370499D01*
X80687271Y-104370500D01*
X80687273Y-104370500D01*
X80792729Y-104370500D01*
X80792729Y-104370499D01*
X80894587Y-104343207D01*
X80985913Y-104290480D01*
X81060480Y-104215913D01*
X81113207Y-104124587D01*
X81140499Y-104022729D01*
X81140500Y-104022729D01*
X81140500Y-103917271D01*
X81140499Y-103917270D01*
X81113208Y-103815417D01*
X81113207Y-103815413D01*
X81060480Y-103724087D01*
X80985913Y-103649520D01*
X80894591Y-103596795D01*
X80894582Y-103596791D01*
X80792729Y-103569500D01*
X80792727Y-103569500D01*
X80687273Y-103569500D01*
X80687271Y-103569500D01*
X80585417Y-103596791D01*
X80585408Y-103596795D01*
X80494086Y-103649520D01*
X80419520Y-103724086D01*
X80366795Y-103815408D01*
X80366791Y-103815417D01*
X80339500Y-103917270D01*
X70562852Y-103917270D01*
X70535188Y-103726102D01*
X70534867Y-103723563D01*
X70420360Y-102665303D01*
X70420127Y-102662714D01*
X70343712Y-101601110D01*
X70343570Y-101598456D01*
X70309382Y-100647270D01*
X75679500Y-100647270D01*
X75679500Y-100752729D01*
X75706791Y-100854582D01*
X75706792Y-100854585D01*
X75706793Y-100854587D01*
X75739074Y-100910500D01*
X75744586Y-100920046D01*
X75754500Y-100957046D01*
X75754500Y-102472952D01*
X75744586Y-102509951D01*
X75706795Y-102575408D01*
X75706791Y-102575417D01*
X75679500Y-102677270D01*
X75679500Y-102782729D01*
X75706791Y-102884582D01*
X75706792Y-102884585D01*
X75706793Y-102884587D01*
X75759520Y-102975913D01*
X75834087Y-103050480D01*
X75925413Y-103103207D01*
X76027270Y-103130499D01*
X76027271Y-103130500D01*
X76027273Y-103130500D01*
X76132729Y-103130500D01*
X76132729Y-103130499D01*
X76234587Y-103103207D01*
X76325913Y-103050480D01*
X76400480Y-102975913D01*
X76453207Y-102884587D01*
X76459300Y-102861845D01*
X76470471Y-102820158D01*
X124017000Y-102820158D01*
X124017000Y-102959842D01*
X124053152Y-103094765D01*
X124053153Y-103094767D01*
X124053154Y-103094769D01*
X124122994Y-103215735D01*
X124221765Y-103314506D01*
X124342735Y-103384348D01*
X124477658Y-103420500D01*
X124477660Y-103420500D01*
X124617340Y-103420500D01*
X124617342Y-103420500D01*
X124752265Y-103384348D01*
X124873235Y-103314506D01*
X124972006Y-103215735D01*
X125041848Y-103094765D01*
X125078000Y-102959842D01*
X125078000Y-102820158D01*
X125041848Y-102685235D01*
X124972006Y-102564265D01*
X124873235Y-102465494D01*
X124752269Y-102395654D01*
X124752267Y-102395653D01*
X124752266Y-102395652D01*
X124752265Y-102395652D01*
X124617342Y-102359500D01*
X124477658Y-102359500D01*
X124342735Y-102395652D01*
X124342734Y-102395652D01*
X124342732Y-102395653D01*
X124342730Y-102395654D01*
X124221764Y-102465494D01*
X124122994Y-102564264D01*
X124053154Y-102685230D01*
X124053153Y-102685232D01*
X124053152Y-102685234D01*
X124053152Y-102685235D01*
X124017000Y-102820158D01*
X76470471Y-102820158D01*
X76476903Y-102796155D01*
X76480500Y-102782728D01*
X76480500Y-102677271D01*
X76480499Y-102677270D01*
X76453208Y-102575417D01*
X76453207Y-102575413D01*
X76446770Y-102564264D01*
X76415414Y-102509951D01*
X76405500Y-102472952D01*
X76405500Y-100957046D01*
X76415414Y-100920046D01*
X76453207Y-100854587D01*
X76480499Y-100752729D01*
X76480500Y-100752729D01*
X76480500Y-100647271D01*
X76480499Y-100647270D01*
X76479912Y-100645081D01*
X76453207Y-100545413D01*
X76400480Y-100454087D01*
X76325913Y-100379520D01*
X76234591Y-100326795D01*
X76234582Y-100326791D01*
X76132729Y-100299500D01*
X76132727Y-100299500D01*
X76027273Y-100299500D01*
X76027271Y-100299500D01*
X75925417Y-100326791D01*
X75925408Y-100326795D01*
X75834086Y-100379520D01*
X75759520Y-100454086D01*
X75706795Y-100545408D01*
X75706791Y-100545417D01*
X75679500Y-100647270D01*
X70309382Y-100647270D01*
X70309303Y-100645081D01*
X70305340Y-100534828D01*
X70305292Y-100532170D01*
X70305292Y-99467829D01*
X70305340Y-99465171D01*
X70341235Y-98466495D01*
X70343570Y-98401540D01*
X70343713Y-98398888D01*
X70420128Y-97337280D01*
X70420359Y-97334701D01*
X70534867Y-96276429D01*
X70535187Y-96273904D01*
X70687630Y-95220470D01*
X70688045Y-95217923D01*
X70822279Y-94478740D01*
X72939500Y-94478740D01*
X72939500Y-97719390D01*
X72976670Y-97894266D01*
X72976671Y-97894268D01*
X73049387Y-98057592D01*
X73049391Y-98057599D01*
X73154471Y-98202227D01*
X73287334Y-98321858D01*
X73287337Y-98321861D01*
X73370310Y-98369765D01*
X73442165Y-98411250D01*
X73612197Y-98466497D01*
X73622217Y-98467550D01*
X73671991Y-98494571D01*
X73678917Y-98504750D01*
X74579999Y-100100000D01*
X74580000Y-100100000D01*
X80900000Y-100100000D01*
X82032839Y-98505882D01*
X82080816Y-98475787D01*
X82085407Y-98475157D01*
X82167803Y-98466497D01*
X82337835Y-98411250D01*
X82492665Y-98321859D01*
X82625526Y-98202230D01*
X82730612Y-98057593D01*
X82803329Y-97894267D01*
X82840500Y-97719391D01*
X82840500Y-97630000D01*
X82840500Y-97582405D01*
X82840500Y-96637270D01*
X117779500Y-96637270D01*
X117779500Y-96742729D01*
X117806791Y-96844582D01*
X117806792Y-96844585D01*
X117806793Y-96844587D01*
X117859520Y-96935913D01*
X117934087Y-97010480D01*
X118025413Y-97063207D01*
X118098422Y-97082769D01*
X118131594Y-97101921D01*
X121739533Y-100709859D01*
X121739535Y-100709862D01*
X121800138Y-100770465D01*
X121834010Y-100790021D01*
X121874361Y-100813318D01*
X121957147Y-100835500D01*
X125072954Y-100835500D01*
X125109953Y-100845413D01*
X125175413Y-100883207D01*
X125277270Y-100910499D01*
X125277271Y-100910500D01*
X125277273Y-100910500D01*
X125382729Y-100910500D01*
X125382729Y-100910499D01*
X125484587Y-100883207D01*
X125575913Y-100830480D01*
X125650480Y-100755913D01*
X125703207Y-100664587D01*
X125730499Y-100562729D01*
X125730500Y-100562729D01*
X125730500Y-100457271D01*
X125730499Y-100457270D01*
X125703208Y-100355417D01*
X125703207Y-100355413D01*
X125650480Y-100264087D01*
X125575913Y-100189520D01*
X125529678Y-100162826D01*
X125484591Y-100136795D01*
X125484582Y-100136791D01*
X125382729Y-100109500D01*
X125382727Y-100109500D01*
X125277273Y-100109500D01*
X125277271Y-100109500D01*
X125175417Y-100136791D01*
X125175408Y-100136795D01*
X125109954Y-100174586D01*
X125072954Y-100184500D01*
X122165478Y-100184500D01*
X122113152Y-100162826D01*
X118591921Y-96641594D01*
X118572769Y-96608422D01*
X118553207Y-96535413D01*
X118500480Y-96444087D01*
X118493663Y-96437270D01*
X120559500Y-96437270D01*
X120559500Y-96542729D01*
X120586791Y-96644582D01*
X120586795Y-96644591D01*
X120624586Y-96710046D01*
X120634500Y-96747046D01*
X120634500Y-97607147D01*
X120634500Y-97692853D01*
X120641611Y-97719391D01*
X120656683Y-97775641D01*
X120656684Y-97775643D01*
X120699532Y-97849858D01*
X120699533Y-97849859D01*
X120699535Y-97849862D01*
X122100138Y-99250465D01*
X122174361Y-99293318D01*
X122257147Y-99315500D01*
X125082954Y-99315500D01*
X125119953Y-99325413D01*
X125185413Y-99363207D01*
X125287270Y-99390499D01*
X125287271Y-99390500D01*
X125287273Y-99390500D01*
X125392729Y-99390500D01*
X125392729Y-99390499D01*
X125494587Y-99363207D01*
X125585913Y-99310480D01*
X125660480Y-99235913D01*
X125713207Y-99144587D01*
X125740499Y-99042729D01*
X125740500Y-99042729D01*
X125740500Y-98937271D01*
X125740499Y-98937270D01*
X125713208Y-98835417D01*
X125713207Y-98835413D01*
X125660480Y-98744087D01*
X125585913Y-98669520D01*
X125539678Y-98642826D01*
X125494591Y-98616795D01*
X125494582Y-98616791D01*
X125392729Y-98589500D01*
X125392727Y-98589500D01*
X125287273Y-98589500D01*
X125287271Y-98589500D01*
X125185417Y-98616791D01*
X125185408Y-98616795D01*
X125119954Y-98654586D01*
X125082954Y-98664500D01*
X122465479Y-98664500D01*
X122413153Y-98642826D01*
X121307174Y-97536847D01*
X121285500Y-97484521D01*
X121285500Y-97040158D01*
X124017000Y-97040158D01*
X124017000Y-97179842D01*
X124053152Y-97314765D01*
X124122994Y-97435735D01*
X124221765Y-97534506D01*
X124342735Y-97604348D01*
X124477658Y-97640500D01*
X124477660Y-97640500D01*
X124617340Y-97640500D01*
X124617342Y-97640500D01*
X124752265Y-97604348D01*
X124873235Y-97534506D01*
X124972006Y-97435735D01*
X125041848Y-97314765D01*
X125078000Y-97179842D01*
X125078000Y-97040158D01*
X125041848Y-96905235D01*
X124972006Y-96784265D01*
X124873235Y-96685494D01*
X124802382Y-96644587D01*
X124752269Y-96615654D01*
X124752267Y-96615653D01*
X124752266Y-96615652D01*
X124752265Y-96615652D01*
X124617342Y-96579500D01*
X124477658Y-96579500D01*
X124342735Y-96615652D01*
X124342734Y-96615652D01*
X124342732Y-96615653D01*
X124342730Y-96615654D01*
X124221764Y-96685494D01*
X124122994Y-96784264D01*
X124053154Y-96905230D01*
X124053153Y-96905232D01*
X124053152Y-96905234D01*
X124053152Y-96905235D01*
X124017000Y-97040158D01*
X121285500Y-97040158D01*
X121285500Y-96747046D01*
X121295414Y-96710046D01*
X121309589Y-96685494D01*
X121333207Y-96644587D01*
X121360499Y-96542729D01*
X121360500Y-96542729D01*
X121360500Y-96437271D01*
X121360499Y-96437270D01*
X121333208Y-96335417D01*
X121333207Y-96335413D01*
X121280480Y-96244087D01*
X121205913Y-96169520D01*
X121114591Y-96116795D01*
X121114582Y-96116791D01*
X121012729Y-96089500D01*
X121012727Y-96089500D01*
X120907273Y-96089500D01*
X120907271Y-96089500D01*
X120805417Y-96116791D01*
X120805408Y-96116795D01*
X120714086Y-96169520D01*
X120639520Y-96244086D01*
X120586795Y-96335408D01*
X120586791Y-96335417D01*
X120559500Y-96437270D01*
X118493663Y-96437270D01*
X118425913Y-96369520D01*
X118366838Y-96335413D01*
X118334591Y-96316795D01*
X118334582Y-96316791D01*
X118232729Y-96289500D01*
X118232727Y-96289500D01*
X118127273Y-96289500D01*
X118127271Y-96289500D01*
X118025417Y-96316791D01*
X118025408Y-96316795D01*
X117934086Y-96369520D01*
X117859520Y-96444086D01*
X117806795Y-96535408D01*
X117806791Y-96535417D01*
X117779500Y-96637270D01*
X82840500Y-96637270D01*
X82840500Y-94590438D01*
X82840500Y-94478748D01*
X82804037Y-94178449D01*
X82731643Y-93884734D01*
X82624373Y-93601887D01*
X82483792Y-93334033D01*
X82311950Y-93085076D01*
X82311947Y-93085072D01*
X82111352Y-92858648D01*
X82111351Y-92858647D01*
X81884927Y-92658052D01*
X81884919Y-92658046D01*
X81635970Y-92486210D01*
X81635966Y-92486207D01*
X81368113Y-92345627D01*
X81368109Y-92345625D01*
X81085265Y-92238356D01*
X80860777Y-92183025D01*
X80791551Y-92165963D01*
X80791549Y-92165962D01*
X80791546Y-92165962D01*
X80491259Y-92129500D01*
X80491252Y-92129500D01*
X80379562Y-92129500D01*
X75487595Y-92129500D01*
X75440000Y-92129500D01*
X75288748Y-92129500D01*
X75288740Y-92129500D01*
X74988453Y-92165962D01*
X74694734Y-92238356D01*
X74411890Y-92345625D01*
X74411886Y-92345627D01*
X74144033Y-92486207D01*
X74144029Y-92486210D01*
X73895080Y-92658046D01*
X73895072Y-92658052D01*
X73668648Y-92858647D01*
X73668647Y-92858648D01*
X73468052Y-93085072D01*
X73468046Y-93085080D01*
X73296210Y-93334029D01*
X73296207Y-93334033D01*
X73155627Y-93601886D01*
X73155625Y-93601890D01*
X73048356Y-93884734D01*
X72975962Y-94178453D01*
X72939500Y-94478740D01*
X70822279Y-94478740D01*
X70878228Y-94170648D01*
X70878735Y-94168112D01*
X71106415Y-93128340D01*
X71107007Y-93125849D01*
X71371888Y-92094929D01*
X71372591Y-92092385D01*
X71674308Y-91071728D01*
X71675107Y-91069193D01*
X72013296Y-90060015D01*
X72014186Y-90057510D01*
X72388410Y-89061122D01*
X72389364Y-89058714D01*
X72706498Y-88298484D01*
X72746645Y-88258539D01*
X72774752Y-88252977D01*
X83928784Y-88247719D01*
X127214139Y-88227312D01*
X127266471Y-88248960D01*
G37*
G04 #@! TD.AperFunction*
M02*
