M48
; DRILL file KiCad 10.0.3 date 2026-07-12T18:16:28
; FORMAT={-:-/ absolute / metric / decimal}
; #@! TF.CreationDate,2026-07-12T18:16:28+02:00
; #@! TF.GenerationSoftware,Kicad,Pcbnew,10.0.3
; #@! TF.FileFunction,Plated,1,4,PTH
FMAT,2
METRIC
; #@! TA.AperFunction,Plated,PTH,ViaDrill
T1C0.200
; #@! TA.AperFunction,Plated,PTH,ComponentDrill
T2C0.200
; #@! TA.AperFunction,Plated,PTH,ComponentDrill
T3C0.400
; #@! TA.AperFunction,Plated,PTH,ComponentDrill
T4C0.600
; #@! TA.AperFunction,Plated,PTH,ComponentDrill
T5C1.000
%
G90
G05
T1
X71.08Y-100.53
X71.73Y-97.04
X71.88Y-93.99
X71.99Y-106.01
X72.43Y-102.61
X73.32Y-99.87
X73.45Y-90.7
X73.49Y-88.93
X74.79Y-113.12
X74.93Y-104.38
X75.63Y-88.99
X75.82Y-115.36
X76.08Y-100.7
X76.08Y-102.73
X76.9Y-100.82
X76.91Y-101.69
X77.05Y-91.28
X77.65Y-88.99
X77.7Y-102.13
X77.99Y-107.06
X78.67Y-106.535
X79.49Y-88.93
X79.83Y-115.29
X79.96Y-91.02
X80.22Y-121.45
X80.74Y-103.97
X80.76Y-117.24
X81.01Y-112.28
X81.43Y-89.02
X81.72Y-114.05
X82.11Y-119.65
X82.37Y-104.84
X82.39Y-99.72
X82.41Y-101.28
X82.5Y-110.06
X82.53Y-103.09
X82.9Y-115.42
X82.9Y-117.28
X83.01Y-89.04
X83.65Y-94.42
X83.68Y-103.85
X83.74Y-97.65
X83.93Y-91.51
X84.17Y-113.03
X84.34Y-121.69
X84.66Y-100.45
X84.76Y-89.1
X84.77Y-102.98
X84.94Y-124.65
X85.58Y-117.06
X85.59Y-115.34
X85.73Y-93.33
X85.97Y-100.47
X86.1Y-103.61
X86.19Y-97.66
X86.34Y-89.1
X86.48Y-95.65
X86.74Y-118.15
X86.86Y-91.09
X86.88Y-114.43
X86.96Y-112.98
X87.33Y-122.5
X87.76Y-100.0
X87.9Y-101.8
X87.91Y-117.56
X87.92Y-116.86
X88.03Y-93.54
X88.22Y-98.18
X88.26Y-89.07
X88.36Y-118.41
X88.8Y-116.87
X88.81Y-117.57
X88.92Y-124.04
X88.93Y-96.51
X88.97Y-94.83
X89.14Y-92.09
X89.16Y-90.19
X89.59Y-122.43
X89.79Y-115.89
X89.99Y-117.9
X90.35Y-125.21
X90.98Y-116.91
X91.27Y-95.35
X91.29Y-92.07
X91.29Y-93.64
X91.31Y-88.85
X91.31Y-90.17
X91.37Y-99.18
X91.38Y-97.78
X91.63Y-103.72
X91.77Y-123.12
X92.06Y-100.42
X92.21Y-125.88
X92.23Y-96.36
X92.31Y-114.63
X92.55Y-107.21
X92.64Y-111.47
X92.79Y-105.43
X92.85Y-102.08
X93.28Y-88.91
X93.32Y-97.74
X93.54Y-113.82
X93.7Y-95.0
X93.82Y-91.02
X93.82Y-123.39
X93.99Y-100.23
X94.06Y-103.69
X94.16Y-117.4
X94.7Y-120.01
X94.79Y-121.16
X94.89Y-111.45
X95.07Y-108.31
X95.22Y-92.87
X95.24Y-117.15
X95.31Y-99.06
X95.34Y-102.03
X95.42Y-116.18
X95.47Y-88.93
X95.79Y-120.05
X95.93Y-96.34
X96.06Y-122.5
X96.58Y-91.17
X96.77Y-120.94
X96.9Y-100.46
X97.03Y-115.4
X97.22Y-108.12
X97.3Y-110.57
X97.64Y-88.91
X97.8Y-94.35
X97.98Y-98.09
X98.06Y-122.31
X98.09Y-125.76
X98.19Y-111.6
X98.23Y-102.45
X98.36Y-113.12
X98.89Y-108.84
X99.33Y-104.3
X99.35Y-106.91
X99.38Y-125.74
X99.48Y-114.58
X99.61Y-120.06
X99.62Y-113.51
X99.63Y-120.94
X99.75Y-88.93
X100.14Y-122.39
X100.77Y-120.91
X100.85Y-91.55
X101.35Y-97.01
X101.52Y-88.96
X101.57Y-125.89
X102.09Y-106.71
X102.1Y-120.83
X102.23Y-102.55
X102.25Y-109.11
X102.5Y-95.4
X102.65Y-119.44
X102.96Y-115.8
X102.99Y-117.24
X103.09Y-112.42
X103.1Y-118.98
X103.28Y-106.36
X103.35Y-125.86
X103.38Y-98.86
X103.82Y-88.99
X104.5Y-99.79
X104.6Y-107.03
X105.01Y-119.02
X105.6Y-96.21
X105.61Y-101.05
X105.66Y-105.08
X106.21Y-92.11
X106.3Y-99.05
X106.38Y-89.04
X106.41Y-120.82
X106.73Y-116.26
X106.98Y-125.48
X107.28Y-113.53
X107.29Y-90.54
X107.46Y-122.51
X107.51Y-102.71
X107.54Y-117.66
X107.65Y-111.23
X107.66Y-115.61
X107.69Y-114.23
X107.79Y-105.38
X107.81Y-101.09
X108.37Y-94.3
X108.43Y-114.23
X108.51Y-89.02
X108.51Y-111.21
X108.61Y-119.86
X108.82Y-113.5
X109.21Y-118.04
X109.38Y-126.03
X109.4Y-91.98
X109.43Y-96.01
X109.9Y-105.42
X110.18Y-121.61
X110.26Y-114.34
X110.29Y-101.14
X110.29Y-102.81
X110.34Y-124.08
X110.68Y-89.02
X111.18Y-118.08
X111.57Y-90.71
X111.59Y-94.62
X111.95Y-119.84
X112.04Y-111.22
X112.71Y-89.04
X112.8Y-111.22
X112.87Y-115.59
X113.18Y-102.03
X113.2Y-97.72
X113.27Y-117.54
X113.45Y-100.04
X113.69Y-116.26
X113.76Y-111.79
X113.87Y-95.11
X113.93Y-91.98
X114.07Y-124.15
X114.2Y-121.67
X114.45Y-103.83
X114.54Y-118.73
X114.87Y-89.07
X115.31Y-100.36
X115.44Y-102.18
X115.5Y-98.22
X115.54Y-90.52
X115.64Y-103.7
X116.01Y-116.03
X116.03Y-122.53
X116.55Y-94.16
X116.62Y-89.07
X116.64Y-111.62
X116.645Y-108.335
X116.69Y-91.68
X116.73Y-96.69
X117.7Y-98.68
X118.18Y-96.69
X118.28Y-90.24
X118.31Y-101.2
X118.89Y-89.13
X118.96Y-116.32
X119.0Y-103.93
X119.21Y-111.57
X119.74Y-101.49
X119.92Y-102.64
X120.22Y-91.47
X120.27Y-97.57
X120.96Y-96.49
X120.97Y-119.19
X121.2Y-89.07
X121.81Y-111.41
X121.93Y-106.69
X121.99Y-94.96
X121.99Y-96.47
X122.34Y-90.38
X122.62Y-116.95
X122.64Y-93.1
X123.08Y-105.65
X123.65Y-107.92
X123.78Y-88.93
X123.82Y-114.81
X124.1Y-91.64
X124.14Y-109.5
X124.8Y-112.38
X125.33Y-100.51
X125.34Y-98.99
X126.01Y-108.07
X126.09Y-110.91
X126.17Y-88.93
X126.17Y-91.64
X127.14Y-90.68
X127.76Y-106.75
X127.92Y-97.95
X128.01Y-99.58
X128.03Y-101.82
X128.2Y-93.49
T2
X85.305Y-107.055
X85.305Y-108.315
X85.305Y-109.575
X86.365Y-105.995
X86.365Y-107.055
X86.365Y-108.315
X86.365Y-109.575
X86.365Y-110.635
X87.625Y-105.995
X87.625Y-107.055
X87.625Y-108.315
X87.625Y-109.575
X87.625Y-110.635
X88.885Y-105.995
X88.885Y-107.055
X88.885Y-108.315
X88.885Y-109.575
X88.885Y-110.635
X89.945Y-107.055
X89.945Y-108.315
X89.945Y-109.575
X109.51Y-112.25
X110.26Y-111.9
X110.26Y-112.6
X111.01Y-112.25
X117.985Y-105.985
X118.345Y-105.235
X118.345Y-106.735
X118.705Y-105.985
T3
X90.15Y-73.57
X92.15Y-73.57
X92.15Y-78.57
X94.15Y-73.57
X94.15Y-78.57
X96.15Y-73.57
X96.15Y-78.57
X98.15Y-73.57
X98.15Y-78.57
X100.15Y-73.57
X100.15Y-78.57
X102.15Y-73.57
X102.15Y-78.57
X104.15Y-73.57
X104.15Y-78.57
X106.15Y-73.57
X106.15Y-78.57
X108.15Y-73.57
X108.15Y-78.57
X110.15Y-73.57
X110.15Y-78.57
T5
X117.68Y-114.027
X120.18Y-114.027
T4
G00X123.567Y-95.68
M15
G01X124.468Y-95.68
M16
G05
G00X123.568Y-104.32
M15
G01X124.467Y-104.32
M16
G05
G00X127.927Y-95.68
M15
G01X128.528Y-95.68
M16
G05
G00X127.927Y-104.32
M15
G01X128.528Y-104.32
M16
G05
M30
