G04 #@! TF.GenerationSoftware,KiCad,Pcbnew,10.0.3*
G04 #@! TF.CreationDate,2026-07-12T18:16:33+02:00*
G04 #@! TF.ProjectId,temphum_node,74656d70-6875-46d5-9f6e-6f64652e6b69,rev?*
G04 #@! TF.SameCoordinates,Original*
G04 #@! TF.FileFunction,Soldermask,Top*
G04 #@! TF.FilePolarity,Negative*
%FSLAX46Y46*%
G04 Gerber Fmt 4.6, Leading zero omitted, Abs format (unit mm)*
G04 Created by KiCad (PCBNEW 10.0.3) date 2026-07-12 18:16:33*
%MOMM*%
%LPD*%
G01*
G04 APERTURE LIST*
G04 Aperture macros list*
%AMRoundRect*
0 Rectangle with rounded corners*
0 $1 Rounding radius*
0 $2 $3 $4 $5 $6 $7 $8 $9 X,Y pos of 4 corners*
0 Add a 4 corners polygon primitive as box body*
4,1,4,$2,$3,$4,$5,$6,$7,$8,$9,$2,$3,0*
0 Add four circle primitives for the rounded corners*
1,1,$1+$1,$2,$3*
1,1,$1+$1,$4,$5*
1,1,$1+$1,$6,$7*
1,1,$1+$1,$8,$9*
0 Add four rect primitives between the rounded corners*
20,1,$1+$1,$2,$3,$4,$5,0*
20,1,$1+$1,$4,$5,$6,$7,0*
20,1,$1+$1,$6,$7,$8,$9,0*
20,1,$1+$1,$8,$9,$2,$3,0*%
G04 Aperture macros list end*
%ADD10R,0.650000X0.250000*%
%ADD11R,1.200000X2.000000*%
%ADD12RoundRect,0.073500X-0.101500X0.276500X-0.101500X-0.276500X0.101500X-0.276500X0.101500X0.276500X0*%
%ADD13RoundRect,0.054167X-0.995833X0.595833X-0.995833X-0.595833X0.995833X-0.595833X0.995833X0.595833X0*%
%ADD14C,0.660000*%
%ADD15O,2.000000X1.100000*%
%ADD16O,1.800000X1.200000*%
%ADD17R,1.100000X0.550000*%
%ADD18R,1.100000X0.300000*%
%ADD19RoundRect,0.071400X-0.098600X0.278600X-0.098600X-0.278600X0.098600X-0.278600X0.098600X0.278600X0*%
%ADD20RoundRect,0.071400X-0.278600X0.098600X-0.278600X-0.098600X0.278600X-0.098600X0.278600X0.098600X0*%
%ADD21RoundRect,0.050971X-2.574029X2.574029X-2.574029X-2.574029X2.574029X-2.574029X2.574029X2.574029X0*%
%ADD22R,0.600000X0.620000*%
%ADD23R,0.600000X1.100000*%
%ADD24C,0.990600*%
%ADD25C,0.991400*%
%ADD26R,0.620000X0.600000*%
%ADD27R,0.500000X0.650000*%
%ADD28R,0.650000X0.500000*%
%ADD29R,1.000000X0.850000*%
%ADD30R,0.940000X0.750000*%
%ADD31R,1.200000X1.400000*%
%ADD32R,0.540000X0.566000*%
%ADD33R,0.850000X1.000000*%
%ADD34R,1.400000X2.300000*%
%ADD35R,0.750000X0.940000*%
%ADD36R,1.700000X0.850000*%
%ADD37R,1.100000X0.600000*%
%ADD38R,1.250000X1.000000*%
%ADD39R,0.864000X0.800000*%
%ADD40R,0.532000X1.072000*%
%ADD41R,0.250000X0.550000*%
%ADD42R,0.200000X0.550000*%
%ADD43R,0.600000X0.300000*%
%ADD44R,0.800000X0.800000*%
%ADD45R,1.635000X2.160000*%
%ADD46R,0.585000X0.280000*%
%ADD47R,1.100000X1.800000*%
%ADD48C,1.700000*%
G04 APERTURE END LIST*
D10*
X116935000Y-104985000D03*
X116935000Y-105485000D03*
X116935000Y-105985000D03*
X116935000Y-106485000D03*
X116935000Y-106985000D03*
X119755000Y-106985000D03*
X119755000Y-106485000D03*
X119755000Y-105985000D03*
X119755000Y-105485000D03*
X119755000Y-104985000D03*
D11*
X118345000Y-105985000D03*
D12*
X111260000Y-111100000D03*
X110760000Y-111100000D03*
X110260000Y-111100000D03*
X109760000Y-111100000D03*
X109260000Y-111100000D03*
X109260000Y-113400000D03*
X109760000Y-113400000D03*
X110260000Y-113400000D03*
X110760000Y-113400000D03*
X111260000Y-113400000D03*
D13*
X110260000Y-112250000D03*
D14*
X124547500Y-102890000D03*
X124547500Y-97110000D03*
D15*
X124017500Y-104320000D03*
D16*
X128227500Y-104320000D03*
D15*
X124017500Y-95680000D03*
D16*
X128227500Y-95680000D03*
D17*
X123467500Y-103200000D03*
X123467500Y-102400000D03*
D18*
X123467500Y-101250000D03*
X123467500Y-100250000D03*
X123467500Y-99750000D03*
X123467500Y-98750000D03*
D17*
X123467500Y-96800000D03*
X123467500Y-97600000D03*
D18*
X123467500Y-98250000D03*
X123467500Y-99250000D03*
X123467500Y-100750000D03*
X123467500Y-101750000D03*
D19*
X90375000Y-104915000D03*
X89875000Y-104915000D03*
X89375000Y-104915000D03*
X88875000Y-104915000D03*
X88375000Y-104915000D03*
X87875000Y-104915000D03*
X87375000Y-104915000D03*
X86875000Y-104915000D03*
X86375000Y-104915000D03*
X85875000Y-104915000D03*
X85375000Y-104915000D03*
X84875000Y-104915000D03*
D20*
X84225000Y-105565000D03*
X84225000Y-106065000D03*
X84225000Y-106565000D03*
X84225000Y-107065000D03*
X84225000Y-107565000D03*
X84225000Y-108065000D03*
X84225000Y-108565000D03*
X84225000Y-109065000D03*
X84225000Y-109565000D03*
X84225000Y-110065000D03*
X84225000Y-110565000D03*
X84225000Y-111065000D03*
D19*
X84875000Y-111715000D03*
X85375000Y-111715000D03*
X85875000Y-111715000D03*
X86375000Y-111715000D03*
X86875000Y-111715000D03*
X87375000Y-111715000D03*
X87875000Y-111715000D03*
X88375000Y-111715000D03*
X88875000Y-111715000D03*
X89375000Y-111715000D03*
X89875000Y-111715000D03*
X90375000Y-111715000D03*
D20*
X91025000Y-111065000D03*
X91025000Y-110565000D03*
X91025000Y-110065000D03*
X91025000Y-109565000D03*
X91025000Y-109065000D03*
X91025000Y-108565000D03*
X91025000Y-108065000D03*
X91025000Y-107565000D03*
X91025000Y-107065000D03*
X91025000Y-106565000D03*
X91025000Y-106065000D03*
X91025000Y-105565000D03*
D21*
X87625000Y-108315000D03*
D22*
X81970000Y-111170000D03*
X81050000Y-111170000D03*
D23*
X113240000Y-105640000D03*
X112290000Y-105640000D03*
X111340000Y-105640000D03*
X111340000Y-108340000D03*
X112290000Y-108340000D03*
X113240000Y-108340000D03*
D22*
X81970000Y-110060000D03*
X81050000Y-110060000D03*
D24*
X102680000Y-124025000D03*
X95060000Y-125040000D03*
X95060000Y-123010000D03*
D25*
X101410000Y-123390000D03*
X100140000Y-123390000D03*
X98870000Y-123390000D03*
X97600000Y-123390000D03*
X96330000Y-123390000D03*
X96330000Y-124660000D03*
X97600000Y-124660000D03*
X98870000Y-124660000D03*
X100140000Y-124660000D03*
X101410000Y-124660000D03*
D22*
X90135000Y-99205000D03*
X89215000Y-99205000D03*
D26*
X89820000Y-113620000D03*
X89820000Y-114540000D03*
D27*
X89670000Y-102970000D03*
X90570000Y-102970000D03*
D28*
X90620000Y-101050000D03*
X90620000Y-100150000D03*
D23*
X103760000Y-117210000D03*
X104710000Y-117210000D03*
X105660000Y-117210000D03*
X105660000Y-114510000D03*
X104710000Y-114510000D03*
X103760000Y-114510000D03*
D29*
X78930000Y-104230000D03*
X78930000Y-102730000D03*
D26*
X93860000Y-112550000D03*
X93860000Y-111630000D03*
D22*
X111720000Y-102080000D03*
X110800000Y-102080000D03*
D30*
X91010000Y-113700000D03*
X91010000Y-115100000D03*
X108070000Y-113470000D03*
X108070000Y-112070000D03*
D31*
X96265000Y-104190000D03*
X96265000Y-106390000D03*
X97965000Y-106390000D03*
X97965000Y-104190000D03*
D26*
X90135000Y-92625000D03*
X90135000Y-91705000D03*
D32*
X92870000Y-113440000D03*
X92870000Y-112580000D03*
D22*
X91540000Y-102010000D03*
X90620000Y-102010000D03*
D33*
X124720000Y-106150000D03*
X126220000Y-106150000D03*
X113210000Y-103590000D03*
X111710000Y-103590000D03*
X119635000Y-108405000D03*
X121135000Y-108405000D03*
D34*
X98620000Y-100660000D03*
X98620000Y-91380000D03*
X103120000Y-91380000D03*
X103120000Y-100660000D03*
D27*
X89250000Y-88880000D03*
X90150000Y-88880000D03*
D26*
X92800000Y-104740000D03*
X92800000Y-103820000D03*
D33*
X110080000Y-109760000D03*
X108580000Y-109760000D03*
D27*
X89670000Y-102010000D03*
X88770000Y-102010000D03*
D26*
X105660000Y-113250000D03*
X105660000Y-112330000D03*
D35*
X79100000Y-101250000D03*
X77700000Y-101250000D03*
D30*
X115120000Y-106380000D03*
X115120000Y-104980000D03*
D33*
X101540000Y-110390000D03*
X103040000Y-110390000D03*
D36*
X85380000Y-99310000D03*
X85380000Y-101610000D03*
D29*
X117985000Y-108335000D03*
X117985000Y-109835000D03*
D22*
X90130000Y-93590000D03*
X89210000Y-93590000D03*
D28*
X90140000Y-98250000D03*
X90140000Y-97350000D03*
D26*
X83670000Y-101850000D03*
X83670000Y-100930000D03*
D37*
X111750000Y-100440000D03*
X111750000Y-99490000D03*
X111750000Y-98540000D03*
X109050000Y-98540000D03*
X109050000Y-99490000D03*
X109050000Y-100440000D03*
D22*
X109810000Y-108300000D03*
X108890000Y-108300000D03*
D26*
X89670000Y-100140000D03*
X89670000Y-101060000D03*
D22*
X82170000Y-105600000D03*
X81250000Y-105600000D03*
D30*
X112430000Y-113470000D03*
X112430000Y-112070000D03*
X86680000Y-115740000D03*
X86680000Y-117140000D03*
D38*
X88370000Y-113790000D03*
X88370000Y-115790000D03*
D26*
X83670000Y-99040000D03*
X83670000Y-99960000D03*
D30*
X104940000Y-103690000D03*
X104940000Y-102290000D03*
D28*
X90130000Y-95460000D03*
X90130000Y-94560000D03*
D39*
X93550000Y-116070000D03*
X93550000Y-114670000D03*
D35*
X116930000Y-102530000D03*
X118330000Y-102530000D03*
D22*
X90135000Y-96405000D03*
X91055000Y-96405000D03*
D29*
X108920000Y-102110000D03*
X108920000Y-103610000D03*
D26*
X94040000Y-108300000D03*
X94040000Y-109220000D03*
D29*
X103270000Y-105190000D03*
X103270000Y-103690000D03*
D40*
X120080000Y-93150000D03*
X119130000Y-93150000D03*
X118180000Y-93150000D03*
X118180000Y-95450000D03*
X119130000Y-95450000D03*
X120080000Y-95450000D03*
D22*
X93150000Y-107240000D03*
X94070000Y-107240000D03*
D41*
X98730000Y-119685000D03*
D42*
X98230000Y-119685000D03*
D41*
X97730000Y-119685000D03*
D43*
X97580000Y-120360000D03*
D41*
X97730000Y-121035000D03*
D42*
X98230000Y-121035000D03*
D41*
X98730000Y-121035000D03*
D43*
X98880000Y-120360000D03*
D28*
X90140000Y-90750000D03*
X90140000Y-89850000D03*
D44*
X121145000Y-109905000D03*
X119645000Y-109905000D03*
D29*
X80740000Y-101250000D03*
X80740000Y-102750000D03*
D45*
X111430000Y-116070000D03*
X109090000Y-116070000D03*
D22*
X116950000Y-103710000D03*
X117870000Y-103710000D03*
D26*
X88730000Y-101060000D03*
X88730000Y-100140000D03*
D24*
X74870000Y-111315000D03*
X73854000Y-106235000D03*
X75886000Y-106235000D03*
D25*
X75505000Y-110045000D03*
X74235000Y-110045000D03*
X75505000Y-108775000D03*
X74235000Y-108775000D03*
X75505000Y-107505000D03*
X74235000Y-107505000D03*
D33*
X124560000Y-93790000D03*
X126060000Y-93790000D03*
D46*
X76676250Y-94920000D03*
X76676250Y-95420000D03*
X76676250Y-95920000D03*
X76676250Y-96420000D03*
X79016250Y-96420000D03*
X79016250Y-95920000D03*
X79016250Y-95420000D03*
X79016250Y-94920000D03*
D47*
X77846250Y-95670000D03*
D29*
X121320000Y-104990000D03*
X121320000Y-103490000D03*
D48*
X117680000Y-114027500D03*
X120180000Y-114027500D03*
M02*
