G04 #@! TF.GenerationSoftware,KiCad,Pcbnew,10.0.3*
G04 #@! TF.CreationDate,2026-07-12T18:16:33+02:00*
G04 #@! TF.ProjectId,temphum_node,74656d70-6875-46d5-9f6e-6f64652e6b69,rev?*
G04 #@! TF.SameCoordinates,Original*
G04 #@! TF.FileFunction,Legend,Top*
G04 #@! TF.FilePolarity,Positive*
%FSLAX46Y46*%
G04 Gerber Fmt 4.6, Leading zero omitted, Abs format (unit mm)*
G04 Created by KiCad (PCBNEW 10.0.3) date 2026-07-12 18:16:33*
%MOMM*%
%LPD*%
G01*
G04 APERTURE LIST*
G04 Aperture macros list*
%AMRoundRect*
0 Rectangle with rounded corners*
0 $1 Rounding radius*
0 $2 $3 $4 $5 $6 $7 $8 $9 X,Y pos of 4 corners*
0 Add a 4 corners polygon primitive as box body*
4,1,4,$2,$3,$4,$5,$6,$7,$8,$9,$2,$3,0*
0 Add four circle primitives for the rounded corners*
1,1,$1+$1,$2,$3*
1,1,$1+$1,$4,$5*
1,1,$1+$1,$6,$7*
1,1,$1+$1,$8,$9*
0 Add four rect primitives between the rounded corners*
20,1,$1+$1,$2,$3,$4,$5,0*
20,1,$1+$1,$4,$5,$6,$7,0*
20,1,$1+$1,$6,$7,$8,$9,0*
20,1,$1+$1,$8,$9,$2,$3,0*%
G04 Aperture macros list end*
%ADD10C,0.200000*%
%ADD11C,0.150000*%
%ADD12C,0.250000*%
%ADD13C,0.100000*%
%ADD14C,0.000000*%
%ADD15C,0.120000*%
%ADD16C,0.060000*%
%ADD17C,0.300000*%
%ADD18R,0.650000X0.250000*%
%ADD19R,1.200000X2.000000*%
%ADD20RoundRect,0.073500X-0.101500X0.276500X-0.101500X-0.276500X0.101500X-0.276500X0.101500X0.276500X0*%
%ADD21RoundRect,0.054167X-0.995833X0.595833X-0.995833X-0.595833X0.995833X-0.595833X0.995833X0.595833X0*%
%ADD22C,0.660000*%
%ADD23O,2.000000X1.100000*%
%ADD24O,1.800000X1.200000*%
%ADD25R,1.100000X0.550000*%
%ADD26R,1.100000X0.300000*%
%ADD27RoundRect,0.071400X-0.098600X0.278600X-0.098600X-0.278600X0.098600X-0.278600X0.098600X0.278600X0*%
%ADD28RoundRect,0.071400X-0.278600X0.098600X-0.278600X-0.098600X0.278600X-0.098600X0.278600X0.098600X0*%
%ADD29RoundRect,0.050971X-2.574029X2.574029X-2.574029X-2.574029X2.574029X-2.574029X2.574029X2.574029X0*%
%ADD30R,0.600000X0.620000*%
%ADD31R,0.600000X1.100000*%
%ADD32C,0.990600*%
%ADD33C,0.991400*%
%ADD34R,0.620000X0.600000*%
%ADD35R,0.500000X0.650000*%
%ADD36R,0.650000X0.500000*%
%ADD37R,1.000000X0.850000*%
%ADD38R,0.940000X0.750000*%
%ADD39R,1.200000X1.400000*%
%ADD40R,0.540000X0.566000*%
%ADD41R,0.850000X1.000000*%
%ADD42R,1.400000X2.300000*%
%ADD43R,0.750000X0.940000*%
%ADD44R,1.700000X0.850000*%
%ADD45R,1.100000X0.600000*%
%ADD46R,1.250000X1.000000*%
%ADD47R,0.864000X0.800000*%
%ADD48R,0.532000X1.072000*%
%ADD49R,0.250000X0.550000*%
%ADD50R,0.200000X0.550000*%
%ADD51R,0.600000X0.300000*%
%ADD52R,0.800000X0.800000*%
%ADD53R,1.635000X2.160000*%
%ADD54R,0.585000X0.280000*%
%ADD55R,1.100000X1.800000*%
%ADD56C,1.700000*%
G04 APERTURE END LIST*
D10*
X104737143Y-94347219D02*
X104737143Y-95061504D01*
X104737143Y-95061504D02*
X104689524Y-95204361D01*
X104689524Y-95204361D02*
X104594286Y-95299600D01*
X104594286Y-95299600D02*
X104451429Y-95347219D01*
X104451429Y-95347219D02*
X104356191Y-95347219D01*
X105403810Y-94347219D02*
X105594286Y-94347219D01*
X105594286Y-94347219D02*
X105689524Y-94394838D01*
X105689524Y-94394838D02*
X105784762Y-94490076D01*
X105784762Y-94490076D02*
X105832381Y-94680552D01*
X105832381Y-94680552D02*
X105832381Y-95013885D01*
X105832381Y-95013885D02*
X105784762Y-95204361D01*
X105784762Y-95204361D02*
X105689524Y-95299600D01*
X105689524Y-95299600D02*
X105594286Y-95347219D01*
X105594286Y-95347219D02*
X105403810Y-95347219D01*
X105403810Y-95347219D02*
X105308572Y-95299600D01*
X105308572Y-95299600D02*
X105213334Y-95204361D01*
X105213334Y-95204361D02*
X105165715Y-95013885D01*
X105165715Y-95013885D02*
X105165715Y-94680552D01*
X105165715Y-94680552D02*
X105213334Y-94490076D01*
X105213334Y-94490076D02*
X105308572Y-94394838D01*
X105308572Y-94394838D02*
X105403810Y-94347219D01*
X106260953Y-95347219D02*
X106260953Y-94347219D01*
X106737143Y-95347219D02*
X106737143Y-94347219D01*
X106737143Y-94347219D02*
X107308571Y-95347219D01*
X107308571Y-95347219D02*
X107308571Y-94347219D01*
D11*
X116635000Y-104575000D02*
G75*
G02*
X116495000Y-104575000I-70000J0D01*
G01*
X116495000Y-104575000D02*
G75*
G02*
X116635000Y-104575000I70000J0D01*
G01*
D10*
X111810000Y-110630000D02*
G75*
G02*
X111610000Y-110630000I-100000J0D01*
G01*
X111610000Y-110630000D02*
G75*
G02*
X111810000Y-110630000I100000J0D01*
G01*
X123007500Y-104790000D02*
G75*
G02*
X122867500Y-104790000I-70000J0D01*
G01*
X122867500Y-104790000D02*
G75*
G02*
X123007500Y-104790000I70000J0D01*
G01*
D12*
X91520000Y-104515000D02*
G75*
G02*
X91270000Y-104515000I-125000J0D01*
G01*
X91270000Y-104515000D02*
G75*
G02*
X91520000Y-104515000I125000J0D01*
G01*
X114140000Y-105350000D02*
G75*
G02*
X113900000Y-105350000I-120000J0D01*
G01*
X113900000Y-105350000D02*
G75*
G02*
X114140000Y-105350000I120000J0D01*
G01*
D13*
X89320000Y-102770000D02*
X89320000Y-103170000D01*
X90420000Y-101400000D02*
X90820000Y-101400000D01*
D12*
X103850000Y-118250000D02*
G75*
G02*
X103610000Y-118250000I-120000J0D01*
G01*
X103610000Y-118250000D02*
G75*
G02*
X103850000Y-118250000I120000J0D01*
G01*
D14*
G36*
X97546195Y-86314318D02*
G01*
X97546195Y-86471028D01*
X97389485Y-86471028D01*
X97232776Y-86471028D01*
X97232776Y-86314318D01*
X97232776Y-86157609D01*
X97389485Y-86157609D01*
X97546195Y-86157609D01*
X97546195Y-86314318D01*
G37*
G36*
X97546195Y-87297018D02*
G01*
X97546195Y-87985886D01*
X97389485Y-87985886D01*
X97232776Y-87985886D01*
X97232776Y-87297018D01*
X97232776Y-86608149D01*
X97389485Y-86608149D01*
X97546195Y-86608149D01*
X97546195Y-87297018D01*
G37*
G36*
X103422801Y-87296848D02*
G01*
X103422801Y-87985886D01*
X103321563Y-87985886D01*
X103220325Y-87985886D01*
X103221987Y-87298650D01*
X103223650Y-86611413D01*
X103323226Y-86609611D01*
X103422801Y-86607809D01*
X103422801Y-87296848D01*
G37*
G36*
X103421344Y-86253920D02*
G01*
X103419537Y-86350231D01*
X103324481Y-86352031D01*
X103290480Y-86352374D01*
X103261220Y-86352100D01*
X103239138Y-86351277D01*
X103226672Y-86349971D01*
X103224905Y-86349310D01*
X103223290Y-86341486D01*
X103221930Y-86323064D01*
X103220939Y-86296503D01*
X103220429Y-86264263D01*
X103220385Y-86251199D01*
X103220385Y-86157609D01*
X103321768Y-86157609D01*
X103423150Y-86157609D01*
X103421344Y-86253920D01*
G37*
G36*
X99286181Y-86609242D02*
G01*
X99362102Y-86609405D01*
X99450001Y-86609694D01*
X99461242Y-86609736D01*
X99909731Y-86611413D01*
X99855735Y-86706092D01*
X99801740Y-86800771D01*
X99410176Y-86804036D01*
X99319920Y-86804875D01*
X99242198Y-86805790D01*
X99176484Y-86806794D01*
X99122253Y-86807902D01*
X99078979Y-86809128D01*
X99046137Y-86810486D01*
X99023201Y-86811989D01*
X99009647Y-86813652D01*
X99005552Y-86814863D01*
X98992066Y-86824877D01*
X98977082Y-86838907D01*
X98976169Y-86839873D01*
X98959845Y-86857321D01*
X98958106Y-87421604D01*
X98956367Y-87985886D01*
X98858361Y-87985886D01*
X98760356Y-87985886D01*
X98762157Y-87403123D01*
X98763958Y-86820359D01*
X98784183Y-86777917D01*
X98815737Y-86725676D01*
X98856117Y-86681511D01*
X98903704Y-86646792D01*
X98956878Y-86622888D01*
X98973240Y-86618141D01*
X98982513Y-86616140D01*
X98994103Y-86614429D01*
X99008976Y-86612994D01*
X99028099Y-86611817D01*
X99052438Y-86610881D01*
X99082959Y-86610170D01*
X99120628Y-86609668D01*
X99166410Y-86609356D01*
X99221273Y-86609220D01*
X99286181Y-86609242D01*
G37*
G36*
X102167493Y-86609615D02*
G01*
X102760051Y-86611413D01*
X102795963Y-86626058D01*
X102848224Y-86654158D01*
X102894653Y-86692569D01*
X102933003Y-86739043D01*
X102960881Y-86790976D01*
X102975526Y-86826889D01*
X102977296Y-87406388D01*
X102979065Y-87985886D01*
X102880985Y-87985886D01*
X102782904Y-87985886D01*
X102782880Y-87429241D01*
X102782869Y-87331131D01*
X102782832Y-87245232D01*
X102782750Y-87170695D01*
X102782604Y-87106673D01*
X102782375Y-87052316D01*
X102782044Y-87006778D01*
X102781592Y-86969209D01*
X102781000Y-86938762D01*
X102780248Y-86914587D01*
X102779318Y-86895837D01*
X102778190Y-86881664D01*
X102776846Y-86871219D01*
X102775266Y-86863654D01*
X102773431Y-86858121D01*
X102771322Y-86853771D01*
X102769880Y-86851315D01*
X102754859Y-86832848D01*
X102736372Y-86817450D01*
X102735625Y-86816983D01*
X102731134Y-86814420D01*
X102726001Y-86812221D01*
X102719263Y-86810363D01*
X102709957Y-86808822D01*
X102697120Y-86807575D01*
X102679790Y-86806598D01*
X102657002Y-86805867D01*
X102627795Y-86805359D01*
X102591206Y-86805049D01*
X102546272Y-86804914D01*
X102492029Y-86804931D01*
X102427516Y-86805076D01*
X102351769Y-86805325D01*
X102273598Y-86805616D01*
X101832853Y-86807300D01*
X101812437Y-86821863D01*
X101805258Y-86826822D01*
X101798955Y-86831360D01*
X101793470Y-86836313D01*
X101788746Y-86842515D01*
X101784727Y-86850798D01*
X101781356Y-86861998D01*
X101778577Y-86876947D01*
X101776332Y-86896479D01*
X101774565Y-86921430D01*
X101773219Y-86952631D01*
X101772237Y-86990917D01*
X101771563Y-87037123D01*
X101771140Y-87092081D01*
X101770911Y-87156626D01*
X101770819Y-87231591D01*
X101770808Y-87317811D01*
X101770821Y-87416118D01*
X101770822Y-87433493D01*
X101770822Y-87985886D01*
X101672878Y-87985886D01*
X101574935Y-87985886D01*
X101574935Y-87296851D01*
X101574935Y-86607816D01*
X102167493Y-86609615D01*
G37*
G36*
X105393579Y-86132511D02*
G01*
X105436566Y-86133350D01*
X105468787Y-86134279D01*
X105492531Y-86135610D01*
X105510089Y-86137655D01*
X105523752Y-86140724D01*
X105535810Y-86145128D01*
X105548555Y-86151180D01*
X105554968Y-86154444D01*
X105581969Y-86170682D01*
X105601302Y-86189136D01*
X105613252Y-86206169D01*
X105623410Y-86223977D01*
X105629352Y-86239674D01*
X105632166Y-86257947D01*
X105632941Y-86283485D01*
X105632945Y-86290953D01*
X105631988Y-86321818D01*
X105628703Y-86344328D01*
X105622238Y-86363101D01*
X105618077Y-86371540D01*
X105604053Y-86391408D01*
X105584111Y-86412032D01*
X105562520Y-86429505D01*
X105543549Y-86439920D01*
X105543230Y-86440028D01*
X105544096Y-86445934D01*
X105551458Y-86460539D01*
X105564208Y-86481923D01*
X105581241Y-86508166D01*
X105589573Y-86520418D01*
X105643279Y-86598354D01*
X105612880Y-86600377D01*
X105592876Y-86600950D01*
X105577800Y-86600041D01*
X105574202Y-86599223D01*
X105567810Y-86592732D01*
X105556251Y-86577256D01*
X105541079Y-86555006D01*
X105523852Y-86528192D01*
X105521136Y-86523832D01*
X105476349Y-86451617D01*
X105406370Y-86451528D01*
X105336391Y-86451439D01*
X105334545Y-86524897D01*
X105332699Y-86598354D01*
X105301683Y-86600344D01*
X105270668Y-86602335D01*
X105270668Y-86392673D01*
X105335963Y-86392673D01*
X105414528Y-86392673D01*
X105459345Y-86391708D01*
X105492524Y-86388850D01*
X105513437Y-86384156D01*
X105514409Y-86383767D01*
X105532900Y-86372634D01*
X105550828Y-86356764D01*
X105553376Y-86353883D01*
X105564059Y-86338730D01*
X105569379Y-86322666D01*
X105571000Y-86300155D01*
X105571028Y-86295194D01*
X105567734Y-86261855D01*
X105557194Y-86235725D01*
X105538423Y-86216179D01*
X105510434Y-86202590D01*
X105472242Y-86194333D01*
X105422861Y-86190782D01*
X105406156Y-86190542D01*
X105335963Y-86190257D01*
X105335963Y-86291465D01*
X105335963Y-86392673D01*
X105270668Y-86392673D01*
X105270668Y-86366301D01*
X105270668Y-86291465D01*
X105270668Y-86130267D01*
X105393579Y-86132511D01*
G37*
G36*
X97983675Y-86382819D02*
G01*
X97983675Y-86608029D01*
X98313064Y-86609721D01*
X98642453Y-86611413D01*
X98588109Y-86706092D01*
X98533766Y-86800771D01*
X98258721Y-86802474D01*
X97983675Y-86804177D01*
X97983700Y-87262808D01*
X97983714Y-87351320D01*
X97983764Y-87427715D01*
X97983875Y-87492936D01*
X97984072Y-87547923D01*
X97984381Y-87593620D01*
X97984828Y-87630968D01*
X97985438Y-87660909D01*
X97986237Y-87684387D01*
X97987250Y-87702342D01*
X97988502Y-87715717D01*
X97990020Y-87725454D01*
X97991828Y-87732495D01*
X97993952Y-87737782D01*
X97996419Y-87742257D01*
X97996699Y-87742720D01*
X98011735Y-87761180D01*
X98030234Y-87776529D01*
X98030955Y-87776976D01*
X98036799Y-87780216D01*
X98043534Y-87782867D01*
X98052446Y-87784989D01*
X98064823Y-87786641D01*
X98081954Y-87787881D01*
X98105126Y-87788768D01*
X98135626Y-87789361D01*
X98174743Y-87789720D01*
X98223765Y-87789902D01*
X98283979Y-87789968D01*
X98315051Y-87789975D01*
X98577866Y-87790000D01*
X98577866Y-87887943D01*
X98577866Y-87985886D01*
X98301992Y-87985718D01*
X98234616Y-87985658D01*
X98178951Y-87985524D01*
X98133647Y-87985255D01*
X98097354Y-87984786D01*
X98068725Y-87984055D01*
X98046409Y-87982999D01*
X98029057Y-87981553D01*
X98015321Y-87979656D01*
X98003851Y-87977243D01*
X97993299Y-87974252D01*
X97982737Y-87970763D01*
X97926886Y-87945537D01*
X97879636Y-87910634D01*
X97840256Y-87865457D01*
X97824793Y-87841417D01*
X97819403Y-87832317D01*
X97814564Y-87823907D01*
X97810244Y-87815474D01*
X97806416Y-87806303D01*
X97803048Y-87795678D01*
X97800113Y-87782884D01*
X97797579Y-87767207D01*
X97795418Y-87747932D01*
X97793600Y-87724343D01*
X97792096Y-87695727D01*
X97790875Y-87661367D01*
X97789909Y-87620549D01*
X97789167Y-87572558D01*
X97788621Y-87516680D01*
X97788240Y-87452199D01*
X97787996Y-87378400D01*
X97787858Y-87294568D01*
X97787797Y-87199989D01*
X97787784Y-87093948D01*
X97787788Y-86975729D01*
X97787789Y-86946314D01*
X97787789Y-86157609D01*
X97885732Y-86157609D01*
X97983675Y-86157609D01*
X97983675Y-86382819D01*
G37*
G36*
X105515236Y-86004408D02*
G01*
X105573591Y-86021752D01*
X105628923Y-86049529D01*
X105646017Y-86060436D01*
X105700614Y-86104694D01*
X105746230Y-86158158D01*
X105782289Y-86220041D01*
X105804649Y-86277555D01*
X105812520Y-86315475D01*
X105815876Y-86360984D01*
X105814817Y-86409459D01*
X105809445Y-86456271D01*
X105799860Y-86496797D01*
X105799854Y-86496818D01*
X105772678Y-86560251D01*
X105735498Y-86616600D01*
X105689712Y-86665079D01*
X105636721Y-86704906D01*
X105577925Y-86735295D01*
X105514724Y-86755463D01*
X105448517Y-86764626D01*
X105380706Y-86761998D01*
X105339888Y-86754450D01*
X105285648Y-86737045D01*
X105236619Y-86711622D01*
X105189660Y-86676350D01*
X105162349Y-86650871D01*
X105116721Y-86598711D01*
X105083380Y-86544470D01*
X105061554Y-86486310D01*
X105050474Y-86422391D01*
X105048663Y-86379614D01*
X105049339Y-86370567D01*
X105097066Y-86370567D01*
X105100459Y-86425347D01*
X105116542Y-86489968D01*
X105143121Y-86548254D01*
X105179090Y-86599236D01*
X105223347Y-86641945D01*
X105274789Y-86675413D01*
X105332311Y-86698670D01*
X105394811Y-86710749D01*
X105427377Y-86712294D01*
X105457466Y-86711475D01*
X105486537Y-86709301D01*
X105509080Y-86706208D01*
X105512080Y-86705574D01*
X105569684Y-86685794D01*
X105622776Y-86654822D01*
X105669843Y-86614173D01*
X105709372Y-86565366D01*
X105739848Y-86509916D01*
X105757191Y-86459907D01*
X105766839Y-86398211D01*
X105764337Y-86337072D01*
X105750562Y-86277959D01*
X105726392Y-86222342D01*
X105692705Y-86171687D01*
X105650377Y-86127463D01*
X105600287Y-86091139D01*
X105543312Y-86064184D01*
X105515526Y-86055466D01*
X105478460Y-86049122D01*
X105434760Y-86047048D01*
X105390121Y-86049206D01*
X105350236Y-86055559D01*
X105346029Y-86056604D01*
X105287802Y-86078159D01*
X105235377Y-86110110D01*
X105189804Y-86150880D01*
X105152136Y-86198889D01*
X105123422Y-86252559D01*
X105104715Y-86310311D01*
X105097066Y-86370567D01*
X105049339Y-86370567D01*
X105053830Y-86310418D01*
X105069765Y-86247787D01*
X105097112Y-86190156D01*
X105136519Y-86135959D01*
X105159466Y-86111149D01*
X105214065Y-86063873D01*
X105272176Y-86029111D01*
X105334270Y-86006678D01*
X105400815Y-85996389D01*
X105450231Y-85996309D01*
X105515236Y-86004408D01*
G37*
G36*
X96280119Y-86608156D02*
G01*
X96363210Y-86608235D01*
X96435748Y-86608427D01*
X96498569Y-86608779D01*
X96552507Y-86609337D01*
X96598399Y-86610149D01*
X96637078Y-86611260D01*
X96669382Y-86612719D01*
X96696145Y-86614571D01*
X96718203Y-86616863D01*
X96736390Y-86619643D01*
X96751543Y-86622956D01*
X96764496Y-86626851D01*
X96776085Y-86631373D01*
X96787146Y-86636570D01*
X96798514Y-86642487D01*
X96811002Y-86649162D01*
X96853583Y-86677411D01*
X96893965Y-86714552D01*
X96928122Y-86756543D01*
X96944156Y-86782770D01*
X96951053Y-86795882D01*
X96957114Y-86808167D01*
X96962392Y-86820521D01*
X96966943Y-86833837D01*
X96970820Y-86849011D01*
X96974078Y-86866935D01*
X96976771Y-86888506D01*
X96978953Y-86914617D01*
X96980678Y-86946163D01*
X96982001Y-86984039D01*
X96982976Y-87029138D01*
X96983657Y-87082356D01*
X96984098Y-87144586D01*
X96984354Y-87216724D01*
X96984479Y-87299664D01*
X96984526Y-87394299D01*
X96984539Y-87448830D01*
X96984652Y-87985886D01*
X96362711Y-87985231D01*
X96270515Y-87985072D01*
X96182321Y-87984800D01*
X96099025Y-87984423D01*
X96021519Y-87983952D01*
X95950695Y-87983394D01*
X95887447Y-87982759D01*
X95832668Y-87982057D01*
X95787250Y-87981296D01*
X95752086Y-87980485D01*
X95728070Y-87979634D01*
X95716094Y-87978751D01*
X95715426Y-87978625D01*
X95660317Y-87959248D01*
X95608765Y-87928793D01*
X95562518Y-87889112D01*
X95523321Y-87842059D01*
X95492922Y-87789487D01*
X95473066Y-87733251D01*
X95469787Y-87717934D01*
X95468128Y-87701831D01*
X95466762Y-87673759D01*
X95465708Y-87634806D01*
X95464983Y-87586058D01*
X95464604Y-87528604D01*
X95464589Y-87463530D01*
X95464823Y-87411045D01*
X95466529Y-87140308D01*
X96024807Y-87138622D01*
X96109158Y-87138402D01*
X96189820Y-87138260D01*
X96265829Y-87138192D01*
X96336223Y-87138196D01*
X96400037Y-87138271D01*
X96456309Y-87138415D01*
X96504075Y-87138624D01*
X96542373Y-87138897D01*
X96570237Y-87139231D01*
X96586707Y-87139624D01*
X96590976Y-87139946D01*
X96590324Y-87146457D01*
X96583086Y-87163557D01*
X96569531Y-87190717D01*
X96549927Y-87227412D01*
X96524543Y-87273113D01*
X96509357Y-87299899D01*
X96419845Y-87456842D01*
X96098102Y-87456917D01*
X95776360Y-87456992D01*
X95778154Y-87563097D01*
X95779948Y-87669203D01*
X96225644Y-87670880D01*
X96671340Y-87672558D01*
X96669654Y-87298695D01*
X96667968Y-86924832D01*
X96065616Y-86923166D01*
X95463264Y-86921500D01*
X95463264Y-86764824D01*
X95463264Y-86608149D01*
X96078936Y-86608149D01*
X96185639Y-86608143D01*
X96280119Y-86608156D01*
G37*
G36*
X104347860Y-86609379D02*
G01*
X104458731Y-86609589D01*
X104498192Y-86609701D01*
X105054483Y-86611413D01*
X105000140Y-86706092D01*
X104945797Y-86800771D01*
X104440584Y-86804036D01*
X103935372Y-86807300D01*
X103915013Y-86821822D01*
X103907555Y-86827157D01*
X103901131Y-86832388D01*
X103895662Y-86838474D01*
X103891074Y-86846376D01*
X103887287Y-86857052D01*
X103884226Y-86871464D01*
X103881814Y-86890570D01*
X103879972Y-86915331D01*
X103878625Y-86946706D01*
X103877695Y-86985655D01*
X103877105Y-87033138D01*
X103876778Y-87090115D01*
X103876637Y-87157545D01*
X103876605Y-87236388D01*
X103876606Y-87300282D01*
X103876626Y-87385218D01*
X103876701Y-87458076D01*
X103876859Y-87519840D01*
X103877124Y-87571491D01*
X103877522Y-87614011D01*
X103878079Y-87648384D01*
X103878820Y-87675590D01*
X103879772Y-87696612D01*
X103880960Y-87712433D01*
X103882409Y-87724034D01*
X103884146Y-87732398D01*
X103886195Y-87738507D01*
X103888169Y-87742599D01*
X103892000Y-87750103D01*
X103895318Y-87756704D01*
X103898935Y-87762466D01*
X103903663Y-87767449D01*
X103910314Y-87771716D01*
X103919700Y-87775329D01*
X103932633Y-87778349D01*
X103949925Y-87780839D01*
X103972388Y-87782860D01*
X104000834Y-87784475D01*
X104036075Y-87785744D01*
X104078923Y-87786731D01*
X104130190Y-87787497D01*
X104190688Y-87788104D01*
X104261229Y-87788614D01*
X104342624Y-87789089D01*
X104435687Y-87789591D01*
X104509683Y-87790000D01*
X105084575Y-87793264D01*
X105086382Y-87889575D01*
X105088189Y-87985886D01*
X104505251Y-87985231D01*
X104416638Y-87985065D01*
X104331861Y-87984779D01*
X104251858Y-87984383D01*
X104177569Y-87983886D01*
X104109934Y-87983299D01*
X104049892Y-87982632D01*
X103998383Y-87981895D01*
X103956346Y-87981099D01*
X103924721Y-87980253D01*
X103904448Y-87979369D01*
X103896963Y-87978624D01*
X103853154Y-87962779D01*
X103809119Y-87936972D01*
X103768193Y-87903806D01*
X103733714Y-87865882D01*
X103714230Y-87836135D01*
X103707238Y-87822877D01*
X103701198Y-87809953D01*
X103696041Y-87796338D01*
X103691697Y-87781010D01*
X103688095Y-87762946D01*
X103685167Y-87741122D01*
X103682841Y-87714517D01*
X103681049Y-87682105D01*
X103679719Y-87642865D01*
X103678783Y-87595774D01*
X103678170Y-87539807D01*
X103677810Y-87473942D01*
X103677633Y-87397157D01*
X103677570Y-87308427D01*
X103677568Y-87299849D01*
X103677663Y-87199892D01*
X103678005Y-87111878D01*
X103678591Y-87035971D01*
X103679418Y-86972338D01*
X103680485Y-86921145D01*
X103681787Y-86882556D01*
X103683324Y-86856738D01*
X103684593Y-86846045D01*
X103701210Y-86790008D01*
X103728690Y-86738712D01*
X103765459Y-86693785D01*
X103809943Y-86656857D01*
X103860567Y-86629557D01*
X103907821Y-86615020D01*
X103921012Y-86613589D01*
X103945800Y-86612368D01*
X103982358Y-86611356D01*
X104030863Y-86610552D01*
X104091491Y-86609954D01*
X104164416Y-86609560D01*
X104249814Y-86609369D01*
X104347860Y-86609379D01*
G37*
G36*
X101178202Y-86626551D02*
G01*
X101232403Y-86655301D01*
X101279923Y-86694356D01*
X101318947Y-86741901D01*
X101347587Y-86795936D01*
X101362724Y-86833419D01*
X101364728Y-87274164D01*
X101365092Y-87372872D01*
X101365221Y-87459041D01*
X101365111Y-87533187D01*
X101364755Y-87595828D01*
X101364148Y-87647481D01*
X101363283Y-87688664D01*
X101362155Y-87719894D01*
X101360757Y-87741688D01*
X101359233Y-87753826D01*
X101342185Y-87809208D01*
X101314154Y-87859961D01*
X101276781Y-87904375D01*
X101231707Y-87940738D01*
X101180575Y-87967338D01*
X101143235Y-87978966D01*
X101130657Y-87980317D01*
X101105596Y-87981531D01*
X101068627Y-87982601D01*
X101020325Y-87983518D01*
X100961266Y-87984276D01*
X100892024Y-87984866D01*
X100813175Y-87985280D01*
X100725294Y-87985510D01*
X100657531Y-87985558D01*
X100200462Y-87985549D01*
X100157081Y-87970763D01*
X100100596Y-87945043D01*
X100052470Y-87909304D01*
X100012879Y-87863703D01*
X99986061Y-87817291D01*
X99965398Y-87773676D01*
X99965398Y-87300282D01*
X99965398Y-87042513D01*
X100158892Y-87042513D01*
X100158924Y-87097305D01*
X100159084Y-87162475D01*
X100159347Y-87238998D01*
X100159599Y-87304753D01*
X100161285Y-87736911D01*
X100180873Y-87757604D01*
X100196188Y-87771895D01*
X100210322Y-87782120D01*
X100213521Y-87783735D01*
X100222139Y-87784666D01*
X100242705Y-87785559D01*
X100274108Y-87786399D01*
X100315237Y-87787170D01*
X100364982Y-87787860D01*
X100422232Y-87788453D01*
X100485875Y-87788936D01*
X100554801Y-87789293D01*
X100627900Y-87789511D01*
X100664061Y-87789561D01*
X100750401Y-87789627D01*
X100824647Y-87789641D01*
X100887766Y-87789578D01*
X100940723Y-87789411D01*
X100984485Y-87789114D01*
X101020016Y-87788662D01*
X101048283Y-87788029D01*
X101070251Y-87787188D01*
X101086886Y-87786113D01*
X101099154Y-87784778D01*
X101108021Y-87783158D01*
X101114453Y-87781226D01*
X101119415Y-87778956D01*
X101122446Y-87777205D01*
X101130390Y-87772446D01*
X101137241Y-87767927D01*
X101143078Y-87762701D01*
X101147984Y-87755820D01*
X101152039Y-87746339D01*
X101155323Y-87733311D01*
X101157918Y-87715789D01*
X101159904Y-87692826D01*
X101161362Y-87663477D01*
X101162373Y-87626793D01*
X101163017Y-87581829D01*
X101163376Y-87527638D01*
X101163531Y-87463274D01*
X101163561Y-87387789D01*
X101163548Y-87300237D01*
X101163548Y-87295709D01*
X101163529Y-87210103D01*
X101163464Y-87136583D01*
X101163326Y-87074177D01*
X101163089Y-87021912D01*
X101162727Y-86978816D01*
X101162213Y-86943916D01*
X101161520Y-86916240D01*
X101160621Y-86894815D01*
X101159491Y-86878667D01*
X101158103Y-86866826D01*
X101156429Y-86858318D01*
X101154443Y-86852170D01*
X101152120Y-86847411D01*
X101151260Y-86845955D01*
X101146402Y-86837935D01*
X101141682Y-86831009D01*
X101136162Y-86825096D01*
X101128904Y-86820116D01*
X101118969Y-86815990D01*
X101105419Y-86812637D01*
X101087315Y-86809977D01*
X101063720Y-86807930D01*
X101033695Y-86806417D01*
X100996302Y-86805357D01*
X100950602Y-86804671D01*
X100895656Y-86804278D01*
X100830528Y-86804099D01*
X100754278Y-86804052D01*
X100665968Y-86804060D01*
X100659809Y-86804060D01*
X100573946Y-86804075D01*
X100500170Y-86804130D01*
X100437509Y-86804251D01*
X100384991Y-86804467D01*
X100341644Y-86804805D01*
X100306497Y-86805294D01*
X100278577Y-86805960D01*
X100256913Y-86806832D01*
X100240532Y-86807938D01*
X100228463Y-86809305D01*
X100219734Y-86810962D01*
X100213372Y-86812935D01*
X100208405Y-86815254D01*
X100205300Y-86817059D01*
X100186832Y-86832081D01*
X100171433Y-86850567D01*
X100170966Y-86851315D01*
X100168379Y-86855848D01*
X100166163Y-86861028D01*
X100164295Y-86867826D01*
X100162749Y-86877217D01*
X100161503Y-86890174D01*
X100160530Y-86907671D01*
X100159807Y-86930679D01*
X100159309Y-86960174D01*
X100159013Y-86997127D01*
X100158892Y-87042513D01*
X99965398Y-87042513D01*
X99965398Y-86826889D01*
X99980043Y-86790976D01*
X100008143Y-86738716D01*
X100046553Y-86692287D01*
X100093027Y-86653937D01*
X100144961Y-86626058D01*
X100180873Y-86611413D01*
X100660796Y-86611413D01*
X101140719Y-86611413D01*
X101178202Y-86626551D01*
G37*
G36*
X100276025Y-79966289D02*
G01*
X100316059Y-79983034D01*
X100351414Y-80008157D01*
X100380421Y-80040855D01*
X100401410Y-80080323D01*
X100412709Y-80125758D01*
X100414199Y-80149187D01*
X100408594Y-80200120D01*
X100391590Y-80245679D01*
X100363906Y-80284639D01*
X100326260Y-80315774D01*
X100311647Y-80324189D01*
X100275583Y-80343033D01*
X100275568Y-80746234D01*
X100275552Y-81149434D01*
X100314020Y-81149434D01*
X100335608Y-81149088D01*
X100348055Y-81146731D01*
X100355278Y-81140383D01*
X100361195Y-81128064D01*
X100362469Y-81124948D01*
X100371372Y-81105718D01*
X100380422Y-81089948D01*
X100381807Y-81087995D01*
X100385732Y-81080886D01*
X100385733Y-81080874D01*
X100705533Y-81080874D01*
X100719600Y-81112379D01*
X100734361Y-81160039D01*
X100736632Y-81209446D01*
X100726394Y-81261351D01*
X100715473Y-81291124D01*
X100718933Y-81298657D01*
X100732953Y-81308940D01*
X100755524Y-81321174D01*
X100784638Y-81334559D01*
X100818289Y-81348296D01*
X100854468Y-81361585D01*
X100891166Y-81373626D01*
X100926377Y-81383619D01*
X100958093Y-81390765D01*
X100970950Y-81392876D01*
X101006562Y-81395826D01*
X101049691Y-81396400D01*
X101095043Y-81394735D01*
X101137321Y-81390971D01*
X101157820Y-81387974D01*
X101246328Y-81366090D01*
X101329211Y-81332794D01*
X101405612Y-81288783D01*
X101474674Y-81234756D01*
X101535541Y-81171414D01*
X101587356Y-81099454D01*
X101629263Y-81019576D01*
X101639538Y-80994781D01*
X101652765Y-80960925D01*
X101620614Y-80937827D01*
X101591373Y-80910727D01*
X101566949Y-80876541D01*
X101550194Y-80839771D01*
X101545028Y-80818473D01*
X101540920Y-80791077D01*
X101504583Y-80786537D01*
X101476927Y-80784599D01*
X101439730Y-80784111D01*
X101396408Y-80784909D01*
X101350377Y-80786830D01*
X101305056Y-80789710D01*
X101263861Y-80793385D01*
X101230209Y-80797694D01*
X101215809Y-80800348D01*
X101110991Y-80828809D01*
X101011183Y-80866961D01*
X100917954Y-80914010D01*
X100832874Y-80969160D01*
X100757515Y-81031617D01*
X100755600Y-81033425D01*
X100705533Y-81080874D01*
X100385733Y-81080874D01*
X100386585Y-81071857D01*
X100383911Y-81058141D01*
X100377252Y-81036975D01*
X100369945Y-81016157D01*
X100343826Y-80924197D01*
X100330231Y-80830818D01*
X100329397Y-80772627D01*
X100432347Y-80772627D01*
X100433737Y-80814639D01*
X100437698Y-80856841D01*
X100443770Y-80897310D01*
X100451490Y-80934124D01*
X100460398Y-80965362D01*
X100470031Y-80989100D01*
X100479929Y-81003417D01*
X100488543Y-81006687D01*
X100508269Y-81004468D01*
X100533538Y-81003705D01*
X100560176Y-81004266D01*
X100584009Y-81006018D01*
X100600863Y-81008828D01*
X100605060Y-81010403D01*
X100612710Y-81012898D01*
X100621517Y-81010512D01*
X100633967Y-81001852D01*
X100652550Y-80985524D01*
X100657297Y-80981145D01*
X100682174Y-80958865D01*
X100711618Y-80933615D01*
X100739821Y-80910362D01*
X100743532Y-80907396D01*
X100834549Y-80843197D01*
X100933490Y-80788676D01*
X100951334Y-80781188D01*
X101631997Y-80781188D01*
X101637096Y-80812914D01*
X101652629Y-80843328D01*
X101668140Y-80860837D01*
X101697072Y-80879808D01*
X101730181Y-80886468D01*
X101765282Y-80881556D01*
X101790871Y-80868647D01*
X101814216Y-80846800D01*
X101831752Y-80820069D01*
X101839285Y-80797413D01*
X101840723Y-80776487D01*
X101836197Y-80756739D01*
X101828560Y-80739531D01*
X101807525Y-80708264D01*
X101780789Y-80688566D01*
X101747461Y-80679862D01*
X101734909Y-80679306D01*
X101699883Y-80684837D01*
X101671276Y-80699974D01*
X101649890Y-80722535D01*
X101636529Y-80750334D01*
X101631997Y-80781188D01*
X100951334Y-80781188D01*
X101038874Y-80744452D01*
X101149220Y-80711142D01*
X101263048Y-80689363D01*
X101267547Y-80688755D01*
X101313456Y-80684134D01*
X101365782Y-80681282D01*
X101419924Y-80680268D01*
X101471282Y-80681163D01*
X101515256Y-80684037D01*
X101522699Y-80684848D01*
X101558611Y-80689100D01*
X101593310Y-80651862D01*
X101611670Y-80633411D01*
X101628346Y-80618822D01*
X101640134Y-80610862D01*
X101641335Y-80610395D01*
X101649050Y-80605201D01*
X101651664Y-80595164D01*
X101648828Y-80578939D01*
X101640194Y-80555179D01*
X101625412Y-80522538D01*
X101610983Y-80493213D01*
X101564594Y-80414744D01*
X101508921Y-80345244D01*
X101444412Y-80285160D01*
X101371512Y-80234936D01*
X101330076Y-80212688D01*
X101283231Y-80191236D01*
X101240545Y-80175437D01*
X101198480Y-80164537D01*
X101153495Y-80157784D01*
X101102050Y-80154425D01*
X101052570Y-80153676D01*
X101009782Y-80153913D01*
X100977037Y-80154812D01*
X100951322Y-80156655D01*
X100929627Y-80159726D01*
X100908939Y-80164305D01*
X100893281Y-80168607D01*
X100806888Y-80200002D01*
X100727789Y-80241587D01*
X100656633Y-80292510D01*
X100594071Y-80351919D01*
X100540751Y-80418964D01*
X100497324Y-80492794D01*
X100464440Y-80572556D01*
X100442747Y-80657399D01*
X100432896Y-80746473D01*
X100432347Y-80772627D01*
X100329397Y-80772627D01*
X100328890Y-80737215D01*
X100339533Y-80644586D01*
X100361890Y-80554126D01*
X100395690Y-80467032D01*
X100440664Y-80384499D01*
X100496541Y-80307724D01*
X100540947Y-80259097D01*
X100614524Y-80194375D01*
X100694121Y-80141202D01*
X100779361Y-80099743D01*
X100869867Y-80070161D01*
X100965262Y-80052620D01*
X101026452Y-80047872D01*
X101125531Y-80050063D01*
X101220229Y-80064543D01*
X101310751Y-80091376D01*
X101397304Y-80130626D01*
X101480095Y-80182355D01*
X101490862Y-80190199D01*
X101547812Y-80238365D01*
X101601760Y-80295383D01*
X101650857Y-80358617D01*
X101693254Y-80425432D01*
X101727102Y-80493194D01*
X101750554Y-80559267D01*
X101751041Y-80561060D01*
X101757516Y-80578679D01*
X101767033Y-80587656D01*
X101779103Y-80591461D01*
X101822603Y-80607181D01*
X101860768Y-80633252D01*
X101891875Y-80667553D01*
X101914204Y-80707969D01*
X101926032Y-80752380D01*
X101927474Y-80773984D01*
X101927545Y-80813162D01*
X101959948Y-80831361D01*
X101999873Y-80856301D01*
X102044885Y-80888655D01*
X102091664Y-80925845D01*
X102136893Y-80965290D01*
X102158416Y-80985565D01*
X102240028Y-81073458D01*
X102310189Y-81167611D01*
X102368839Y-81267897D01*
X102415917Y-81374188D01*
X102451363Y-81486357D01*
X102475116Y-81604277D01*
X102482958Y-81669224D01*
X102486792Y-81773367D01*
X102479508Y-81880715D01*
X102461594Y-81988484D01*
X102433538Y-82093891D01*
X102395826Y-82194150D01*
X102388031Y-82211477D01*
X102364437Y-82262544D01*
X102382548Y-82298339D01*
X102396779Y-82338065D01*
X102403558Y-82383202D01*
X102402339Y-82428074D01*
X102397461Y-82452793D01*
X102393026Y-82470572D01*
X102393389Y-82482224D01*
X102400025Y-82493172D01*
X102412039Y-82506330D01*
X102480698Y-82587539D01*
X102542810Y-82678464D01*
X102597409Y-82777013D01*
X102643527Y-82881095D01*
X102680198Y-82988620D01*
X102706456Y-83097497D01*
X102717347Y-83166898D01*
X102722947Y-83234732D01*
X102724410Y-83309472D01*
X102721952Y-83387150D01*
X102715790Y-83463800D01*
X102706138Y-83535455D01*
X102694065Y-83594755D01*
X102657750Y-83715088D01*
X102610116Y-83829942D01*
X102551693Y-83938513D01*
X102483013Y-84039997D01*
X102404604Y-84133590D01*
X102316997Y-84218489D01*
X102244215Y-84276980D01*
X102147500Y-84342023D01*
X102047637Y-84396827D01*
X101946964Y-84440129D01*
X101933861Y-84444875D01*
X101908743Y-84454011D01*
X101893133Y-84461096D01*
X101884208Y-84468390D01*
X101879149Y-84478155D01*
X101875363Y-84491740D01*
X101856714Y-84540785D01*
X101827669Y-84582048D01*
X101788745Y-84614916D01*
X101756282Y-84632433D01*
X101740672Y-84639704D01*
X101730161Y-84646868D01*
X101722544Y-84656971D01*
X101715613Y-84673059D01*
X101707162Y-84698176D01*
X101705958Y-84701887D01*
X101670603Y-84790963D01*
X101624527Y-84872694D01*
X101567319Y-84947752D01*
X101532822Y-84984581D01*
X101460074Y-85048252D01*
X101380495Y-85100801D01*
X101294030Y-85142257D01*
X101215112Y-85168788D01*
X101152528Y-85181857D01*
X101082951Y-85189136D01*
X101011164Y-85190477D01*
X100941951Y-85185737D01*
X100896366Y-85178470D01*
X100806737Y-85154687D01*
X100725210Y-85121615D01*
X100649737Y-85078181D01*
X100578266Y-85023307D01*
X100548188Y-84995865D01*
X100481689Y-84924195D01*
X100427362Y-84847861D01*
X100385075Y-84766571D01*
X100354696Y-84680033D01*
X100336091Y-84587955D01*
X100329799Y-84515424D01*
X100329850Y-84469023D01*
X100433351Y-84469023D01*
X100434434Y-84516426D01*
X100437614Y-84563506D01*
X100442703Y-84605892D01*
X100448712Y-84636221D01*
X100460905Y-84673891D01*
X100478875Y-84717605D01*
X100500507Y-84763004D01*
X100523686Y-84805727D01*
X100546299Y-84841414D01*
X100552040Y-84849286D01*
X100607795Y-84912605D01*
X100672462Y-84968083D01*
X100744048Y-85014445D01*
X100820564Y-85050414D01*
X100900019Y-85074714D01*
X100905655Y-85075949D01*
X100956240Y-85083425D01*
X101013884Y-85086543D01*
X101073652Y-85085390D01*
X101130607Y-85080051D01*
X101177502Y-85071208D01*
X101257429Y-85045937D01*
X101328912Y-85012273D01*
X101394391Y-84968784D01*
X101456306Y-84914034D01*
X101471373Y-84898569D01*
X101526698Y-84832087D01*
X101570304Y-84761258D01*
X101602131Y-84687584D01*
X101620279Y-84636301D01*
X101595681Y-84623752D01*
X101575172Y-84609979D01*
X101552111Y-84589585D01*
X101530354Y-84566486D01*
X101513756Y-84544598D01*
X101508565Y-84535261D01*
X101504706Y-84528271D01*
X101499081Y-84523098D01*
X101489588Y-84519219D01*
X101474122Y-84516113D01*
X101450578Y-84513256D01*
X101416854Y-84510128D01*
X101402232Y-84508870D01*
X101292003Y-84493170D01*
X101181498Y-84465216D01*
X101156807Y-84456281D01*
X101582684Y-84456281D01*
X101583075Y-84461328D01*
X101587568Y-84484439D01*
X101595264Y-84504944D01*
X101598891Y-84511013D01*
X101615260Y-84526879D01*
X101638495Y-84541833D01*
X101663414Y-84553086D01*
X101684833Y-84557848D01*
X101685938Y-84557866D01*
X101701785Y-84554938D01*
X101722469Y-84547534D01*
X101731867Y-84543174D01*
X101761230Y-84521979D01*
X101780351Y-84494635D01*
X101788961Y-84463426D01*
X101786789Y-84430635D01*
X101773567Y-84398543D01*
X101752044Y-84372191D01*
X101737096Y-84360461D01*
X101720544Y-84353896D01*
X101697100Y-84350545D01*
X101692361Y-84350176D01*
X101668098Y-84349340D01*
X101651027Y-84351939D01*
X101635474Y-84359183D01*
X101628079Y-84363868D01*
X101601559Y-84388525D01*
X101586310Y-84419582D01*
X101582684Y-84456281D01*
X101156807Y-84456281D01*
X101072263Y-84425687D01*
X100965843Y-84375261D01*
X100863783Y-84314616D01*
X100767630Y-84244429D01*
X100732621Y-84215101D01*
X100709655Y-84195515D01*
X100693716Y-84183399D01*
X100682251Y-84177351D01*
X100672706Y-84175968D01*
X100664061Y-84177447D01*
X100646856Y-84179772D01*
X100620786Y-84180959D01*
X100589997Y-84180992D01*
X100558635Y-84179856D01*
X100534198Y-84177916D01*
X100523892Y-84177869D01*
X100515852Y-84181952D01*
X100507694Y-84192553D01*
X100497035Y-84212058D01*
X100493840Y-84218329D01*
X100463839Y-84289900D01*
X100442500Y-84368004D01*
X100438221Y-84390723D01*
X100434551Y-84425665D01*
X100433351Y-84469023D01*
X100329850Y-84469023D01*
X100329886Y-84436462D01*
X100337568Y-84363882D01*
X100353643Y-84294019D01*
X100378910Y-84223206D01*
X100406593Y-84162773D01*
X100420720Y-84133836D01*
X100429543Y-84113867D01*
X100433818Y-84100267D01*
X100433921Y-84098162D01*
X100770284Y-84098162D01*
X100771802Y-84107771D01*
X100779111Y-84118477D01*
X100793394Y-84132291D01*
X100815831Y-84151223D01*
X100833830Y-84165984D01*
X100928410Y-84235100D01*
X101030208Y-84293779D01*
X101137902Y-84341464D01*
X101250169Y-84377596D01*
X101365686Y-84401619D01*
X101405166Y-84406894D01*
X101441722Y-84410861D01*
X101467228Y-84412912D01*
X101483562Y-84412990D01*
X101492599Y-84411041D01*
X101496217Y-84407010D01*
X101496580Y-84404204D01*
X101501493Y-84383618D01*
X101514745Y-84358394D01*
X101534104Y-84331564D01*
X101557339Y-84306160D01*
X101582219Y-84285213D01*
X101586135Y-84282523D01*
X101600599Y-84272918D01*
X101580962Y-84231396D01*
X101540094Y-84159183D01*
X101488900Y-84092146D01*
X101429249Y-84032139D01*
X101363009Y-83981019D01*
X101292049Y-83940639D01*
X101284581Y-83937179D01*
X101235641Y-83917107D01*
X101188861Y-83902931D01*
X101139852Y-83893679D01*
X101084226Y-83888379D01*
X101058514Y-83887124D01*
X100988178Y-83886980D01*
X100926371Y-83892673D01*
X100869725Y-83904656D01*
X100828308Y-83918152D01*
X100794652Y-83930745D01*
X100794557Y-83988020D01*
X100793758Y-84019839D01*
X100790994Y-84042972D01*
X100785531Y-84061735D01*
X100779900Y-84074202D01*
X100773377Y-84087643D01*
X100770284Y-84098162D01*
X100433921Y-84098162D01*
X100434300Y-84090435D01*
X100431743Y-84081771D01*
X100430760Y-84079572D01*
X100422467Y-84061721D01*
X100349010Y-84061670D01*
X100275552Y-84061619D01*
X100275552Y-84478199D01*
X100275552Y-84894780D01*
X100297660Y-84902774D01*
X100325093Y-84917637D01*
X100353308Y-84941168D01*
X100378594Y-84969775D01*
X100396604Y-84998549D01*
X100407499Y-85025077D01*
X100412856Y-85051388D01*
X100414199Y-85079007D01*
X100408618Y-85128540D01*
X100392211Y-85172633D01*
X100366455Y-85210221D01*
X100332826Y-85240241D01*
X100292803Y-85261630D01*
X100247864Y-85273323D01*
X100199484Y-85274257D01*
X100155371Y-85265375D01*
X100124574Y-85250538D01*
X100093698Y-85226482D01*
X100066092Y-85196589D01*
X100045102Y-85164242D01*
X100037454Y-85146221D01*
X100027880Y-85098156D01*
X100028224Y-85090910D01*
X100118862Y-85090910D01*
X100124739Y-85120826D01*
X100139591Y-85147671D01*
X100163857Y-85169091D01*
X100172236Y-85173715D01*
X100203396Y-85183150D01*
X100236658Y-85183566D01*
X100266967Y-85175144D01*
X100276219Y-85169960D01*
X100299283Y-85148397D01*
X100316147Y-85120444D01*
X100324689Y-85090455D01*
X100324603Y-85070738D01*
X100313658Y-85036504D01*
X100293500Y-85008393D01*
X100266421Y-84988246D01*
X100234711Y-84977899D01*
X100208741Y-84977745D01*
X100176326Y-84987669D01*
X100150692Y-85006303D01*
X100132278Y-85031292D01*
X100121522Y-85060280D01*
X100118862Y-85090910D01*
X100028224Y-85090910D01*
X100030146Y-85050391D01*
X100043388Y-85005033D01*
X100066743Y-84964187D01*
X100099347Y-84929962D01*
X100135613Y-84906693D01*
X100171079Y-84889341D01*
X100171079Y-84475480D01*
X100171079Y-84061619D01*
X100099462Y-84061619D01*
X100068099Y-84061719D01*
X100047220Y-84062398D01*
X100034249Y-84064222D01*
X100026611Y-84067759D01*
X100021731Y-84073576D01*
X100018502Y-84079452D01*
X100014271Y-84089168D01*
X100013671Y-84098471D01*
X100017519Y-84110655D01*
X100026633Y-84129016D01*
X100034280Y-84143115D01*
X100056175Y-84188908D01*
X100076796Y-84242705D01*
X100094502Y-84299454D01*
X100107652Y-84354105D01*
X100112813Y-84384832D01*
X100116888Y-84433870D01*
X100117464Y-84488708D01*
X100114765Y-84544728D01*
X100109018Y-84597314D01*
X100100451Y-84641849D01*
X100100168Y-84642951D01*
X100075441Y-84723908D01*
X100044844Y-84795597D01*
X100006606Y-84861104D01*
X99958952Y-84923515D01*
X99907120Y-84979023D01*
X99842013Y-85037879D01*
X99776170Y-85085228D01*
X99706970Y-85122488D01*
X99631794Y-85151073D01*
X99550265Y-85171941D01*
X99497445Y-85179779D01*
X99437940Y-85183500D01*
X99376082Y-85183184D01*
X99316209Y-85178915D01*
X99262653Y-85170773D01*
X99242736Y-85166127D01*
X99150499Y-85135243D01*
X99064726Y-85093564D01*
X98986199Y-85041822D01*
X98915697Y-84980749D01*
X98854004Y-84911079D01*
X98801901Y-84833542D01*
X98760169Y-84748873D01*
X98740621Y-84695536D01*
X98722919Y-84640583D01*
X98699417Y-84629914D01*
X98826207Y-84629914D01*
X98845725Y-84683393D01*
X98881610Y-84763105D01*
X98928174Y-84836205D01*
X98984324Y-84901734D01*
X99048966Y-84958736D01*
X99121009Y-85006250D01*
X99199359Y-85043320D01*
X99282922Y-85068987D01*
X99286425Y-85069777D01*
X99321938Y-85075168D01*
X99365946Y-85078049D01*
X99414684Y-85078532D01*
X99464386Y-85076726D01*
X99511288Y-85072741D01*
X99551625Y-85066688D01*
X99573624Y-85061375D01*
X99611757Y-85048041D01*
X99654382Y-85030171D01*
X99696904Y-85009917D01*
X99734725Y-84989432D01*
X99756383Y-84975805D01*
X99820566Y-84923966D01*
X99877661Y-84862341D01*
X99926485Y-84792795D01*
X99965849Y-84717190D01*
X99994569Y-84637392D01*
X100007507Y-84581153D01*
X100011727Y-84545810D01*
X100013845Y-84502717D01*
X100013861Y-84457015D01*
X100011776Y-84413842D01*
X100007589Y-84378338D01*
X100007507Y-84377870D01*
X99991276Y-84311136D01*
X99966858Y-84243804D01*
X99951681Y-84210847D01*
X99930006Y-84167452D01*
X99905260Y-84176280D01*
X99874266Y-84183041D01*
X99837913Y-84184687D01*
X99802797Y-84181214D01*
X99784175Y-84176360D01*
X99759661Y-84167612D01*
X99721826Y-84201372D01*
X99629242Y-84276079D01*
X99529870Y-84341493D01*
X99425228Y-84396938D01*
X99316833Y-84441740D01*
X99206203Y-84475224D01*
X99094858Y-84496716D01*
X99044399Y-84502340D01*
X99006388Y-84505657D01*
X98979214Y-84508522D01*
X98960700Y-84511609D01*
X98948672Y-84515592D01*
X98940956Y-84521145D01*
X98935376Y-84528940D01*
X98930858Y-84537502D01*
X98914241Y-84561813D01*
X98890192Y-84587136D01*
X98863188Y-84609131D01*
X98846077Y-84619639D01*
X98826207Y-84629914D01*
X98699417Y-84629914D01*
X98684673Y-84623221D01*
X98647958Y-84601120D01*
X98615241Y-84571244D01*
X98589566Y-84536898D01*
X98574665Y-84503810D01*
X98569070Y-84483666D01*
X98565498Y-84468302D01*
X98564807Y-84463287D01*
X98559050Y-84457873D01*
X98543866Y-84450378D01*
X98522381Y-84442314D01*
X98519468Y-84441361D01*
X98486633Y-84429167D01*
X98657757Y-84429167D01*
X98657830Y-84461690D01*
X98667630Y-84491070D01*
X98685491Y-84515785D01*
X98709747Y-84534310D01*
X98738734Y-84545122D01*
X98770783Y-84546698D01*
X98804231Y-84537514D01*
X98817364Y-84530645D01*
X98835960Y-84513628D01*
X98851961Y-84488796D01*
X98862524Y-84461390D01*
X98865166Y-84442564D01*
X98862072Y-84424674D01*
X98854286Y-84402946D01*
X98850312Y-84394709D01*
X98829628Y-84367954D01*
X98802568Y-84350461D01*
X98771828Y-84342223D01*
X98740101Y-84343238D01*
X98710083Y-84353499D01*
X98684468Y-84373003D01*
X98669077Y-84395025D01*
X98657757Y-84429167D01*
X98486633Y-84429167D01*
X98484253Y-84428283D01*
X98441540Y-84409720D01*
X98394736Y-84387367D01*
X98347249Y-84362925D01*
X98302487Y-84338090D01*
X98263856Y-84314561D01*
X98260133Y-84312130D01*
X98160399Y-84238876D01*
X98070037Y-84157087D01*
X97989344Y-84067614D01*
X97918614Y-83971309D01*
X97858141Y-83869024D01*
X97808220Y-83761611D01*
X97769145Y-83649921D01*
X97741213Y-83534806D01*
X97724717Y-83417118D01*
X97720519Y-83311914D01*
X97823622Y-83311914D01*
X97830210Y-83429197D01*
X97849227Y-83545197D01*
X97880606Y-83658855D01*
X97924279Y-83769112D01*
X97931656Y-83784813D01*
X97987596Y-83886551D01*
X98054361Y-83981839D01*
X98130941Y-84069742D01*
X98216325Y-84149329D01*
X98309502Y-84219665D01*
X98409462Y-84279819D01*
X98515194Y-84328857D01*
X98525388Y-84332859D01*
X98581119Y-84354406D01*
X98612832Y-84318825D01*
X98631762Y-84299305D01*
X98650643Y-84282624D01*
X98665074Y-84272584D01*
X98680522Y-84265938D01*
X98846245Y-84265938D01*
X98870631Y-84283604D01*
X98907673Y-84316992D01*
X98933421Y-84355761D01*
X98941641Y-84375377D01*
X98953133Y-84407734D01*
X98995666Y-84403918D01*
X99022229Y-84401037D01*
X99055666Y-84396710D01*
X99089987Y-84391730D01*
X99100231Y-84390118D01*
X99214058Y-84365239D01*
X99324723Y-84327975D01*
X99431144Y-84278833D01*
X99532238Y-84218320D01*
X99626923Y-84146944D01*
X99636553Y-84138751D01*
X99680634Y-84100811D01*
X99666306Y-84069789D01*
X99658635Y-84049962D01*
X99654271Y-84028878D01*
X99652499Y-84002010D01*
X99652451Y-83993725D01*
X99740138Y-83993725D01*
X99745938Y-84025434D01*
X99761703Y-84052718D01*
X99784945Y-84074216D01*
X99813177Y-84088565D01*
X99843908Y-84094402D01*
X99874652Y-84090364D01*
X99896904Y-84079575D01*
X99923357Y-84057625D01*
X99938832Y-84033752D01*
X99945301Y-84004361D01*
X99945809Y-83990439D01*
X99944264Y-83979626D01*
X100500884Y-83979626D01*
X100501658Y-84011932D01*
X100512188Y-84041091D01*
X100530823Y-84065481D01*
X100555913Y-84083478D01*
X100585806Y-84093460D01*
X100618852Y-84093803D01*
X100651776Y-84083668D01*
X100678969Y-84063883D01*
X100697131Y-84035269D01*
X100705101Y-84002094D01*
X100703941Y-83966415D01*
X100692120Y-83936827D01*
X100670061Y-83911851D01*
X100640624Y-83893844D01*
X100608409Y-83887141D01*
X100576076Y-83891171D01*
X100546286Y-83905365D01*
X100521700Y-83929153D01*
X100511519Y-83945796D01*
X100500884Y-83979626D01*
X99944264Y-83979626D01*
X99940556Y-83953679D01*
X99924729Y-83924571D01*
X99898226Y-83902966D01*
X99880907Y-83894919D01*
X99846268Y-83887929D01*
X99813237Y-83892479D01*
X99783962Y-83907062D01*
X99760592Y-83930168D01*
X99745274Y-83960291D01*
X99740138Y-83993725D01*
X99652451Y-83993725D01*
X99652380Y-83981641D01*
X99652781Y-83924515D01*
X99619129Y-83911925D01*
X99555447Y-83893443D01*
X99484810Y-83882173D01*
X99411284Y-83878318D01*
X99338935Y-83882081D01*
X99271829Y-83893669D01*
X99269129Y-83894344D01*
X99183899Y-83922479D01*
X99105052Y-83961712D01*
X99033408Y-84011370D01*
X98969787Y-84070779D01*
X98915011Y-84139264D01*
X98869899Y-84216153D01*
X98865005Y-84226269D01*
X98846245Y-84265938D01*
X98680522Y-84265938D01*
X98684927Y-84264043D01*
X98708655Y-84256112D01*
X98714498Y-84254516D01*
X98729442Y-84250055D01*
X98739717Y-84244025D01*
X98748017Y-84233474D01*
X98757032Y-84215452D01*
X98763470Y-84200827D01*
X98806845Y-84116700D01*
X98860352Y-84039876D01*
X98922953Y-83971155D01*
X98993611Y-83911337D01*
X99071289Y-83861222D01*
X99154947Y-83821608D01*
X99243550Y-83793297D01*
X99308647Y-83780531D01*
X99379269Y-83774590D01*
X99454504Y-83776049D01*
X99530466Y-83784437D01*
X99603267Y-83799280D01*
X99669020Y-83820108D01*
X99683690Y-83826104D01*
X99715402Y-83839747D01*
X99758504Y-83818528D01*
X99783280Y-83807184D01*
X99803523Y-83800871D01*
X99825216Y-83798277D01*
X99851962Y-83798053D01*
X99902319Y-83798798D01*
X99920296Y-83758808D01*
X99942598Y-83703759D01*
X99963946Y-83641018D01*
X99982659Y-83575927D01*
X99996349Y-83517338D01*
X100001498Y-83490237D01*
X100005301Y-83465127D01*
X100007943Y-83439264D01*
X100009609Y-83409903D01*
X100010485Y-83374299D01*
X100010756Y-83329708D01*
X100010725Y-83304190D01*
X100010399Y-83253986D01*
X100009599Y-83214197D01*
X100008138Y-83182181D01*
X100005827Y-83155297D01*
X100002480Y-83130904D01*
X99997907Y-83106360D01*
X99996024Y-83097435D01*
X99963508Y-82976984D01*
X99919119Y-82861555D01*
X99863163Y-82751921D01*
X99853186Y-82735018D01*
X99838565Y-82711244D01*
X99828441Y-82696920D01*
X99820842Y-82690152D01*
X99813797Y-82689045D01*
X99807286Y-82690944D01*
X99792665Y-82694049D01*
X99770131Y-82696216D01*
X99747152Y-82696940D01*
X99717516Y-82695545D01*
X99693521Y-82690240D01*
X99667942Y-82679349D01*
X99664997Y-82677877D01*
X99627203Y-82658813D01*
X99603188Y-82673973D01*
X99576833Y-82689253D01*
X99542341Y-82707351D01*
X99503735Y-82726315D01*
X99465036Y-82744198D01*
X99430267Y-82759049D01*
X99416914Y-82764246D01*
X99306221Y-82798711D01*
X99192752Y-82820978D01*
X99077774Y-82831112D01*
X98962555Y-82829178D01*
X98848362Y-82815243D01*
X98736462Y-82789372D01*
X98628124Y-82751630D01*
X98558248Y-82719779D01*
X98526311Y-82702453D01*
X98488431Y-82679907D01*
X98448007Y-82654353D01*
X98408441Y-82628008D01*
X98373133Y-82603084D01*
X98345483Y-82581795D01*
X98342506Y-82579307D01*
X98319358Y-82559701D01*
X98287972Y-82570395D01*
X98252201Y-82577446D01*
X98211915Y-82577359D01*
X98173131Y-82570489D01*
X98151244Y-82562393D01*
X98126190Y-82550330D01*
X98095742Y-82585330D01*
X98041008Y-82654582D01*
X97989392Y-82732052D01*
X97943067Y-82813954D01*
X97904205Y-82896501D01*
X97879116Y-82962965D01*
X97848008Y-83077739D01*
X97829533Y-83194408D01*
X97823622Y-83311914D01*
X97720519Y-83311914D01*
X97719952Y-83297709D01*
X97727213Y-83177431D01*
X97746794Y-83057135D01*
X97778991Y-82937673D01*
X97781699Y-82929441D01*
X97821037Y-82827448D01*
X97869592Y-82728850D01*
X97925904Y-82636141D01*
X97988513Y-82551812D01*
X98030992Y-82503624D01*
X98045356Y-82488453D01*
X98396002Y-82488453D01*
X98429800Y-82515366D01*
X98507118Y-82571474D01*
X98587205Y-82618373D01*
X98671960Y-82656837D01*
X98763287Y-82687640D01*
X98863086Y-82711554D01*
X98946786Y-82725745D01*
X98968303Y-82727325D01*
X98999675Y-82727699D01*
X99037767Y-82727013D01*
X99079446Y-82725412D01*
X99121576Y-82723044D01*
X99161024Y-82720054D01*
X99194656Y-82716589D01*
X99217763Y-82713107D01*
X99318245Y-82687783D01*
X99417864Y-82651307D01*
X99469151Y-82627801D01*
X99479712Y-82622581D01*
X99905703Y-82622581D01*
X99949407Y-82695147D01*
X100006320Y-82801985D01*
X100051698Y-82913669D01*
X100085475Y-83029062D01*
X100107588Y-83147029D01*
X100117969Y-83266434D01*
X100116555Y-83386139D01*
X100103279Y-83505008D01*
X100078077Y-83621906D01*
X100040883Y-83735695D01*
X100012984Y-83801568D01*
X99986823Y-83858201D01*
X100003074Y-83879923D01*
X100016330Y-83901062D01*
X100027104Y-83923819D01*
X100027954Y-83926131D01*
X100036582Y-83950617D01*
X100103830Y-83950617D01*
X100171079Y-83950617D01*
X100275552Y-83950617D01*
X100342911Y-83950617D01*
X100410270Y-83950617D01*
X100424977Y-83915133D01*
X100434381Y-83894630D01*
X100443287Y-83878783D01*
X100448155Y-83872619D01*
X100450695Y-83867385D01*
X100449768Y-83857308D01*
X100444857Y-83840616D01*
X100435446Y-83815537D01*
X100421890Y-83782383D01*
X100379684Y-83664818D01*
X100349982Y-83544992D01*
X100332718Y-83423817D01*
X100328433Y-83317249D01*
X100435965Y-83317249D01*
X100436120Y-83367777D01*
X100436698Y-83407754D01*
X100437869Y-83439686D01*
X100439804Y-83466079D01*
X100442672Y-83489437D01*
X100446645Y-83512267D01*
X100450447Y-83530533D01*
X100469535Y-83606571D01*
X100492882Y-83680865D01*
X100518826Y-83748215D01*
X100523472Y-83758818D01*
X100544289Y-83805348D01*
X100570875Y-83799374D01*
X100612094Y-83796322D01*
X100655820Y-83804071D01*
X100698548Y-83821830D01*
X100715341Y-83832073D01*
X100725873Y-83838678D01*
X100734728Y-83841116D01*
X100745984Y-83839158D01*
X100763721Y-83832578D01*
X100772888Y-83828867D01*
X100818594Y-83811913D01*
X100862187Y-83799606D01*
X100907134Y-83791364D01*
X100956901Y-83786606D01*
X101014956Y-83784749D01*
X101036246Y-83784673D01*
X101079203Y-83784955D01*
X101112268Y-83785829D01*
X101138606Y-83787610D01*
X101161379Y-83790611D01*
X101183753Y-83795149D01*
X101208892Y-83801536D01*
X101210623Y-83802003D01*
X101301993Y-83833293D01*
X101387752Y-83875982D01*
X101466821Y-83929340D01*
X101538121Y-83992640D01*
X101600318Y-84064815D01*
X101615104Y-84086199D01*
X101631922Y-84113202D01*
X101649391Y-84143262D01*
X101666128Y-84173817D01*
X101680752Y-84202306D01*
X101691881Y-84226167D01*
X101698132Y-84242839D01*
X101698997Y-84247729D01*
X101704882Y-84254377D01*
X101719994Y-84259781D01*
X101724581Y-84260681D01*
X101754927Y-84270348D01*
X101787454Y-84287956D01*
X101817339Y-84310424D01*
X101839153Y-84333829D01*
X101850551Y-84349329D01*
X101858297Y-84359427D01*
X101860214Y-84361580D01*
X101866481Y-84359737D01*
X101881978Y-84354494D01*
X101903652Y-84346889D01*
X101909186Y-84344916D01*
X102008633Y-84302704D01*
X102104953Y-84248743D01*
X102196684Y-84184236D01*
X102282367Y-84110385D01*
X102360540Y-84028396D01*
X102429743Y-83939470D01*
X102463118Y-83888586D01*
X102518907Y-83785672D01*
X102562702Y-83678756D01*
X102594586Y-83568803D01*
X102614643Y-83456776D01*
X102622956Y-83343641D01*
X102619608Y-83230362D01*
X102604683Y-83117903D01*
X102578265Y-83007230D01*
X102540437Y-82899306D01*
X102491282Y-82795095D01*
X102430884Y-82695564D01*
X102359327Y-82601675D01*
X102350889Y-82591860D01*
X102320441Y-82556859D01*
X102295387Y-82568980D01*
X102264716Y-82579023D01*
X102227616Y-82584219D01*
X102189889Y-82584211D01*
X102157340Y-82578640D01*
X102154320Y-82577671D01*
X102125177Y-82567741D01*
X102081443Y-82602593D01*
X101984966Y-82671321D01*
X101882954Y-82728491D01*
X101776271Y-82773925D01*
X101665786Y-82807447D01*
X101552363Y-82828881D01*
X101436869Y-82838050D01*
X101320171Y-82834778D01*
X101203133Y-82818888D01*
X101117360Y-82799050D01*
X101051066Y-82778102D01*
X100982126Y-82751208D01*
X100915364Y-82720462D01*
X100855606Y-82687954D01*
X100842375Y-82679828D01*
X100817417Y-82664073D01*
X100789711Y-82678274D01*
X100764683Y-82687276D01*
X100732854Y-82693485D01*
X100699162Y-82696432D01*
X100668543Y-82695648D01*
X100648574Y-82691681D01*
X100638292Y-82688670D01*
X100630532Y-82689558D01*
X100622766Y-82696273D01*
X100612465Y-82710742D01*
X100601935Y-82727242D01*
X100547042Y-82825463D01*
X100501113Y-82931477D01*
X100465194Y-83042690D01*
X100450806Y-83101773D01*
X100445787Y-83126450D01*
X100442025Y-83149444D01*
X100439346Y-83173291D01*
X100437575Y-83200525D01*
X100436538Y-83233681D01*
X100436061Y-83275292D01*
X100435965Y-83317249D01*
X100328433Y-83317249D01*
X100327828Y-83302207D01*
X100335248Y-83181074D01*
X100354912Y-83061330D01*
X100386755Y-82943889D01*
X100430714Y-82829662D01*
X100486722Y-82719564D01*
X100498725Y-82699181D01*
X100543938Y-82624101D01*
X100529959Y-82595225D01*
X100515981Y-82566349D01*
X100395766Y-82566349D01*
X100275552Y-82566349D01*
X100275552Y-83258483D01*
X100275552Y-83950617D01*
X100171079Y-83950617D01*
X100171079Y-83258483D01*
X100171079Y-82566349D01*
X100054105Y-82566349D01*
X99937131Y-82566349D01*
X99921417Y-82594465D01*
X99905703Y-82622581D01*
X99479712Y-82622581D01*
X99504750Y-82610206D01*
X99530225Y-82596998D01*
X99547100Y-82586658D01*
X99556901Y-82577671D01*
X99561152Y-82568520D01*
X99561378Y-82557689D01*
X99559105Y-82543663D01*
X99558271Y-82539189D01*
X99555484Y-82502404D01*
X99556898Y-82487419D01*
X99645546Y-82487419D01*
X99646465Y-82517076D01*
X99657200Y-82547751D01*
X99675692Y-82575027D01*
X99693754Y-82590826D01*
X99721833Y-82602499D01*
X99754536Y-82605697D01*
X99786487Y-82600337D01*
X99803851Y-82592503D01*
X99828483Y-82570667D01*
X99844281Y-82542493D01*
X99849657Y-82517757D01*
X100597939Y-82517757D01*
X100608024Y-82548445D01*
X100626773Y-82574015D01*
X100652102Y-82593114D01*
X100681925Y-82604392D01*
X100714158Y-82606498D01*
X100746715Y-82598079D01*
X100762464Y-82589502D01*
X100775917Y-82576505D01*
X100885144Y-82576505D01*
X100887419Y-82583844D01*
X100895982Y-82591615D01*
X100912908Y-82602059D01*
X100926063Y-82609492D01*
X101011342Y-82651498D01*
X101103329Y-82686560D01*
X101197517Y-82713165D01*
X101282181Y-82728868D01*
X101317158Y-82731928D01*
X101361308Y-82733339D01*
X101410905Y-82733212D01*
X101462222Y-82731658D01*
X101511534Y-82728787D01*
X101555114Y-82724711D01*
X101587994Y-82719787D01*
X101697688Y-82691889D01*
X101802143Y-82652177D01*
X101902187Y-82600309D01*
X101950246Y-82570088D01*
X101984896Y-82546899D01*
X102009944Y-82529369D01*
X102026620Y-82515856D01*
X102036152Y-82504718D01*
X102039767Y-82494316D01*
X102038693Y-82483007D01*
X102034159Y-82469151D01*
X102031342Y-82461714D01*
X102022766Y-82432705D01*
X102019662Y-82402300D01*
X102019865Y-82390009D01*
X102109512Y-82390009D01*
X102112462Y-82420554D01*
X102124564Y-82449206D01*
X102146447Y-82473670D01*
X102157639Y-82481500D01*
X102186009Y-82492249D01*
X102218415Y-82494573D01*
X102249548Y-82488552D01*
X102267135Y-82479832D01*
X102293813Y-82457491D01*
X102309277Y-82433118D01*
X102315323Y-82403553D01*
X102315574Y-82394552D01*
X102310012Y-82356745D01*
X102294083Y-82326254D01*
X102268926Y-82304213D01*
X102235676Y-82291757D01*
X102210102Y-82289337D01*
X102176697Y-82294872D01*
X102149308Y-82310005D01*
X102128563Y-82332437D01*
X102115089Y-82359871D01*
X102109512Y-82390009D01*
X102019865Y-82390009D01*
X102020020Y-82380597D01*
X102022134Y-82334841D01*
X101956876Y-82307354D01*
X101883328Y-82278565D01*
X101814399Y-82256634D01*
X101746560Y-82240877D01*
X101676282Y-82230611D01*
X101600036Y-82225149D01*
X101525963Y-82223773D01*
X101455383Y-82224909D01*
X101394031Y-82228598D01*
X101338232Y-82235373D01*
X101284313Y-82245767D01*
X101228601Y-82260313D01*
X101188023Y-82272781D01*
X101155644Y-82284546D01*
X101116587Y-82300811D01*
X101073771Y-82320155D01*
X101030114Y-82341153D01*
X100988534Y-82362382D01*
X100951949Y-82382421D01*
X100923277Y-82399847D01*
X100913476Y-82406647D01*
X100895878Y-82420578D01*
X100887388Y-82430516D01*
X100886007Y-82439340D01*
X100887357Y-82444231D01*
X100890422Y-82460321D01*
X100892063Y-82484729D01*
X100892292Y-82512795D01*
X100891118Y-82539856D01*
X100888551Y-82561252D01*
X100887083Y-82567354D01*
X100885144Y-82576505D01*
X100775917Y-82576505D01*
X100785585Y-82567164D01*
X100799715Y-82538366D01*
X100804754Y-82506214D01*
X100800600Y-82473814D01*
X100787156Y-82444270D01*
X100767812Y-82423297D01*
X100737040Y-82406465D01*
X100702732Y-82399846D01*
X100674559Y-82402921D01*
X100650185Y-82414764D01*
X100626832Y-82434874D01*
X100608337Y-82459190D01*
X100598603Y-82483300D01*
X100597939Y-82517757D01*
X99849657Y-82517757D01*
X99851146Y-82510907D01*
X99848975Y-82478834D01*
X99840126Y-82455641D01*
X100275552Y-82455641D01*
X100393406Y-82453862D01*
X100511260Y-82452082D01*
X100523257Y-82425271D01*
X100535254Y-82398460D01*
X100499499Y-82343652D01*
X100446310Y-82251187D01*
X100401333Y-82149943D01*
X100365365Y-82041890D01*
X100346482Y-81965629D01*
X100341185Y-81938996D01*
X100337287Y-81913837D01*
X100334579Y-81887331D01*
X100332852Y-81856661D01*
X100331898Y-81819006D01*
X100331508Y-81771548D01*
X100331485Y-81763213D01*
X100331502Y-81761746D01*
X100433280Y-81761746D01*
X100434245Y-81799126D01*
X100439855Y-81882312D01*
X100451003Y-81957828D01*
X100468525Y-82030184D01*
X100488005Y-82089691D01*
X100505008Y-82132170D01*
X100526442Y-82179089D01*
X100550013Y-82225821D01*
X100573425Y-82267737D01*
X100587451Y-82290179D01*
X100600900Y-82309424D01*
X100610527Y-82319542D01*
X100619103Y-82322680D01*
X100627785Y-82321425D01*
X100642240Y-82318968D01*
X100665195Y-82316466D01*
X100692101Y-82314402D01*
X100696709Y-82314131D01*
X100725018Y-82313120D01*
X100745215Y-82314398D01*
X100762157Y-82318714D01*
X100780699Y-82326821D01*
X100781593Y-82327259D01*
X100800414Y-82336199D01*
X100814371Y-82342252D01*
X100819123Y-82343829D01*
X100826688Y-82340605D01*
X100841223Y-82331732D01*
X100855036Y-82322315D01*
X100938456Y-82269876D01*
X101031390Y-82223695D01*
X101131459Y-82184635D01*
X101236287Y-82153554D01*
X101343494Y-82131314D01*
X101406541Y-82122726D01*
X101519781Y-82116542D01*
X101635805Y-82121958D01*
X101752225Y-82138583D01*
X101866656Y-82166026D01*
X101976707Y-82203894D01*
X102023134Y-82223762D01*
X102073811Y-82246856D01*
X102119836Y-82223524D01*
X102168638Y-82204812D01*
X102216867Y-82198796D01*
X102258952Y-82203610D01*
X102268320Y-82205128D01*
X102275297Y-82203355D01*
X102281696Y-82196163D01*
X102289327Y-82181420D01*
X102300002Y-82156996D01*
X102301421Y-82153673D01*
X102339691Y-82050131D01*
X102367539Y-81944409D01*
X102369385Y-81935424D01*
X102375820Y-81891565D01*
X102379874Y-81838576D01*
X102381576Y-81780162D01*
X102380958Y-81720027D01*
X102378052Y-81661876D01*
X102372886Y-81609413D01*
X102366342Y-81570169D01*
X102339233Y-81466674D01*
X102303712Y-81370998D01*
X102258466Y-81280000D01*
X102216574Y-81211747D01*
X102177738Y-81159198D01*
X102130279Y-81104505D01*
X102077461Y-81050929D01*
X102022551Y-81001728D01*
X101968813Y-80960163D01*
X101955390Y-80950978D01*
X101888570Y-80906637D01*
X101860943Y-80930286D01*
X101834734Y-80948103D01*
X101803418Y-80962761D01*
X101793907Y-80966006D01*
X101754498Y-80978078D01*
X101737593Y-81023681D01*
X101698133Y-81111744D01*
X101647963Y-81193014D01*
X101588004Y-81266639D01*
X101519174Y-81331767D01*
X101442395Y-81387547D01*
X101358585Y-81433126D01*
X101268665Y-81467653D01*
X101253268Y-81472239D01*
X101160422Y-81492160D01*
X101066084Y-81499682D01*
X100971762Y-81495004D01*
X100878963Y-81478325D01*
X100789193Y-81449846D01*
X100703958Y-81409766D01*
X100680917Y-81396374D01*
X100638204Y-81370425D01*
X100606308Y-81380727D01*
X100580308Y-81386796D01*
X100550562Y-81390497D01*
X100537136Y-81391028D01*
X100499859Y-81391028D01*
X100482663Y-81444897D01*
X100462437Y-81513103D01*
X100447974Y-81574578D01*
X100438687Y-81633635D01*
X100433985Y-81694587D01*
X100433280Y-81761746D01*
X100331502Y-81761746D01*
X100332310Y-81693997D01*
X100335483Y-81634248D01*
X100341535Y-81580499D01*
X100350999Y-81529285D01*
X100364407Y-81477139D01*
X100382291Y-81420596D01*
X100385584Y-81410966D01*
X100396109Y-81379996D01*
X100402619Y-81358936D01*
X100405508Y-81345404D01*
X100405172Y-81337019D01*
X100402005Y-81331399D01*
X100399223Y-81328644D01*
X100389515Y-81316888D01*
X100377812Y-81298777D01*
X100372587Y-81289453D01*
X100357194Y-81260437D01*
X100316373Y-81260437D01*
X100275552Y-81260437D01*
X100275552Y-81858039D01*
X100275552Y-82455641D01*
X99840126Y-82455641D01*
X99837669Y-82449202D01*
X99817127Y-82424935D01*
X99809801Y-82419563D01*
X99777168Y-82404993D01*
X99743495Y-82401636D01*
X99711213Y-82408487D01*
X99682751Y-82424543D01*
X99660541Y-82448800D01*
X99647013Y-82480253D01*
X99645546Y-82487419D01*
X99556898Y-82487419D01*
X99559107Y-82464004D01*
X99566787Y-82435537D01*
X99563638Y-82426452D01*
X99550047Y-82413265D01*
X99527636Y-82396867D01*
X99518893Y-82391339D01*
X99911311Y-82391339D01*
X99925295Y-82423189D01*
X99939280Y-82455039D01*
X100055179Y-82455193D01*
X100171079Y-82455347D01*
X100171079Y-81858039D01*
X100171079Y-81857892D01*
X100171079Y-81260437D01*
X100132342Y-81260437D01*
X100110071Y-81261069D01*
X100097490Y-81263652D01*
X100091259Y-81269209D01*
X100089418Y-81273626D01*
X100083166Y-81286184D01*
X100071716Y-81303977D01*
X100063352Y-81315480D01*
X100041473Y-81344143D01*
X100064469Y-81414925D01*
X100088090Y-81496594D01*
X100104137Y-81574687D01*
X100113730Y-81655369D01*
X100116604Y-81701808D01*
X100115674Y-81820902D01*
X100102229Y-81937827D01*
X100076518Y-82051688D01*
X100038785Y-82161591D01*
X99989279Y-82266642D01*
X99936986Y-82353150D01*
X99911311Y-82391339D01*
X99518893Y-82391339D01*
X99498031Y-82378149D01*
X99462856Y-82358002D01*
X99423735Y-82337316D01*
X99382292Y-82316984D01*
X99340150Y-82297895D01*
X99298935Y-82280941D01*
X99260271Y-82267014D01*
X99258608Y-82266469D01*
X99199951Y-82248730D01*
X99145490Y-82235527D01*
X99091586Y-82226333D01*
X99034599Y-82220617D01*
X98970888Y-82217853D01*
X98920668Y-82217390D01*
X98836038Y-82219351D01*
X98760522Y-82225467D01*
X98690645Y-82236409D01*
X98622934Y-82252850D01*
X98553916Y-82275462D01*
X98489929Y-82300751D01*
X98424846Y-82328164D01*
X98424209Y-82380329D01*
X98422488Y-82414308D01*
X98417755Y-82439916D01*
X98409787Y-82460473D01*
X98396002Y-82488453D01*
X98045356Y-82488453D01*
X98056379Y-82476811D01*
X98045280Y-82442876D01*
X98036592Y-82396023D01*
X98037168Y-82387548D01*
X98127130Y-82387548D01*
X98134439Y-82420026D01*
X98153088Y-82450170D01*
X98179718Y-82473729D01*
X98196859Y-82483285D01*
X98214406Y-82486990D01*
X98236967Y-82486384D01*
X98263428Y-82481744D01*
X98285006Y-82473396D01*
X98289203Y-82470729D01*
X98305201Y-82454263D01*
X98320235Y-82430962D01*
X98331517Y-82405996D01*
X98336256Y-82384534D01*
X98336272Y-82383521D01*
X98333346Y-82367677D01*
X98325947Y-82346988D01*
X98321580Y-82337566D01*
X98301735Y-82310852D01*
X98274867Y-82292028D01*
X98244024Y-82281935D01*
X98212251Y-82281411D01*
X98182593Y-82291295D01*
X98173919Y-82296887D01*
X98146802Y-82323901D01*
X98131228Y-82354814D01*
X98127130Y-82387548D01*
X98037168Y-82387548D01*
X98039861Y-82347951D01*
X98054753Y-82301854D01*
X98061333Y-82289073D01*
X98081771Y-82252859D01*
X98061626Y-82212952D01*
X98048021Y-82182713D01*
X98032787Y-82143512D01*
X98017191Y-82099123D01*
X98002498Y-82053320D01*
X97989975Y-82009874D01*
X97980889Y-81972559D01*
X97980805Y-81972159D01*
X97964181Y-81862362D01*
X97960770Y-81784466D01*
X98065335Y-81784466D01*
X98067728Y-81842966D01*
X98072656Y-81895008D01*
X98077164Y-81923187D01*
X98089470Y-81977152D01*
X98105615Y-82035044D01*
X98123969Y-82091519D01*
X98142898Y-82141233D01*
X98145981Y-82148457D01*
X98164444Y-82190899D01*
X98222607Y-82191215D01*
X98263428Y-82193635D01*
X98297262Y-82201557D01*
X98329499Y-82216723D01*
X98356858Y-82234598D01*
X98364569Y-82237437D01*
X98376114Y-82236036D01*
X98394113Y-82229733D01*
X98418889Y-82218914D01*
X98533365Y-82173679D01*
X98650811Y-82140615D01*
X98770208Y-82119647D01*
X98890534Y-82110698D01*
X99010769Y-82113693D01*
X99129892Y-82128557D01*
X99246882Y-82155215D01*
X99360719Y-82193589D01*
X99470382Y-82243606D01*
X99573624Y-82304377D01*
X99597625Y-82320217D01*
X99617171Y-82333051D01*
X99629971Y-82341381D01*
X99633821Y-82343795D01*
X99639881Y-82341366D01*
X99653711Y-82334566D01*
X99663204Y-82329653D01*
X99680975Y-82321813D01*
X99700111Y-82317275D01*
X99724986Y-82315271D01*
X99746657Y-82314961D01*
X99774101Y-82315570D01*
X99797961Y-82317190D01*
X99814097Y-82319507D01*
X99816723Y-82320258D01*
X99824777Y-82321712D01*
X99832402Y-82318262D01*
X99841723Y-82307983D01*
X99854866Y-82288948D01*
X99859976Y-82281081D01*
X99914930Y-82184053D01*
X99958790Y-82080456D01*
X99991722Y-81969890D01*
X99995929Y-81951790D01*
X100001382Y-81925786D01*
X100005374Y-81901768D01*
X100008119Y-81876898D01*
X100009836Y-81848332D01*
X100010740Y-81813232D01*
X100011048Y-81768756D01*
X100011057Y-81753419D01*
X100010544Y-81696068D01*
X100008729Y-81648398D01*
X100005134Y-81607054D01*
X99999278Y-81568683D01*
X99990681Y-81529932D01*
X99978864Y-81487446D01*
X99967972Y-81452283D01*
X99949010Y-81392741D01*
X99901702Y-81389519D01*
X99874119Y-81386227D01*
X99848228Y-81380769D01*
X99830553Y-81374701D01*
X99814732Y-81367707D01*
X99804275Y-81367013D01*
X99792904Y-81373004D01*
X99786665Y-81377378D01*
X99763000Y-81391916D01*
X99730494Y-81408779D01*
X99692761Y-81426370D01*
X99653417Y-81443094D01*
X99616076Y-81457355D01*
X99584355Y-81467558D01*
X99579315Y-81468893D01*
X99483606Y-81487307D01*
X99390901Y-81493462D01*
X99321680Y-81489780D01*
X99223243Y-81472906D01*
X99130373Y-81444493D01*
X99043712Y-81404984D01*
X98963903Y-81354825D01*
X98891588Y-81294459D01*
X98827411Y-81224332D01*
X98772014Y-81144888D01*
X98740699Y-81087820D01*
X98725846Y-81056902D01*
X98713004Y-81028387D01*
X98703442Y-81005216D01*
X98698427Y-80990332D01*
X98698176Y-80989161D01*
X98694677Y-80977042D01*
X98687590Y-80969168D01*
X98673534Y-80962974D01*
X98657298Y-80958141D01*
X98640312Y-80951338D01*
X98795173Y-80951338D01*
X98809612Y-80991214D01*
X98839906Y-81057820D01*
X98881218Y-81123017D01*
X98931527Y-81184641D01*
X98988815Y-81240532D01*
X99051060Y-81288527D01*
X99116243Y-81326466D01*
X99128060Y-81332027D01*
X99214338Y-81364341D01*
X99301936Y-81383682D01*
X99390747Y-81390033D01*
X99476571Y-81383961D01*
X99547916Y-81369404D01*
X99618990Y-81346358D01*
X99681362Y-81318042D01*
X99703824Y-81305960D01*
X99721378Y-81296331D01*
X99731224Y-81290698D01*
X99732352Y-81289937D01*
X99731750Y-81283151D01*
X99728146Y-81267519D01*
X99723395Y-81250201D01*
X99715557Y-81200492D01*
X99715753Y-81198562D01*
X99806850Y-81198562D01*
X99812283Y-81229011D01*
X99826095Y-81256607D01*
X99847540Y-81279083D01*
X99875870Y-81294174D01*
X99909896Y-81299614D01*
X99942169Y-81294897D01*
X99962199Y-81284922D01*
X99990507Y-81260010D01*
X100007140Y-81231057D01*
X100012510Y-81207117D01*
X100011712Y-81191921D01*
X100441186Y-81191921D01*
X100443470Y-81222748D01*
X100453644Y-81248793D01*
X100455715Y-81251796D01*
X100481912Y-81278214D01*
X100512507Y-81294533D01*
X100545025Y-81300171D01*
X100576989Y-81294546D01*
X100596012Y-81284767D01*
X100624861Y-81259749D01*
X100641484Y-81231297D01*
X100646524Y-81198193D01*
X100646127Y-81189973D01*
X100637747Y-81154393D01*
X100620358Y-81126111D01*
X100596195Y-81105783D01*
X100567490Y-81094067D01*
X100536476Y-81091618D01*
X100505385Y-81099093D01*
X100476452Y-81117149D01*
X100459644Y-81135153D01*
X100446632Y-81161121D01*
X100441186Y-81191921D01*
X100011712Y-81191921D01*
X100010600Y-81170735D01*
X99996499Y-81138753D01*
X99971496Y-81112750D01*
X99953579Y-81101101D01*
X99935747Y-81095471D01*
X99911700Y-81093937D01*
X99909896Y-81093933D01*
X99885268Y-81095280D01*
X99867238Y-81100606D01*
X99849506Y-81111833D01*
X99848297Y-81112750D01*
X99824110Y-81138165D01*
X99810544Y-81167524D01*
X99806850Y-81198562D01*
X99715753Y-81198562D01*
X99720622Y-81150690D01*
X99733555Y-81112379D01*
X99747616Y-81080874D01*
X99695065Y-81030794D01*
X99618173Y-80966213D01*
X99531716Y-80909513D01*
X99437015Y-80861363D01*
X99335392Y-80822432D01*
X99228168Y-80793387D01*
X99224136Y-80792517D01*
X99198317Y-80787800D01*
X99169978Y-80784421D01*
X99136499Y-80782209D01*
X99095255Y-80780990D01*
X99043624Y-80780593D01*
X99042867Y-80780592D01*
X98997842Y-80780589D01*
X98964134Y-80780991D01*
X98940004Y-80782323D01*
X98923712Y-80785108D01*
X98913516Y-80789870D01*
X98907677Y-80797134D01*
X98904454Y-80807422D01*
X98902106Y-80821258D01*
X98901823Y-80823038D01*
X98892387Y-80851394D01*
X98874330Y-80881761D01*
X98850563Y-80910022D01*
X98825273Y-80931221D01*
X98795173Y-80951338D01*
X98640312Y-80951338D01*
X98624053Y-80944826D01*
X98594696Y-80925876D01*
X98593152Y-80924577D01*
X98577276Y-80911680D01*
X98565299Y-80903232D01*
X98561125Y-80901311D01*
X98551053Y-80905242D01*
X98533004Y-80916030D01*
X98509030Y-80932163D01*
X98481181Y-80952133D01*
X98451507Y-80974428D01*
X98422060Y-80997540D01*
X98394890Y-81019957D01*
X98372048Y-81040170D01*
X98370221Y-81041880D01*
X98293063Y-81123386D01*
X98226124Y-81212837D01*
X98169720Y-81309667D01*
X98124163Y-81413311D01*
X98089770Y-81523203D01*
X98080415Y-81563096D01*
X98073018Y-81608824D01*
X98068015Y-81663535D01*
X98065443Y-81723369D01*
X98065335Y-81784466D01*
X97960770Y-81784466D01*
X97959230Y-81749306D01*
X97965804Y-81635290D01*
X97983760Y-81522615D01*
X98012953Y-81413582D01*
X98016686Y-81402375D01*
X98057603Y-81301031D01*
X98110142Y-81202362D01*
X98172875Y-81108502D01*
X98244376Y-81021585D01*
X98323213Y-80943752D01*
X98343861Y-80926439D01*
X98369555Y-80906320D01*
X98398182Y-80884887D01*
X98427630Y-80863630D01*
X98455787Y-80844041D01*
X98480540Y-80827608D01*
X98499777Y-80815823D01*
X98511385Y-80810176D01*
X98512919Y-80809897D01*
X98516314Y-80803995D01*
X98518559Y-80788779D01*
X98519089Y-80774518D01*
X98610513Y-80774518D01*
X98616308Y-80806488D01*
X98632046Y-80833929D01*
X98655260Y-80855488D01*
X98683484Y-80869811D01*
X98714249Y-80875545D01*
X98745089Y-80871337D01*
X98767289Y-80860501D01*
X98796351Y-80834304D01*
X98813399Y-80804056D01*
X98818119Y-80770884D01*
X98810196Y-80735913D01*
X98805190Y-80725012D01*
X98784509Y-80696659D01*
X98758489Y-80678415D01*
X98729321Y-80669720D01*
X98699202Y-80670019D01*
X98670323Y-80678752D01*
X98644881Y-80695362D01*
X98625068Y-80719291D01*
X98613078Y-80749981D01*
X98610513Y-80774518D01*
X98519089Y-80774518D01*
X98519100Y-80774229D01*
X98524661Y-80729220D01*
X98540201Y-80685764D01*
X98564004Y-80648154D01*
X98573821Y-80637316D01*
X98595767Y-80618708D01*
X98621481Y-80601823D01*
X98647041Y-80588841D01*
X98654932Y-80586306D01*
X98795874Y-80586306D01*
X98799185Y-80594671D01*
X98806697Y-80600839D01*
X98811047Y-80603242D01*
X98825613Y-80613319D01*
X98844084Y-80629467D01*
X98858731Y-80644251D01*
X98887531Y-80675496D01*
X99031426Y-80676141D01*
X99082648Y-80676565D01*
X99123452Y-80677447D01*
X99156475Y-80678972D01*
X99184354Y-80681326D01*
X99209728Y-80684695D01*
X99235232Y-80689265D01*
X99244513Y-80691148D01*
X99349352Y-80718113D01*
X99451175Y-80754473D01*
X99546992Y-80799023D01*
X99624289Y-80844253D01*
X99654476Y-80865130D01*
X99689042Y-80890922D01*
X99725038Y-80919247D01*
X99759511Y-80947716D01*
X99789514Y-80973944D01*
X99812094Y-80995546D01*
X99814538Y-80998112D01*
X99827579Y-81010550D01*
X99836980Y-81014229D01*
X99847001Y-81010789D01*
X99847186Y-81010687D01*
X99859934Y-81007125D01*
X99881649Y-81004380D01*
X99908247Y-81002921D01*
X99916144Y-81002805D01*
X99971364Y-81002519D01*
X99986364Y-80954623D01*
X99995309Y-80922555D01*
X100003570Y-80887052D01*
X100008655Y-80859945D01*
X100012716Y-80817234D01*
X100013438Y-80766898D01*
X100011074Y-80713658D01*
X100005877Y-80662234D01*
X99998102Y-80617349D01*
X99994915Y-80604411D01*
X99965469Y-80520229D01*
X99924890Y-80442051D01*
X99874057Y-80370766D01*
X99813852Y-80307260D01*
X99745155Y-80252419D01*
X99668847Y-80207132D01*
X99585808Y-80172286D01*
X99556861Y-80163165D01*
X99513956Y-80153881D01*
X99462539Y-80147722D01*
X99406813Y-80144834D01*
X99350978Y-80145361D01*
X99299236Y-80149447D01*
X99273264Y-80153410D01*
X99188079Y-80175879D01*
X99107749Y-80210016D01*
X99033358Y-80254986D01*
X98965992Y-80309957D01*
X98906733Y-80374091D01*
X98856668Y-80446557D01*
X98831720Y-80493213D01*
X98814687Y-80529199D01*
X98803272Y-80555454D01*
X98797119Y-80573862D01*
X98795874Y-80586306D01*
X98654932Y-80586306D01*
X98668527Y-80581939D01*
X98674545Y-80581362D01*
X98682930Y-80577541D01*
X98690621Y-80564700D01*
X98697988Y-80543817D01*
X98726074Y-80470765D01*
X98764932Y-80397606D01*
X98812654Y-80327346D01*
X98867328Y-80262987D01*
X98892649Y-80237734D01*
X98968274Y-80175078D01*
X99050803Y-80123452D01*
X99139688Y-80083163D01*
X99209422Y-80060777D01*
X99234102Y-80054461D01*
X99255865Y-80049900D01*
X99277689Y-80046808D01*
X99302547Y-80044902D01*
X99333416Y-80043899D01*
X99373271Y-80043513D01*
X99390796Y-80043470D01*
X99434480Y-80043571D01*
X99468058Y-80044193D01*
X99494482Y-80045616D01*
X99516705Y-80048117D01*
X99537676Y-80051974D01*
X99560349Y-80057467D01*
X99571941Y-80060560D01*
X99666863Y-80092733D01*
X99754507Y-80135635D01*
X99834418Y-80188884D01*
X99906140Y-80252101D01*
X99969218Y-80324906D01*
X100023198Y-80406919D01*
X100051078Y-80460494D01*
X100085649Y-80548513D01*
X100107893Y-80640003D01*
X100117761Y-80733988D01*
X100115203Y-80829492D01*
X100100171Y-80925535D01*
X100078429Y-81004228D01*
X100069198Y-81032561D01*
X100063842Y-81051456D01*
X100062021Y-81063835D01*
X100063398Y-81072623D01*
X100067630Y-81080740D01*
X100069248Y-81083239D01*
X100079514Y-81101147D01*
X100089751Y-81122293D01*
X100090894Y-81124948D01*
X100097580Y-81139128D01*
X100104937Y-81146398D01*
X100117229Y-81149064D01*
X100136157Y-81149434D01*
X100171079Y-81149434D01*
X100171079Y-80745108D01*
X100171079Y-80340781D01*
X100146690Y-80332732D01*
X100122046Y-80319781D01*
X100095579Y-80298148D01*
X100070465Y-80271217D01*
X100049879Y-80242370D01*
X100037454Y-80216401D01*
X100027992Y-80168543D01*
X100028894Y-80150369D01*
X100117996Y-80150369D01*
X100120945Y-80180914D01*
X100133047Y-80209566D01*
X100154930Y-80234029D01*
X100166122Y-80241860D01*
X100194837Y-80252677D01*
X100227683Y-80254871D01*
X100259294Y-80248524D01*
X100276219Y-80240140D01*
X100299283Y-80218577D01*
X100316147Y-80190624D01*
X100324689Y-80160635D01*
X100324603Y-80140918D01*
X100313356Y-80104253D01*
X100292671Y-80076287D01*
X100263568Y-80057895D01*
X100227065Y-80049955D01*
X100218585Y-80049697D01*
X100185180Y-80055232D01*
X100157791Y-80070365D01*
X100137046Y-80092797D01*
X100123572Y-80120231D01*
X100117996Y-80150369D01*
X100028894Y-80150369D01*
X100030371Y-80120598D01*
X100043876Y-80074943D01*
X100067797Y-80033956D01*
X100101422Y-80000014D01*
X100102518Y-79999171D01*
X100144560Y-79974363D01*
X100188606Y-79961149D01*
X100232984Y-79958726D01*
X100276025Y-79966289D01*
G37*
D10*
X95555000Y-103330000D02*
G75*
G02*
X95435000Y-103330000I-60000J0D01*
G01*
X95435000Y-103330000D02*
G75*
G02*
X95555000Y-103330000I60000J0D01*
G01*
X98640623Y-102190000D02*
G75*
G02*
X98479377Y-102190000I-80623J0D01*
G01*
X98479377Y-102190000D02*
G75*
G02*
X98640623Y-102190000I80623J0D01*
G01*
D13*
X88900000Y-88680000D02*
X88900000Y-89080000D01*
X90020000Y-102210000D02*
X90020000Y-101810000D01*
D15*
X85430000Y-98710000D02*
G75*
G02*
X85330000Y-98710000I-50000J0D01*
G01*
X85330000Y-98710000D02*
G75*
G02*
X85430000Y-98710000I50000J0D01*
G01*
D13*
X89940000Y-98600000D02*
X90340000Y-98600000D01*
D12*
X112180000Y-101220000D02*
G75*
G02*
X112020000Y-101220000I-80000J0D01*
G01*
X112020000Y-101220000D02*
G75*
G02*
X112180000Y-101220000I80000J0D01*
G01*
D13*
X89930000Y-95810000D02*
X90330000Y-95810000D01*
D16*
X120620000Y-92900000D02*
G75*
G02*
X120560000Y-92900000I-30000J0D01*
G01*
X120560000Y-92900000D02*
G75*
G02*
X120620000Y-92900000I30000J0D01*
G01*
D17*
X120950000Y-93000000D02*
G75*
G02*
X120650000Y-93000000I-150000J0D01*
G01*
X120650000Y-93000000D02*
G75*
G02*
X120950000Y-93000000I150000J0D01*
G01*
D10*
X98778000Y-119163000D02*
G75*
G02*
X98706000Y-119163000I-36000J0D01*
G01*
X98706000Y-119163000D02*
G75*
G02*
X98778000Y-119163000I36000J0D01*
G01*
D13*
X89940000Y-91100000D02*
X90340000Y-91100000D01*
D11*
X120250000Y-110255000D02*
X120590000Y-109915000D01*
X120250000Y-110265000D02*
X120250000Y-109585000D01*
X120260000Y-109585000D02*
X120590000Y-109915000D01*
D16*
X121715000Y-109905000D02*
G75*
G02*
X121655000Y-109905000I-30000J0D01*
G01*
X121655000Y-109905000D02*
G75*
G02*
X121715000Y-109905000I30000J0D01*
G01*
D11*
X76526250Y-94280000D02*
G75*
G02*
X76386250Y-94280000I-70000J0D01*
G01*
X76386250Y-94280000D02*
G75*
G02*
X76526250Y-94280000I70000J0D01*
G01*
%LPC*%
D18*
X116935000Y-104985000D03*
X116935000Y-105485000D03*
X116935000Y-105985000D03*
X116935000Y-106485000D03*
X116935000Y-106985000D03*
X119755000Y-106985000D03*
X119755000Y-106485000D03*
X119755000Y-105985000D03*
X119755000Y-105485000D03*
X119755000Y-104985000D03*
D19*
X118345000Y-105985000D03*
D20*
X111260000Y-111100000D03*
X110760000Y-111100000D03*
X110260000Y-111100000D03*
X109760000Y-111100000D03*
X109260000Y-111100000D03*
X109260000Y-113400000D03*
X109760000Y-113400000D03*
X110260000Y-113400000D03*
X110760000Y-113400000D03*
X111260000Y-113400000D03*
D21*
X110260000Y-112250000D03*
D22*
X124547500Y-102890000D03*
X124547500Y-97110000D03*
D23*
X124017500Y-104320000D03*
D24*
X128227500Y-104320000D03*
D23*
X124017500Y-95680000D03*
D24*
X128227500Y-95680000D03*
D25*
X123467500Y-103200000D03*
X123467500Y-102400000D03*
D26*
X123467500Y-101250000D03*
X123467500Y-100250000D03*
X123467500Y-99750000D03*
X123467500Y-98750000D03*
D25*
X123467500Y-96800000D03*
X123467500Y-97600000D03*
D26*
X123467500Y-98250000D03*
X123467500Y-99250000D03*
X123467500Y-100750000D03*
X123467500Y-101750000D03*
D27*
X90375000Y-104915000D03*
X89875000Y-104915000D03*
X89375000Y-104915000D03*
X88875000Y-104915000D03*
X88375000Y-104915000D03*
X87875000Y-104915000D03*
X87375000Y-104915000D03*
X86875000Y-104915000D03*
X86375000Y-104915000D03*
X85875000Y-104915000D03*
X85375000Y-104915000D03*
X84875000Y-104915000D03*
D28*
X84225000Y-105565000D03*
X84225000Y-106065000D03*
X84225000Y-106565000D03*
X84225000Y-107065000D03*
X84225000Y-107565000D03*
X84225000Y-108065000D03*
X84225000Y-108565000D03*
X84225000Y-109065000D03*
X84225000Y-109565000D03*
X84225000Y-110065000D03*
X84225000Y-110565000D03*
X84225000Y-111065000D03*
D27*
X84875000Y-111715000D03*
X85375000Y-111715000D03*
X85875000Y-111715000D03*
X86375000Y-111715000D03*
X86875000Y-111715000D03*
X87375000Y-111715000D03*
X87875000Y-111715000D03*
X88375000Y-111715000D03*
X88875000Y-111715000D03*
X89375000Y-111715000D03*
X89875000Y-111715000D03*
X90375000Y-111715000D03*
D28*
X91025000Y-111065000D03*
X91025000Y-110565000D03*
X91025000Y-110065000D03*
X91025000Y-109565000D03*
X91025000Y-109065000D03*
X91025000Y-108565000D03*
X91025000Y-108065000D03*
X91025000Y-107565000D03*
X91025000Y-107065000D03*
X91025000Y-106565000D03*
X91025000Y-106065000D03*
X91025000Y-105565000D03*
D29*
X87625000Y-108315000D03*
D30*
X81970000Y-111170000D03*
X81050000Y-111170000D03*
D31*
X113240000Y-105640000D03*
X112290000Y-105640000D03*
X111340000Y-105640000D03*
X111340000Y-108340000D03*
X112290000Y-108340000D03*
X113240000Y-108340000D03*
D30*
X81970000Y-110060000D03*
X81050000Y-110060000D03*
D32*
X102680000Y-124025000D03*
X95060000Y-125040000D03*
X95060000Y-123010000D03*
D33*
X101410000Y-123390000D03*
X100140000Y-123390000D03*
X98870000Y-123390000D03*
X97600000Y-123390000D03*
X96330000Y-123390000D03*
X96330000Y-124660000D03*
X97600000Y-124660000D03*
X98870000Y-124660000D03*
X100140000Y-124660000D03*
X101410000Y-124660000D03*
D30*
X90135000Y-99205000D03*
X89215000Y-99205000D03*
D34*
X89820000Y-113620000D03*
X89820000Y-114540000D03*
D35*
X89670000Y-102970000D03*
X90570000Y-102970000D03*
D36*
X90620000Y-101050000D03*
X90620000Y-100150000D03*
D31*
X103760000Y-117210000D03*
X104710000Y-117210000D03*
X105660000Y-117210000D03*
X105660000Y-114510000D03*
X104710000Y-114510000D03*
X103760000Y-114510000D03*
D37*
X78930000Y-104230000D03*
X78930000Y-102730000D03*
D34*
X93860000Y-112550000D03*
X93860000Y-111630000D03*
D30*
X111720000Y-102080000D03*
X110800000Y-102080000D03*
D38*
X91010000Y-113700000D03*
X91010000Y-115100000D03*
X108070000Y-113470000D03*
X108070000Y-112070000D03*
D39*
X96265000Y-104190000D03*
X96265000Y-106390000D03*
X97965000Y-106390000D03*
X97965000Y-104190000D03*
D34*
X90135000Y-92625000D03*
X90135000Y-91705000D03*
D40*
X92870000Y-113440000D03*
X92870000Y-112580000D03*
D30*
X91540000Y-102010000D03*
X90620000Y-102010000D03*
D41*
X124720000Y-106150000D03*
X126220000Y-106150000D03*
X113210000Y-103590000D03*
X111710000Y-103590000D03*
X119635000Y-108405000D03*
X121135000Y-108405000D03*
D42*
X98620000Y-100660000D03*
X98620000Y-91380000D03*
X103120000Y-91380000D03*
X103120000Y-100660000D03*
D35*
X89250000Y-88880000D03*
X90150000Y-88880000D03*
D34*
X92800000Y-104740000D03*
X92800000Y-103820000D03*
D41*
X110080000Y-109760000D03*
X108580000Y-109760000D03*
D35*
X89670000Y-102010000D03*
X88770000Y-102010000D03*
D34*
X105660000Y-113250000D03*
X105660000Y-112330000D03*
D43*
X79100000Y-101250000D03*
X77700000Y-101250000D03*
D38*
X115120000Y-106380000D03*
X115120000Y-104980000D03*
D41*
X101540000Y-110390000D03*
X103040000Y-110390000D03*
D44*
X85380000Y-99310000D03*
X85380000Y-101610000D03*
D37*
X117985000Y-108335000D03*
X117985000Y-109835000D03*
D30*
X90130000Y-93590000D03*
X89210000Y-93590000D03*
D36*
X90140000Y-98250000D03*
X90140000Y-97350000D03*
D34*
X83670000Y-101850000D03*
X83670000Y-100930000D03*
D45*
X111750000Y-100440000D03*
X111750000Y-99490000D03*
X111750000Y-98540000D03*
X109050000Y-98540000D03*
X109050000Y-99490000D03*
X109050000Y-100440000D03*
D30*
X109810000Y-108300000D03*
X108890000Y-108300000D03*
D34*
X89670000Y-100140000D03*
X89670000Y-101060000D03*
D30*
X82170000Y-105600000D03*
X81250000Y-105600000D03*
D38*
X112430000Y-113470000D03*
X112430000Y-112070000D03*
X86680000Y-115740000D03*
X86680000Y-117140000D03*
D46*
X88370000Y-113790000D03*
X88370000Y-115790000D03*
D34*
X83670000Y-99040000D03*
X83670000Y-99960000D03*
D38*
X104940000Y-103690000D03*
X104940000Y-102290000D03*
D36*
X90130000Y-95460000D03*
X90130000Y-94560000D03*
D47*
X93550000Y-116070000D03*
X93550000Y-114670000D03*
D43*
X116930000Y-102530000D03*
X118330000Y-102530000D03*
D30*
X90135000Y-96405000D03*
X91055000Y-96405000D03*
D37*
X108920000Y-102110000D03*
X108920000Y-103610000D03*
D34*
X94040000Y-108300000D03*
X94040000Y-109220000D03*
D37*
X103270000Y-105190000D03*
X103270000Y-103690000D03*
D48*
X120080000Y-93150000D03*
X119130000Y-93150000D03*
X118180000Y-93150000D03*
X118180000Y-95450000D03*
X119130000Y-95450000D03*
X120080000Y-95450000D03*
D30*
X93150000Y-107240000D03*
X94070000Y-107240000D03*
D49*
X98730000Y-119685000D03*
D50*
X98230000Y-119685000D03*
D49*
X97730000Y-119685000D03*
D51*
X97580000Y-120360000D03*
D49*
X97730000Y-121035000D03*
D50*
X98230000Y-121035000D03*
D49*
X98730000Y-121035000D03*
D51*
X98880000Y-120360000D03*
D36*
X90140000Y-90750000D03*
X90140000Y-89850000D03*
D52*
X121145000Y-109905000D03*
X119645000Y-109905000D03*
D37*
X80740000Y-101250000D03*
X80740000Y-102750000D03*
D53*
X111430000Y-116070000D03*
X109090000Y-116070000D03*
D30*
X116950000Y-103710000D03*
X117870000Y-103710000D03*
D34*
X88730000Y-101060000D03*
X88730000Y-100140000D03*
D32*
X74870000Y-111315000D03*
X73854000Y-106235000D03*
X75886000Y-106235000D03*
D33*
X75505000Y-110045000D03*
X74235000Y-110045000D03*
X75505000Y-108775000D03*
X74235000Y-108775000D03*
X75505000Y-107505000D03*
X74235000Y-107505000D03*
D41*
X124560000Y-93790000D03*
X126060000Y-93790000D03*
D54*
X76676250Y-94920000D03*
X76676250Y-95420000D03*
X76676250Y-95920000D03*
X76676250Y-96420000D03*
X79016250Y-96420000D03*
X79016250Y-95920000D03*
X79016250Y-95420000D03*
X79016250Y-94920000D03*
D55*
X77846250Y-95670000D03*
D37*
X121320000Y-104990000D03*
X121320000Y-103490000D03*
D56*
X117680000Y-114027500D03*
X120180000Y-114027500D03*
%LPD*%
M02*
