G04 #@! TF.GenerationSoftware,KiCad,Pcbnew,10.0.3*
G04 #@! TF.CreationDate,2026-08-11T20:54:20+02:00*
G04 #@! TF.ProjectId,LightSwitchPowerPCBWithNeutral,4c696768-7453-4776-9974-6368506f7765,rev?*
G04 #@! TF.SameCoordinates,Original*
G04 #@! TF.FileFunction,Legend,Top*
G04 #@! TF.FilePolarity,Positive*
%FSLAX46Y46*%
G04 Gerber Fmt 4.6, Leading zero omitted, Abs format (unit mm)*
G04 Created by KiCad (PCBNEW 10.0.3) date 2026-08-11 20:54:20*
%MOMM*%
%LPD*%
G01*
G04 APERTURE LIST*
G04 Aperture macros list*
%AMRoundRect*
0 Rectangle with rounded corners*
0 $1 Rounding radius*
0 $2 $3 $4 $5 $6 $7 $8 $9 X,Y pos of 4 corners*
0 Add a 4 corners polygon primitive as box body*
4,1,4,$2,$3,$4,$5,$6,$7,$8,$9,$2,$3,0*
0 Add four circle primitives for the rounded corners*
1,1,$1+$1,$2,$3*
1,1,$1+$1,$4,$5*
1,1,$1+$1,$6,$7*
1,1,$1+$1,$8,$9*
0 Add four rect primitives between the rounded corners*
20,1,$1+$1,$2,$3,$4,$5,0*
20,1,$1+$1,$4,$5,$6,$7,0*
20,1,$1+$1,$6,$7,$8,$9,0*
20,1,$1+$1,$8,$9,$2,$3,0*%
%AMRotRect*
0 Rectangle, with rotation*
0 The origin of the aperture is its center*
0 $1 length*
0 $2 width*
0 $3 Rotation angle, in degrees counterclockwise*
0 Add horizontal line*
21,1,$1,$2,0,0,$3*%
%AMFreePoly0*
4,1,75,0.183027,2.792009,0.364661,2.768096,0.543520,2.728444,0.718242,2.673355,0.887498,2.603246,1.050000,2.518653,1.204511,2.420219,1.349854,2.308693,1.484924,2.184924,1.608693,2.049854,1.720219,1.904511,1.818653,1.750000,1.903246,1.587498,1.973355,1.418242,2.028444,1.243520,2.068096,1.064661,2.092009,0.883027,2.100000,0.700000,2.100000,-0.700000,2.092009,-0.883027,
2.068096,-1.064661,2.028444,-1.243520,1.973355,-1.418242,1.903246,-1.587498,1.818653,-1.750000,1.720219,-1.904511,1.608693,-2.049854,1.484924,-2.184924,1.349854,-2.308693,1.204511,-2.420219,1.050000,-2.518653,0.887498,-2.603246,0.718242,-2.673355,0.543520,-2.728444,0.364661,-2.768096,0.183027,-2.792009,0.000000,-2.800000,-0.183027,-2.792009,-0.364661,-2.768096,-0.543520,-2.728444,
-0.718242,-2.673355,-0.887498,-2.603246,-1.050000,-2.518653,-1.204511,-2.420219,-1.349854,-2.308693,-1.484924,-2.184924,-1.608693,-2.049854,-1.720219,-1.904511,-1.818653,-1.750000,-1.903246,-1.587498,-1.973355,-1.418242,-2.028444,-1.243520,-2.068096,-1.064661,-2.092009,-0.883027,-2.100000,-0.700000,-2.100000,0.700000,-2.092009,0.883027,-2.068096,1.064661,-2.028444,1.243520,-1.973355,1.418242,
-1.903246,1.587498,-1.818653,1.750000,-1.720219,1.904511,-1.608693,2.049854,-1.484924,2.184924,-1.349854,2.308693,-1.204511,2.420219,-1.050000,2.518653,-0.887498,2.603246,-0.718242,2.673355,-0.543520,2.728444,-0.364661,2.768096,-0.183027,2.792009,0.000000,2.800000,0.183027,2.792009,0.183027,2.792009,$1*%
G04 Aperture macros list end*
%ADD10C,0.300000*%
%ADD11C,0.250000*%
%ADD12C,0.400000*%
%ADD13C,0.060000*%
%ADD14FreePoly0,0.000000*%
%ADD15C,1.600000*%
%ADD16RotRect,1.422000X2.600000X45.000000*%
%ADD17R,1.400000X1.000000*%
%ADD18RoundRect,0.144000X-1.156000X0.756000X-1.156000X-0.756000X1.156000X-0.756000X1.156000X0.756000X0*%
%ADD19O,2.600000X1.800000*%
%ADD20R,1.800000X1.400000*%
%ADD21RoundRect,0.050000X-0.500000X-0.250000X0.500000X-0.250000X0.500000X0.250000X-0.500000X0.250000X0*%
%ADD22C,4.500000*%
%ADD23R,1.600000X1.600000*%
G04 APERTURE END LIST*
D10*
X107031203Y-80619171D02*
X107745489Y-80619171D01*
X107745489Y-80619171D02*
X107745489Y-82119171D01*
X105745488Y-80619171D02*
X106602631Y-80619171D01*
X106174060Y-80619171D02*
X106174060Y-82119171D01*
X106174060Y-82119171D02*
X106316917Y-81904885D01*
X106316917Y-81904885D02*
X106459774Y-81762028D01*
X106459774Y-81762028D02*
X106602631Y-81690600D01*
X114065489Y-80579171D02*
X114065489Y-82079171D01*
X114065489Y-82079171D02*
X113208346Y-80579171D01*
X113208346Y-80579171D02*
X113208346Y-82079171D01*
X119751203Y-80609171D02*
X120465489Y-80609171D01*
X120465489Y-80609171D02*
X120465489Y-82109171D01*
X106369605Y-125591951D02*
G75*
G02*
X106069605Y-125591951I-150000J0D01*
G01*
X106069605Y-125591951D02*
G75*
G02*
X106369605Y-125591951I150000J0D01*
G01*
D11*
X104750000Y-93340000D02*
X104750000Y-100340000D01*
D12*
X102729996Y-92380018D02*
G75*
G02*
X102729980Y-92377470I-200000J18D01*
G01*
D10*
X130940000Y-117810000D02*
G75*
G02*
X130640000Y-117810000I-150000J0D01*
G01*
X130640000Y-117810000D02*
G75*
G02*
X130940000Y-117810000I150000J0D01*
G01*
D13*
X109620000Y-111730000D02*
G75*
G02*
X109560000Y-111730000I-30000J0D01*
G01*
X109560000Y-111730000D02*
G75*
G02*
X109620000Y-111730000I30000J0D01*
G01*
%LPC*%
D14*
X113670000Y-85165000D03*
X106970000Y-85165000D03*
D15*
X107210000Y-106920000D03*
X107210000Y-112000000D03*
D16*
X105371076Y-123923179D03*
X107167128Y-122127128D03*
X108963179Y-120331076D03*
X102768924Y-114136821D03*
X100972872Y-115932872D03*
X99176821Y-117728924D03*
D17*
X125190000Y-116920000D03*
X125190000Y-115020000D03*
D18*
X102500000Y-94300000D03*
D19*
X102500000Y-96840000D03*
X102500000Y-99380000D03*
D20*
X98420000Y-95420000D03*
X98420000Y-98220000D03*
D17*
X134060000Y-115960000D03*
X134060000Y-114060000D03*
D20*
X102780000Y-109730000D03*
X102780000Y-106930000D03*
D21*
X130790000Y-116920000D03*
X130790000Y-115970000D03*
X130790000Y-115020000D03*
X128190000Y-115020000D03*
X128190000Y-116920000D03*
D22*
X118890000Y-100630000D03*
X133890000Y-100630000D03*
D23*
X112440000Y-108230000D03*
D15*
X140540000Y-100630000D03*
X140540000Y-93030000D03*
X112440000Y-93030000D03*
D14*
X120365000Y-85165000D03*
%LPD*%
M02*
