G04 #@! TF.GenerationSoftware,KiCad,Pcbnew,10.0.3*
G04 #@! TF.CreationDate,2026-08-11T20:54:21+02:00*
G04 #@! TF.ProjectId,LightSwitchPowerPCBWithNeutral,4c696768-7453-4776-9974-6368506f7765,rev?*
G04 #@! TF.SameCoordinates,Original*
G04 #@! TF.FileFunction,Profile,NP*
%FSLAX46Y46*%
G04 Gerber Fmt 4.6, Leading zero omitted, Abs format (unit mm)*
G04 Created by KiCad (PCBNEW 10.0.3) date 2026-08-11 20:54:21*
%MOMM*%
%LPD*%
G01*
G04 APERTURE LIST*
G04 #@! TA.AperFunction,Profile*
%ADD10C,0.100000*%
G04 #@! TD*
G04 APERTURE END LIST*
D10*
X97015000Y-87715000D02*
X104365000Y-80365000D01*
X97015000Y-117715000D02*
X97015000Y-87715000D01*
X102265000Y-87365000D02*
G75*
G02*
X99765000Y-87365000I-1250000J0D01*
G01*
X99765000Y-87365000D02*
G75*
G02*
X102265000Y-87365000I1250000J0D01*
G01*
X104365000Y-80365000D02*
X109615000Y-80365000D01*
X105365000Y-126065000D02*
X97015000Y-117715000D01*
X109615000Y-80365000D02*
X109615000Y-88365000D01*
X111015000Y-80365000D02*
X116315000Y-80365000D01*
X111015000Y-88365000D02*
G75*
G02*
X109615000Y-88365000I-700000J0D01*
G01*
X111015000Y-88365000D02*
X111015000Y-80365000D01*
X116315000Y-80365000D02*
X116315000Y-88365000D01*
X117715000Y-80365000D02*
X123015000Y-80365000D01*
X117715000Y-88365000D02*
G75*
G02*
X116315000Y-88365000I-700000J0D01*
G01*
X117715000Y-88365000D02*
X117715000Y-80365000D01*
X121615000Y-122815000D02*
G75*
G02*
X119115000Y-122815000I-1250000J0D01*
G01*
X119115000Y-122815000D02*
G75*
G02*
X121615000Y-122815000I1250000J0D01*
G01*
X123015000Y-80365000D02*
X123015000Y-88365000D01*
X124415000Y-80365000D02*
X129715000Y-80365000D01*
X124415000Y-88365000D02*
G75*
G02*
X123015000Y-88365000I-700000J0D01*
G01*
X124415000Y-88365000D02*
X124415000Y-80365000D01*
X129715000Y-80365000D02*
X129715000Y-88365000D01*
X131115000Y-80365000D02*
X136365000Y-80365000D01*
X131115000Y-88365000D02*
G75*
G02*
X129715000Y-88365000I-700000J0D01*
G01*
X131115000Y-88365000D02*
X131115000Y-80365000D01*
X135365000Y-126065000D02*
X105365000Y-126065000D01*
X136365000Y-80365000D02*
X143715000Y-87715000D01*
X140965000Y-87365000D02*
G75*
G02*
X138465000Y-87365000I-1250000J0D01*
G01*
X138465000Y-87365000D02*
G75*
G02*
X140965000Y-87365000I1250000J0D01*
G01*
X143715000Y-87715000D02*
X143715000Y-117715000D01*
X143715000Y-117715000D02*
X135365000Y-126065000D01*
M02*
