G04 #@! TF.GenerationSoftware,KiCad,Pcbnew,10.0.3*
G04 #@! TF.CreationDate,2026-08-11T20:54:20+02:00*
G04 #@! TF.ProjectId,LightSwitchPowerPCBWithNeutral,4c696768-7453-4776-9974-6368506f7765,rev?*
G04 #@! TF.SameCoordinates,Original*
G04 #@! TF.FileFunction,Copper,L1,Top*
G04 #@! TF.FilePolarity,Positive*
%FSLAX46Y46*%
G04 Gerber Fmt 4.6, Leading zero omitted, Abs format (unit mm)*
G04 Created by KiCad (PCBNEW 10.0.3) date 2026-08-11 20:54:20*
%MOMM*%
%LPD*%
G01*
G04 APERTURE LIST*
G04 Aperture macros list*
%AMRoundRect*
0 Rectangle with rounded corners*
0 $1 Rounding radius*
0 $2 $3 $4 $5 $6 $7 $8 $9 X,Y pos of 4 corners*
0 Add a 4 corners polygon primitive as box body*
4,1,4,$2,$3,$4,$5,$6,$7,$8,$9,$2,$3,0*
0 Add four circle primitives for the rounded corners*
1,1,$1+$1,$2,$3*
1,1,$1+$1,$4,$5*
1,1,$1+$1,$6,$7*
1,1,$1+$1,$8,$9*
0 Add four rect primitives between the rounded corners*
20,1,$1+$1,$2,$3,$4,$5,0*
20,1,$1+$1,$4,$5,$6,$7,0*
20,1,$1+$1,$6,$7,$8,$9,0*
20,1,$1+$1,$8,$9,$2,$3,0*%
%AMRotRect*
0 Rectangle, with rotation*
0 The origin of the aperture is its center*
0 $1 length*
0 $2 width*
0 $3 Rotation angle, in degrees counterclockwise*
0 Add horizontal line*
21,1,$1,$2,0,0,$3*%
%AMFreePoly0*
4,1,75,0.183027,2.792009,0.364661,2.768096,0.543520,2.728444,0.718242,2.673355,0.887498,2.603246,1.050000,2.518653,1.204511,2.420219,1.349854,2.308693,1.484924,2.184924,1.608693,2.049854,1.720219,1.904511,1.818653,1.750000,1.903246,1.587498,1.973355,1.418242,2.028444,1.243520,2.068096,1.064661,2.092009,0.883027,2.100000,0.700000,2.100000,-0.700000,2.092009,-0.883027,
2.068096,-1.064661,2.028444,-1.243520,1.973355,-1.418242,1.903246,-1.587498,1.818653,-1.750000,1.720219,-1.904511,1.608693,-2.049854,1.484924,-2.184924,1.349854,-2.308693,1.204511,-2.420219,1.050000,-2.518653,0.887498,-2.603246,0.718242,-2.673355,0.543520,-2.728444,0.364661,-2.768096,0.183027,-2.792009,0.000000,-2.800000,-0.183027,-2.792009,-0.364661,-2.768096,-0.543520,-2.728444,
-0.718242,-2.673355,-0.887498,-2.603246,-1.050000,-2.518653,-1.204511,-2.420219,-1.349854,-2.308693,-1.484924,-2.184924,-1.608693,-2.049854,-1.720219,-1.904511,-1.818653,-1.750000,-1.903246,-1.587498,-1.973355,-1.418242,-2.028444,-1.243520,-2.068096,-1.064661,-2.092009,-0.883027,-2.100000,-0.700000,-2.100000,0.700000,-2.092009,0.883027,-2.068096,1.064661,-2.028444,1.243520,-1.973355,1.418242,
-1.903246,1.587498,-1.818653,1.750000,-1.720219,1.904511,-1.608693,2.049854,-1.484924,2.184924,-1.349854,2.308693,-1.204511,2.420219,-1.050000,2.518653,-0.887498,2.603246,-0.718242,2.673355,-0.543520,2.728444,-0.364661,2.768096,-0.183027,2.792009,0.000000,2.800000,0.183027,2.792009,0.183027,2.792009,$1*%
G04 Aperture macros list end*
G04 #@! TA.AperFunction,ComponentPad*
%ADD10FreePoly0,0.000000*%
G04 #@! TD*
G04 #@! TA.AperFunction,ComponentPad*
%ADD11C,1.600000*%
G04 #@! TD*
G04 #@! TA.AperFunction,SMDPad,CuDef*
%ADD12RotRect,1.422000X2.600000X45.000000*%
G04 #@! TD*
G04 #@! TA.AperFunction,SMDPad,CuDef*
%ADD13R,1.400000X1.000000*%
G04 #@! TD*
G04 #@! TA.AperFunction,ComponentPad*
%ADD14RoundRect,0.144000X-1.156000X0.756000X-1.156000X-0.756000X1.156000X-0.756000X1.156000X0.756000X0*%
G04 #@! TD*
G04 #@! TA.AperFunction,ComponentPad*
%ADD15O,2.600000X1.800000*%
G04 #@! TD*
G04 #@! TA.AperFunction,SMDPad,CuDef*
%ADD16R,1.800000X1.400000*%
G04 #@! TD*
G04 #@! TA.AperFunction,SMDPad,CuDef*
%ADD17RoundRect,0.050000X-0.500000X-0.250000X0.500000X-0.250000X0.500000X0.250000X-0.500000X0.250000X0*%
G04 #@! TD*
G04 #@! TA.AperFunction,ComponentPad*
%ADD18R,1.600000X1.600000*%
G04 #@! TD*
G04 #@! TA.AperFunction,ViaPad*
%ADD19C,0.600000*%
G04 #@! TD*
G04 #@! TA.AperFunction,Conductor*
%ADD20C,1.500000*%
G04 #@! TD*
G04 #@! TA.AperFunction,Conductor*
%ADD21C,1.600000*%
G04 #@! TD*
G04 #@! TA.AperFunction,Conductor*
%ADD22C,1.400000*%
G04 #@! TD*
G04 #@! TA.AperFunction,Conductor*
%ADD23C,3.000000*%
G04 #@! TD*
G04 #@! TA.AperFunction,Conductor*
%ADD24C,0.200000*%
G04 #@! TD*
G04 #@! TA.AperFunction,Conductor*
%ADD25C,0.700000*%
G04 #@! TD*
G04 #@! TA.AperFunction,Conductor*
%ADD26C,0.600000*%
G04 #@! TD*
G04 #@! TA.AperFunction,Conductor*
%ADD27C,0.500000*%
G04 #@! TD*
G04 APERTURE END LIST*
D10*
X113670000Y-85165000D03*
X106970000Y-85165000D03*
D11*
X107210000Y-106920000D03*
X107210000Y-112000000D03*
D12*
X105371076Y-123923179D03*
X107167128Y-122127128D03*
X108963179Y-120331076D03*
X102768924Y-114136821D03*
X100972872Y-115932872D03*
X99176821Y-117728924D03*
D13*
X125190000Y-116920000D03*
X125190000Y-115020000D03*
D14*
X102500000Y-94300000D03*
D15*
X102500000Y-96840000D03*
X102500000Y-99380000D03*
D16*
X98420000Y-95420000D03*
X98420000Y-98220000D03*
D13*
X134060000Y-115960000D03*
X134060000Y-114060000D03*
D16*
X102780000Y-109730000D03*
X102780000Y-106930000D03*
D17*
X130790000Y-116920000D03*
X130790000Y-115970000D03*
X130790000Y-115020000D03*
X128190000Y-115020000D03*
X128190000Y-116920000D03*
D18*
X112440000Y-108230000D03*
D11*
X140540000Y-100630000D03*
X140540000Y-93030000D03*
X112440000Y-93030000D03*
D10*
X120365000Y-85165000D03*
D19*
X123640000Y-117000000D03*
X119520000Y-120610000D03*
X118370000Y-115590000D03*
D20*
X113670000Y-86610000D02*
X113670000Y-85165000D01*
D21*
X113670000Y-91800000D02*
X113670000Y-85165000D01*
X112440000Y-93030000D02*
X113670000Y-91800000D01*
D22*
X98240000Y-95420000D02*
X99360000Y-94300000D01*
D23*
X106970000Y-88420000D02*
X103070000Y-92320000D01*
D22*
X99360000Y-94300000D02*
X102500000Y-94300000D01*
D23*
X106970000Y-85165000D02*
X106970000Y-88420000D01*
X109670000Y-98750000D02*
X115113146Y-98750000D01*
X107840000Y-96900000D02*
X106280000Y-96900000D01*
X107840000Y-96900000D02*
X107840000Y-96920000D01*
D22*
X102780000Y-106930000D02*
X107200000Y-106930000D01*
X107200000Y-106930000D02*
X107210000Y-106920000D01*
D23*
X120365000Y-93498146D02*
X115113146Y-98750000D01*
D21*
X109670000Y-102850000D02*
X109670000Y-98750000D01*
X107210000Y-105310000D02*
X109670000Y-102850000D01*
X107210000Y-106920000D02*
X107210000Y-105310000D01*
D23*
X107840000Y-96920000D02*
X109670000Y-98750000D01*
X120365000Y-85165000D02*
X120365000Y-93498146D01*
D24*
X120365000Y-85165000D02*
X120360000Y-85170000D01*
D21*
X107210000Y-112000000D02*
X110680000Y-112000000D01*
X112440000Y-110240000D02*
X112440000Y-108230000D01*
X110680000Y-112000000D02*
X112440000Y-110240000D01*
D25*
X123445000Y-125215000D02*
X125190000Y-123470000D01*
X106662897Y-125215000D02*
X105371076Y-123923179D01*
X125110000Y-117000000D02*
X125190000Y-116920000D01*
X123445000Y-125215000D02*
X106662897Y-125215000D01*
X125190000Y-123470000D02*
X125190000Y-116920000D01*
X123640000Y-117000000D02*
X125110000Y-117000000D01*
D26*
X128190000Y-116920000D02*
X125190000Y-116920000D01*
D22*
X102768924Y-109741076D02*
X102780000Y-109730000D01*
X102768924Y-114136821D02*
X102768924Y-109741076D01*
X98215000Y-99340000D02*
X98215000Y-98625000D01*
D24*
X98800000Y-98070000D02*
X98800000Y-98600000D01*
D22*
X99176821Y-117728924D02*
X98215000Y-116767103D01*
X98215000Y-116767103D02*
X98215000Y-99340000D01*
X102500000Y-99380000D02*
X98255000Y-99380000D01*
X98255000Y-99380000D02*
X98215000Y-99340000D01*
D25*
X107167128Y-122127128D02*
X108360000Y-123320000D01*
X116800000Y-123320000D02*
X119510000Y-120610000D01*
X119510000Y-120610000D02*
X119520000Y-120610000D01*
X108360000Y-123320000D02*
X116800000Y-123320000D01*
D26*
X135100000Y-114060000D02*
X137820000Y-111340000D01*
X125730000Y-115020000D02*
X125190000Y-115020000D01*
X130090000Y-113810000D02*
X133270000Y-113810000D01*
D25*
X123510000Y-115020000D02*
X122940000Y-115590000D01*
X122940000Y-115590000D02*
X119340000Y-115590000D01*
X118370000Y-115590000D02*
X119340000Y-115590000D01*
D26*
X137820000Y-95750000D02*
X140540000Y-93030000D01*
X129460000Y-115970000D02*
X126680000Y-115970000D01*
X129440000Y-114460000D02*
X129440000Y-115950000D01*
X129440000Y-114460000D02*
X130090000Y-113810000D01*
X137820000Y-111340000D02*
X137820000Y-95750000D01*
X134060000Y-114060000D02*
X135100000Y-114060000D01*
X126680000Y-115970000D02*
X125730000Y-115020000D01*
X133520000Y-114060000D02*
X134060000Y-114060000D01*
X129440000Y-115950000D02*
X129460000Y-115970000D01*
X133270000Y-113810000D02*
X133520000Y-114060000D01*
X130790000Y-115970000D02*
X129960000Y-115970000D01*
D25*
X125190000Y-115020000D02*
X123510000Y-115020000D01*
D26*
X129960000Y-115970000D02*
X129460000Y-115970000D01*
X130790000Y-116920000D02*
X132520000Y-116920000D01*
X133410000Y-115850000D02*
X133990000Y-115850000D01*
X130790000Y-115020000D02*
X132580000Y-115020000D01*
D25*
X134060000Y-115960000D02*
X137130000Y-115960000D01*
X140540000Y-112550000D02*
X140540000Y-100630000D01*
X137130000Y-115960000D02*
X140540000Y-112550000D01*
D27*
X133590000Y-115850000D02*
X133990000Y-115850000D01*
D26*
X132580000Y-115020000D02*
X133410000Y-115850000D01*
X132520000Y-116920000D02*
X133590000Y-115850000D01*
G04 #@! TA.AperFunction,Conductor*
G36*
X122402987Y-81859642D02*
G01*
X122448768Y-81912423D01*
X122460000Y-81963991D01*
X122460000Y-86564915D01*
X122456385Y-86594640D01*
X121883278Y-88915725D01*
X121848097Y-88976091D01*
X121785864Y-89007854D01*
X121762893Y-89010000D01*
X118966816Y-89010000D01*
X118899777Y-88990315D01*
X118854022Y-88937511D01*
X118846518Y-88916074D01*
X118263708Y-86584833D01*
X118260006Y-86554707D01*
X118261944Y-81965928D01*
X118281657Y-81898899D01*
X118334480Y-81853167D01*
X118385878Y-81841983D01*
X122335938Y-81839991D01*
X122402987Y-81859642D01*
G37*
G04 #@! TD.AperFunction*
G04 #@! TA.AperFunction,Conductor*
G36*
X115669406Y-81847498D02*
G01*
X115736384Y-81867386D01*
X115781978Y-81920328D01*
X115793027Y-81971874D01*
X115779192Y-86528046D01*
X115763543Y-86587971D01*
X114445451Y-88956302D01*
X114395649Y-89005308D01*
X114337101Y-89020000D01*
X113013332Y-89020000D01*
X112946293Y-89000315D01*
X112904671Y-88955739D01*
X111602941Y-86587971D01*
X111564548Y-86518136D01*
X111549211Y-86457951D01*
X111565608Y-81958959D01*
X111585537Y-81891994D01*
X111638507Y-81846432D01*
X111689982Y-81835414D01*
X115669406Y-81847498D01*
G37*
G04 #@! TD.AperFunction*
G04 #@! TA.AperFunction,Conductor*
G36*
X108927722Y-81844046D02*
G01*
X108962639Y-81849139D01*
X108977632Y-81853575D01*
X108992607Y-81863241D01*
X109009697Y-81868296D01*
X109036325Y-81891461D01*
X109037510Y-81892834D01*
X109064860Y-81947752D01*
X109066488Y-81955313D01*
X109069266Y-81981669D01*
X109060037Y-86471143D01*
X109059378Y-86483651D01*
X109058093Y-86496069D01*
X109056174Y-86508461D01*
X108551120Y-88946320D01*
X108539115Y-88979510D01*
X108523268Y-89009229D01*
X108501645Y-89038453D01*
X103804805Y-93747384D01*
X103804690Y-93747499D01*
X103805481Y-95058998D01*
X103805480Y-95059000D01*
X103805481Y-95059001D01*
X103800478Y-95093939D01*
X103796083Y-95108939D01*
X103758352Y-95167731D01*
X103756984Y-95168918D01*
X103702150Y-95196410D01*
X103694592Y-95198059D01*
X103668235Y-95200909D01*
X101343443Y-95202309D01*
X101343440Y-95202308D01*
X101343440Y-95202309D01*
X101308502Y-95197306D01*
X101293502Y-95192911D01*
X101234702Y-95155171D01*
X101233484Y-95153767D01*
X101206031Y-95099000D01*
X101204926Y-95093939D01*
X101204382Y-95091449D01*
X101201528Y-95065119D01*
X101200000Y-93400000D01*
X101200000Y-91999292D01*
X101205023Y-91964357D01*
X101212426Y-91939145D01*
X101243843Y-91886277D01*
X104851108Y-88289105D01*
X104859947Y-81977592D01*
X104865019Y-81942665D01*
X104869444Y-81927673D01*
X104907299Y-81868950D01*
X104908688Y-81867750D01*
X104963568Y-81840395D01*
X104971172Y-81838755D01*
X104997572Y-81835966D01*
X108927722Y-81844046D01*
G37*
G04 #@! TD.AperFunction*
G04 #@! TA.AperFunction,Conductor*
G36*
X106683039Y-95419685D02*
G01*
X106728794Y-95472489D01*
X106740000Y-95524000D01*
X106740000Y-98266000D01*
X106720315Y-98333039D01*
X106667511Y-98378794D01*
X106616000Y-98390000D01*
X105874223Y-98390000D01*
X105807184Y-98370315D01*
X105800177Y-98365465D01*
X104960000Y-97740000D01*
X102174000Y-97740000D01*
X102106961Y-97720315D01*
X102061206Y-97667511D01*
X102050000Y-97616000D01*
X102050000Y-96064000D01*
X102069685Y-95996961D01*
X102122489Y-95951206D01*
X102174000Y-95940000D01*
X104949999Y-95940000D01*
X104950000Y-95940000D01*
X105820549Y-95417670D01*
X105884345Y-95400000D01*
X106616000Y-95400000D01*
X106683039Y-95419685D01*
G37*
G04 #@! TD.AperFunction*
G04 #@! TA.AperFunction,Conductor*
G36*
X139844815Y-92658344D02*
G01*
X139845086Y-92658482D01*
X140540225Y-93024879D01*
X140545120Y-93029774D01*
X140911503Y-93724886D01*
X140912329Y-93733802D01*
X140906608Y-93740691D01*
X140906310Y-93740843D01*
X139630997Y-94367090D01*
X139622061Y-94367661D01*
X139617567Y-94364861D01*
X139205138Y-93952432D01*
X139201711Y-93944159D01*
X139202907Y-93939006D01*
X139829157Y-92663687D01*
X139835879Y-92657773D01*
X139844815Y-92658344D01*
G37*
G04 #@! TD.AperFunction*
G04 #@! TA.AperFunction,Conductor*
G36*
X141294426Y-100858782D02*
G01*
X141301315Y-100864503D01*
X141302157Y-100873368D01*
X140892526Y-102217858D01*
X140886837Y-102224773D01*
X140881334Y-102226148D01*
X140198666Y-102226148D01*
X140190393Y-102222721D01*
X140187474Y-102217858D01*
X139777842Y-100873368D01*
X139778709Y-100864455D01*
X139785571Y-100858783D01*
X140536542Y-100626219D01*
X140543458Y-100626219D01*
X141294426Y-100858782D01*
G37*
G04 #@! TD.AperFunction*
M02*
