G04 #@! TF.GenerationSoftware,KiCad,Pcbnew,10.0.3*
G04 #@! TF.CreationDate,2026-08-11T21:40:08+02:00*
G04 #@! TF.ProjectId,TouchButtonPCB,546f7563-6842-4757-9474-6f6e5043422e,rev?*
G04 #@! TF.SameCoordinates,Original*
G04 #@! TF.FileFunction,Legend,Top*
G04 #@! TF.FilePolarity,Positive*
%FSLAX46Y46*%
G04 Gerber Fmt 4.6, Leading zero omitted, Abs format (unit mm)*
G04 Created by KiCad (PCBNEW 10.0.3) date 2026-08-11 21:40:08*
%MOMM*%
%LPD*%
G01*
G04 APERTURE LIST*
G04 Aperture macros list*
%AMRoundRect*
0 Rectangle with rounded corners*
0 $1 Rounding radius*
0 $2 $3 $4 $5 $6 $7 $8 $9 X,Y pos of 4 corners*
0 Add a 4 corners polygon primitive as box body*
4,1,4,$2,$3,$4,$5,$6,$7,$8,$9,$2,$3,0*
0 Add four circle primitives for the rounded corners*
1,1,$1+$1,$2,$3*
1,1,$1+$1,$4,$5*
1,1,$1+$1,$6,$7*
1,1,$1+$1,$8,$9*
0 Add four rect primitives between the rounded corners*
20,1,$1+$1,$2,$3,$4,$5,0*
20,1,$1+$1,$4,$5,$6,$7,0*
20,1,$1+$1,$6,$7,$8,$9,0*
20,1,$1+$1,$8,$9,$2,$3,0*%
G04 Aperture macros list end*
%ADD10C,0.100000*%
%ADD11C,0.000000*%
%ADD12C,0.300000*%
%ADD13C,0.200000*%
%ADD14C,0.150000*%
%ADD15C,0.060000*%
%ADD16C,7.050000*%
%ADD17C,0.120000*%
%ADD18C,0.250000*%
%ADD19R,0.620000X0.600000*%
%ADD20R,0.566000X0.540000*%
%ADD21R,0.600000X0.620000*%
%ADD22R,0.500000X0.650000*%
%ADD23R,0.650000X0.500000*%
%ADD24C,0.990600*%
%ADD25C,0.991400*%
%ADD26R,0.700000X1.250000*%
%ADD27R,0.940000X0.750000*%
%ADD28R,1.400000X1.200000*%
%ADD29R,0.700000X0.800000*%
%ADD30R,0.500000X0.800000*%
%ADD31R,0.550000X0.250000*%
%ADD32R,0.550000X0.200000*%
%ADD33R,0.300000X0.600000*%
%ADD34R,0.540000X0.566000*%
%ADD35R,1.700000X0.850000*%
%ADD36R,1.250000X1.000000*%
%ADD37R,0.800000X0.864000*%
%ADD38R,1.300000X1.600000*%
%ADD39RoundRect,0.071400X0.098600X-0.278600X0.098600X0.278600X-0.098600X0.278600X-0.098600X-0.278600X0*%
%ADD40RoundRect,0.071400X0.278600X-0.098600X0.278600X0.098600X-0.278600X0.098600X-0.278600X-0.098600X0*%
%ADD41RoundRect,0.050971X2.574029X-2.574029X2.574029X2.574029X-2.574029X2.574029X-2.574029X-2.574029X0*%
%ADD42R,1.000000X1.050000*%
%ADD43R,1.050000X2.200000*%
G04 APERTURE END LIST*
D10*
X195805000Y-126280000D02*
X195805000Y-125880000D01*
X194705000Y-127650000D02*
X194305000Y-127650000D01*
D11*
G36*
X162156625Y-97382012D02*
G01*
X162156625Y-97538722D01*
X161999915Y-97538722D01*
X161843206Y-97538722D01*
X161843206Y-97382012D01*
X161843206Y-97225303D01*
X161999915Y-97225303D01*
X162156625Y-97225303D01*
X162156625Y-97382012D01*
G37*
G36*
X162156625Y-98364712D02*
G01*
X162156625Y-99053580D01*
X161999915Y-99053580D01*
X161843206Y-99053580D01*
X161843206Y-98364712D01*
X161843206Y-97675843D01*
X161999915Y-97675843D01*
X162156625Y-97675843D01*
X162156625Y-98364712D01*
G37*
G36*
X168033231Y-98364542D02*
G01*
X168033231Y-99053580D01*
X167931993Y-99053580D01*
X167830755Y-99053580D01*
X167832417Y-98366344D01*
X167834080Y-97679107D01*
X167933656Y-97677305D01*
X168033231Y-97675503D01*
X168033231Y-98364542D01*
G37*
G36*
X168031774Y-97321614D02*
G01*
X168029967Y-97417925D01*
X167934911Y-97419725D01*
X167900910Y-97420068D01*
X167871650Y-97419794D01*
X167849568Y-97418971D01*
X167837102Y-97417665D01*
X167835335Y-97417004D01*
X167833720Y-97409180D01*
X167832360Y-97390758D01*
X167831369Y-97364197D01*
X167830859Y-97331957D01*
X167830815Y-97318893D01*
X167830815Y-97225303D01*
X167932198Y-97225303D01*
X168033580Y-97225303D01*
X168031774Y-97321614D01*
G37*
G36*
X163896611Y-97676936D02*
G01*
X163972532Y-97677099D01*
X164060431Y-97677388D01*
X164071672Y-97677430D01*
X164520161Y-97679107D01*
X164466165Y-97773786D01*
X164412170Y-97868465D01*
X164020606Y-97871730D01*
X163930350Y-97872569D01*
X163852628Y-97873484D01*
X163786914Y-97874488D01*
X163732683Y-97875596D01*
X163689409Y-97876822D01*
X163656567Y-97878180D01*
X163633631Y-97879683D01*
X163620077Y-97881346D01*
X163615982Y-97882557D01*
X163602496Y-97892571D01*
X163587512Y-97906601D01*
X163586599Y-97907567D01*
X163570275Y-97925015D01*
X163568536Y-98489298D01*
X163566797Y-99053580D01*
X163468791Y-99053580D01*
X163370786Y-99053580D01*
X163372587Y-98470817D01*
X163374388Y-97888053D01*
X163394613Y-97845611D01*
X163426167Y-97793370D01*
X163466547Y-97749205D01*
X163514134Y-97714486D01*
X163567308Y-97690582D01*
X163583670Y-97685835D01*
X163592943Y-97683834D01*
X163604533Y-97682123D01*
X163619406Y-97680688D01*
X163638529Y-97679511D01*
X163662868Y-97678575D01*
X163693389Y-97677864D01*
X163731058Y-97677362D01*
X163776840Y-97677050D01*
X163831703Y-97676914D01*
X163896611Y-97676936D01*
G37*
G36*
X166777923Y-97677309D02*
G01*
X167370481Y-97679107D01*
X167406393Y-97693752D01*
X167458654Y-97721852D01*
X167505083Y-97760263D01*
X167543433Y-97806737D01*
X167571311Y-97858670D01*
X167585956Y-97894583D01*
X167587726Y-98474082D01*
X167589495Y-99053580D01*
X167491415Y-99053580D01*
X167393334Y-99053580D01*
X167393310Y-98496935D01*
X167393299Y-98398825D01*
X167393262Y-98312926D01*
X167393180Y-98238389D01*
X167393034Y-98174367D01*
X167392805Y-98120010D01*
X167392474Y-98074472D01*
X167392022Y-98036903D01*
X167391430Y-98006456D01*
X167390678Y-97982281D01*
X167389748Y-97963531D01*
X167388620Y-97949358D01*
X167387276Y-97938913D01*
X167385696Y-97931348D01*
X167383861Y-97925815D01*
X167381752Y-97921465D01*
X167380310Y-97919009D01*
X167365289Y-97900542D01*
X167346802Y-97885144D01*
X167346055Y-97884677D01*
X167341564Y-97882114D01*
X167336431Y-97879915D01*
X167329693Y-97878057D01*
X167320387Y-97876516D01*
X167307550Y-97875269D01*
X167290220Y-97874292D01*
X167267432Y-97873561D01*
X167238225Y-97873053D01*
X167201636Y-97872743D01*
X167156702Y-97872608D01*
X167102459Y-97872625D01*
X167037946Y-97872770D01*
X166962199Y-97873019D01*
X166884028Y-97873310D01*
X166443283Y-97874994D01*
X166422867Y-97889557D01*
X166415688Y-97894516D01*
X166409385Y-97899054D01*
X166403900Y-97904007D01*
X166399176Y-97910209D01*
X166395157Y-97918492D01*
X166391786Y-97929692D01*
X166389007Y-97944641D01*
X166386762Y-97964173D01*
X166384995Y-97989124D01*
X166383649Y-98020325D01*
X166382667Y-98058611D01*
X166381993Y-98104817D01*
X166381570Y-98159775D01*
X166381341Y-98224320D01*
X166381249Y-98299285D01*
X166381238Y-98385505D01*
X166381251Y-98483812D01*
X166381252Y-98501187D01*
X166381252Y-99053580D01*
X166283308Y-99053580D01*
X166185365Y-99053580D01*
X166185365Y-98364545D01*
X166185365Y-97675510D01*
X166777923Y-97677309D01*
G37*
G36*
X170004009Y-97200205D02*
G01*
X170046996Y-97201044D01*
X170079217Y-97201973D01*
X170102961Y-97203304D01*
X170120519Y-97205349D01*
X170134182Y-97208418D01*
X170146240Y-97212822D01*
X170158985Y-97218874D01*
X170165398Y-97222138D01*
X170192399Y-97238376D01*
X170211732Y-97256830D01*
X170223682Y-97273863D01*
X170233840Y-97291671D01*
X170239782Y-97307368D01*
X170242596Y-97325641D01*
X170243371Y-97351179D01*
X170243375Y-97358647D01*
X170242418Y-97389512D01*
X170239133Y-97412022D01*
X170232668Y-97430795D01*
X170228507Y-97439234D01*
X170214483Y-97459102D01*
X170194541Y-97479726D01*
X170172950Y-97497199D01*
X170153979Y-97507614D01*
X170153660Y-97507722D01*
X170154526Y-97513628D01*
X170161888Y-97528233D01*
X170174638Y-97549617D01*
X170191671Y-97575860D01*
X170200003Y-97588112D01*
X170253709Y-97666048D01*
X170223310Y-97668071D01*
X170203306Y-97668644D01*
X170188230Y-97667735D01*
X170184632Y-97666917D01*
X170178240Y-97660426D01*
X170166681Y-97644950D01*
X170151509Y-97622700D01*
X170134282Y-97595886D01*
X170131566Y-97591526D01*
X170086779Y-97519311D01*
X170016800Y-97519222D01*
X169946821Y-97519133D01*
X169944975Y-97592591D01*
X169943129Y-97666048D01*
X169912113Y-97668038D01*
X169881098Y-97670029D01*
X169881098Y-97460367D01*
X169946393Y-97460367D01*
X170024958Y-97460367D01*
X170069775Y-97459402D01*
X170102954Y-97456544D01*
X170123867Y-97451850D01*
X170124839Y-97451461D01*
X170143330Y-97440328D01*
X170161258Y-97424458D01*
X170163806Y-97421577D01*
X170174489Y-97406424D01*
X170179809Y-97390360D01*
X170181430Y-97367849D01*
X170181458Y-97362888D01*
X170178164Y-97329549D01*
X170167624Y-97303419D01*
X170148853Y-97283873D01*
X170120864Y-97270284D01*
X170082672Y-97262027D01*
X170033291Y-97258476D01*
X170016586Y-97258236D01*
X169946393Y-97257951D01*
X169946393Y-97359159D01*
X169946393Y-97460367D01*
X169881098Y-97460367D01*
X169881098Y-97433995D01*
X169881098Y-97359159D01*
X169881098Y-97197961D01*
X170004009Y-97200205D01*
G37*
G36*
X162594105Y-97450513D02*
G01*
X162594105Y-97675723D01*
X162923494Y-97677415D01*
X163252883Y-97679107D01*
X163198539Y-97773786D01*
X163144196Y-97868465D01*
X162869151Y-97870168D01*
X162594105Y-97871871D01*
X162594130Y-98330502D01*
X162594144Y-98419014D01*
X162594194Y-98495409D01*
X162594305Y-98560630D01*
X162594502Y-98615617D01*
X162594811Y-98661314D01*
X162595258Y-98698662D01*
X162595868Y-98728603D01*
X162596667Y-98752081D01*
X162597680Y-98770036D01*
X162598932Y-98783411D01*
X162600450Y-98793148D01*
X162602258Y-98800189D01*
X162604382Y-98805476D01*
X162606849Y-98809951D01*
X162607129Y-98810414D01*
X162622165Y-98828874D01*
X162640664Y-98844223D01*
X162641385Y-98844670D01*
X162647229Y-98847910D01*
X162653964Y-98850561D01*
X162662876Y-98852683D01*
X162675253Y-98854335D01*
X162692384Y-98855575D01*
X162715556Y-98856462D01*
X162746056Y-98857055D01*
X162785173Y-98857414D01*
X162834195Y-98857596D01*
X162894409Y-98857662D01*
X162925481Y-98857669D01*
X163188296Y-98857694D01*
X163188296Y-98955637D01*
X163188296Y-99053580D01*
X162912422Y-99053412D01*
X162845046Y-99053352D01*
X162789381Y-99053218D01*
X162744077Y-99052949D01*
X162707784Y-99052480D01*
X162679155Y-99051749D01*
X162656839Y-99050693D01*
X162639487Y-99049247D01*
X162625751Y-99047350D01*
X162614281Y-99044937D01*
X162603729Y-99041946D01*
X162593167Y-99038457D01*
X162537316Y-99013231D01*
X162490066Y-98978328D01*
X162450686Y-98933151D01*
X162435223Y-98909111D01*
X162429833Y-98900011D01*
X162424994Y-98891601D01*
X162420674Y-98883168D01*
X162416846Y-98873997D01*
X162413478Y-98863372D01*
X162410543Y-98850578D01*
X162408009Y-98834901D01*
X162405848Y-98815626D01*
X162404030Y-98792037D01*
X162402526Y-98763421D01*
X162401305Y-98729061D01*
X162400339Y-98688243D01*
X162399597Y-98640252D01*
X162399051Y-98584374D01*
X162398670Y-98519893D01*
X162398426Y-98446094D01*
X162398288Y-98362262D01*
X162398227Y-98267683D01*
X162398214Y-98161642D01*
X162398218Y-98043423D01*
X162398219Y-98014008D01*
X162398219Y-97225303D01*
X162496162Y-97225303D01*
X162594105Y-97225303D01*
X162594105Y-97450513D01*
G37*
G36*
X170125666Y-97072102D02*
G01*
X170184021Y-97089446D01*
X170239353Y-97117223D01*
X170256447Y-97128130D01*
X170311044Y-97172388D01*
X170356660Y-97225852D01*
X170392719Y-97287735D01*
X170415079Y-97345249D01*
X170422950Y-97383169D01*
X170426306Y-97428678D01*
X170425247Y-97477153D01*
X170419875Y-97523965D01*
X170410290Y-97564491D01*
X170410284Y-97564512D01*
X170383108Y-97627945D01*
X170345928Y-97684294D01*
X170300142Y-97732773D01*
X170247151Y-97772600D01*
X170188355Y-97802989D01*
X170125154Y-97823157D01*
X170058947Y-97832320D01*
X169991136Y-97829692D01*
X169950318Y-97822144D01*
X169896078Y-97804739D01*
X169847049Y-97779316D01*
X169800090Y-97744044D01*
X169772779Y-97718565D01*
X169727151Y-97666405D01*
X169693810Y-97612164D01*
X169671984Y-97554004D01*
X169660904Y-97490085D01*
X169659093Y-97447308D01*
X169659769Y-97438261D01*
X169707496Y-97438261D01*
X169710889Y-97493041D01*
X169726972Y-97557662D01*
X169753551Y-97615948D01*
X169789520Y-97666930D01*
X169833777Y-97709639D01*
X169885219Y-97743107D01*
X169942741Y-97766364D01*
X170005241Y-97778443D01*
X170037807Y-97779988D01*
X170067896Y-97779169D01*
X170096967Y-97776995D01*
X170119510Y-97773902D01*
X170122510Y-97773268D01*
X170180114Y-97753488D01*
X170233206Y-97722516D01*
X170280273Y-97681867D01*
X170319802Y-97633060D01*
X170350278Y-97577610D01*
X170367621Y-97527601D01*
X170377269Y-97465905D01*
X170374767Y-97404766D01*
X170360992Y-97345653D01*
X170336822Y-97290036D01*
X170303135Y-97239381D01*
X170260807Y-97195157D01*
X170210717Y-97158833D01*
X170153742Y-97131878D01*
X170125956Y-97123160D01*
X170088890Y-97116816D01*
X170045190Y-97114742D01*
X170000551Y-97116900D01*
X169960666Y-97123253D01*
X169956459Y-97124298D01*
X169898232Y-97145853D01*
X169845807Y-97177804D01*
X169800234Y-97218574D01*
X169762566Y-97266583D01*
X169733852Y-97320253D01*
X169715145Y-97378005D01*
X169707496Y-97438261D01*
X169659769Y-97438261D01*
X169664260Y-97378112D01*
X169680195Y-97315481D01*
X169707542Y-97257850D01*
X169746949Y-97203653D01*
X169769896Y-97178843D01*
X169824495Y-97131567D01*
X169882606Y-97096805D01*
X169944700Y-97074372D01*
X170011245Y-97064083D01*
X170060661Y-97064003D01*
X170125666Y-97072102D01*
G37*
G36*
X160890549Y-97675850D02*
G01*
X160973640Y-97675929D01*
X161046178Y-97676121D01*
X161108999Y-97676473D01*
X161162937Y-97677031D01*
X161208829Y-97677843D01*
X161247508Y-97678954D01*
X161279812Y-97680413D01*
X161306575Y-97682265D01*
X161328633Y-97684557D01*
X161346820Y-97687337D01*
X161361973Y-97690650D01*
X161374926Y-97694545D01*
X161386515Y-97699067D01*
X161397576Y-97704264D01*
X161408944Y-97710181D01*
X161421432Y-97716856D01*
X161464013Y-97745105D01*
X161504395Y-97782246D01*
X161538552Y-97824237D01*
X161554586Y-97850464D01*
X161561483Y-97863576D01*
X161567544Y-97875861D01*
X161572822Y-97888215D01*
X161577373Y-97901531D01*
X161581250Y-97916705D01*
X161584508Y-97934629D01*
X161587201Y-97956200D01*
X161589383Y-97982311D01*
X161591108Y-98013857D01*
X161592431Y-98051733D01*
X161593406Y-98096832D01*
X161594087Y-98150050D01*
X161594528Y-98212280D01*
X161594784Y-98284418D01*
X161594909Y-98367358D01*
X161594956Y-98461993D01*
X161594969Y-98516524D01*
X161595082Y-99053580D01*
X160973141Y-99052925D01*
X160880945Y-99052766D01*
X160792751Y-99052494D01*
X160709455Y-99052117D01*
X160631949Y-99051646D01*
X160561125Y-99051088D01*
X160497877Y-99050453D01*
X160443098Y-99049751D01*
X160397680Y-99048990D01*
X160362516Y-99048179D01*
X160338500Y-99047328D01*
X160326524Y-99046445D01*
X160325856Y-99046319D01*
X160270747Y-99026942D01*
X160219195Y-98996487D01*
X160172948Y-98956806D01*
X160133751Y-98909753D01*
X160103352Y-98857181D01*
X160083496Y-98800945D01*
X160080217Y-98785628D01*
X160078558Y-98769525D01*
X160077192Y-98741453D01*
X160076138Y-98702500D01*
X160075413Y-98653752D01*
X160075034Y-98596298D01*
X160075019Y-98531224D01*
X160075253Y-98478739D01*
X160076959Y-98208002D01*
X160635237Y-98206316D01*
X160719588Y-98206096D01*
X160800250Y-98205954D01*
X160876259Y-98205886D01*
X160946653Y-98205890D01*
X161010467Y-98205965D01*
X161066739Y-98206109D01*
X161114505Y-98206318D01*
X161152803Y-98206591D01*
X161180667Y-98206925D01*
X161197137Y-98207318D01*
X161201406Y-98207640D01*
X161200754Y-98214151D01*
X161193516Y-98231251D01*
X161179961Y-98258411D01*
X161160357Y-98295106D01*
X161134973Y-98340807D01*
X161119787Y-98367593D01*
X161030275Y-98524536D01*
X160708532Y-98524611D01*
X160386790Y-98524686D01*
X160388584Y-98630791D01*
X160390378Y-98736897D01*
X160836074Y-98738574D01*
X161281770Y-98740252D01*
X161280084Y-98366389D01*
X161278398Y-97992526D01*
X160676046Y-97990860D01*
X160073694Y-97989194D01*
X160073694Y-97832518D01*
X160073694Y-97675843D01*
X160689366Y-97675843D01*
X160796069Y-97675837D01*
X160890549Y-97675850D01*
G37*
G36*
X168958290Y-97677073D02*
G01*
X169069161Y-97677283D01*
X169108622Y-97677395D01*
X169664913Y-97679107D01*
X169610570Y-97773786D01*
X169556227Y-97868465D01*
X169051014Y-97871730D01*
X168545802Y-97874994D01*
X168525443Y-97889516D01*
X168517985Y-97894851D01*
X168511561Y-97900082D01*
X168506092Y-97906168D01*
X168501504Y-97914070D01*
X168497717Y-97924746D01*
X168494656Y-97939158D01*
X168492244Y-97958264D01*
X168490402Y-97983025D01*
X168489055Y-98014400D01*
X168488125Y-98053349D01*
X168487535Y-98100832D01*
X168487208Y-98157809D01*
X168487067Y-98225239D01*
X168487035Y-98304082D01*
X168487036Y-98367976D01*
X168487056Y-98452912D01*
X168487131Y-98525770D01*
X168487289Y-98587534D01*
X168487554Y-98639185D01*
X168487952Y-98681705D01*
X168488509Y-98716078D01*
X168489250Y-98743284D01*
X168490202Y-98764306D01*
X168491390Y-98780127D01*
X168492839Y-98791728D01*
X168494576Y-98800092D01*
X168496625Y-98806201D01*
X168498599Y-98810293D01*
X168502430Y-98817797D01*
X168505748Y-98824398D01*
X168509365Y-98830160D01*
X168514093Y-98835143D01*
X168520744Y-98839410D01*
X168530130Y-98843023D01*
X168543063Y-98846043D01*
X168560355Y-98848533D01*
X168582818Y-98850554D01*
X168611264Y-98852169D01*
X168646505Y-98853438D01*
X168689353Y-98854425D01*
X168740620Y-98855191D01*
X168801118Y-98855798D01*
X168871659Y-98856308D01*
X168953054Y-98856783D01*
X169046117Y-98857285D01*
X169120113Y-98857694D01*
X169695005Y-98860958D01*
X169696812Y-98957269D01*
X169698619Y-99053580D01*
X169115681Y-99052925D01*
X169027068Y-99052759D01*
X168942291Y-99052473D01*
X168862288Y-99052077D01*
X168787999Y-99051580D01*
X168720364Y-99050993D01*
X168660322Y-99050326D01*
X168608813Y-99049589D01*
X168566776Y-99048793D01*
X168535151Y-99047947D01*
X168514878Y-99047063D01*
X168507393Y-99046318D01*
X168463584Y-99030473D01*
X168419549Y-99004666D01*
X168378623Y-98971500D01*
X168344144Y-98933576D01*
X168324660Y-98903829D01*
X168317668Y-98890571D01*
X168311628Y-98877647D01*
X168306471Y-98864032D01*
X168302127Y-98848704D01*
X168298525Y-98830640D01*
X168295597Y-98808816D01*
X168293271Y-98782211D01*
X168291479Y-98749799D01*
X168290149Y-98710559D01*
X168289213Y-98663468D01*
X168288600Y-98607501D01*
X168288240Y-98541636D01*
X168288063Y-98464851D01*
X168288000Y-98376121D01*
X168287998Y-98367543D01*
X168288093Y-98267586D01*
X168288435Y-98179572D01*
X168289021Y-98103665D01*
X168289848Y-98040032D01*
X168290915Y-97988839D01*
X168292217Y-97950250D01*
X168293754Y-97924432D01*
X168295023Y-97913739D01*
X168311640Y-97857702D01*
X168339120Y-97806406D01*
X168375889Y-97761479D01*
X168420373Y-97724551D01*
X168470997Y-97697251D01*
X168518251Y-97682714D01*
X168531442Y-97681283D01*
X168556230Y-97680062D01*
X168592788Y-97679050D01*
X168641293Y-97678246D01*
X168701921Y-97677648D01*
X168774846Y-97677254D01*
X168860244Y-97677063D01*
X168958290Y-97677073D01*
G37*
G36*
X165788632Y-97694245D02*
G01*
X165842833Y-97722995D01*
X165890353Y-97762050D01*
X165929377Y-97809595D01*
X165958017Y-97863630D01*
X165973154Y-97901113D01*
X165975158Y-98341858D01*
X165975522Y-98440566D01*
X165975651Y-98526735D01*
X165975541Y-98600881D01*
X165975185Y-98663522D01*
X165974578Y-98715175D01*
X165973713Y-98756358D01*
X165972585Y-98787588D01*
X165971187Y-98809382D01*
X165969663Y-98821520D01*
X165952615Y-98876902D01*
X165924584Y-98927655D01*
X165887211Y-98972069D01*
X165842137Y-99008432D01*
X165791005Y-99035032D01*
X165753665Y-99046660D01*
X165741087Y-99048011D01*
X165716026Y-99049225D01*
X165679057Y-99050295D01*
X165630755Y-99051212D01*
X165571696Y-99051970D01*
X165502454Y-99052560D01*
X165423605Y-99052974D01*
X165335724Y-99053204D01*
X165267961Y-99053252D01*
X164810892Y-99053243D01*
X164767511Y-99038457D01*
X164711026Y-99012737D01*
X164662900Y-98976998D01*
X164623309Y-98931397D01*
X164596491Y-98884985D01*
X164575828Y-98841370D01*
X164575828Y-98367976D01*
X164575828Y-98110207D01*
X164769322Y-98110207D01*
X164769354Y-98164999D01*
X164769514Y-98230169D01*
X164769777Y-98306692D01*
X164770029Y-98372447D01*
X164771715Y-98804605D01*
X164791303Y-98825298D01*
X164806618Y-98839589D01*
X164820752Y-98849814D01*
X164823951Y-98851429D01*
X164832569Y-98852360D01*
X164853135Y-98853253D01*
X164884538Y-98854093D01*
X164925667Y-98854864D01*
X164975412Y-98855554D01*
X165032662Y-98856147D01*
X165096305Y-98856630D01*
X165165231Y-98856987D01*
X165238330Y-98857205D01*
X165274491Y-98857255D01*
X165360831Y-98857321D01*
X165435077Y-98857335D01*
X165498196Y-98857272D01*
X165551153Y-98857105D01*
X165594915Y-98856808D01*
X165630446Y-98856356D01*
X165658713Y-98855723D01*
X165680681Y-98854882D01*
X165697316Y-98853807D01*
X165709584Y-98852472D01*
X165718451Y-98850852D01*
X165724883Y-98848920D01*
X165729845Y-98846650D01*
X165732876Y-98844899D01*
X165740820Y-98840140D01*
X165747671Y-98835621D01*
X165753508Y-98830395D01*
X165758414Y-98823514D01*
X165762469Y-98814033D01*
X165765753Y-98801005D01*
X165768348Y-98783483D01*
X165770334Y-98760520D01*
X165771792Y-98731171D01*
X165772803Y-98694487D01*
X165773447Y-98649523D01*
X165773806Y-98595332D01*
X165773961Y-98530968D01*
X165773991Y-98455483D01*
X165773978Y-98367931D01*
X165773978Y-98363403D01*
X165773959Y-98277797D01*
X165773894Y-98204277D01*
X165773756Y-98141871D01*
X165773519Y-98089606D01*
X165773157Y-98046510D01*
X165772643Y-98011610D01*
X165771950Y-97983934D01*
X165771051Y-97962509D01*
X165769921Y-97946361D01*
X165768533Y-97934520D01*
X165766859Y-97926012D01*
X165764873Y-97919864D01*
X165762550Y-97915105D01*
X165761690Y-97913649D01*
X165756832Y-97905629D01*
X165752112Y-97898703D01*
X165746592Y-97892790D01*
X165739334Y-97887810D01*
X165729399Y-97883684D01*
X165715849Y-97880331D01*
X165697745Y-97877671D01*
X165674150Y-97875624D01*
X165644125Y-97874111D01*
X165606732Y-97873051D01*
X165561032Y-97872365D01*
X165506086Y-97871972D01*
X165440958Y-97871793D01*
X165364708Y-97871746D01*
X165276398Y-97871754D01*
X165270239Y-97871754D01*
X165184376Y-97871769D01*
X165110600Y-97871824D01*
X165047939Y-97871945D01*
X164995421Y-97872161D01*
X164952074Y-97872499D01*
X164916927Y-97872988D01*
X164889007Y-97873654D01*
X164867343Y-97874526D01*
X164850962Y-97875632D01*
X164838893Y-97876999D01*
X164830164Y-97878656D01*
X164823802Y-97880629D01*
X164818835Y-97882948D01*
X164815730Y-97884753D01*
X164797262Y-97899775D01*
X164781863Y-97918261D01*
X164781396Y-97919009D01*
X164778809Y-97923542D01*
X164776593Y-97928722D01*
X164774725Y-97935520D01*
X164773179Y-97944911D01*
X164771933Y-97957868D01*
X164770960Y-97975365D01*
X164770237Y-97998373D01*
X164769739Y-98027868D01*
X164769443Y-98064821D01*
X164769322Y-98110207D01*
X164575828Y-98110207D01*
X164575828Y-97894583D01*
X164590473Y-97858670D01*
X164618573Y-97806410D01*
X164656983Y-97759981D01*
X164703457Y-97721631D01*
X164755391Y-97693752D01*
X164791303Y-97679107D01*
X165271226Y-97679107D01*
X165751149Y-97679107D01*
X165788632Y-97694245D01*
G37*
G36*
X164886455Y-91033983D02*
G01*
X164926489Y-91050728D01*
X164961844Y-91075851D01*
X164990851Y-91108549D01*
X165011840Y-91148017D01*
X165023139Y-91193452D01*
X165024629Y-91216881D01*
X165019024Y-91267814D01*
X165002020Y-91313373D01*
X164974336Y-91352333D01*
X164936690Y-91383468D01*
X164922077Y-91391883D01*
X164886013Y-91410727D01*
X164885998Y-91813928D01*
X164885982Y-92217128D01*
X164924450Y-92217128D01*
X164946038Y-92216782D01*
X164958485Y-92214425D01*
X164965708Y-92208077D01*
X164971625Y-92195758D01*
X164972899Y-92192642D01*
X164981802Y-92173412D01*
X164990852Y-92157642D01*
X164992237Y-92155689D01*
X164996162Y-92148580D01*
X164996163Y-92148568D01*
X165315963Y-92148568D01*
X165330030Y-92180073D01*
X165344791Y-92227733D01*
X165347062Y-92277140D01*
X165336824Y-92329045D01*
X165325903Y-92358818D01*
X165329363Y-92366351D01*
X165343383Y-92376634D01*
X165365954Y-92388868D01*
X165395068Y-92402253D01*
X165428719Y-92415990D01*
X165464898Y-92429279D01*
X165501596Y-92441320D01*
X165536807Y-92451313D01*
X165568523Y-92458459D01*
X165581380Y-92460570D01*
X165616992Y-92463520D01*
X165660121Y-92464094D01*
X165705473Y-92462429D01*
X165747751Y-92458665D01*
X165768250Y-92455668D01*
X165856758Y-92433784D01*
X165939641Y-92400488D01*
X166016042Y-92356477D01*
X166085104Y-92302450D01*
X166145971Y-92239108D01*
X166197786Y-92167148D01*
X166239693Y-92087270D01*
X166249968Y-92062475D01*
X166263195Y-92028619D01*
X166231044Y-92005521D01*
X166201803Y-91978421D01*
X166177379Y-91944235D01*
X166160624Y-91907465D01*
X166155458Y-91886167D01*
X166151350Y-91858771D01*
X166115013Y-91854231D01*
X166087357Y-91852293D01*
X166050160Y-91851805D01*
X166006838Y-91852603D01*
X165960807Y-91854524D01*
X165915486Y-91857404D01*
X165874291Y-91861079D01*
X165840639Y-91865388D01*
X165826239Y-91868042D01*
X165721421Y-91896503D01*
X165621613Y-91934655D01*
X165528384Y-91981704D01*
X165443304Y-92036854D01*
X165367945Y-92099311D01*
X165366030Y-92101119D01*
X165315963Y-92148568D01*
X164996163Y-92148568D01*
X164997015Y-92139551D01*
X164994341Y-92125835D01*
X164987682Y-92104669D01*
X164980375Y-92083851D01*
X164954256Y-91991891D01*
X164940661Y-91898512D01*
X164939827Y-91840321D01*
X165042777Y-91840321D01*
X165044167Y-91882333D01*
X165048128Y-91924535D01*
X165054200Y-91965004D01*
X165061920Y-92001818D01*
X165070828Y-92033056D01*
X165080461Y-92056794D01*
X165090359Y-92071111D01*
X165098973Y-92074381D01*
X165118699Y-92072162D01*
X165143968Y-92071399D01*
X165170606Y-92071960D01*
X165194439Y-92073712D01*
X165211293Y-92076522D01*
X165215490Y-92078097D01*
X165223140Y-92080592D01*
X165231947Y-92078206D01*
X165244397Y-92069546D01*
X165262980Y-92053218D01*
X165267727Y-92048839D01*
X165292604Y-92026559D01*
X165322048Y-92001309D01*
X165350251Y-91978056D01*
X165353962Y-91975090D01*
X165444979Y-91910891D01*
X165543920Y-91856370D01*
X165561764Y-91848882D01*
X166242427Y-91848882D01*
X166247526Y-91880608D01*
X166263059Y-91911022D01*
X166278570Y-91928531D01*
X166307502Y-91947502D01*
X166340611Y-91954162D01*
X166375712Y-91949250D01*
X166401301Y-91936341D01*
X166424646Y-91914494D01*
X166442182Y-91887763D01*
X166449715Y-91865107D01*
X166451153Y-91844181D01*
X166446627Y-91824433D01*
X166438990Y-91807225D01*
X166417955Y-91775958D01*
X166391219Y-91756260D01*
X166357891Y-91747556D01*
X166345339Y-91747000D01*
X166310313Y-91752531D01*
X166281706Y-91767668D01*
X166260320Y-91790229D01*
X166246959Y-91818028D01*
X166242427Y-91848882D01*
X165561764Y-91848882D01*
X165649304Y-91812146D01*
X165759650Y-91778836D01*
X165873478Y-91757057D01*
X165877977Y-91756449D01*
X165923886Y-91751828D01*
X165976212Y-91748976D01*
X166030354Y-91747962D01*
X166081712Y-91748857D01*
X166125686Y-91751731D01*
X166133129Y-91752542D01*
X166169041Y-91756794D01*
X166203740Y-91719556D01*
X166222100Y-91701105D01*
X166238776Y-91686516D01*
X166250564Y-91678556D01*
X166251765Y-91678089D01*
X166259480Y-91672895D01*
X166262094Y-91662858D01*
X166259258Y-91646633D01*
X166250624Y-91622873D01*
X166235842Y-91590232D01*
X166221413Y-91560907D01*
X166175024Y-91482438D01*
X166119351Y-91412938D01*
X166054842Y-91352854D01*
X165981942Y-91302630D01*
X165940506Y-91280382D01*
X165893661Y-91258930D01*
X165850975Y-91243131D01*
X165808910Y-91232231D01*
X165763925Y-91225478D01*
X165712480Y-91222119D01*
X165663000Y-91221370D01*
X165620212Y-91221607D01*
X165587467Y-91222506D01*
X165561752Y-91224349D01*
X165540057Y-91227420D01*
X165519369Y-91231999D01*
X165503711Y-91236301D01*
X165417318Y-91267696D01*
X165338219Y-91309281D01*
X165267063Y-91360204D01*
X165204501Y-91419613D01*
X165151181Y-91486658D01*
X165107754Y-91560488D01*
X165074870Y-91640250D01*
X165053177Y-91725093D01*
X165043326Y-91814167D01*
X165042777Y-91840321D01*
X164939827Y-91840321D01*
X164939320Y-91804909D01*
X164949963Y-91712280D01*
X164972320Y-91621820D01*
X165006120Y-91534726D01*
X165051094Y-91452193D01*
X165106971Y-91375418D01*
X165151377Y-91326791D01*
X165224954Y-91262069D01*
X165304551Y-91208896D01*
X165389791Y-91167437D01*
X165480297Y-91137855D01*
X165575692Y-91120314D01*
X165636882Y-91115566D01*
X165735961Y-91117757D01*
X165830659Y-91132237D01*
X165921181Y-91159070D01*
X166007734Y-91198320D01*
X166090525Y-91250049D01*
X166101292Y-91257893D01*
X166158242Y-91306059D01*
X166212190Y-91363077D01*
X166261287Y-91426311D01*
X166303684Y-91493126D01*
X166337532Y-91560888D01*
X166360984Y-91626961D01*
X166361471Y-91628754D01*
X166367946Y-91646373D01*
X166377463Y-91655350D01*
X166389533Y-91659155D01*
X166433033Y-91674875D01*
X166471198Y-91700946D01*
X166502305Y-91735247D01*
X166524634Y-91775663D01*
X166536462Y-91820074D01*
X166537904Y-91841678D01*
X166537975Y-91880856D01*
X166570378Y-91899055D01*
X166610303Y-91923995D01*
X166655315Y-91956349D01*
X166702094Y-91993539D01*
X166747323Y-92032984D01*
X166768846Y-92053259D01*
X166850458Y-92141152D01*
X166920619Y-92235305D01*
X166979269Y-92335591D01*
X167026347Y-92441882D01*
X167061793Y-92554051D01*
X167085546Y-92671971D01*
X167093388Y-92736918D01*
X167097222Y-92841061D01*
X167089938Y-92948409D01*
X167072024Y-93056178D01*
X167043968Y-93161585D01*
X167006256Y-93261844D01*
X166998461Y-93279171D01*
X166974867Y-93330238D01*
X166992978Y-93366033D01*
X167007209Y-93405759D01*
X167013988Y-93450896D01*
X167012769Y-93495768D01*
X167007891Y-93520487D01*
X167003456Y-93538266D01*
X167003819Y-93549918D01*
X167010455Y-93560866D01*
X167022469Y-93574024D01*
X167091128Y-93655233D01*
X167153240Y-93746158D01*
X167207839Y-93844707D01*
X167253957Y-93948789D01*
X167290628Y-94056314D01*
X167316886Y-94165191D01*
X167327777Y-94234592D01*
X167333377Y-94302426D01*
X167334840Y-94377166D01*
X167332382Y-94454844D01*
X167326220Y-94531494D01*
X167316568Y-94603149D01*
X167304495Y-94662449D01*
X167268180Y-94782782D01*
X167220546Y-94897636D01*
X167162123Y-95006207D01*
X167093443Y-95107691D01*
X167015034Y-95201284D01*
X166927427Y-95286183D01*
X166854645Y-95344674D01*
X166757930Y-95409717D01*
X166658067Y-95464521D01*
X166557394Y-95507823D01*
X166544291Y-95512569D01*
X166519173Y-95521705D01*
X166503563Y-95528790D01*
X166494638Y-95536084D01*
X166489579Y-95545849D01*
X166485793Y-95559434D01*
X166467144Y-95608479D01*
X166438099Y-95649742D01*
X166399175Y-95682610D01*
X166366712Y-95700127D01*
X166351102Y-95707398D01*
X166340591Y-95714562D01*
X166332974Y-95724665D01*
X166326043Y-95740753D01*
X166317592Y-95765870D01*
X166316388Y-95769581D01*
X166281033Y-95858657D01*
X166234957Y-95940388D01*
X166177749Y-96015446D01*
X166143252Y-96052275D01*
X166070504Y-96115946D01*
X165990925Y-96168495D01*
X165904460Y-96209951D01*
X165825542Y-96236482D01*
X165762958Y-96249551D01*
X165693381Y-96256830D01*
X165621594Y-96258171D01*
X165552381Y-96253431D01*
X165506796Y-96246164D01*
X165417167Y-96222381D01*
X165335640Y-96189309D01*
X165260167Y-96145875D01*
X165188696Y-96091001D01*
X165158618Y-96063559D01*
X165092119Y-95991889D01*
X165037792Y-95915555D01*
X164995505Y-95834265D01*
X164965126Y-95747727D01*
X164946521Y-95655649D01*
X164940229Y-95583118D01*
X164940280Y-95536717D01*
X165043781Y-95536717D01*
X165044864Y-95584120D01*
X165048044Y-95631200D01*
X165053133Y-95673586D01*
X165059142Y-95703915D01*
X165071335Y-95741585D01*
X165089305Y-95785299D01*
X165110937Y-95830698D01*
X165134116Y-95873421D01*
X165156729Y-95909108D01*
X165162470Y-95916980D01*
X165218225Y-95980299D01*
X165282892Y-96035777D01*
X165354478Y-96082139D01*
X165430994Y-96118108D01*
X165510449Y-96142408D01*
X165516085Y-96143643D01*
X165566670Y-96151119D01*
X165624314Y-96154237D01*
X165684082Y-96153084D01*
X165741037Y-96147745D01*
X165787932Y-96138902D01*
X165867859Y-96113631D01*
X165939342Y-96079967D01*
X166004821Y-96036478D01*
X166066736Y-95981728D01*
X166081803Y-95966263D01*
X166137128Y-95899781D01*
X166180734Y-95828952D01*
X166212561Y-95755278D01*
X166230709Y-95703995D01*
X166206111Y-95691446D01*
X166185602Y-95677673D01*
X166162541Y-95657279D01*
X166140784Y-95634180D01*
X166124186Y-95612292D01*
X166118995Y-95602955D01*
X166115136Y-95595965D01*
X166109511Y-95590792D01*
X166100018Y-95586913D01*
X166084552Y-95583807D01*
X166061008Y-95580950D01*
X166027284Y-95577822D01*
X166012662Y-95576564D01*
X165902433Y-95560864D01*
X165791928Y-95532910D01*
X165767237Y-95523975D01*
X166193114Y-95523975D01*
X166193505Y-95529022D01*
X166197998Y-95552133D01*
X166205694Y-95572638D01*
X166209321Y-95578707D01*
X166225690Y-95594573D01*
X166248925Y-95609527D01*
X166273844Y-95620780D01*
X166295263Y-95625542D01*
X166296368Y-95625560D01*
X166312215Y-95622632D01*
X166332899Y-95615228D01*
X166342297Y-95610868D01*
X166371660Y-95589673D01*
X166390781Y-95562329D01*
X166399391Y-95531120D01*
X166397219Y-95498329D01*
X166383997Y-95466237D01*
X166362474Y-95439885D01*
X166347526Y-95428155D01*
X166330974Y-95421590D01*
X166307530Y-95418239D01*
X166302791Y-95417870D01*
X166278528Y-95417034D01*
X166261457Y-95419633D01*
X166245904Y-95426877D01*
X166238509Y-95431562D01*
X166211989Y-95456219D01*
X166196740Y-95487276D01*
X166193114Y-95523975D01*
X165767237Y-95523975D01*
X165682693Y-95493381D01*
X165576273Y-95442955D01*
X165474213Y-95382310D01*
X165378060Y-95312123D01*
X165343051Y-95282795D01*
X165320085Y-95263209D01*
X165304146Y-95251093D01*
X165292681Y-95245045D01*
X165283136Y-95243662D01*
X165274491Y-95245141D01*
X165257286Y-95247466D01*
X165231216Y-95248653D01*
X165200427Y-95248686D01*
X165169065Y-95247550D01*
X165144628Y-95245610D01*
X165134322Y-95245563D01*
X165126282Y-95249646D01*
X165118124Y-95260247D01*
X165107465Y-95279752D01*
X165104270Y-95286023D01*
X165074269Y-95357594D01*
X165052930Y-95435698D01*
X165048651Y-95458417D01*
X165044981Y-95493359D01*
X165043781Y-95536717D01*
X164940280Y-95536717D01*
X164940316Y-95504156D01*
X164947998Y-95431576D01*
X164964073Y-95361713D01*
X164989340Y-95290900D01*
X165017023Y-95230467D01*
X165031150Y-95201530D01*
X165039973Y-95181561D01*
X165044248Y-95167961D01*
X165044351Y-95165856D01*
X165380714Y-95165856D01*
X165382232Y-95175465D01*
X165389541Y-95186171D01*
X165403824Y-95199985D01*
X165426261Y-95218917D01*
X165444260Y-95233678D01*
X165538840Y-95302794D01*
X165640638Y-95361473D01*
X165748332Y-95409158D01*
X165860599Y-95445290D01*
X165976116Y-95469313D01*
X166015596Y-95474588D01*
X166052152Y-95478555D01*
X166077658Y-95480606D01*
X166093992Y-95480684D01*
X166103029Y-95478735D01*
X166106647Y-95474704D01*
X166107010Y-95471898D01*
X166111923Y-95451312D01*
X166125175Y-95426088D01*
X166144534Y-95399258D01*
X166167769Y-95373854D01*
X166192649Y-95352907D01*
X166196565Y-95350217D01*
X166211029Y-95340612D01*
X166191392Y-95299090D01*
X166150524Y-95226877D01*
X166099330Y-95159840D01*
X166039679Y-95099833D01*
X165973439Y-95048713D01*
X165902479Y-95008333D01*
X165895011Y-95004873D01*
X165846071Y-94984801D01*
X165799291Y-94970625D01*
X165750282Y-94961373D01*
X165694656Y-94956073D01*
X165668944Y-94954818D01*
X165598608Y-94954674D01*
X165536801Y-94960367D01*
X165480155Y-94972350D01*
X165438738Y-94985846D01*
X165405082Y-94998439D01*
X165404987Y-95055714D01*
X165404188Y-95087533D01*
X165401424Y-95110666D01*
X165395961Y-95129429D01*
X165390330Y-95141896D01*
X165383807Y-95155337D01*
X165380714Y-95165856D01*
X165044351Y-95165856D01*
X165044730Y-95158129D01*
X165042173Y-95149465D01*
X165041190Y-95147266D01*
X165032897Y-95129415D01*
X164959440Y-95129364D01*
X164885982Y-95129313D01*
X164885982Y-95545893D01*
X164885982Y-95962474D01*
X164908090Y-95970468D01*
X164935523Y-95985331D01*
X164963738Y-96008862D01*
X164989024Y-96037469D01*
X165007034Y-96066243D01*
X165017929Y-96092771D01*
X165023286Y-96119082D01*
X165024629Y-96146701D01*
X165019048Y-96196234D01*
X165002641Y-96240327D01*
X164976885Y-96277915D01*
X164943256Y-96307935D01*
X164903233Y-96329324D01*
X164858294Y-96341017D01*
X164809914Y-96341951D01*
X164765801Y-96333069D01*
X164735004Y-96318232D01*
X164704128Y-96294176D01*
X164676522Y-96264283D01*
X164655532Y-96231936D01*
X164647884Y-96213915D01*
X164638310Y-96165850D01*
X164638654Y-96158604D01*
X164729292Y-96158604D01*
X164735169Y-96188520D01*
X164750021Y-96215365D01*
X164774287Y-96236785D01*
X164782666Y-96241409D01*
X164813826Y-96250844D01*
X164847088Y-96251260D01*
X164877397Y-96242838D01*
X164886649Y-96237654D01*
X164909713Y-96216091D01*
X164926577Y-96188138D01*
X164935119Y-96158149D01*
X164935033Y-96138432D01*
X164924088Y-96104198D01*
X164903930Y-96076087D01*
X164876851Y-96055940D01*
X164845141Y-96045593D01*
X164819171Y-96045439D01*
X164786756Y-96055363D01*
X164761122Y-96073997D01*
X164742708Y-96098986D01*
X164731952Y-96127974D01*
X164729292Y-96158604D01*
X164638654Y-96158604D01*
X164640576Y-96118085D01*
X164653818Y-96072727D01*
X164677173Y-96031881D01*
X164709777Y-95997656D01*
X164746043Y-95974387D01*
X164781509Y-95957035D01*
X164781509Y-95543174D01*
X164781509Y-95129313D01*
X164709892Y-95129313D01*
X164678529Y-95129413D01*
X164657650Y-95130092D01*
X164644679Y-95131916D01*
X164637041Y-95135453D01*
X164632161Y-95141270D01*
X164628932Y-95147146D01*
X164624701Y-95156862D01*
X164624101Y-95166165D01*
X164627949Y-95178349D01*
X164637063Y-95196710D01*
X164644710Y-95210809D01*
X164666605Y-95256602D01*
X164687226Y-95310399D01*
X164704932Y-95367148D01*
X164718082Y-95421799D01*
X164723243Y-95452526D01*
X164727318Y-95501564D01*
X164727894Y-95556402D01*
X164725195Y-95612422D01*
X164719448Y-95665008D01*
X164710881Y-95709543D01*
X164710598Y-95710645D01*
X164685871Y-95791602D01*
X164655274Y-95863291D01*
X164617036Y-95928798D01*
X164569382Y-95991209D01*
X164517550Y-96046717D01*
X164452443Y-96105573D01*
X164386600Y-96152922D01*
X164317400Y-96190182D01*
X164242224Y-96218767D01*
X164160695Y-96239635D01*
X164107875Y-96247473D01*
X164048370Y-96251194D01*
X163986512Y-96250878D01*
X163926639Y-96246609D01*
X163873083Y-96238467D01*
X163853166Y-96233821D01*
X163760929Y-96202937D01*
X163675156Y-96161258D01*
X163596629Y-96109516D01*
X163526127Y-96048443D01*
X163464434Y-95978773D01*
X163412331Y-95901236D01*
X163370599Y-95816567D01*
X163351051Y-95763230D01*
X163333349Y-95708277D01*
X163309847Y-95697608D01*
X163436637Y-95697608D01*
X163456155Y-95751087D01*
X163492040Y-95830799D01*
X163538604Y-95903899D01*
X163594754Y-95969428D01*
X163659396Y-96026430D01*
X163731439Y-96073944D01*
X163809789Y-96111014D01*
X163893352Y-96136681D01*
X163896855Y-96137471D01*
X163932368Y-96142862D01*
X163976376Y-96145743D01*
X164025114Y-96146226D01*
X164074816Y-96144420D01*
X164121718Y-96140435D01*
X164162055Y-96134382D01*
X164184054Y-96129069D01*
X164222187Y-96115735D01*
X164264812Y-96097865D01*
X164307334Y-96077611D01*
X164345155Y-96057126D01*
X164366813Y-96043499D01*
X164430996Y-95991660D01*
X164488091Y-95930035D01*
X164536915Y-95860489D01*
X164576279Y-95784884D01*
X164604999Y-95705086D01*
X164617937Y-95648847D01*
X164622157Y-95613504D01*
X164624275Y-95570411D01*
X164624291Y-95524709D01*
X164622206Y-95481536D01*
X164618019Y-95446032D01*
X164617937Y-95445564D01*
X164601706Y-95378830D01*
X164577288Y-95311498D01*
X164562111Y-95278541D01*
X164540436Y-95235146D01*
X164515690Y-95243974D01*
X164484696Y-95250735D01*
X164448343Y-95252381D01*
X164413227Y-95248908D01*
X164394605Y-95244054D01*
X164370091Y-95235306D01*
X164332256Y-95269066D01*
X164239672Y-95343773D01*
X164140300Y-95409187D01*
X164035658Y-95464632D01*
X163927263Y-95509434D01*
X163816633Y-95542918D01*
X163705288Y-95564410D01*
X163654829Y-95570034D01*
X163616818Y-95573351D01*
X163589644Y-95576216D01*
X163571130Y-95579303D01*
X163559102Y-95583286D01*
X163551386Y-95588839D01*
X163545806Y-95596634D01*
X163541288Y-95605196D01*
X163524671Y-95629507D01*
X163500622Y-95654830D01*
X163473618Y-95676825D01*
X163456507Y-95687333D01*
X163436637Y-95697608D01*
X163309847Y-95697608D01*
X163295103Y-95690915D01*
X163258388Y-95668814D01*
X163225671Y-95638938D01*
X163199996Y-95604592D01*
X163185095Y-95571504D01*
X163179500Y-95551360D01*
X163175928Y-95535996D01*
X163175237Y-95530981D01*
X163169480Y-95525567D01*
X163154296Y-95518072D01*
X163132811Y-95510008D01*
X163129898Y-95509055D01*
X163097063Y-95496861D01*
X163268187Y-95496861D01*
X163268260Y-95529384D01*
X163278060Y-95558764D01*
X163295921Y-95583479D01*
X163320177Y-95602004D01*
X163349164Y-95612816D01*
X163381213Y-95614392D01*
X163414661Y-95605208D01*
X163427794Y-95598339D01*
X163446390Y-95581322D01*
X163462391Y-95556490D01*
X163472954Y-95529084D01*
X163475596Y-95510258D01*
X163472502Y-95492368D01*
X163464716Y-95470640D01*
X163460742Y-95462403D01*
X163440058Y-95435648D01*
X163412998Y-95418155D01*
X163382258Y-95409917D01*
X163350531Y-95410932D01*
X163320513Y-95421193D01*
X163294898Y-95440697D01*
X163279507Y-95462719D01*
X163268187Y-95496861D01*
X163097063Y-95496861D01*
X163094683Y-95495977D01*
X163051970Y-95477414D01*
X163005166Y-95455061D01*
X162957679Y-95430619D01*
X162912917Y-95405784D01*
X162874286Y-95382255D01*
X162870563Y-95379824D01*
X162770829Y-95306570D01*
X162680467Y-95224781D01*
X162599774Y-95135308D01*
X162529044Y-95039003D01*
X162468571Y-94936718D01*
X162418650Y-94829305D01*
X162379575Y-94717615D01*
X162351643Y-94602500D01*
X162335147Y-94484812D01*
X162330949Y-94379608D01*
X162434052Y-94379608D01*
X162440640Y-94496891D01*
X162459657Y-94612891D01*
X162491036Y-94726549D01*
X162534709Y-94836806D01*
X162542086Y-94852507D01*
X162598026Y-94954245D01*
X162664791Y-95049533D01*
X162741371Y-95137436D01*
X162826755Y-95217023D01*
X162919932Y-95287359D01*
X163019892Y-95347513D01*
X163125624Y-95396551D01*
X163135818Y-95400553D01*
X163191549Y-95422100D01*
X163223262Y-95386519D01*
X163242192Y-95366999D01*
X163261073Y-95350318D01*
X163275504Y-95340278D01*
X163290952Y-95333632D01*
X163456675Y-95333632D01*
X163481061Y-95351298D01*
X163518103Y-95384686D01*
X163543851Y-95423455D01*
X163552071Y-95443071D01*
X163563563Y-95475428D01*
X163606096Y-95471612D01*
X163632659Y-95468731D01*
X163666096Y-95464404D01*
X163700417Y-95459424D01*
X163710661Y-95457812D01*
X163824488Y-95432933D01*
X163935153Y-95395669D01*
X164041574Y-95346527D01*
X164142668Y-95286014D01*
X164237353Y-95214638D01*
X164246983Y-95206445D01*
X164291064Y-95168505D01*
X164276736Y-95137483D01*
X164269065Y-95117656D01*
X164264701Y-95096572D01*
X164262929Y-95069704D01*
X164262881Y-95061419D01*
X164350568Y-95061419D01*
X164356368Y-95093128D01*
X164372133Y-95120412D01*
X164395375Y-95141910D01*
X164423607Y-95156259D01*
X164454338Y-95162096D01*
X164485082Y-95158058D01*
X164507334Y-95147269D01*
X164533787Y-95125319D01*
X164549262Y-95101446D01*
X164555731Y-95072055D01*
X164556239Y-95058133D01*
X164554694Y-95047320D01*
X165111314Y-95047320D01*
X165112088Y-95079626D01*
X165122618Y-95108785D01*
X165141253Y-95133175D01*
X165166343Y-95151172D01*
X165196236Y-95161154D01*
X165229282Y-95161497D01*
X165262206Y-95151362D01*
X165289399Y-95131577D01*
X165307561Y-95102963D01*
X165315531Y-95069788D01*
X165314371Y-95034109D01*
X165302550Y-95004521D01*
X165280491Y-94979545D01*
X165251054Y-94961538D01*
X165218839Y-94954835D01*
X165186506Y-94958865D01*
X165156716Y-94973059D01*
X165132130Y-94996847D01*
X165121949Y-95013490D01*
X165111314Y-95047320D01*
X164554694Y-95047320D01*
X164550986Y-95021373D01*
X164535159Y-94992265D01*
X164508656Y-94970660D01*
X164491337Y-94962613D01*
X164456698Y-94955623D01*
X164423667Y-94960173D01*
X164394392Y-94974756D01*
X164371022Y-94997862D01*
X164355704Y-95027985D01*
X164350568Y-95061419D01*
X164262881Y-95061419D01*
X164262810Y-95049335D01*
X164263211Y-94992209D01*
X164229559Y-94979619D01*
X164165877Y-94961137D01*
X164095240Y-94949867D01*
X164021714Y-94946012D01*
X163949365Y-94949775D01*
X163882259Y-94961363D01*
X163879559Y-94962038D01*
X163794329Y-94990173D01*
X163715482Y-95029406D01*
X163643838Y-95079064D01*
X163580217Y-95138473D01*
X163525441Y-95206958D01*
X163480329Y-95283847D01*
X163475435Y-95293963D01*
X163456675Y-95333632D01*
X163290952Y-95333632D01*
X163295357Y-95331737D01*
X163319085Y-95323806D01*
X163324928Y-95322210D01*
X163339872Y-95317749D01*
X163350147Y-95311719D01*
X163358447Y-95301168D01*
X163367462Y-95283146D01*
X163373900Y-95268521D01*
X163417275Y-95184394D01*
X163470782Y-95107570D01*
X163533383Y-95038849D01*
X163604041Y-94979031D01*
X163681719Y-94928916D01*
X163765377Y-94889302D01*
X163853980Y-94860991D01*
X163919077Y-94848225D01*
X163989699Y-94842284D01*
X164064934Y-94843743D01*
X164140896Y-94852131D01*
X164213697Y-94866974D01*
X164279450Y-94887802D01*
X164294120Y-94893798D01*
X164325832Y-94907441D01*
X164368934Y-94886222D01*
X164393710Y-94874878D01*
X164413953Y-94868565D01*
X164435646Y-94865971D01*
X164462392Y-94865747D01*
X164512749Y-94866492D01*
X164530726Y-94826502D01*
X164553028Y-94771453D01*
X164574376Y-94708712D01*
X164593089Y-94643621D01*
X164606779Y-94585032D01*
X164611928Y-94557931D01*
X164615731Y-94532821D01*
X164618373Y-94506958D01*
X164620039Y-94477597D01*
X164620915Y-94441993D01*
X164621186Y-94397402D01*
X164621155Y-94371884D01*
X164620829Y-94321680D01*
X164620029Y-94281891D01*
X164618568Y-94249875D01*
X164616257Y-94222991D01*
X164612910Y-94198598D01*
X164608337Y-94174054D01*
X164606454Y-94165129D01*
X164573938Y-94044678D01*
X164529549Y-93929249D01*
X164473593Y-93819615D01*
X164463616Y-93802712D01*
X164448995Y-93778938D01*
X164438871Y-93764614D01*
X164431272Y-93757846D01*
X164424227Y-93756739D01*
X164417716Y-93758638D01*
X164403095Y-93761743D01*
X164380561Y-93763910D01*
X164357582Y-93764634D01*
X164327946Y-93763239D01*
X164303951Y-93757934D01*
X164278372Y-93747043D01*
X164275427Y-93745571D01*
X164237633Y-93726507D01*
X164213618Y-93741667D01*
X164187263Y-93756947D01*
X164152771Y-93775045D01*
X164114165Y-93794009D01*
X164075466Y-93811892D01*
X164040697Y-93826743D01*
X164027344Y-93831940D01*
X163916651Y-93866405D01*
X163803182Y-93888672D01*
X163688204Y-93898806D01*
X163572985Y-93896872D01*
X163458792Y-93882937D01*
X163346892Y-93857066D01*
X163238554Y-93819324D01*
X163168678Y-93787473D01*
X163136741Y-93770147D01*
X163098861Y-93747601D01*
X163058437Y-93722047D01*
X163018871Y-93695702D01*
X162983563Y-93670778D01*
X162955913Y-93649489D01*
X162952936Y-93647001D01*
X162929788Y-93627395D01*
X162898402Y-93638089D01*
X162862631Y-93645140D01*
X162822345Y-93645053D01*
X162783561Y-93638183D01*
X162761674Y-93630087D01*
X162736620Y-93618024D01*
X162706172Y-93653024D01*
X162651438Y-93722276D01*
X162599822Y-93799746D01*
X162553497Y-93881648D01*
X162514635Y-93964195D01*
X162489546Y-94030659D01*
X162458438Y-94145433D01*
X162439963Y-94262102D01*
X162434052Y-94379608D01*
X162330949Y-94379608D01*
X162330382Y-94365403D01*
X162337643Y-94245125D01*
X162357224Y-94124829D01*
X162389421Y-94005367D01*
X162392129Y-93997135D01*
X162431467Y-93895142D01*
X162480022Y-93796544D01*
X162536334Y-93703835D01*
X162598943Y-93619506D01*
X162641422Y-93571318D01*
X162655786Y-93556147D01*
X163006432Y-93556147D01*
X163040230Y-93583060D01*
X163117548Y-93639168D01*
X163197635Y-93686067D01*
X163282390Y-93724531D01*
X163373717Y-93755334D01*
X163473516Y-93779248D01*
X163557216Y-93793439D01*
X163578733Y-93795019D01*
X163610105Y-93795393D01*
X163648197Y-93794707D01*
X163689876Y-93793106D01*
X163732006Y-93790738D01*
X163771454Y-93787748D01*
X163805086Y-93784283D01*
X163828193Y-93780801D01*
X163928675Y-93755477D01*
X164028294Y-93719001D01*
X164079581Y-93695495D01*
X164090142Y-93690275D01*
X164516133Y-93690275D01*
X164559837Y-93762841D01*
X164616750Y-93869679D01*
X164662128Y-93981363D01*
X164695905Y-94096756D01*
X164718018Y-94214723D01*
X164728399Y-94334128D01*
X164726985Y-94453833D01*
X164713709Y-94572702D01*
X164688507Y-94689600D01*
X164651313Y-94803389D01*
X164623414Y-94869262D01*
X164597253Y-94925895D01*
X164613504Y-94947617D01*
X164626760Y-94968756D01*
X164637534Y-94991513D01*
X164638384Y-94993825D01*
X164647012Y-95018311D01*
X164714260Y-95018311D01*
X164781509Y-95018311D01*
X164885982Y-95018311D01*
X164953341Y-95018311D01*
X165020700Y-95018311D01*
X165035407Y-94982827D01*
X165044811Y-94962324D01*
X165053717Y-94946477D01*
X165058585Y-94940313D01*
X165061125Y-94935079D01*
X165060198Y-94925002D01*
X165055287Y-94908310D01*
X165045876Y-94883231D01*
X165032320Y-94850077D01*
X164990114Y-94732512D01*
X164960412Y-94612686D01*
X164943148Y-94491511D01*
X164938863Y-94384943D01*
X165046395Y-94384943D01*
X165046550Y-94435471D01*
X165047128Y-94475448D01*
X165048299Y-94507380D01*
X165050234Y-94533773D01*
X165053102Y-94557131D01*
X165057075Y-94579961D01*
X165060877Y-94598227D01*
X165079965Y-94674265D01*
X165103312Y-94748559D01*
X165129256Y-94815909D01*
X165133902Y-94826512D01*
X165154719Y-94873042D01*
X165181305Y-94867068D01*
X165222524Y-94864016D01*
X165266250Y-94871765D01*
X165308978Y-94889524D01*
X165325771Y-94899767D01*
X165336303Y-94906372D01*
X165345158Y-94908810D01*
X165356414Y-94906852D01*
X165374151Y-94900272D01*
X165383318Y-94896561D01*
X165429024Y-94879607D01*
X165472617Y-94867300D01*
X165517564Y-94859058D01*
X165567331Y-94854300D01*
X165625386Y-94852443D01*
X165646676Y-94852367D01*
X165689633Y-94852649D01*
X165722698Y-94853523D01*
X165749036Y-94855304D01*
X165771809Y-94858305D01*
X165794183Y-94862843D01*
X165819322Y-94869230D01*
X165821053Y-94869697D01*
X165912423Y-94900987D01*
X165998182Y-94943676D01*
X166077251Y-94997034D01*
X166148551Y-95060334D01*
X166210748Y-95132509D01*
X166225534Y-95153893D01*
X166242352Y-95180896D01*
X166259821Y-95210956D01*
X166276558Y-95241511D01*
X166291182Y-95270000D01*
X166302311Y-95293861D01*
X166308562Y-95310533D01*
X166309427Y-95315423D01*
X166315312Y-95322071D01*
X166330424Y-95327475D01*
X166335011Y-95328375D01*
X166365357Y-95338042D01*
X166397884Y-95355650D01*
X166427769Y-95378118D01*
X166449583Y-95401523D01*
X166460981Y-95417023D01*
X166468727Y-95427121D01*
X166470644Y-95429274D01*
X166476911Y-95427431D01*
X166492408Y-95422188D01*
X166514082Y-95414583D01*
X166519616Y-95412610D01*
X166619063Y-95370398D01*
X166715383Y-95316437D01*
X166807114Y-95251930D01*
X166892797Y-95178079D01*
X166970970Y-95096090D01*
X167040173Y-95007164D01*
X167073548Y-94956280D01*
X167129337Y-94853366D01*
X167173132Y-94746450D01*
X167205016Y-94636497D01*
X167225073Y-94524470D01*
X167233386Y-94411335D01*
X167230038Y-94298056D01*
X167215113Y-94185597D01*
X167188695Y-94074924D01*
X167150867Y-93967000D01*
X167101712Y-93862789D01*
X167041314Y-93763258D01*
X166969757Y-93669369D01*
X166961319Y-93659554D01*
X166930871Y-93624553D01*
X166905817Y-93636674D01*
X166875146Y-93646717D01*
X166838046Y-93651913D01*
X166800319Y-93651905D01*
X166767770Y-93646334D01*
X166764750Y-93645365D01*
X166735607Y-93635435D01*
X166691873Y-93670287D01*
X166595396Y-93739015D01*
X166493384Y-93796185D01*
X166386701Y-93841619D01*
X166276216Y-93875141D01*
X166162793Y-93896575D01*
X166047299Y-93905744D01*
X165930601Y-93902472D01*
X165813563Y-93886582D01*
X165727790Y-93866744D01*
X165661496Y-93845796D01*
X165592556Y-93818902D01*
X165525794Y-93788156D01*
X165466036Y-93755648D01*
X165452805Y-93747522D01*
X165427847Y-93731767D01*
X165400141Y-93745968D01*
X165375113Y-93754970D01*
X165343284Y-93761179D01*
X165309592Y-93764126D01*
X165278973Y-93763342D01*
X165259004Y-93759375D01*
X165248722Y-93756364D01*
X165240962Y-93757252D01*
X165233196Y-93763967D01*
X165222895Y-93778436D01*
X165212365Y-93794936D01*
X165157472Y-93893157D01*
X165111543Y-93999171D01*
X165075624Y-94110384D01*
X165061236Y-94169467D01*
X165056217Y-94194144D01*
X165052455Y-94217138D01*
X165049776Y-94240985D01*
X165048005Y-94268219D01*
X165046968Y-94301375D01*
X165046491Y-94342986D01*
X165046395Y-94384943D01*
X164938863Y-94384943D01*
X164938258Y-94369901D01*
X164945678Y-94248768D01*
X164965342Y-94129024D01*
X164997185Y-94011583D01*
X165041144Y-93897356D01*
X165097152Y-93787258D01*
X165109155Y-93766875D01*
X165154368Y-93691795D01*
X165140389Y-93662919D01*
X165126411Y-93634043D01*
X165006196Y-93634043D01*
X164885982Y-93634043D01*
X164885982Y-94326177D01*
X164885982Y-95018311D01*
X164781509Y-95018311D01*
X164781509Y-94326177D01*
X164781509Y-93634043D01*
X164664535Y-93634043D01*
X164547561Y-93634043D01*
X164531847Y-93662159D01*
X164516133Y-93690275D01*
X164090142Y-93690275D01*
X164115180Y-93677900D01*
X164140655Y-93664692D01*
X164157530Y-93654352D01*
X164167331Y-93645365D01*
X164171582Y-93636214D01*
X164171808Y-93625383D01*
X164169535Y-93611357D01*
X164168701Y-93606883D01*
X164165914Y-93570098D01*
X164167328Y-93555113D01*
X164255976Y-93555113D01*
X164256895Y-93584770D01*
X164267630Y-93615445D01*
X164286122Y-93642721D01*
X164304184Y-93658520D01*
X164332263Y-93670193D01*
X164364966Y-93673391D01*
X164396917Y-93668031D01*
X164414281Y-93660197D01*
X164438913Y-93638361D01*
X164454711Y-93610187D01*
X164460087Y-93585451D01*
X165208369Y-93585451D01*
X165218454Y-93616139D01*
X165237203Y-93641709D01*
X165262532Y-93660808D01*
X165292355Y-93672086D01*
X165324588Y-93674192D01*
X165357145Y-93665773D01*
X165372894Y-93657196D01*
X165386347Y-93644199D01*
X165495574Y-93644199D01*
X165497849Y-93651538D01*
X165506412Y-93659309D01*
X165523338Y-93669753D01*
X165536493Y-93677186D01*
X165621772Y-93719192D01*
X165713759Y-93754254D01*
X165807947Y-93780859D01*
X165892611Y-93796562D01*
X165927588Y-93799622D01*
X165971738Y-93801033D01*
X166021335Y-93800906D01*
X166072652Y-93799352D01*
X166121964Y-93796481D01*
X166165544Y-93792405D01*
X166198424Y-93787481D01*
X166308118Y-93759583D01*
X166412573Y-93719871D01*
X166512617Y-93668003D01*
X166560676Y-93637782D01*
X166595326Y-93614593D01*
X166620374Y-93597063D01*
X166637050Y-93583550D01*
X166646582Y-93572412D01*
X166650197Y-93562010D01*
X166649123Y-93550701D01*
X166644589Y-93536845D01*
X166641772Y-93529408D01*
X166633196Y-93500399D01*
X166630092Y-93469994D01*
X166630295Y-93457703D01*
X166719942Y-93457703D01*
X166722892Y-93488248D01*
X166734994Y-93516900D01*
X166756877Y-93541364D01*
X166768069Y-93549194D01*
X166796439Y-93559943D01*
X166828845Y-93562267D01*
X166859978Y-93556246D01*
X166877565Y-93547526D01*
X166904243Y-93525185D01*
X166919707Y-93500812D01*
X166925753Y-93471247D01*
X166926004Y-93462246D01*
X166920442Y-93424439D01*
X166904513Y-93393948D01*
X166879356Y-93371907D01*
X166846106Y-93359451D01*
X166820532Y-93357031D01*
X166787127Y-93362566D01*
X166759738Y-93377699D01*
X166738993Y-93400131D01*
X166725519Y-93427565D01*
X166719942Y-93457703D01*
X166630295Y-93457703D01*
X166630450Y-93448291D01*
X166632564Y-93402535D01*
X166567306Y-93375048D01*
X166493758Y-93346259D01*
X166424829Y-93324328D01*
X166356990Y-93308571D01*
X166286712Y-93298305D01*
X166210466Y-93292843D01*
X166136393Y-93291467D01*
X166065813Y-93292603D01*
X166004461Y-93296292D01*
X165948662Y-93303067D01*
X165894743Y-93313461D01*
X165839031Y-93328007D01*
X165798453Y-93340475D01*
X165766074Y-93352240D01*
X165727017Y-93368505D01*
X165684201Y-93387849D01*
X165640544Y-93408847D01*
X165598964Y-93430076D01*
X165562379Y-93450115D01*
X165533707Y-93467541D01*
X165523906Y-93474341D01*
X165506308Y-93488272D01*
X165497818Y-93498210D01*
X165496437Y-93507034D01*
X165497787Y-93511925D01*
X165500852Y-93528015D01*
X165502493Y-93552423D01*
X165502722Y-93580489D01*
X165501548Y-93607550D01*
X165498981Y-93628946D01*
X165497513Y-93635048D01*
X165495574Y-93644199D01*
X165386347Y-93644199D01*
X165396015Y-93634858D01*
X165410145Y-93606060D01*
X165415184Y-93573908D01*
X165411030Y-93541508D01*
X165397586Y-93511964D01*
X165378242Y-93490991D01*
X165347470Y-93474159D01*
X165313162Y-93467540D01*
X165284989Y-93470615D01*
X165260615Y-93482458D01*
X165237262Y-93502568D01*
X165218767Y-93526884D01*
X165209033Y-93550994D01*
X165208369Y-93585451D01*
X164460087Y-93585451D01*
X164461576Y-93578601D01*
X164459405Y-93546528D01*
X164450556Y-93523335D01*
X164885982Y-93523335D01*
X165003836Y-93521556D01*
X165121690Y-93519776D01*
X165133687Y-93492965D01*
X165145684Y-93466154D01*
X165109929Y-93411346D01*
X165056740Y-93318881D01*
X165011763Y-93217637D01*
X164975795Y-93109584D01*
X164956912Y-93033323D01*
X164951615Y-93006690D01*
X164947717Y-92981531D01*
X164945009Y-92955025D01*
X164943282Y-92924355D01*
X164942328Y-92886700D01*
X164941938Y-92839242D01*
X164941915Y-92830907D01*
X164941932Y-92829440D01*
X165043710Y-92829440D01*
X165044675Y-92866820D01*
X165050285Y-92950006D01*
X165061433Y-93025522D01*
X165078955Y-93097878D01*
X165098435Y-93157385D01*
X165115438Y-93199864D01*
X165136872Y-93246783D01*
X165160443Y-93293515D01*
X165183855Y-93335431D01*
X165197881Y-93357873D01*
X165211330Y-93377118D01*
X165220957Y-93387236D01*
X165229533Y-93390374D01*
X165238215Y-93389119D01*
X165252670Y-93386662D01*
X165275625Y-93384160D01*
X165302531Y-93382096D01*
X165307139Y-93381825D01*
X165335448Y-93380814D01*
X165355645Y-93382092D01*
X165372587Y-93386408D01*
X165391129Y-93394515D01*
X165392023Y-93394953D01*
X165410844Y-93403893D01*
X165424801Y-93409946D01*
X165429553Y-93411523D01*
X165437118Y-93408299D01*
X165451653Y-93399426D01*
X165465466Y-93390009D01*
X165548886Y-93337570D01*
X165641820Y-93291389D01*
X165741889Y-93252329D01*
X165846717Y-93221248D01*
X165953924Y-93199008D01*
X166016971Y-93190420D01*
X166130211Y-93184236D01*
X166246235Y-93189652D01*
X166362655Y-93206277D01*
X166477086Y-93233720D01*
X166587137Y-93271588D01*
X166633564Y-93291456D01*
X166684241Y-93314550D01*
X166730266Y-93291218D01*
X166779068Y-93272506D01*
X166827297Y-93266490D01*
X166869382Y-93271304D01*
X166878750Y-93272822D01*
X166885727Y-93271049D01*
X166892126Y-93263857D01*
X166899757Y-93249114D01*
X166910432Y-93224690D01*
X166911851Y-93221367D01*
X166950121Y-93117825D01*
X166977969Y-93012103D01*
X166979815Y-93003118D01*
X166986250Y-92959259D01*
X166990304Y-92906270D01*
X166992006Y-92847856D01*
X166991388Y-92787721D01*
X166988482Y-92729570D01*
X166983316Y-92677107D01*
X166976772Y-92637863D01*
X166949663Y-92534368D01*
X166914142Y-92438692D01*
X166868896Y-92347694D01*
X166827004Y-92279441D01*
X166788168Y-92226892D01*
X166740709Y-92172199D01*
X166687891Y-92118623D01*
X166632981Y-92069422D01*
X166579243Y-92027857D01*
X166565820Y-92018672D01*
X166499000Y-91974331D01*
X166471373Y-91997980D01*
X166445164Y-92015797D01*
X166413848Y-92030455D01*
X166404337Y-92033700D01*
X166364928Y-92045772D01*
X166348023Y-92091375D01*
X166308563Y-92179438D01*
X166258393Y-92260708D01*
X166198434Y-92334333D01*
X166129604Y-92399461D01*
X166052825Y-92455241D01*
X165969015Y-92500820D01*
X165879095Y-92535347D01*
X165863698Y-92539933D01*
X165770852Y-92559854D01*
X165676514Y-92567376D01*
X165582192Y-92562698D01*
X165489393Y-92546019D01*
X165399623Y-92517540D01*
X165314388Y-92477460D01*
X165291347Y-92464068D01*
X165248634Y-92438119D01*
X165216738Y-92448421D01*
X165190738Y-92454490D01*
X165160992Y-92458191D01*
X165147566Y-92458722D01*
X165110289Y-92458722D01*
X165093093Y-92512591D01*
X165072867Y-92580797D01*
X165058404Y-92642272D01*
X165049117Y-92701329D01*
X165044415Y-92762281D01*
X165043710Y-92829440D01*
X164941932Y-92829440D01*
X164942740Y-92761691D01*
X164945913Y-92701942D01*
X164951965Y-92648193D01*
X164961429Y-92596979D01*
X164974837Y-92544833D01*
X164992721Y-92488290D01*
X164996014Y-92478660D01*
X165006539Y-92447690D01*
X165013049Y-92426630D01*
X165015938Y-92413098D01*
X165015602Y-92404713D01*
X165012435Y-92399093D01*
X165009653Y-92396338D01*
X164999945Y-92384582D01*
X164988242Y-92366471D01*
X164983017Y-92357147D01*
X164967624Y-92328131D01*
X164926803Y-92328131D01*
X164885982Y-92328131D01*
X164885982Y-92925733D01*
X164885982Y-93523335D01*
X164450556Y-93523335D01*
X164448099Y-93516896D01*
X164427557Y-93492629D01*
X164420231Y-93487257D01*
X164387598Y-93472687D01*
X164353925Y-93469330D01*
X164321643Y-93476181D01*
X164293181Y-93492237D01*
X164270971Y-93516494D01*
X164257443Y-93547947D01*
X164255976Y-93555113D01*
X164167328Y-93555113D01*
X164169537Y-93531698D01*
X164177217Y-93503231D01*
X164174068Y-93494146D01*
X164160477Y-93480959D01*
X164138066Y-93464561D01*
X164129323Y-93459033D01*
X164521741Y-93459033D01*
X164535725Y-93490883D01*
X164549710Y-93522733D01*
X164665609Y-93522887D01*
X164781509Y-93523041D01*
X164781509Y-92925733D01*
X164781509Y-92925586D01*
X164781509Y-92328131D01*
X164742772Y-92328131D01*
X164720501Y-92328763D01*
X164707920Y-92331346D01*
X164701689Y-92336903D01*
X164699848Y-92341320D01*
X164693596Y-92353878D01*
X164682146Y-92371671D01*
X164673782Y-92383174D01*
X164651903Y-92411837D01*
X164674899Y-92482619D01*
X164698520Y-92564288D01*
X164714567Y-92642381D01*
X164724160Y-92723063D01*
X164727034Y-92769502D01*
X164726104Y-92888596D01*
X164712659Y-93005521D01*
X164686948Y-93119382D01*
X164649215Y-93229285D01*
X164599709Y-93334336D01*
X164547416Y-93420844D01*
X164521741Y-93459033D01*
X164129323Y-93459033D01*
X164108461Y-93445843D01*
X164073286Y-93425696D01*
X164034165Y-93405010D01*
X163992722Y-93384678D01*
X163950580Y-93365589D01*
X163909365Y-93348635D01*
X163870701Y-93334708D01*
X163869038Y-93334163D01*
X163810381Y-93316424D01*
X163755920Y-93303221D01*
X163702016Y-93294027D01*
X163645029Y-93288311D01*
X163581318Y-93285547D01*
X163531098Y-93285084D01*
X163446468Y-93287045D01*
X163370952Y-93293161D01*
X163301075Y-93304103D01*
X163233364Y-93320544D01*
X163164346Y-93343156D01*
X163100359Y-93368445D01*
X163035276Y-93395858D01*
X163034639Y-93448023D01*
X163032918Y-93482002D01*
X163028185Y-93507610D01*
X163020217Y-93528167D01*
X163006432Y-93556147D01*
X162655786Y-93556147D01*
X162666809Y-93544505D01*
X162655710Y-93510570D01*
X162647022Y-93463717D01*
X162647598Y-93455242D01*
X162737560Y-93455242D01*
X162744869Y-93487720D01*
X162763518Y-93517864D01*
X162790148Y-93541423D01*
X162807289Y-93550979D01*
X162824836Y-93554684D01*
X162847397Y-93554078D01*
X162873858Y-93549438D01*
X162895436Y-93541090D01*
X162899633Y-93538423D01*
X162915631Y-93521957D01*
X162930665Y-93498656D01*
X162941947Y-93473690D01*
X162946686Y-93452228D01*
X162946702Y-93451215D01*
X162943776Y-93435371D01*
X162936377Y-93414682D01*
X162932010Y-93405260D01*
X162912165Y-93378546D01*
X162885297Y-93359722D01*
X162854454Y-93349629D01*
X162822681Y-93349105D01*
X162793023Y-93358989D01*
X162784349Y-93364581D01*
X162757232Y-93391595D01*
X162741658Y-93422508D01*
X162737560Y-93455242D01*
X162647598Y-93455242D01*
X162650291Y-93415645D01*
X162665183Y-93369548D01*
X162671763Y-93356767D01*
X162692201Y-93320553D01*
X162672056Y-93280646D01*
X162658451Y-93250407D01*
X162643217Y-93211206D01*
X162627621Y-93166817D01*
X162612928Y-93121014D01*
X162600405Y-93077568D01*
X162591319Y-93040253D01*
X162591235Y-93039853D01*
X162574611Y-92930056D01*
X162571200Y-92852160D01*
X162675765Y-92852160D01*
X162678158Y-92910660D01*
X162683086Y-92962702D01*
X162687594Y-92990881D01*
X162699900Y-93044846D01*
X162716045Y-93102738D01*
X162734399Y-93159213D01*
X162753328Y-93208927D01*
X162756411Y-93216151D01*
X162774874Y-93258593D01*
X162833037Y-93258909D01*
X162873858Y-93261329D01*
X162907692Y-93269251D01*
X162939929Y-93284417D01*
X162967288Y-93302292D01*
X162974999Y-93305131D01*
X162986544Y-93303730D01*
X163004543Y-93297427D01*
X163029319Y-93286608D01*
X163143795Y-93241373D01*
X163261241Y-93208309D01*
X163380638Y-93187341D01*
X163500964Y-93178392D01*
X163621199Y-93181387D01*
X163740322Y-93196251D01*
X163857312Y-93222909D01*
X163971149Y-93261283D01*
X164080812Y-93311300D01*
X164184054Y-93372071D01*
X164208055Y-93387911D01*
X164227601Y-93400745D01*
X164240401Y-93409075D01*
X164244251Y-93411489D01*
X164250311Y-93409060D01*
X164264141Y-93402260D01*
X164273634Y-93397347D01*
X164291405Y-93389507D01*
X164310541Y-93384969D01*
X164335416Y-93382965D01*
X164357087Y-93382655D01*
X164384531Y-93383264D01*
X164408391Y-93384884D01*
X164424527Y-93387201D01*
X164427153Y-93387952D01*
X164435207Y-93389406D01*
X164442832Y-93385956D01*
X164452153Y-93375677D01*
X164465296Y-93356642D01*
X164470406Y-93348775D01*
X164525360Y-93251747D01*
X164569220Y-93148150D01*
X164602152Y-93037584D01*
X164606359Y-93019484D01*
X164611812Y-92993480D01*
X164615804Y-92969462D01*
X164618549Y-92944592D01*
X164620266Y-92916026D01*
X164621170Y-92880926D01*
X164621478Y-92836450D01*
X164621487Y-92821113D01*
X164620974Y-92763762D01*
X164619159Y-92716092D01*
X164615564Y-92674748D01*
X164609708Y-92636377D01*
X164601111Y-92597626D01*
X164589294Y-92555140D01*
X164578402Y-92519977D01*
X164559440Y-92460435D01*
X164512132Y-92457213D01*
X164484549Y-92453921D01*
X164458658Y-92448463D01*
X164440983Y-92442395D01*
X164425162Y-92435401D01*
X164414705Y-92434707D01*
X164403334Y-92440698D01*
X164397095Y-92445072D01*
X164373430Y-92459610D01*
X164340924Y-92476473D01*
X164303191Y-92494064D01*
X164263847Y-92510788D01*
X164226506Y-92525049D01*
X164194785Y-92535252D01*
X164189745Y-92536587D01*
X164094036Y-92555001D01*
X164001331Y-92561156D01*
X163932110Y-92557474D01*
X163833673Y-92540600D01*
X163740803Y-92512187D01*
X163654142Y-92472678D01*
X163574333Y-92422519D01*
X163502018Y-92362153D01*
X163437841Y-92292026D01*
X163382444Y-92212582D01*
X163351129Y-92155514D01*
X163336276Y-92124596D01*
X163323434Y-92096081D01*
X163313872Y-92072910D01*
X163308857Y-92058026D01*
X163308606Y-92056855D01*
X163305107Y-92044736D01*
X163298020Y-92036862D01*
X163283964Y-92030668D01*
X163267728Y-92025835D01*
X163250742Y-92019032D01*
X163405603Y-92019032D01*
X163420042Y-92058908D01*
X163450336Y-92125514D01*
X163491648Y-92190711D01*
X163541957Y-92252335D01*
X163599245Y-92308226D01*
X163661490Y-92356221D01*
X163726673Y-92394160D01*
X163738490Y-92399721D01*
X163824768Y-92432035D01*
X163912366Y-92451376D01*
X164001177Y-92457727D01*
X164087001Y-92451655D01*
X164158346Y-92437098D01*
X164229420Y-92414052D01*
X164291792Y-92385736D01*
X164314254Y-92373654D01*
X164331808Y-92364025D01*
X164341654Y-92358392D01*
X164342782Y-92357631D01*
X164342180Y-92350845D01*
X164338576Y-92335213D01*
X164333825Y-92317895D01*
X164325987Y-92268186D01*
X164326183Y-92266256D01*
X164417280Y-92266256D01*
X164422713Y-92296705D01*
X164436525Y-92324301D01*
X164457970Y-92346777D01*
X164486300Y-92361868D01*
X164520326Y-92367308D01*
X164552599Y-92362591D01*
X164572629Y-92352616D01*
X164600937Y-92327704D01*
X164617570Y-92298751D01*
X164622940Y-92274811D01*
X164622142Y-92259615D01*
X165051616Y-92259615D01*
X165053900Y-92290442D01*
X165064074Y-92316487D01*
X165066145Y-92319490D01*
X165092342Y-92345908D01*
X165122937Y-92362227D01*
X165155455Y-92367865D01*
X165187419Y-92362240D01*
X165206442Y-92352461D01*
X165235291Y-92327443D01*
X165251914Y-92298991D01*
X165256954Y-92265887D01*
X165256557Y-92257667D01*
X165248177Y-92222087D01*
X165230788Y-92193805D01*
X165206625Y-92173477D01*
X165177920Y-92161761D01*
X165146906Y-92159312D01*
X165115815Y-92166787D01*
X165086882Y-92184843D01*
X165070074Y-92202847D01*
X165057062Y-92228815D01*
X165051616Y-92259615D01*
X164622142Y-92259615D01*
X164621030Y-92238429D01*
X164606929Y-92206447D01*
X164581926Y-92180444D01*
X164564009Y-92168795D01*
X164546177Y-92163165D01*
X164522130Y-92161631D01*
X164520326Y-92161627D01*
X164495698Y-92162974D01*
X164477668Y-92168300D01*
X164459936Y-92179527D01*
X164458727Y-92180444D01*
X164434540Y-92205859D01*
X164420974Y-92235218D01*
X164417280Y-92266256D01*
X164326183Y-92266256D01*
X164331052Y-92218384D01*
X164343985Y-92180073D01*
X164358046Y-92148568D01*
X164305495Y-92098488D01*
X164228603Y-92033907D01*
X164142146Y-91977207D01*
X164047445Y-91929057D01*
X163945822Y-91890126D01*
X163838598Y-91861081D01*
X163834566Y-91860211D01*
X163808747Y-91855494D01*
X163780408Y-91852115D01*
X163746929Y-91849903D01*
X163705685Y-91848684D01*
X163654054Y-91848287D01*
X163653297Y-91848286D01*
X163608272Y-91848283D01*
X163574564Y-91848685D01*
X163550434Y-91850017D01*
X163534142Y-91852802D01*
X163523946Y-91857564D01*
X163518107Y-91864828D01*
X163514884Y-91875116D01*
X163512536Y-91888952D01*
X163512253Y-91890732D01*
X163502817Y-91919088D01*
X163484760Y-91949455D01*
X163460993Y-91977716D01*
X163435703Y-91998915D01*
X163405603Y-92019032D01*
X163250742Y-92019032D01*
X163234483Y-92012520D01*
X163205126Y-91993570D01*
X163203582Y-91992271D01*
X163187706Y-91979374D01*
X163175729Y-91970926D01*
X163171555Y-91969005D01*
X163161483Y-91972936D01*
X163143434Y-91983724D01*
X163119460Y-91999857D01*
X163091611Y-92019827D01*
X163061937Y-92042122D01*
X163032490Y-92065234D01*
X163005320Y-92087651D01*
X162982478Y-92107864D01*
X162980651Y-92109574D01*
X162903493Y-92191080D01*
X162836554Y-92280531D01*
X162780150Y-92377361D01*
X162734593Y-92481005D01*
X162700200Y-92590897D01*
X162690845Y-92630790D01*
X162683448Y-92676518D01*
X162678445Y-92731229D01*
X162675873Y-92791063D01*
X162675765Y-92852160D01*
X162571200Y-92852160D01*
X162569660Y-92817000D01*
X162576234Y-92702984D01*
X162594190Y-92590309D01*
X162623383Y-92481276D01*
X162627116Y-92470069D01*
X162668033Y-92368725D01*
X162720572Y-92270056D01*
X162783305Y-92176196D01*
X162854806Y-92089279D01*
X162933643Y-92011446D01*
X162954291Y-91994133D01*
X162979985Y-91974014D01*
X163008612Y-91952581D01*
X163038060Y-91931324D01*
X163066217Y-91911735D01*
X163090970Y-91895302D01*
X163110207Y-91883517D01*
X163121815Y-91877870D01*
X163123349Y-91877591D01*
X163126744Y-91871689D01*
X163128989Y-91856473D01*
X163129519Y-91842212D01*
X163220943Y-91842212D01*
X163226738Y-91874182D01*
X163242476Y-91901623D01*
X163265690Y-91923182D01*
X163293914Y-91937505D01*
X163324679Y-91943239D01*
X163355519Y-91939031D01*
X163377719Y-91928195D01*
X163406781Y-91901998D01*
X163423829Y-91871750D01*
X163428549Y-91838578D01*
X163420626Y-91803607D01*
X163415620Y-91792706D01*
X163394939Y-91764353D01*
X163368919Y-91746109D01*
X163339751Y-91737414D01*
X163309632Y-91737713D01*
X163280753Y-91746446D01*
X163255311Y-91763056D01*
X163235498Y-91786985D01*
X163223508Y-91817675D01*
X163220943Y-91842212D01*
X163129519Y-91842212D01*
X163129530Y-91841923D01*
X163135091Y-91796914D01*
X163150631Y-91753458D01*
X163174434Y-91715848D01*
X163184251Y-91705010D01*
X163206197Y-91686402D01*
X163231911Y-91669517D01*
X163257471Y-91656535D01*
X163265362Y-91654000D01*
X163406304Y-91654000D01*
X163409615Y-91662365D01*
X163417127Y-91668533D01*
X163421477Y-91670936D01*
X163436043Y-91681013D01*
X163454514Y-91697161D01*
X163469161Y-91711945D01*
X163497961Y-91743190D01*
X163641856Y-91743835D01*
X163693078Y-91744259D01*
X163733882Y-91745141D01*
X163766905Y-91746666D01*
X163794784Y-91749020D01*
X163820158Y-91752389D01*
X163845662Y-91756959D01*
X163854943Y-91758842D01*
X163959782Y-91785807D01*
X164061605Y-91822167D01*
X164157422Y-91866717D01*
X164234719Y-91911947D01*
X164264906Y-91932824D01*
X164299472Y-91958616D01*
X164335468Y-91986941D01*
X164369941Y-92015410D01*
X164399944Y-92041638D01*
X164422524Y-92063240D01*
X164424968Y-92065806D01*
X164438009Y-92078244D01*
X164447410Y-92081923D01*
X164457431Y-92078483D01*
X164457616Y-92078381D01*
X164470364Y-92074819D01*
X164492079Y-92072074D01*
X164518677Y-92070615D01*
X164526574Y-92070499D01*
X164581794Y-92070213D01*
X164596794Y-92022317D01*
X164605739Y-91990249D01*
X164614000Y-91954746D01*
X164619085Y-91927639D01*
X164623146Y-91884928D01*
X164623868Y-91834592D01*
X164621504Y-91781352D01*
X164616307Y-91729928D01*
X164608532Y-91685043D01*
X164605345Y-91672105D01*
X164575899Y-91587923D01*
X164535320Y-91509745D01*
X164484487Y-91438460D01*
X164424282Y-91374954D01*
X164355585Y-91320113D01*
X164279277Y-91274826D01*
X164196238Y-91239980D01*
X164167291Y-91230859D01*
X164124386Y-91221575D01*
X164072969Y-91215416D01*
X164017243Y-91212528D01*
X163961408Y-91213055D01*
X163909666Y-91217141D01*
X163883694Y-91221104D01*
X163798509Y-91243573D01*
X163718179Y-91277710D01*
X163643788Y-91322680D01*
X163576422Y-91377651D01*
X163517163Y-91441785D01*
X163467098Y-91514251D01*
X163442150Y-91560907D01*
X163425117Y-91596893D01*
X163413702Y-91623148D01*
X163407549Y-91641556D01*
X163406304Y-91654000D01*
X163265362Y-91654000D01*
X163278957Y-91649633D01*
X163284975Y-91649056D01*
X163293360Y-91645235D01*
X163301051Y-91632394D01*
X163308418Y-91611511D01*
X163336504Y-91538459D01*
X163375362Y-91465300D01*
X163423084Y-91395040D01*
X163477758Y-91330681D01*
X163503079Y-91305428D01*
X163578704Y-91242772D01*
X163661233Y-91191146D01*
X163750118Y-91150857D01*
X163819852Y-91128471D01*
X163844532Y-91122155D01*
X163866295Y-91117594D01*
X163888119Y-91114502D01*
X163912977Y-91112596D01*
X163943846Y-91111593D01*
X163983701Y-91111207D01*
X164001226Y-91111164D01*
X164044910Y-91111265D01*
X164078488Y-91111887D01*
X164104912Y-91113310D01*
X164127135Y-91115811D01*
X164148106Y-91119668D01*
X164170779Y-91125161D01*
X164182371Y-91128254D01*
X164277293Y-91160427D01*
X164364937Y-91203329D01*
X164444848Y-91256578D01*
X164516570Y-91319795D01*
X164579648Y-91392600D01*
X164633628Y-91474613D01*
X164661508Y-91528188D01*
X164696079Y-91616207D01*
X164718323Y-91707697D01*
X164728191Y-91801682D01*
X164725633Y-91897186D01*
X164710601Y-91993229D01*
X164688859Y-92071922D01*
X164679628Y-92100255D01*
X164674272Y-92119150D01*
X164672451Y-92131529D01*
X164673828Y-92140317D01*
X164678060Y-92148434D01*
X164679678Y-92150933D01*
X164689944Y-92168841D01*
X164700181Y-92189987D01*
X164701324Y-92192642D01*
X164708010Y-92206822D01*
X164715367Y-92214092D01*
X164727659Y-92216758D01*
X164746587Y-92217128D01*
X164781509Y-92217128D01*
X164781509Y-91812802D01*
X164781509Y-91408475D01*
X164757120Y-91400426D01*
X164732476Y-91387475D01*
X164706009Y-91365842D01*
X164680895Y-91338911D01*
X164660309Y-91310064D01*
X164647884Y-91284095D01*
X164638422Y-91236237D01*
X164639324Y-91218063D01*
X164728426Y-91218063D01*
X164731375Y-91248608D01*
X164743477Y-91277260D01*
X164765360Y-91301723D01*
X164776552Y-91309554D01*
X164805267Y-91320371D01*
X164838113Y-91322565D01*
X164869724Y-91316218D01*
X164886649Y-91307834D01*
X164909713Y-91286271D01*
X164926577Y-91258318D01*
X164935119Y-91228329D01*
X164935033Y-91208612D01*
X164923786Y-91171947D01*
X164903101Y-91143981D01*
X164873998Y-91125589D01*
X164837495Y-91117649D01*
X164829015Y-91117391D01*
X164795610Y-91122926D01*
X164768221Y-91138059D01*
X164747476Y-91160491D01*
X164734002Y-91187925D01*
X164728426Y-91218063D01*
X164639324Y-91218063D01*
X164640801Y-91188292D01*
X164654306Y-91142637D01*
X164678227Y-91101650D01*
X164711852Y-91067708D01*
X164712948Y-91066865D01*
X164754990Y-91042057D01*
X164799036Y-91028843D01*
X164843414Y-91026420D01*
X164886455Y-91033983D01*
G37*
D12*
X178790000Y-98810000D02*
G75*
G02*
X178730000Y-98810000I-30000J0D01*
G01*
X178730000Y-98810000D02*
G75*
G02*
X178790000Y-98810000I30000J0D01*
G01*
X188330000Y-98810000D02*
G75*
G02*
X188270000Y-98810000I-30000J0D01*
G01*
X188270000Y-98810000D02*
G75*
G02*
X188330000Y-98810000I30000J0D01*
G01*
D13*
X190890000Y-124040000D02*
G75*
G02*
X190770000Y-124040000I-60000J0D01*
G01*
X190770000Y-124040000D02*
G75*
G02*
X190890000Y-124040000I60000J0D01*
G01*
D14*
X179510000Y-103515000D02*
X179510000Y-103155000D01*
X183310000Y-103235000D02*
X183310000Y-103515000D01*
X183310000Y-103515000D02*
X179510000Y-103515000D01*
D15*
X179540000Y-103485000D02*
G75*
G02*
X179480000Y-103485000I-30000J0D01*
G01*
X179480000Y-103485000D02*
G75*
G02*
X179540000Y-103485000I30000J0D01*
G01*
D13*
X197083000Y-105262000D02*
G75*
G02*
X197011000Y-105262000I-36000J0D01*
G01*
X197011000Y-105262000D02*
G75*
G02*
X197083000Y-105262000I36000J0D01*
G01*
D16*
X184935000Y-110140000D02*
G75*
G02*
X177885000Y-110140000I-3525000J0D01*
G01*
X177885000Y-110140000D02*
G75*
G02*
X184935000Y-110140000I3525000J0D01*
G01*
D10*
X176580000Y-132200000D02*
X176980000Y-132200000D01*
X195105000Y-126840000D02*
X195105000Y-127240000D01*
D17*
X199800000Y-129575000D02*
G75*
G02*
X199700000Y-129575000I-50000J0D01*
G01*
X199700000Y-129575000D02*
G75*
G02*
X199800000Y-129575000I50000J0D01*
G01*
D10*
X194270000Y-131170000D02*
X194270000Y-130770000D01*
X191480000Y-131180000D02*
X191480000Y-130780000D01*
D18*
X193855000Y-124535000D02*
G75*
G02*
X193605000Y-124535000I-125000J0D01*
G01*
X193605000Y-124535000D02*
G75*
G02*
X193855000Y-124535000I125000J0D01*
G01*
D12*
X177980000Y-119570000D02*
G75*
G02*
X177920000Y-119570000I-30000J0D01*
G01*
X177920000Y-119570000D02*
G75*
G02*
X177980000Y-119570000I30000J0D01*
G01*
%LPC*%
D19*
X202650000Y-117530000D03*
X202650000Y-116610000D03*
D20*
X174960000Y-130930000D03*
X175820000Y-130930000D03*
D19*
X202670000Y-119170000D03*
X202670000Y-120090000D03*
D21*
X194990000Y-129845000D03*
X195910000Y-129845000D03*
D19*
X195305000Y-115430000D03*
X195305000Y-114510000D03*
D22*
X195455000Y-126080000D03*
X194555000Y-126080000D03*
D23*
X194505000Y-128000000D03*
X194505000Y-128900000D03*
D24*
X200475000Y-95570000D03*
X199459000Y-90490000D03*
X201491000Y-90490000D03*
D25*
X201110000Y-94300000D03*
X199840000Y-94300000D03*
X201110000Y-93030000D03*
X199840000Y-93030000D03*
X201110000Y-91760000D03*
X199840000Y-91760000D03*
D26*
X178040000Y-98800000D03*
X176140000Y-98800000D03*
X177090000Y-101300000D03*
D21*
X191950000Y-112930000D03*
X192870000Y-112930000D03*
D26*
X187580000Y-98800000D03*
X185680000Y-98800000D03*
X186630000Y-101300000D03*
D24*
X200505000Y-106860000D03*
X199490000Y-99240000D03*
X201520000Y-99240000D03*
D25*
X201140000Y-105590000D03*
X201140000Y-104320000D03*
X201140000Y-103050000D03*
X201140000Y-101780000D03*
X201140000Y-100510000D03*
X199870000Y-100510000D03*
X199870000Y-101780000D03*
X199870000Y-103050000D03*
X199870000Y-104320000D03*
X199870000Y-105590000D03*
D27*
X194115000Y-115350000D03*
X194115000Y-113950000D03*
D28*
X189970000Y-124810000D03*
X187770000Y-124810000D03*
X187770000Y-126510000D03*
X189970000Y-126510000D03*
D29*
X179750000Y-102605000D03*
D30*
X180830000Y-102605000D03*
X181840000Y-102605000D03*
D29*
X183070000Y-102605000D03*
D21*
X180500000Y-130950000D03*
X179580000Y-130950000D03*
D20*
X192810000Y-114260000D03*
X191950000Y-114260000D03*
D21*
X193585000Y-127040000D03*
X194505000Y-127040000D03*
D31*
X196525000Y-105250000D03*
D32*
X196525000Y-104750000D03*
D31*
X196525000Y-104250000D03*
D33*
X195850000Y-104100000D03*
D31*
X195175000Y-104250000D03*
D32*
X195175000Y-104750000D03*
D31*
X195175000Y-105250000D03*
D33*
X195850000Y-105400000D03*
D23*
X176780000Y-131850000D03*
X176780000Y-130950000D03*
D19*
X192325000Y-124310000D03*
X192325000Y-125230000D03*
D22*
X195455000Y-127040000D03*
X196355000Y-127040000D03*
D34*
X189140000Y-98800000D03*
X189140000Y-99660000D03*
D20*
X177750000Y-130950000D03*
X178610000Y-130950000D03*
D19*
X174020000Y-130930000D03*
X174020000Y-130010000D03*
D35*
X199750000Y-128975000D03*
X199750000Y-126675000D03*
D19*
X189260000Y-130980000D03*
X189260000Y-131900000D03*
D22*
X193920000Y-130970000D03*
X193020000Y-130970000D03*
D19*
X201460000Y-126435000D03*
X201460000Y-127355000D03*
X195455000Y-128910000D03*
X195455000Y-127990000D03*
D21*
X202950000Y-123480000D03*
X203870000Y-123480000D03*
D20*
X192680000Y-117510000D03*
X191820000Y-117510000D03*
D27*
X198445000Y-113310000D03*
X198445000Y-111910000D03*
D36*
X196755000Y-115260000D03*
X196755000Y-113260000D03*
D19*
X201460000Y-129245000D03*
X201460000Y-128325000D03*
D34*
X179720000Y-98800000D03*
X179720000Y-97940000D03*
D20*
X179970000Y-101300000D03*
X180830000Y-101300000D03*
D22*
X191130000Y-130980000D03*
X190230000Y-130980000D03*
D37*
X187370000Y-120770000D03*
X188770000Y-120770000D03*
D19*
X192075000Y-130975000D03*
X192075000Y-130055000D03*
D20*
X183930000Y-101300000D03*
X183070000Y-101300000D03*
X178810000Y-119320000D03*
X179670000Y-119320000D03*
D34*
X183080000Y-99390000D03*
X183080000Y-100250000D03*
D19*
X190060000Y-120920000D03*
X190060000Y-121840000D03*
D21*
X191975000Y-121810000D03*
X191055000Y-121810000D03*
D38*
X179210000Y-122060000D03*
X181410000Y-122060000D03*
D39*
X194750000Y-124135000D03*
X195250000Y-124135000D03*
X195750000Y-124135000D03*
X196250000Y-124135000D03*
X196750000Y-124135000D03*
X197250000Y-124135000D03*
X197750000Y-124135000D03*
X198250000Y-124135000D03*
X198750000Y-124135000D03*
X199250000Y-124135000D03*
X199750000Y-124135000D03*
X200250000Y-124135000D03*
D40*
X200900000Y-123485000D03*
X200900000Y-122985000D03*
X200900000Y-122485000D03*
X200900000Y-121985000D03*
X200900000Y-121485000D03*
X200900000Y-120985000D03*
X200900000Y-120485000D03*
X200900000Y-119985000D03*
X200900000Y-119485000D03*
X200900000Y-118985000D03*
X200900000Y-118485000D03*
X200900000Y-117985000D03*
D39*
X200250000Y-117335000D03*
X199750000Y-117335000D03*
X199250000Y-117335000D03*
X198750000Y-117335000D03*
X198250000Y-117335000D03*
X197750000Y-117335000D03*
X197250000Y-117335000D03*
X196750000Y-117335000D03*
X196250000Y-117335000D03*
X195750000Y-117335000D03*
X195250000Y-117335000D03*
X194750000Y-117335000D03*
D40*
X194100000Y-117985000D03*
X194100000Y-118485000D03*
X194100000Y-118985000D03*
X194100000Y-119485000D03*
X194100000Y-119985000D03*
X194100000Y-120485000D03*
X194100000Y-120985000D03*
X194100000Y-121485000D03*
X194100000Y-121985000D03*
X194100000Y-122485000D03*
X194100000Y-122985000D03*
X194100000Y-123485000D03*
D41*
X197500000Y-120735000D03*
D34*
X175820000Y-129140000D03*
X175820000Y-130000000D03*
D20*
X178820000Y-120320000D03*
X179680000Y-120320000D03*
D26*
X177230000Y-119560000D03*
X175330000Y-119560000D03*
X176280000Y-122060000D03*
D19*
X196395000Y-127990000D03*
X196395000Y-128910000D03*
D42*
X175800000Y-127890000D03*
D43*
X174330000Y-126370000D03*
X177270000Y-126370000D03*
%LPD*%
M02*
