G04 #@! TF.GenerationSoftware,KiCad,Pcbnew,10.0.3*
G04 #@! TF.CreationDate,2026-08-11T21:40:08+02:00*
G04 #@! TF.ProjectId,TouchButtonPCB,546f7563-6842-4757-9474-6f6e5043422e,rev?*
G04 #@! TF.SameCoordinates,Original*
G04 #@! TF.FileFunction,Copper,L3,Inr*
G04 #@! TF.FilePolarity,Positive*
%FSLAX46Y46*%
G04 Gerber Fmt 4.6, Leading zero omitted, Abs format (unit mm)*
G04 Created by KiCad (PCBNEW 10.0.3) date 2026-08-11 21:40:08*
%MOMM*%
%LPD*%
G01*
G04 APERTURE LIST*
G04 #@! TA.AperFunction,ComponentPad*
%ADD10C,0.800000*%
G04 #@! TD*
G04 #@! TA.AperFunction,ComponentPad*
%ADD11C,0.500000*%
G04 #@! TD*
G04 #@! TA.AperFunction,ViaPad*
%ADD12C,0.400000*%
G04 #@! TD*
G04 #@! TA.AperFunction,Conductor*
%ADD13C,0.240000*%
G04 #@! TD*
G04 #@! TA.AperFunction,Conductor*
%ADD14C,1.000000*%
G04 #@! TD*
G04 APERTURE END LIST*
D10*
X158890000Y-130940000D03*
X158890000Y-128940000D03*
X163890000Y-128940000D03*
X158890000Y-126940000D03*
X163890000Y-126940000D03*
X158890000Y-124940000D03*
X163890000Y-124940000D03*
X158890000Y-122940000D03*
X163890000Y-122940000D03*
X158890000Y-120940000D03*
X163890000Y-120940000D03*
X158890000Y-118940000D03*
X163890000Y-118940000D03*
X158890000Y-116940000D03*
X163890000Y-116940000D03*
X158890000Y-114940000D03*
X163890000Y-114940000D03*
X158890000Y-112940000D03*
X163890000Y-112940000D03*
X158890000Y-110940000D03*
X163890000Y-110940000D03*
D11*
X196240000Y-123055000D03*
X197500000Y-123055000D03*
X198760000Y-123055000D03*
X195180000Y-121995000D03*
X196240000Y-121995000D03*
X197500000Y-121995000D03*
X198760000Y-121995000D03*
X199820000Y-121995000D03*
X195180000Y-120735000D03*
X196240000Y-120735000D03*
X197500000Y-120735000D03*
X198760000Y-120735000D03*
X199820000Y-120735000D03*
X195180000Y-119475000D03*
X196240000Y-119475000D03*
X197500000Y-119475000D03*
X198760000Y-119475000D03*
X199820000Y-119475000D03*
X196240000Y-118415000D03*
X197500000Y-118415000D03*
X198760000Y-118415000D03*
D12*
X168640000Y-92330000D03*
X188160000Y-113800000D03*
X175540000Y-131870000D03*
X177920000Y-131830000D03*
X188020000Y-106030000D03*
X197290000Y-99340000D03*
X173850000Y-120020000D03*
X174360000Y-128170000D03*
X171720000Y-102270000D03*
X186640000Y-131860000D03*
X192510000Y-101150000D03*
X173820000Y-112080000D03*
X203940000Y-130780000D03*
X193070000Y-133210000D03*
X176980000Y-103190000D03*
X188140000Y-131880000D03*
X188870000Y-130010000D03*
X184990000Y-117040000D03*
X178620000Y-117700000D03*
X197010000Y-129810000D03*
X202090000Y-103580000D03*
X180410000Y-128300000D03*
X175340000Y-118260000D03*
X204170000Y-125380000D03*
X197030000Y-96440000D03*
X174920000Y-129970000D03*
X187120000Y-93020000D03*
X193310000Y-125040000D03*
X176680000Y-130010000D03*
X193380000Y-105810000D03*
X177670000Y-129990000D03*
X182140000Y-130120000D03*
X185110000Y-131820000D03*
X164770000Y-104960000D03*
X184690000Y-119040000D03*
X196960000Y-93400000D03*
X196250000Y-132610000D03*
X185140000Y-121590000D03*
X172520000Y-95040000D03*
X190580000Y-115510000D03*
X195135000Y-111150000D03*
X176250000Y-91360000D03*
X195410000Y-100470000D03*
X199535000Y-113710000D03*
X190990000Y-88220000D03*
X186980000Y-130060000D03*
X159550000Y-101710000D03*
X191630000Y-108840000D03*
X177410000Y-95450000D03*
X159840000Y-96070000D03*
X198280000Y-102300000D03*
X190650000Y-129920000D03*
X187820000Y-119100000D03*
X163920000Y-108450000D03*
X179180000Y-131850000D03*
X189960000Y-127930000D03*
X198385000Y-110900000D03*
X204300000Y-122470000D03*
X176780000Y-132700000D03*
X195990000Y-130700000D03*
X193720000Y-126080000D03*
X198245000Y-114620000D03*
X182030000Y-131760000D03*
X190680000Y-132020000D03*
X202930000Y-111040000D03*
X185670000Y-127850000D03*
X166840000Y-96730000D03*
X193710000Y-132040000D03*
X182270000Y-119100000D03*
X186220000Y-124900000D03*
X181170000Y-99650000D03*
X182860000Y-133210000D03*
X174340000Y-124540000D03*
X203560000Y-90730000D03*
X201620000Y-116180000D03*
X198165000Y-116070000D03*
X187730000Y-123180000D03*
X189250000Y-132830000D03*
X193450000Y-128040000D03*
X183780000Y-97460000D03*
X196980000Y-107940000D03*
X161330000Y-108370000D03*
X184830000Y-103030000D03*
X180510000Y-131800000D03*
X202740000Y-127710000D03*
X177180000Y-128080000D03*
X186080000Y-97160000D03*
X200470000Y-127835000D03*
X183600000Y-131810000D03*
X201730000Y-120200000D03*
X173880000Y-122750000D03*
X202140000Y-105200000D03*
X172610000Y-87840000D03*
X174030000Y-129160000D03*
X173850000Y-117430000D03*
X173990000Y-131870000D03*
X202260000Y-100570000D03*
X167610000Y-88490000D03*
X174120000Y-105320000D03*
X192680000Y-126990000D03*
X197260000Y-127170000D03*
X181260000Y-88250000D03*
X198960000Y-104110000D03*
X174280000Y-98860000D03*
X199545000Y-111990000D03*
X191140000Y-104090000D03*
X166460000Y-101980000D03*
X196230000Y-88910000D03*
X169380000Y-105340000D03*
X198280000Y-130950000D03*
X180450000Y-130080000D03*
X177340000Y-124610000D03*
X161120000Y-90470000D03*
X173880000Y-108730000D03*
X182890000Y-128570000D03*
X201440000Y-125310000D03*
X171340000Y-108510000D03*
X196360000Y-103030000D03*
X168720000Y-108400000D03*
X191480000Y-126380000D03*
X158520000Y-108290000D03*
X193510000Y-129840000D03*
X175490000Y-116120000D03*
X166270000Y-108430000D03*
X185390000Y-130080000D03*
X186290000Y-133130000D03*
X188710000Y-122130000D03*
X181610000Y-93220000D03*
X199160000Y-127815000D03*
X186140000Y-88440000D03*
X175790000Y-124500000D03*
X173770000Y-114480000D03*
X192170000Y-132050000D03*
X197540000Y-128680000D03*
X184290000Y-99980000D03*
X195130000Y-131640000D03*
X195335000Y-113160000D03*
X194145000Y-112140000D03*
X201740000Y-121250000D03*
X199800000Y-107940000D03*
X192110000Y-129170000D03*
X192590000Y-92380000D03*
X201280000Y-131130000D03*
X160050000Y-105670000D03*
X183900000Y-130080000D03*
X192760000Y-97070000D03*
X196765000Y-110640000D03*
X202760000Y-97220000D03*
X178900000Y-130080000D03*
X199010000Y-125330000D03*
X201825000Y-106275000D03*
X202660000Y-118590000D03*
X194210000Y-107410000D03*
X188920000Y-120050000D03*
X190055000Y-120050000D03*
X192392500Y-115652500D03*
X202755000Y-124210000D03*
X192815000Y-114940000D03*
X201390000Y-109580000D03*
X195180000Y-102920000D03*
X202120000Y-102270000D03*
X198910000Y-107620000D03*
X197290000Y-103485000D03*
X198090000Y-108200000D03*
X197260000Y-104730000D03*
X186615000Y-120800000D03*
X184510000Y-124150000D03*
X181840000Y-101350000D03*
X197215000Y-111490000D03*
X196315000Y-111480000D03*
X196325000Y-112180000D03*
X197205000Y-112190000D03*
X192335000Y-123620000D03*
X192575000Y-121840000D03*
X181410000Y-123840000D03*
D13*
X194210000Y-107410000D02*
X194210000Y-109515000D01*
X194210000Y-109515000D02*
X194215000Y-109520000D01*
D14*
X192815000Y-115230000D02*
X192815000Y-114940000D01*
X192815000Y-110920000D02*
X192815000Y-114940000D01*
X202755000Y-113440000D02*
X199257500Y-109942500D01*
D13*
X201825000Y-107375000D02*
X199257500Y-109942500D01*
D14*
X202755000Y-124210000D02*
X202755000Y-113440000D01*
X199257500Y-109942500D02*
X198835000Y-109520000D01*
X198835000Y-109520000D02*
X194215000Y-109520000D01*
D13*
X201825000Y-106275000D02*
X201825000Y-107375000D01*
D14*
X190055000Y-117990000D02*
X190055000Y-120050000D01*
X192392500Y-115652500D02*
X190055000Y-117990000D01*
X192815000Y-115230000D02*
X192392500Y-115652500D01*
X194215000Y-109520000D02*
X192815000Y-110920000D01*
X189850000Y-114220000D02*
X189850000Y-105740000D01*
X186615000Y-120800000D02*
X186615000Y-117455000D01*
X189850000Y-105740000D02*
X185460000Y-101350000D01*
X185460000Y-101350000D02*
X181840000Y-101350000D01*
X186615000Y-117455000D02*
X189850000Y-114220000D01*
X196765000Y-115200000D02*
X196765000Y-113280000D01*
X192335000Y-123620000D02*
X192335000Y-119630000D01*
X192335000Y-119630000D02*
X196765000Y-115200000D01*
G04 #@! TA.AperFunction,Conductor*
G36*
X190357092Y-118771398D02*
G01*
X190412050Y-118782329D01*
X190438725Y-118793378D01*
X190479131Y-118820374D01*
X190499549Y-118840791D01*
X190526548Y-118881197D01*
X190537597Y-118907870D01*
X190548531Y-118962824D01*
X190549954Y-118977262D01*
X190550005Y-120842704D01*
X190548584Y-120857141D01*
X190537654Y-120912098D01*
X190526605Y-120938774D01*
X190499610Y-120979177D01*
X190479193Y-120999594D01*
X190438781Y-121026597D01*
X190412105Y-121037647D01*
X190357153Y-121048578D01*
X190342718Y-121050000D01*
X188577288Y-121050000D01*
X188562851Y-121048578D01*
X188507899Y-121037647D01*
X188481224Y-121026598D01*
X188481223Y-121026597D01*
X188440815Y-120999597D01*
X188420402Y-120979184D01*
X188393400Y-120938773D01*
X188382352Y-120912099D01*
X188371422Y-120857147D01*
X188370000Y-120842711D01*
X188370000Y-119557679D01*
X188372603Y-119538226D01*
X188392358Y-119465746D01*
X188412104Y-119432215D01*
X188465908Y-119379783D01*
X188481653Y-119368074D01*
X189510645Y-118797373D01*
X189519098Y-118793362D01*
X189539544Y-118785200D01*
X189552903Y-118779867D01*
X189570983Y-118775187D01*
X189607111Y-118770588D01*
X189616424Y-118769998D01*
X190342658Y-118769978D01*
X190357092Y-118771398D01*
G37*
G04 #@! TD.AperFunction*
G04 #@! TA.AperFunction,Conductor*
G36*
X197390925Y-111273301D02*
G01*
X197426889Y-111322801D01*
X197431734Y-111353394D01*
X197431734Y-112388914D01*
X197431128Y-112399847D01*
X197391735Y-112754376D01*
X197391734Y-112754403D01*
X197391734Y-113675479D01*
X197372827Y-113733670D01*
X197323327Y-113769634D01*
X197292820Y-113774479D01*
X196231626Y-113775398D01*
X196173419Y-113756541D01*
X196137412Y-113707072D01*
X196132540Y-113676484D01*
X196132539Y-113675479D01*
X196131734Y-112744394D01*
X196102096Y-112398617D01*
X196101734Y-112390162D01*
X196101734Y-111353394D01*
X196120641Y-111295203D01*
X196170141Y-111259239D01*
X196200734Y-111254394D01*
X197332734Y-111254394D01*
X197390925Y-111273301D01*
G37*
G04 #@! TD.AperFunction*
G04 #@! TA.AperFunction,Conductor*
G36*
X193272808Y-114217777D02*
G01*
X193308830Y-114267235D01*
X193313711Y-114297822D01*
X193314989Y-115386755D01*
X193296150Y-115444968D01*
X193285859Y-115457007D01*
X192596116Y-116144133D01*
X192541547Y-116171807D01*
X192481133Y-116162121D01*
X192460350Y-116147880D01*
X191841098Y-115595574D01*
X191810256Y-115542731D01*
X191814609Y-115486109D01*
X192285604Y-114263334D01*
X192324164Y-114215830D01*
X192377870Y-114199920D01*
X193214595Y-114198938D01*
X193272808Y-114217777D01*
G37*
G04 #@! TD.AperFunction*
G04 #@! TA.AperFunction,Conductor*
G36*
X192682148Y-122216422D02*
G01*
X192714434Y-122222843D01*
X192737099Y-122227352D01*
X192763773Y-122238400D01*
X192804184Y-122265402D01*
X192824597Y-122285815D01*
X192851569Y-122326180D01*
X192851598Y-122326224D01*
X192862647Y-122352899D01*
X192873578Y-122407851D01*
X192875000Y-122422288D01*
X192875000Y-123927821D01*
X192873577Y-123942261D01*
X192862641Y-123997225D01*
X192851588Y-124023904D01*
X192824579Y-124064316D01*
X192804154Y-124084735D01*
X192763731Y-124111732D01*
X192737047Y-124122776D01*
X192682083Y-124133692D01*
X192667643Y-124135110D01*
X192372890Y-124135012D01*
X192011643Y-124134890D01*
X191997207Y-124133463D01*
X191942263Y-124122515D01*
X191915592Y-124111457D01*
X191875193Y-124084444D01*
X191854783Y-124064021D01*
X191827798Y-124023606D01*
X191816757Y-123996926D01*
X191805845Y-123941970D01*
X191804428Y-123927533D01*
X191804930Y-122422214D01*
X191806356Y-122407788D01*
X191817301Y-122352844D01*
X191828350Y-122326188D01*
X191855360Y-122285783D01*
X191875766Y-122265384D01*
X191916180Y-122238388D01*
X191942840Y-122227348D01*
X191985476Y-122218869D01*
X191997789Y-122216421D01*
X192012222Y-122215000D01*
X192667712Y-122215000D01*
X192682148Y-122216422D01*
G37*
G04 #@! TD.AperFunction*
G04 #@! TA.AperFunction,Conductor*
G36*
X197333318Y-86696131D02*
G01*
X197348838Y-86702560D01*
X197384606Y-86733927D01*
X197386329Y-86736909D01*
X197393719Y-86754751D01*
X197395304Y-86760665D01*
X197395306Y-86760670D01*
X197451392Y-86969990D01*
X197451393Y-86969991D01*
X197540707Y-87185617D01*
X197541130Y-87186749D01*
X197541712Y-87188043D01*
X197591591Y-87274436D01*
X197659724Y-87392446D01*
X197659728Y-87392452D01*
X197710610Y-87458762D01*
X197803408Y-87579699D01*
X197970301Y-87746592D01*
X198157550Y-87890273D01*
X198361951Y-88008284D01*
X198580007Y-88098606D01*
X198749331Y-88143976D01*
X198761908Y-88153627D01*
X198807993Y-88159694D01*
X198807992Y-88159694D01*
X198849704Y-88165185D01*
X198911837Y-88173365D01*
X198911838Y-88173365D01*
X199041989Y-88190500D01*
X199120438Y-88190500D01*
X204770781Y-88190500D01*
X204799091Y-88196129D01*
X204809503Y-88200442D01*
X204849553Y-88240485D01*
X204849556Y-88240492D01*
X204853867Y-88250900D01*
X204859500Y-88279218D01*
X204859500Y-132000781D01*
X204853867Y-132029099D01*
X204849556Y-132039507D01*
X204849556Y-132039508D01*
X204829531Y-132059531D01*
X204809508Y-132079555D01*
X204809507Y-132079556D01*
X204799099Y-132083867D01*
X204770781Y-132089500D01*
X199207594Y-132089500D01*
X199160000Y-132089500D01*
X199041989Y-132089500D01*
X199021081Y-132092252D01*
X199000172Y-132095005D01*
X198807993Y-132120304D01*
X198580011Y-132181392D01*
X198580004Y-132181394D01*
X198364381Y-132270707D01*
X198363252Y-132271128D01*
X198361955Y-132271712D01*
X198157557Y-132389721D01*
X198157524Y-132389744D01*
X197970299Y-132533408D01*
X197803408Y-132700299D01*
X197659744Y-132887524D01*
X197659721Y-132887557D01*
X197541712Y-133091955D01*
X197541128Y-133093252D01*
X197540707Y-133094381D01*
X197451394Y-133310004D01*
X197451392Y-133310011D01*
X197419609Y-133428628D01*
X197419608Y-133428628D01*
X197395008Y-133520435D01*
X197382239Y-133546329D01*
X197372014Y-133559655D01*
X197332474Y-133586082D01*
X197329148Y-133586974D01*
X197309979Y-133589500D01*
X173608719Y-133589500D01*
X173580404Y-133583868D01*
X173569995Y-133579557D01*
X173529946Y-133539513D01*
X173525629Y-133529091D01*
X173520000Y-133500781D01*
X173520000Y-123774105D01*
X180909500Y-123774105D01*
X180909500Y-123905894D01*
X180943606Y-124033181D01*
X180943610Y-124033190D01*
X180973006Y-124084105D01*
X181009497Y-124147310D01*
X181009498Y-124147311D01*
X181009500Y-124147314D01*
X181102686Y-124240500D01*
X181216814Y-124306392D01*
X181339424Y-124339244D01*
X181343122Y-124340500D01*
X181475894Y-124340500D01*
X181486157Y-124340500D01*
X181495045Y-124335367D01*
X181603186Y-124306392D01*
X181717314Y-124240500D01*
X181810500Y-124147314D01*
X181846994Y-124084105D01*
X184009500Y-124084105D01*
X184009500Y-124215894D01*
X184043606Y-124343181D01*
X184043607Y-124343184D01*
X184043608Y-124343186D01*
X184109500Y-124457314D01*
X184202686Y-124550500D01*
X184316814Y-124616392D01*
X184439424Y-124649244D01*
X184443122Y-124650500D01*
X184575894Y-124650500D01*
X184586157Y-124650500D01*
X184595045Y-124645367D01*
X184703186Y-124616392D01*
X184817314Y-124550500D01*
X184910500Y-124457314D01*
X184976392Y-124343186D01*
X185005367Y-124235045D01*
X185010500Y-124226156D01*
X185010500Y-124083121D01*
X185009241Y-124079412D01*
X185003082Y-124056428D01*
X184996855Y-124033186D01*
X184976392Y-123956814D01*
X184959429Y-123927433D01*
X191498928Y-123927433D01*
X191500388Y-123957369D01*
X191501807Y-123971821D01*
X191506195Y-124001471D01*
X191517107Y-124056424D01*
X191517108Y-124056428D01*
X191525494Y-124084105D01*
X191534474Y-124113744D01*
X191545515Y-124140424D01*
X191573728Y-124193248D01*
X191582723Y-124206719D01*
X191600711Y-124233661D01*
X191600713Y-124233664D01*
X191638687Y-124279966D01*
X191638693Y-124279973D01*
X191659103Y-124300396D01*
X191705383Y-124338402D01*
X191712535Y-124343184D01*
X191745771Y-124365408D01*
X191745774Y-124365409D01*
X191745782Y-124365415D01*
X191798587Y-124393663D01*
X191825258Y-124404721D01*
X191825262Y-124404722D01*
X191825264Y-124404723D01*
X191826351Y-124405053D01*
X191882563Y-124422125D01*
X191904947Y-124426585D01*
X191937479Y-124433068D01*
X191937493Y-124433070D01*
X191937507Y-124433073D01*
X191967155Y-124437481D01*
X191981591Y-124438908D01*
X192011540Y-124440390D01*
X192372787Y-124440512D01*
X192372788Y-124440512D01*
X192667541Y-124440610D01*
X192697499Y-124439148D01*
X192711939Y-124437730D01*
X192741594Y-124433340D01*
X192796558Y-124422424D01*
X192853877Y-124405054D01*
X192880561Y-124394010D01*
X192881211Y-124393663D01*
X192933386Y-124365792D01*
X192933391Y-124365788D01*
X192933402Y-124365783D01*
X192973825Y-124338786D01*
X193020143Y-124300788D01*
X193040568Y-124280369D01*
X193078574Y-124234071D01*
X193105583Y-124193659D01*
X193133825Y-124140834D01*
X193144878Y-124114155D01*
X193162268Y-124056841D01*
X193173204Y-124001877D01*
X193177604Y-123972222D01*
X193179027Y-123957782D01*
X193180500Y-123927821D01*
X193180500Y-122422288D01*
X193179029Y-122392342D01*
X193177607Y-122377905D01*
X193173208Y-122348249D01*
X193166955Y-122316817D01*
X193162279Y-122293304D01*
X193162276Y-122293293D01*
X193157752Y-122278382D01*
X193144893Y-122235991D01*
X193144729Y-122235595D01*
X193141132Y-122226909D01*
X193135500Y-122198593D01*
X193135500Y-120006948D01*
X193141131Y-119978634D01*
X193151542Y-119953499D01*
X193167578Y-119929499D01*
X197386788Y-115710290D01*
X197386789Y-115710289D01*
X197474394Y-115579179D01*
X197534737Y-115433497D01*
X197565500Y-115278842D01*
X197565500Y-115121158D01*
X197565500Y-114000286D01*
X197587174Y-113947960D01*
X197588646Y-113946529D01*
X197599433Y-113936324D01*
X197609653Y-113926656D01*
X197663375Y-113828073D01*
X197682282Y-113769882D01*
X197697234Y-113675479D01*
X197697234Y-112775397D01*
X197697687Y-112767225D01*
X197734757Y-112433604D01*
X197734759Y-112433585D01*
X197736160Y-112416754D01*
X197736766Y-112405821D01*
X197737234Y-112388914D01*
X197737234Y-111353394D01*
X197733473Y-111305608D01*
X197728628Y-111275015D01*
X197722221Y-111244640D01*
X197674043Y-111143232D01*
X197638079Y-111093732D01*
X197638074Y-111093726D01*
X197602403Y-111056022D01*
X197583911Y-111036475D01*
X197583906Y-111036472D01*
X197485326Y-110982752D01*
X197427147Y-110963848D01*
X197427134Y-110963845D01*
X197332735Y-110948894D01*
X197332734Y-110948894D01*
X196200734Y-110948894D01*
X196196974Y-110949189D01*
X196152949Y-110952654D01*
X196122369Y-110957497D01*
X196122352Y-110957500D01*
X196091981Y-110963906D01*
X196091975Y-110963909D01*
X195990579Y-111012081D01*
X195990565Y-111012089D01*
X195941073Y-111048047D01*
X195941066Y-111048053D01*
X195883819Y-111102213D01*
X195883815Y-111102217D01*
X195883814Y-111102218D01*
X195883812Y-111102221D01*
X195830092Y-111200801D01*
X195811188Y-111258980D01*
X195811185Y-111258993D01*
X195796234Y-111353393D01*
X195796234Y-112390162D01*
X195796514Y-112403253D01*
X195796873Y-112411651D01*
X195797712Y-112424705D01*
X195825977Y-112754476D01*
X195826247Y-112760731D01*
X195827039Y-113676742D01*
X195830841Y-113724525D01*
X195830842Y-113724531D01*
X195835713Y-113755115D01*
X195835715Y-113755125D01*
X195842148Y-113785489D01*
X195842149Y-113785491D01*
X195862424Y-113828073D01*
X195890413Y-113886855D01*
X195890414Y-113886856D01*
X195926422Y-113936327D01*
X195944211Y-113955097D01*
X195964500Y-114006000D01*
X195964500Y-114823051D01*
X195958867Y-114851367D01*
X195948459Y-114876497D01*
X195932418Y-114900503D01*
X191714856Y-119118065D01*
X191713390Y-119119441D01*
X191625602Y-119250825D01*
X191565265Y-119396493D01*
X191565263Y-119396499D01*
X191565260Y-119396509D01*
X191534500Y-119551159D01*
X191534500Y-122226803D01*
X191531308Y-122248303D01*
X191517689Y-122293154D01*
X191517689Y-122293155D01*
X191517688Y-122293159D01*
X191517688Y-122293160D01*
X191506743Y-122348104D01*
X191506718Y-122348273D01*
X191502335Y-122377754D01*
X191500912Y-122392161D01*
X191499429Y-122422133D01*
X191498928Y-123927433D01*
X184959429Y-123927433D01*
X184910500Y-123842686D01*
X184817314Y-123749500D01*
X184817311Y-123749498D01*
X184817310Y-123749497D01*
X184729569Y-123698840D01*
X184703191Y-123683610D01*
X184703186Y-123683608D01*
X184703184Y-123683607D01*
X184703182Y-123683606D01*
X184703181Y-123683606D01*
X184575894Y-123649500D01*
X184575893Y-123649500D01*
X184444107Y-123649500D01*
X184444106Y-123649500D01*
X184343707Y-123676401D01*
X184316814Y-123683607D01*
X184316796Y-123683616D01*
X184202688Y-123749497D01*
X184109497Y-123842688D01*
X184043616Y-123956796D01*
X184043608Y-123956814D01*
X184043606Y-123956818D01*
X184009500Y-124084105D01*
X181846994Y-124084105D01*
X181876392Y-124033186D01*
X181905727Y-123923703D01*
X181906124Y-123922415D01*
X181908643Y-123919371D01*
X181910500Y-123916156D01*
X181910500Y-123773121D01*
X181909244Y-123769424D01*
X181876542Y-123647377D01*
X181876405Y-123646847D01*
X181876393Y-123646816D01*
X181876389Y-123646809D01*
X181810500Y-123532686D01*
X181717314Y-123439500D01*
X181717311Y-123439498D01*
X181717310Y-123439497D01*
X181603202Y-123373616D01*
X181603193Y-123373611D01*
X181603190Y-123373610D01*
X181603183Y-123373607D01*
X181603184Y-123373607D01*
X181603182Y-123373606D01*
X181603181Y-123373606D01*
X181475894Y-123339500D01*
X181475893Y-123339500D01*
X181344107Y-123339500D01*
X181344106Y-123339500D01*
X181243707Y-123366401D01*
X181216814Y-123373607D01*
X181216796Y-123373616D01*
X181102688Y-123439497D01*
X181009497Y-123532688D01*
X180943616Y-123646796D01*
X180943608Y-123646814D01*
X180943606Y-123646818D01*
X180909500Y-123774105D01*
X173520000Y-123774105D01*
X173520000Y-110139998D01*
X174410000Y-110139998D01*
X174410000Y-110140000D01*
X174410001Y-110140036D01*
X174469896Y-111053666D01*
X174469899Y-111053696D01*
X174469901Y-111053713D01*
X174469904Y-111053730D01*
X174648495Y-111951685D01*
X174942797Y-112818796D01*
X175347803Y-113640007D01*
X175856490Y-114401288D01*
X175857264Y-114402232D01*
X175858086Y-114403109D01*
X176030061Y-114599179D01*
X176460300Y-115089700D01*
X176783527Y-115373204D01*
X176852272Y-115433501D01*
X177148704Y-115693504D01*
X177909994Y-116202197D01*
X177909999Y-116202199D01*
X177910000Y-116202200D01*
X178731200Y-116607200D01*
X179598300Y-116901500D01*
X179598304Y-116901500D01*
X179598316Y-116901504D01*
X180491768Y-117079199D01*
X180491788Y-117079202D01*
X180492116Y-117079268D01*
X180495299Y-117079903D01*
X180495307Y-117079908D01*
X180496163Y-117080091D01*
X180496311Y-117080100D01*
X180496312Y-117080101D01*
X180497528Y-117080180D01*
X180498719Y-117080259D01*
X181281209Y-117131557D01*
X181409993Y-117140000D01*
X181410000Y-117140000D01*
X181410007Y-117140000D01*
X181539761Y-117131493D01*
X182321286Y-117080259D01*
X182324847Y-117080025D01*
X182324888Y-117080022D01*
X182327688Y-117079838D01*
X182332032Y-117078442D01*
X182389872Y-117066939D01*
X183221691Y-116901502D01*
X183221692Y-116901501D01*
X183221700Y-116901500D01*
X183221706Y-116901497D01*
X183222765Y-116901287D01*
X183222785Y-116901283D01*
X183224000Y-116901041D01*
X183227421Y-116899557D01*
X184088800Y-116607200D01*
X184910000Y-116202200D01*
X185671300Y-115693500D01*
X186359700Y-115089700D01*
X186963500Y-114401300D01*
X187472200Y-113640000D01*
X187877200Y-112818800D01*
X188171500Y-111951700D01*
X188203098Y-111792828D01*
X188350097Y-111053715D01*
X188350338Y-111052503D01*
X188354414Y-111032008D01*
X188352012Y-111024531D01*
X188352727Y-111013630D01*
X188352728Y-111013606D01*
X188352828Y-111012089D01*
X188410000Y-110140007D01*
X188410000Y-110139992D01*
X188381294Y-109702119D01*
X188350259Y-109228712D01*
X188350101Y-109226306D01*
X188350093Y-109226268D01*
X188350002Y-109225807D01*
X188349197Y-109221757D01*
X188349197Y-109221756D01*
X188340792Y-109179501D01*
X188340792Y-109179500D01*
X188171504Y-108328315D01*
X188171500Y-108328302D01*
X188171500Y-108328300D01*
X187877200Y-107461200D01*
X187860242Y-107426815D01*
X187472204Y-106640007D01*
X187472200Y-106640000D01*
X187472197Y-106639995D01*
X187258067Y-106319536D01*
X186963504Y-105878704D01*
X186844374Y-105742883D01*
X186772692Y-105661158D01*
X186359700Y-105190300D01*
X185759780Y-104664106D01*
X185754433Y-104659416D01*
X185671294Y-104586494D01*
X184910007Y-104077803D01*
X184088796Y-103672797D01*
X183221685Y-103378495D01*
X182323730Y-103199904D01*
X182323713Y-103199901D01*
X182323696Y-103199899D01*
X182323689Y-103199898D01*
X182323687Y-103199898D01*
X182323684Y-103199897D01*
X182323666Y-103199896D01*
X181410036Y-103140001D01*
X181410012Y-103140000D01*
X181410007Y-103140000D01*
X181409993Y-103140000D01*
X181409988Y-103140000D01*
X181409963Y-103140001D01*
X180496332Y-103199896D01*
X180496302Y-103199899D01*
X180496285Y-103199901D01*
X180496268Y-103199904D01*
X179598313Y-103378495D01*
X178731202Y-103672797D01*
X177909991Y-104077803D01*
X177148700Y-104586497D01*
X177148698Y-104586498D01*
X176460303Y-105190296D01*
X176460296Y-105190303D01*
X175856498Y-105878698D01*
X175856497Y-105878700D01*
X175347803Y-106639991D01*
X174942797Y-107461202D01*
X174648495Y-108328313D01*
X174469904Y-109226268D01*
X174469901Y-109226285D01*
X174469899Y-109226302D01*
X174469896Y-109226332D01*
X174410001Y-110139962D01*
X174410000Y-110139998D01*
X173520000Y-110139998D01*
X173520000Y-108880000D01*
X158049219Y-108880000D01*
X158020904Y-108874368D01*
X158010495Y-108870057D01*
X157970446Y-108830013D01*
X157966129Y-108819591D01*
X157960500Y-108791281D01*
X157960500Y-101271159D01*
X181039500Y-101271159D01*
X181039500Y-101428839D01*
X181070260Y-101583489D01*
X181070263Y-101583500D01*
X181070265Y-101583505D01*
X181130603Y-101729175D01*
X181130604Y-101729176D01*
X181218209Y-101860287D01*
X181218211Y-101860289D01*
X181329711Y-101971789D01*
X181460821Y-102059394D01*
X181460826Y-102059396D01*
X181460825Y-102059396D01*
X181463979Y-102060702D01*
X181463980Y-102060703D01*
X181502886Y-102076818D01*
X181606498Y-102119735D01*
X181606503Y-102119737D01*
X181761158Y-102150500D01*
X185083051Y-102150500D01*
X185111365Y-102156131D01*
X185136497Y-102166541D01*
X185160503Y-102182581D01*
X189017418Y-106039496D01*
X189033457Y-106063499D01*
X189043868Y-106088633D01*
X189049500Y-106116948D01*
X189049500Y-113843051D01*
X189043867Y-113871367D01*
X189033459Y-113896497D01*
X189017418Y-113920503D01*
X185994856Y-116943065D01*
X185993390Y-116944441D01*
X185905602Y-117075825D01*
X185845265Y-117221493D01*
X185845263Y-117221499D01*
X185845260Y-117221509D01*
X185814500Y-117376159D01*
X185814500Y-120878840D01*
X185816136Y-120887066D01*
X185845260Y-121033489D01*
X185845263Y-121033500D01*
X185845265Y-121033505D01*
X185905603Y-121179175D01*
X185905604Y-121179176D01*
X185992246Y-121308846D01*
X185993211Y-121310289D01*
X186104711Y-121421789D01*
X186235821Y-121509394D01*
X186235826Y-121509396D01*
X186235825Y-121509396D01*
X186381498Y-121569735D01*
X186381503Y-121569737D01*
X186536158Y-121600500D01*
X186536160Y-121600500D01*
X186693840Y-121600500D01*
X186693842Y-121600500D01*
X186848497Y-121569737D01*
X186994179Y-121509394D01*
X187125289Y-121421789D01*
X187236789Y-121310289D01*
X187324394Y-121179179D01*
X187384737Y-121033497D01*
X187415500Y-120878842D01*
X187415500Y-119557666D01*
X188064500Y-119557666D01*
X188064500Y-119557679D01*
X188064500Y-120842711D01*
X188065429Y-120861625D01*
X188065971Y-120872666D01*
X188067392Y-120887089D01*
X188067393Y-120887096D01*
X188071785Y-120916707D01*
X188071795Y-120916766D01*
X188082717Y-120971683D01*
X188082720Y-120971692D01*
X188100103Y-121029002D01*
X188111151Y-121055673D01*
X188111154Y-121055680D01*
X188139385Y-121108498D01*
X188139389Y-121108504D01*
X188166379Y-121148898D01*
X188166389Y-121148912D01*
X188204381Y-121195205D01*
X188224794Y-121215618D01*
X188271087Y-121253610D01*
X188311495Y-121280610D01*
X188364309Y-121308841D01*
X188390985Y-121319891D01*
X188390992Y-121319893D01*
X188390997Y-121319895D01*
X188448293Y-121337276D01*
X188448304Y-121337279D01*
X188471817Y-121341955D01*
X188503249Y-121348208D01*
X188532905Y-121352607D01*
X188547342Y-121354029D01*
X188577288Y-121355500D01*
X190342706Y-121355500D01*
X190342718Y-121355500D01*
X190372668Y-121354028D01*
X190387103Y-121352606D01*
X190416755Y-121348208D01*
X190455884Y-121340424D01*
X190471699Y-121337279D01*
X190471704Y-121337277D01*
X190471707Y-121337277D01*
X190529019Y-121319891D01*
X190555695Y-121308841D01*
X190608510Y-121280609D01*
X190648922Y-121253606D01*
X190695214Y-121215615D01*
X190715631Y-121195198D01*
X190753628Y-121148898D01*
X190780623Y-121108495D01*
X190808852Y-121055679D01*
X190819901Y-121029003D01*
X190837286Y-120971690D01*
X190848216Y-120916733D01*
X190852615Y-120887066D01*
X190854036Y-120872629D01*
X190855505Y-120842696D01*
X190855485Y-120132788D01*
X190855500Y-120132501D01*
X190855500Y-118366948D01*
X190861131Y-118338634D01*
X190871542Y-118313499D01*
X190887578Y-118289499D01*
X193436788Y-115740290D01*
X193436789Y-115740289D01*
X193437526Y-115739184D01*
X193446828Y-115727869D01*
X193501469Y-115673438D01*
X193518080Y-115655511D01*
X193528371Y-115643472D01*
X193533201Y-115637677D01*
X193586808Y-115539031D01*
X193605647Y-115480818D01*
X193620489Y-115386396D01*
X193619211Y-114297463D01*
X193615734Y-114253947D01*
X193615500Y-114248055D01*
X193615500Y-111296948D01*
X193621131Y-111268634D01*
X193631542Y-111243499D01*
X193647578Y-111219499D01*
X194514499Y-110352578D01*
X194538502Y-110336541D01*
X194563633Y-110326131D01*
X194591949Y-110320500D01*
X198458051Y-110320500D01*
X198486365Y-110326131D01*
X198511497Y-110336541D01*
X198535503Y-110352581D01*
X201922418Y-113739496D01*
X201938457Y-113763499D01*
X201948868Y-113788633D01*
X201954500Y-113816948D01*
X201954500Y-124288841D01*
X201957991Y-124306393D01*
X201985260Y-124443489D01*
X201985263Y-124443500D01*
X201985265Y-124443505D01*
X202045603Y-124589175D01*
X202045604Y-124589176D01*
X202045605Y-124589177D01*
X202045606Y-124589179D01*
X202133211Y-124720289D01*
X202244711Y-124831789D01*
X202375821Y-124919394D01*
X202375826Y-124919396D01*
X202375825Y-124919396D01*
X202521498Y-124979735D01*
X202521503Y-124979737D01*
X202676158Y-125010500D01*
X202676160Y-125010500D01*
X202833840Y-125010500D01*
X202833842Y-125010500D01*
X202988497Y-124979737D01*
X203134179Y-124919394D01*
X203265289Y-124831789D01*
X203376789Y-124720289D01*
X203464394Y-124589179D01*
X203524737Y-124443497D01*
X203555500Y-124288842D01*
X203555500Y-113361158D01*
X203524737Y-113206503D01*
X203524735Y-113206498D01*
X203464396Y-113060825D01*
X203464395Y-113060823D01*
X203464394Y-113060821D01*
X203376789Y-112929711D01*
X203265289Y-112818211D01*
X200183610Y-109736532D01*
X200167570Y-109712526D01*
X200163259Y-109702119D01*
X200163257Y-109645484D01*
X200167570Y-109635070D01*
X200183607Y-109611068D01*
X200280570Y-109514105D01*
X200889500Y-109514105D01*
X200889500Y-109645894D01*
X200923606Y-109773181D01*
X200923607Y-109773184D01*
X200923608Y-109773186D01*
X200989500Y-109887314D01*
X201082686Y-109980500D01*
X201196814Y-110046392D01*
X201319424Y-110079244D01*
X201323122Y-110080500D01*
X201455894Y-110080500D01*
X201466157Y-110080500D01*
X201475045Y-110075367D01*
X201583186Y-110046392D01*
X201697314Y-109980500D01*
X201790500Y-109887314D01*
X201856392Y-109773186D01*
X201885367Y-109665045D01*
X201890500Y-109656156D01*
X201890500Y-109513121D01*
X201889244Y-109509424D01*
X201856542Y-109387377D01*
X201856405Y-109386847D01*
X201856393Y-109386816D01*
X201856389Y-109386809D01*
X201790500Y-109272686D01*
X201697314Y-109179500D01*
X201697311Y-109179498D01*
X201697310Y-109179497D01*
X201583202Y-109113616D01*
X201583193Y-109113611D01*
X201583190Y-109113610D01*
X201583183Y-109113607D01*
X201583184Y-109113607D01*
X201583182Y-109113606D01*
X201583181Y-109113606D01*
X201455894Y-109079500D01*
X201455893Y-109079500D01*
X201324107Y-109079500D01*
X201324106Y-109079500D01*
X201223707Y-109106401D01*
X201196814Y-109113607D01*
X201196796Y-109113616D01*
X201082688Y-109179497D01*
X200989497Y-109272688D01*
X200923616Y-109386796D01*
X200923608Y-109386814D01*
X200923606Y-109386818D01*
X200889500Y-109514105D01*
X200280570Y-109514105D01*
X201128284Y-108666392D01*
X202161484Y-107633193D01*
X202161485Y-107633190D01*
X202161487Y-107633189D01*
X202216842Y-107537308D01*
X202216843Y-107537307D01*
X202240367Y-107449512D01*
X202245500Y-107440623D01*
X202245500Y-106577244D01*
X202248021Y-106558094D01*
X202252892Y-106539913D01*
X202260286Y-106522062D01*
X202291392Y-106468186D01*
X202320367Y-106360045D01*
X202325500Y-106351156D01*
X202325500Y-106208120D01*
X202324242Y-106204415D01*
X202320631Y-106190940D01*
X202320630Y-106190937D01*
X202315233Y-106170793D01*
X202291392Y-106081814D01*
X202225500Y-105967686D01*
X202132314Y-105874500D01*
X202132311Y-105874498D01*
X202132310Y-105874497D01*
X202018202Y-105808616D01*
X202018193Y-105808611D01*
X202018190Y-105808610D01*
X202018183Y-105808607D01*
X202018184Y-105808607D01*
X202018182Y-105808606D01*
X202018181Y-105808606D01*
X201890894Y-105774500D01*
X201890893Y-105774500D01*
X201759107Y-105774500D01*
X201759106Y-105774500D01*
X201658707Y-105801401D01*
X201631814Y-105808607D01*
X201631796Y-105808616D01*
X201517688Y-105874497D01*
X201424497Y-105967688D01*
X201358616Y-106081796D01*
X201358608Y-106081814D01*
X201358606Y-106081818D01*
X201324500Y-106209105D01*
X201324500Y-106340894D01*
X201344746Y-106416453D01*
X201358608Y-106468187D01*
X201389714Y-106522064D01*
X201397106Y-106539909D01*
X201401978Y-106558089D01*
X201404500Y-106577244D01*
X201404500Y-107155451D01*
X201398867Y-107183767D01*
X201388459Y-107208897D01*
X201372418Y-107232903D01*
X199588933Y-109016388D01*
X199564927Y-109032428D01*
X199554520Y-109036739D01*
X199497883Y-109036740D01*
X199497882Y-109036740D01*
X199497881Y-109036739D01*
X199487474Y-109032429D01*
X199463466Y-109016388D01*
X199345287Y-108898209D01*
X199285597Y-108858326D01*
X199255286Y-108838073D01*
X199245639Y-108823635D01*
X199068505Y-108750265D01*
X199068500Y-108750263D01*
X199068489Y-108750260D01*
X198964925Y-108729661D01*
X198964924Y-108729660D01*
X198913842Y-108719500D01*
X198913840Y-108719500D01*
X198471685Y-108719500D01*
X198443365Y-108713866D01*
X198436002Y-108710816D01*
X198395957Y-108670766D01*
X198395957Y-108614136D01*
X198399008Y-108606769D01*
X198415044Y-108582769D01*
X198490500Y-108507314D01*
X198556392Y-108393186D01*
X198590499Y-108265894D01*
X198590500Y-108265894D01*
X198590500Y-108154439D01*
X198590599Y-108152528D01*
X198591735Y-108150141D01*
X198596129Y-108128045D01*
X198600443Y-108117630D01*
X198613377Y-108104694D01*
X198614950Y-108101392D01*
X198617629Y-108100441D01*
X198640482Y-108077584D01*
X198641321Y-108077236D01*
X198688766Y-108074138D01*
X198692097Y-108075030D01*
X198709934Y-108082419D01*
X198716814Y-108086392D01*
X198839424Y-108119244D01*
X198843122Y-108120500D01*
X198975894Y-108120500D01*
X198986157Y-108120500D01*
X198995045Y-108115367D01*
X199103186Y-108086392D01*
X199217314Y-108020500D01*
X199310500Y-107927314D01*
X199376392Y-107813186D01*
X199405367Y-107705045D01*
X199410500Y-107696156D01*
X199410500Y-107553121D01*
X199409244Y-107549424D01*
X199376542Y-107427377D01*
X199376405Y-107426847D01*
X199376393Y-107426816D01*
X199376389Y-107426809D01*
X199310500Y-107312686D01*
X199217314Y-107219500D01*
X199165491Y-107189580D01*
X199165490Y-107189579D01*
X199103208Y-107153619D01*
X199103193Y-107153612D01*
X199103190Y-107153610D01*
X199103183Y-107153607D01*
X199103184Y-107153607D01*
X199103182Y-107153606D01*
X199103181Y-107153606D01*
X198975894Y-107119500D01*
X198975893Y-107119500D01*
X198844107Y-107119500D01*
X198844106Y-107119500D01*
X198743707Y-107146401D01*
X198716814Y-107153607D01*
X198716796Y-107153616D01*
X198602688Y-107219497D01*
X198509497Y-107312688D01*
X198443616Y-107426796D01*
X198443608Y-107426814D01*
X198443606Y-107426818D01*
X198410757Y-107549416D01*
X198409500Y-107554106D01*
X198409500Y-107663644D01*
X198403867Y-107691962D01*
X198399556Y-107702370D01*
X198359508Y-107742418D01*
X198359481Y-107742430D01*
X198358681Y-107742761D01*
X198311239Y-107745862D01*
X198307917Y-107744972D01*
X198290067Y-107737579D01*
X198283197Y-107733612D01*
X198283187Y-107733608D01*
X198283181Y-107733606D01*
X198283179Y-107733605D01*
X198283178Y-107733605D01*
X198203456Y-107712244D01*
X198155894Y-107699500D01*
X198155893Y-107699500D01*
X198024107Y-107699500D01*
X198024106Y-107699500D01*
X197976544Y-107712244D01*
X197896814Y-107733607D01*
X197896796Y-107733616D01*
X197782688Y-107799497D01*
X197689497Y-107892688D01*
X197623616Y-108006796D01*
X197623610Y-108006809D01*
X197623606Y-108006818D01*
X197589500Y-108134105D01*
X197589500Y-108265894D01*
X197623606Y-108393181D01*
X197623607Y-108393183D01*
X197623616Y-108393202D01*
X197689497Y-108507310D01*
X197689498Y-108507311D01*
X197689500Y-108507314D01*
X197764952Y-108582766D01*
X197780994Y-108606775D01*
X197784042Y-108614134D01*
X197784040Y-108670771D01*
X197743999Y-108710815D01*
X197743992Y-108710817D01*
X197743991Y-108710819D01*
X197743989Y-108710818D01*
X197736640Y-108713864D01*
X197708315Y-108719500D01*
X194719219Y-108719500D01*
X194690904Y-108713868D01*
X194680495Y-108709557D01*
X194680491Y-108709553D01*
X194680486Y-108709553D01*
X194680484Y-108709552D01*
X194660465Y-108689529D01*
X194640446Y-108669513D01*
X194636129Y-108659091D01*
X194630500Y-108630781D01*
X194630500Y-107712244D01*
X194633021Y-107693094D01*
X194637892Y-107674913D01*
X194645286Y-107657062D01*
X194659066Y-107633194D01*
X194659067Y-107633193D01*
X194676392Y-107603186D01*
X194705367Y-107495045D01*
X194710500Y-107486156D01*
X194710500Y-107343121D01*
X194709241Y-107339412D01*
X194702080Y-107312688D01*
X194702080Y-107312686D01*
X194676392Y-107216814D01*
X194610500Y-107102686D01*
X194517314Y-107009500D01*
X194517311Y-107009498D01*
X194517310Y-107009497D01*
X194403202Y-106943616D01*
X194403193Y-106943611D01*
X194403190Y-106943610D01*
X194403183Y-106943607D01*
X194403184Y-106943607D01*
X194403182Y-106943606D01*
X194403181Y-106943606D01*
X194275894Y-106909500D01*
X194275893Y-106909500D01*
X194144107Y-106909500D01*
X194144106Y-106909500D01*
X194073084Y-106928530D01*
X194016814Y-106943607D01*
X194016796Y-106943616D01*
X193902688Y-107009497D01*
X193809497Y-107102688D01*
X193743616Y-107216796D01*
X193743608Y-107216814D01*
X193743606Y-107216818D01*
X193709500Y-107344105D01*
X193709500Y-107475894D01*
X193743606Y-107603181D01*
X193743609Y-107603186D01*
X193743609Y-107603187D01*
X193774714Y-107657063D01*
X193782106Y-107674909D01*
X193786978Y-107693090D01*
X193789500Y-107712244D01*
X193789500Y-108787283D01*
X193783866Y-108815604D01*
X193775436Y-108835954D01*
X193748183Y-108869161D01*
X193704719Y-108898203D01*
X193704714Y-108898207D01*
X192194856Y-110408065D01*
X192193390Y-110409441D01*
X192105602Y-110540825D01*
X192045265Y-110686493D01*
X192045263Y-110686499D01*
X192045260Y-110686509D01*
X192014500Y-110841159D01*
X192014500Y-114109501D01*
X192004544Y-114146574D01*
X192000522Y-114153521D01*
X192000520Y-114153525D01*
X191530717Y-115373204D01*
X191513989Y-115398931D01*
X189434856Y-117478065D01*
X189433390Y-117479441D01*
X189345602Y-117610825D01*
X189285265Y-117756493D01*
X189285263Y-117756499D01*
X189285260Y-117756509D01*
X189254500Y-117911159D01*
X189254500Y-118546518D01*
X189232826Y-118598844D01*
X189216391Y-118611231D01*
X188333498Y-119100902D01*
X188333469Y-119100919D01*
X188299350Y-119122929D01*
X188299341Y-119122935D01*
X188283602Y-119134640D01*
X188252711Y-119160974D01*
X188252698Y-119160986D01*
X188252694Y-119160990D01*
X188198890Y-119213422D01*
X188198885Y-119213427D01*
X188198884Y-119213428D01*
X188148856Y-119277194D01*
X188129111Y-119310724D01*
X188097611Y-119385407D01*
X188077854Y-119457893D01*
X188069805Y-119497689D01*
X188069799Y-119497721D01*
X188067197Y-119517171D01*
X188064500Y-119557666D01*
X187415500Y-119557666D01*
X187415500Y-117831948D01*
X187421131Y-117803634D01*
X187431542Y-117778499D01*
X187447578Y-117754499D01*
X190471788Y-114730290D01*
X190471789Y-114730289D01*
X190559394Y-114599179D01*
X190619737Y-114453497D01*
X190650500Y-114298842D01*
X190650500Y-114141158D01*
X190650500Y-106791470D01*
X199809200Y-106791470D01*
X199809200Y-106928528D01*
X199835936Y-107062948D01*
X199835939Y-107062959D01*
X199835940Y-107062964D01*
X199852395Y-107102688D01*
X199888387Y-107189580D01*
X199888389Y-107189583D01*
X199888390Y-107189585D01*
X199964537Y-107303547D01*
X200061453Y-107400463D01*
X200175415Y-107476610D01*
X200175420Y-107476612D01*
X200175419Y-107476612D01*
X200178573Y-107477918D01*
X200178574Y-107477919D01*
X200302009Y-107529047D01*
X200302038Y-107529059D01*
X200302043Y-107529061D01*
X200436470Y-107555800D01*
X200436471Y-107555800D01*
X200573529Y-107555800D01*
X200573530Y-107555800D01*
X200707957Y-107529061D01*
X200834585Y-107476610D01*
X200948547Y-107400463D01*
X201045463Y-107303547D01*
X201121610Y-107189585D01*
X201121612Y-107189579D01*
X201121613Y-107189579D01*
X201174059Y-107062961D01*
X201174060Y-107062959D01*
X201174061Y-107062957D01*
X201200800Y-106928530D01*
X201200800Y-106791470D01*
X201174061Y-106657043D01*
X201174058Y-106657035D01*
X201167001Y-106639998D01*
X201166999Y-106639995D01*
X201166997Y-106639991D01*
X201133073Y-106558089D01*
X201121617Y-106530430D01*
X201121614Y-106530424D01*
X201121612Y-106530419D01*
X201121611Y-106530417D01*
X201121610Y-106530415D01*
X201045463Y-106416453D01*
X200948547Y-106319537D01*
X200875691Y-106270856D01*
X200866045Y-106256420D01*
X200707964Y-106190940D01*
X200707959Y-106190939D01*
X200707948Y-106190936D01*
X200606680Y-106170793D01*
X200573534Y-106164200D01*
X200573530Y-106164200D01*
X200436470Y-106164200D01*
X200436468Y-106164200D01*
X200418741Y-106167726D01*
X200409877Y-106169489D01*
X200302050Y-106190936D01*
X200302039Y-106190939D01*
X200302034Y-106190940D01*
X200175418Y-106243387D01*
X200061183Y-106319716D01*
X200059807Y-106321182D01*
X199966182Y-106414807D01*
X199964716Y-106416183D01*
X199888388Y-106530417D01*
X199888387Y-106530419D01*
X199883466Y-106542298D01*
X199835940Y-106657034D01*
X199835939Y-106657039D01*
X199835936Y-106657050D01*
X199809200Y-106791470D01*
X190650500Y-106791470D01*
X190650500Y-105661158D01*
X190619738Y-105506503D01*
X190559394Y-105360821D01*
X190471789Y-105229711D01*
X189906183Y-104664105D01*
X196759500Y-104664105D01*
X196759500Y-104795894D01*
X196793606Y-104923181D01*
X196793607Y-104923184D01*
X196793608Y-104923186D01*
X196859500Y-105037314D01*
X196952686Y-105130500D01*
X197066814Y-105196392D01*
X197189424Y-105229244D01*
X197193122Y-105230500D01*
X197325894Y-105230500D01*
X197336157Y-105230500D01*
X197345045Y-105225367D01*
X197453186Y-105196392D01*
X197567314Y-105130500D01*
X197660500Y-105037314D01*
X197726392Y-104923186D01*
X197755367Y-104815045D01*
X197760500Y-104806156D01*
X197760500Y-104663121D01*
X197759244Y-104659424D01*
X197726542Y-104537377D01*
X197726405Y-104536847D01*
X197726393Y-104536816D01*
X197726389Y-104536809D01*
X197660500Y-104422686D01*
X197567314Y-104329500D01*
X197567311Y-104329498D01*
X197567310Y-104329497D01*
X197453202Y-104263616D01*
X197453193Y-104263611D01*
X197453190Y-104263610D01*
X197453183Y-104263607D01*
X197453184Y-104263607D01*
X197453182Y-104263606D01*
X197453181Y-104263606D01*
X197325894Y-104229500D01*
X197325893Y-104229500D01*
X197194107Y-104229500D01*
X197194106Y-104229500D01*
X197093707Y-104256401D01*
X197066814Y-104263607D01*
X197066796Y-104263616D01*
X196952688Y-104329497D01*
X196859497Y-104422688D01*
X196793616Y-104536796D01*
X196793608Y-104536814D01*
X196793606Y-104536818D01*
X196759500Y-104664105D01*
X189906183Y-104664105D01*
X188096183Y-102854105D01*
X194679500Y-102854105D01*
X194679500Y-102985894D01*
X194705921Y-103084500D01*
X194713607Y-103113184D01*
X194713608Y-103113186D01*
X194713610Y-103113191D01*
X194750847Y-103177686D01*
X194779497Y-103227310D01*
X194779498Y-103227311D01*
X194779500Y-103227314D01*
X194872686Y-103320500D01*
X194986814Y-103386392D01*
X195109424Y-103419244D01*
X195113122Y-103420500D01*
X195245894Y-103420500D01*
X195256157Y-103420500D01*
X195258572Y-103419105D01*
X196789500Y-103419105D01*
X196789500Y-103550894D01*
X196823606Y-103678181D01*
X196823607Y-103678184D01*
X196823608Y-103678186D01*
X196889500Y-103792314D01*
X196982686Y-103885500D01*
X197096814Y-103951392D01*
X197219424Y-103984244D01*
X197223122Y-103985500D01*
X197355894Y-103985500D01*
X197366157Y-103985500D01*
X197375045Y-103980367D01*
X197483186Y-103951392D01*
X197597314Y-103885500D01*
X197690500Y-103792314D01*
X197756392Y-103678186D01*
X197785367Y-103570045D01*
X197790500Y-103561156D01*
X197790500Y-103418121D01*
X197789244Y-103414424D01*
X197756542Y-103292377D01*
X197756405Y-103291847D01*
X197756393Y-103291816D01*
X197756389Y-103291809D01*
X197690500Y-103177686D01*
X197597314Y-103084500D01*
X197597311Y-103084498D01*
X197597310Y-103084497D01*
X197483202Y-103018616D01*
X197483193Y-103018611D01*
X197483190Y-103018610D01*
X197483183Y-103018607D01*
X197483184Y-103018607D01*
X197483182Y-103018606D01*
X197483181Y-103018606D01*
X197355894Y-102984500D01*
X197355893Y-102984500D01*
X197224107Y-102984500D01*
X197224106Y-102984500D01*
X197147418Y-103005048D01*
X197096814Y-103018607D01*
X197096796Y-103018616D01*
X196982688Y-103084497D01*
X196889497Y-103177688D01*
X196823616Y-103291796D01*
X196823608Y-103291814D01*
X196823606Y-103291818D01*
X196789500Y-103419105D01*
X195258572Y-103419105D01*
X195265045Y-103415367D01*
X195373186Y-103386392D01*
X195487314Y-103320500D01*
X195580500Y-103227314D01*
X195646392Y-103113186D01*
X195675367Y-103005045D01*
X195680500Y-102996156D01*
X195680500Y-102853122D01*
X195679245Y-102849428D01*
X195658097Y-102770500D01*
X195646392Y-102726814D01*
X195580500Y-102612686D01*
X195487314Y-102519500D01*
X195487311Y-102519498D01*
X195487310Y-102519497D01*
X195373202Y-102453616D01*
X195373193Y-102453611D01*
X195373190Y-102453610D01*
X195373183Y-102453607D01*
X195373184Y-102453607D01*
X195373182Y-102453606D01*
X195373181Y-102453606D01*
X195245894Y-102419500D01*
X195245893Y-102419500D01*
X195114107Y-102419500D01*
X195114106Y-102419500D01*
X195013707Y-102446401D01*
X194986814Y-102453607D01*
X194986796Y-102453616D01*
X194872688Y-102519497D01*
X194779497Y-102612688D01*
X194713616Y-102726796D01*
X194713608Y-102726814D01*
X194713606Y-102726818D01*
X194679500Y-102854105D01*
X188096183Y-102854105D01*
X187446183Y-102204105D01*
X201619500Y-102204105D01*
X201619500Y-102335894D01*
X201653606Y-102463181D01*
X201653607Y-102463184D01*
X201653608Y-102463186D01*
X201719500Y-102577314D01*
X201812686Y-102670500D01*
X201926814Y-102736392D01*
X202049424Y-102769244D01*
X202053122Y-102770500D01*
X202185894Y-102770500D01*
X202196157Y-102770500D01*
X202205045Y-102765367D01*
X202313186Y-102736392D01*
X202427314Y-102670500D01*
X202520500Y-102577314D01*
X202586392Y-102463186D01*
X202615367Y-102355045D01*
X202620500Y-102346156D01*
X202620500Y-102203123D01*
X202619247Y-102199433D01*
X202597892Y-102119735D01*
X202586392Y-102076814D01*
X202520500Y-101962686D01*
X202427314Y-101869500D01*
X202411358Y-101860288D01*
X202411357Y-101860287D01*
X202313190Y-101803610D01*
X202313183Y-101803607D01*
X202313184Y-101803607D01*
X202313182Y-101803606D01*
X202313181Y-101803606D01*
X202185894Y-101769500D01*
X202185893Y-101769500D01*
X202054107Y-101769500D01*
X202054106Y-101769500D01*
X201953707Y-101796401D01*
X201926814Y-101803607D01*
X201926796Y-101803616D01*
X201812688Y-101869497D01*
X201719497Y-101962688D01*
X201653616Y-102076796D01*
X201653608Y-102076814D01*
X201653606Y-102076818D01*
X201619500Y-102204105D01*
X187446183Y-102204105D01*
X185970289Y-100728211D01*
X185880285Y-100668072D01*
X185870639Y-100653635D01*
X185693505Y-100580265D01*
X185693500Y-100580263D01*
X185693489Y-100580260D01*
X185589925Y-100559661D01*
X185589924Y-100559660D01*
X185538842Y-100549500D01*
X181761158Y-100549500D01*
X181717314Y-100558219D01*
X181717315Y-100558220D01*
X181606511Y-100580259D01*
X181606493Y-100580265D01*
X181460825Y-100640602D01*
X181329441Y-100728390D01*
X181328065Y-100729856D01*
X181219856Y-100838065D01*
X181218390Y-100839441D01*
X181130602Y-100970825D01*
X181070265Y-101116493D01*
X181070263Y-101116499D01*
X181070260Y-101116509D01*
X181039500Y-101271159D01*
X157960500Y-101271159D01*
X157960500Y-99171470D01*
X198794200Y-99171470D01*
X198794200Y-99308528D01*
X198820936Y-99442948D01*
X198820939Y-99442959D01*
X198820940Y-99442964D01*
X198853527Y-99521634D01*
X198873387Y-99569580D01*
X198873389Y-99569583D01*
X198873390Y-99569585D01*
X198949537Y-99683547D01*
X199046453Y-99780463D01*
X199160415Y-99856610D01*
X199160420Y-99856612D01*
X199160419Y-99856612D01*
X199287038Y-99909059D01*
X199287043Y-99909061D01*
X199421470Y-99935800D01*
X199421471Y-99935800D01*
X199558529Y-99935800D01*
X199558530Y-99935800D01*
X199692957Y-99909061D01*
X199819585Y-99856610D01*
X199933547Y-99780463D01*
X200030463Y-99683547D01*
X200106610Y-99569585D01*
X200159061Y-99442957D01*
X200185800Y-99308530D01*
X200185800Y-99171470D01*
X200824200Y-99171470D01*
X200824200Y-99308528D01*
X200850936Y-99442948D01*
X200850939Y-99442959D01*
X200850940Y-99442964D01*
X200883527Y-99521634D01*
X200903387Y-99569580D01*
X200903389Y-99569583D01*
X200903390Y-99569585D01*
X200979537Y-99683547D01*
X201076453Y-99780463D01*
X201190415Y-99856610D01*
X201190420Y-99856612D01*
X201190419Y-99856612D01*
X201317038Y-99909059D01*
X201317043Y-99909061D01*
X201451470Y-99935800D01*
X201451471Y-99935800D01*
X201588529Y-99935800D01*
X201588530Y-99935800D01*
X201722957Y-99909061D01*
X201849585Y-99856610D01*
X201963547Y-99780463D01*
X202060463Y-99683547D01*
X202136610Y-99569585D01*
X202189061Y-99442957D01*
X202215800Y-99308530D01*
X202215800Y-99171470D01*
X202189061Y-99037043D01*
X202136610Y-98910415D01*
X202060463Y-98796453D01*
X201963547Y-98699537D01*
X201890691Y-98650856D01*
X201881045Y-98636420D01*
X201722964Y-98570940D01*
X201722959Y-98570939D01*
X201722948Y-98570936D01*
X201621680Y-98550793D01*
X201588534Y-98544200D01*
X201588530Y-98544200D01*
X201451470Y-98544200D01*
X201451468Y-98544200D01*
X201433741Y-98547726D01*
X201424877Y-98549489D01*
X201317050Y-98570936D01*
X201317039Y-98570939D01*
X201317034Y-98570940D01*
X201190418Y-98623387D01*
X201076183Y-98699716D01*
X201074807Y-98701182D01*
X200981182Y-98794807D01*
X200979716Y-98796183D01*
X200903387Y-98910418D01*
X200850940Y-99037034D01*
X200850939Y-99037039D01*
X200850936Y-99037050D01*
X200824200Y-99171470D01*
X200185800Y-99171470D01*
X200159061Y-99037043D01*
X200106610Y-98910415D01*
X200030463Y-98796453D01*
X199933547Y-98699537D01*
X199860691Y-98650856D01*
X199851045Y-98636420D01*
X199692964Y-98570940D01*
X199692959Y-98570939D01*
X199692948Y-98570936D01*
X199591680Y-98550793D01*
X199558534Y-98544200D01*
X199558530Y-98544200D01*
X199421470Y-98544200D01*
X199421468Y-98544200D01*
X199403741Y-98547726D01*
X199394877Y-98549489D01*
X199287050Y-98570936D01*
X199287039Y-98570939D01*
X199287034Y-98570940D01*
X199160418Y-98623387D01*
X199046183Y-98699716D01*
X199044807Y-98701182D01*
X198951182Y-98794807D01*
X198949716Y-98796183D01*
X198873387Y-98910418D01*
X198820940Y-99037034D01*
X198820939Y-99037039D01*
X198820936Y-99037050D01*
X198794200Y-99171470D01*
X157960500Y-99171470D01*
X157960500Y-95501470D01*
X199779200Y-95501470D01*
X199779200Y-95638528D01*
X199805936Y-95772948D01*
X199805939Y-95772959D01*
X199805940Y-95772964D01*
X199838527Y-95851634D01*
X199858387Y-95899580D01*
X199858389Y-95899583D01*
X199858390Y-95899585D01*
X199934537Y-96013547D01*
X200031453Y-96110463D01*
X200145415Y-96186610D01*
X200145420Y-96186612D01*
X200145419Y-96186612D01*
X200272038Y-96239059D01*
X200272043Y-96239061D01*
X200406470Y-96265800D01*
X200406471Y-96265800D01*
X200543529Y-96265800D01*
X200543530Y-96265800D01*
X200677957Y-96239061D01*
X200804585Y-96186610D01*
X200918547Y-96110463D01*
X201015463Y-96013547D01*
X201091610Y-95899585D01*
X201144061Y-95772957D01*
X201170800Y-95638530D01*
X201170800Y-95501470D01*
X201144061Y-95367043D01*
X201091610Y-95240415D01*
X201015463Y-95126453D01*
X200918547Y-95029537D01*
X200845691Y-94980856D01*
X200836045Y-94966420D01*
X200677964Y-94900940D01*
X200677959Y-94900939D01*
X200677948Y-94900936D01*
X200576680Y-94880793D01*
X200543534Y-94874200D01*
X200543530Y-94874200D01*
X200406470Y-94874200D01*
X200406468Y-94874200D01*
X200388741Y-94877726D01*
X200379877Y-94879489D01*
X200272050Y-94900936D01*
X200272039Y-94900939D01*
X200272034Y-94900940D01*
X200145418Y-94953387D01*
X200031183Y-95029716D01*
X200029807Y-95031182D01*
X199936182Y-95124807D01*
X199934716Y-95126183D01*
X199858387Y-95240418D01*
X199805940Y-95367034D01*
X199805939Y-95367039D01*
X199805936Y-95367050D01*
X199779200Y-95501470D01*
X157960500Y-95501470D01*
X157960500Y-90421470D01*
X198763200Y-90421470D01*
X198763200Y-90558528D01*
X198789936Y-90692948D01*
X198789939Y-90692959D01*
X198789940Y-90692964D01*
X198822527Y-90771634D01*
X198842387Y-90819580D01*
X198842389Y-90819583D01*
X198842390Y-90819585D01*
X198918537Y-90933547D01*
X199015453Y-91030463D01*
X199129415Y-91106610D01*
X199129420Y-91106612D01*
X199129419Y-91106612D01*
X199256038Y-91159059D01*
X199256043Y-91159061D01*
X199390470Y-91185800D01*
X199390471Y-91185800D01*
X199527529Y-91185800D01*
X199527530Y-91185800D01*
X199661957Y-91159061D01*
X199788585Y-91106610D01*
X199902547Y-91030463D01*
X199999463Y-90933547D01*
X200075610Y-90819585D01*
X200128061Y-90692957D01*
X200154800Y-90558530D01*
X200154800Y-90421470D01*
X200795200Y-90421470D01*
X200795200Y-90558528D01*
X200821936Y-90692948D01*
X200821939Y-90692959D01*
X200821940Y-90692964D01*
X200854527Y-90771634D01*
X200874387Y-90819580D01*
X200874389Y-90819583D01*
X200874390Y-90819585D01*
X200950537Y-90933547D01*
X201047453Y-91030463D01*
X201161415Y-91106610D01*
X201161420Y-91106612D01*
X201161419Y-91106612D01*
X201288038Y-91159059D01*
X201288043Y-91159061D01*
X201422470Y-91185800D01*
X201422471Y-91185800D01*
X201559529Y-91185800D01*
X201559530Y-91185800D01*
X201693957Y-91159061D01*
X201820585Y-91106610D01*
X201934547Y-91030463D01*
X202031463Y-90933547D01*
X202107610Y-90819585D01*
X202160061Y-90692957D01*
X202186800Y-90558530D01*
X202186800Y-90421470D01*
X202160061Y-90287043D01*
X202107610Y-90160415D01*
X202031463Y-90046453D01*
X201934547Y-89949537D01*
X201861691Y-89900856D01*
X201852045Y-89886420D01*
X201693964Y-89820940D01*
X201693959Y-89820939D01*
X201693948Y-89820936D01*
X201592680Y-89800793D01*
X201559534Y-89794200D01*
X201559530Y-89794200D01*
X201422470Y-89794200D01*
X201422468Y-89794200D01*
X201404741Y-89797726D01*
X201395877Y-89799489D01*
X201288050Y-89820936D01*
X201288039Y-89820939D01*
X201288034Y-89820940D01*
X201161418Y-89873387D01*
X201047183Y-89949716D01*
X201045807Y-89951182D01*
X200952182Y-90044807D01*
X200950716Y-90046183D01*
X200874387Y-90160418D01*
X200821940Y-90287034D01*
X200821939Y-90287039D01*
X200821936Y-90287050D01*
X200795200Y-90421470D01*
X200154800Y-90421470D01*
X200128061Y-90287043D01*
X200075610Y-90160415D01*
X199999463Y-90046453D01*
X199902547Y-89949537D01*
X199829691Y-89900856D01*
X199820045Y-89886420D01*
X199661964Y-89820940D01*
X199661959Y-89820939D01*
X199661948Y-89820936D01*
X199560680Y-89800793D01*
X199527534Y-89794200D01*
X199527530Y-89794200D01*
X199390470Y-89794200D01*
X199390468Y-89794200D01*
X199372741Y-89797726D01*
X199363877Y-89799489D01*
X199256050Y-89820936D01*
X199256039Y-89820939D01*
X199256034Y-89820940D01*
X199129418Y-89873387D01*
X199015183Y-89949716D01*
X199013807Y-89951182D01*
X198920182Y-90044807D01*
X198918716Y-90046183D01*
X198842387Y-90160418D01*
X198789940Y-90287034D01*
X198789939Y-90287039D01*
X198789936Y-90287050D01*
X198763200Y-90421470D01*
X157960500Y-90421470D01*
X157960500Y-88279218D01*
X157966129Y-88250909D01*
X157970443Y-88240494D01*
X158010482Y-88200448D01*
X158020911Y-88196128D01*
X158049219Y-88190500D01*
X163778009Y-88190500D01*
X163778011Y-88190500D01*
X163958300Y-88166764D01*
X164012007Y-88159694D01*
X164012007Y-88159693D01*
X164012014Y-88159693D01*
X164239993Y-88098606D01*
X164458049Y-88008284D01*
X164662450Y-87890273D01*
X164849699Y-87746592D01*
X165016592Y-87579699D01*
X165160273Y-87392450D01*
X165278284Y-87188049D01*
X165368606Y-86969993D01*
X165424990Y-86759562D01*
X165437762Y-86733667D01*
X165447987Y-86720342D01*
X165487550Y-86693910D01*
X165488630Y-86693620D01*
X165490878Y-86693019D01*
X165496621Y-86692263D01*
X165497036Y-86692024D01*
X165497498Y-86692147D01*
X165510021Y-86690500D01*
X197305003Y-86690500D01*
X197333318Y-86696131D01*
G37*
G04 #@! TD.AperFunction*
M02*
