M48
; DRILL file KiCad 10.0.3 date 2026-08-11T21:40:16
; FORMAT={-:-/ absolute / metric / decimal}
; #@! TF.CreationDate,2026-08-11T21:40:16+02:00
; #@! TF.GenerationSoftware,Kicad,Pcbnew,10.0.3
; #@! TF.FileFunction,Plated,1,4,PTH
FMAT,2
METRIC
; #@! TA.AperFunction,Plated,PTH,ViaDrill
T1C0.200
; #@! TA.AperFunction,Plated,PTH,ComponentDrill
T2C0.200
; #@! TA.AperFunction,Plated,PTH,ComponentDrill
T3C0.400
%
G90
G05
T1
X158.52Y-108.29
X159.55Y-101.71
X159.84Y-96.07
X160.05Y-105.67
X161.12Y-90.47
X161.33Y-108.37
X163.92Y-108.45
X164.77Y-104.96
X166.27Y-108.43
X166.46Y-101.98
X166.84Y-96.73
X167.61Y-88.49
X168.64Y-92.33
X168.72Y-108.4
X169.38Y-105.34
X171.34Y-108.51
X171.72Y-102.27
X172.52Y-95.04
X172.61Y-87.84
X173.77Y-114.48
X173.82Y-112.08
X173.85Y-117.43
X173.85Y-120.02
X173.88Y-108.73
X173.88Y-122.75
X173.99Y-131.87
X174.03Y-129.16
X174.12Y-105.32
X174.28Y-98.86
X174.34Y-124.54
X174.36Y-128.17
X174.92Y-129.97
X175.34Y-118.26
X175.49Y-116.12
X175.54Y-131.87
X175.79Y-124.5
X176.25Y-91.36
X176.68Y-130.01
X176.78Y-132.7
X176.98Y-103.19
X177.18Y-128.08
X177.34Y-124.61
X177.41Y-95.45
X177.67Y-129.99
X177.92Y-131.83
X178.62Y-117.7
X178.9Y-130.08
X179.18Y-131.85
X180.41Y-128.3
X180.45Y-130.08
X180.51Y-131.8
X181.17Y-99.65
X181.26Y-88.25
X181.41Y-123.84
X181.61Y-93.22
X181.84Y-101.35
X182.03Y-131.76
X182.14Y-130.12
X182.27Y-119.1
X182.86Y-133.21
X182.89Y-128.57
X183.6Y-131.81
X183.78Y-97.46
X183.9Y-130.08
X184.29Y-99.98
X184.51Y-124.15
X184.69Y-119.04
X184.83Y-103.03
X184.99Y-117.04
X185.11Y-131.82
X185.14Y-121.59
X185.39Y-130.08
X185.67Y-127.85
X186.08Y-97.16
X186.14Y-88.44
X186.22Y-124.9
X186.29Y-133.13
X186.615Y-120.8
X186.64Y-131.86
X186.98Y-130.06
X187.12Y-93.02
X187.73Y-123.18
X187.82Y-119.1
X188.02Y-106.03
X188.14Y-131.88
X188.16Y-113.8
X188.71Y-122.13
X188.87Y-130.01
X188.92Y-120.05
X189.25Y-132.83
X189.96Y-127.93
X190.055Y-120.05
X190.58Y-115.51
X190.65Y-129.92
X190.68Y-132.02
X190.99Y-88.22
X191.14Y-104.09
X191.48Y-126.38
X191.63Y-108.84
X192.11Y-129.17
X192.17Y-132.05
X192.335Y-123.62
X192.392Y-115.652
X192.51Y-101.15
X192.575Y-121.84
X192.59Y-92.38
X192.68Y-126.99
X192.76Y-97.07
X192.815Y-114.94
X193.07Y-133.21
X193.31Y-125.04
X193.38Y-105.81
X193.45Y-128.04
X193.51Y-129.84
X193.71Y-132.04
X193.72Y-126.08
X194.145Y-112.14
X194.21Y-107.41
X195.13Y-131.64
X195.135Y-111.15
X195.18Y-102.92
X195.335Y-113.16
X195.41Y-100.47
X195.99Y-130.7
X196.23Y-88.91
X196.25Y-132.61
X196.315Y-111.48
X196.325Y-112.18
X196.36Y-103.03
X196.765Y-110.64
X196.96Y-93.4
X196.98Y-107.94
X197.01Y-129.81
X197.03Y-96.44
X197.205Y-112.19
X197.215Y-111.49
X197.26Y-104.73
X197.26Y-127.17
X197.29Y-99.34
X197.29Y-103.485
X197.54Y-128.68
X198.09Y-108.2
X198.165Y-116.07
X198.245Y-114.62
X198.28Y-102.3
X198.28Y-130.95
X198.385Y-110.9
X198.91Y-107.62
X198.96Y-104.11
X199.01Y-125.33
X199.16Y-127.815
X199.535Y-113.71
X199.545Y-111.99
X199.8Y-107.94
X200.47Y-127.835
X201.28Y-131.13
X201.39Y-109.58
X201.44Y-125.31
X201.62Y-116.18
X201.73Y-120.2
X201.74Y-121.25
X201.825Y-106.275
X202.09Y-103.58
X202.12Y-102.27
X202.14Y-105.2
X202.26Y-100.57
X202.66Y-118.59
X202.74Y-127.71
X202.755Y-124.21
X202.76Y-97.22
X202.93Y-111.04
X203.56Y-90.73
X203.94Y-130.78
X204.17Y-125.38
X204.3Y-122.47
T2
X195.18Y-119.475
X195.18Y-120.735
X195.18Y-121.995
X196.24Y-118.415
X196.24Y-119.475
X196.24Y-120.735
X196.24Y-121.995
X196.24Y-123.055
X197.5Y-118.415
X197.5Y-119.475
X197.5Y-120.735
X197.5Y-121.995
X197.5Y-123.055
X198.76Y-118.415
X198.76Y-119.475
X198.76Y-120.735
X198.76Y-121.995
X198.76Y-123.055
X199.82Y-119.475
X199.82Y-120.735
X199.82Y-121.995
T3
X158.89Y-110.94
X158.89Y-112.94
X158.89Y-114.94
X158.89Y-116.94
X158.89Y-118.94
X158.89Y-120.94
X158.89Y-122.94
X158.89Y-124.94
X158.89Y-126.94
X158.89Y-128.94
X158.89Y-130.94
X163.89Y-110.94
X163.89Y-112.94
X163.89Y-114.94
X163.89Y-116.94
X163.89Y-118.94
X163.89Y-120.94
X163.89Y-122.94
X163.89Y-124.94
X163.89Y-126.94
X163.89Y-128.94
M30
