G04 #@! TF.GenerationSoftware,KiCad,Pcbnew,10.0.3*
G04 #@! TF.CreationDate,2026-08-11T21:40:08+02:00*
G04 #@! TF.ProjectId,TouchButtonPCB,546f7563-6842-4757-9474-6f6e5043422e,rev?*
G04 #@! TF.SameCoordinates,Original*
G04 #@! TF.FileFunction,Paste,Top*
G04 #@! TF.FilePolarity,Positive*
%FSLAX46Y46*%
G04 Gerber Fmt 4.6, Leading zero omitted, Abs format (unit mm)*
G04 Created by KiCad (PCBNEW 10.0.3) date 2026-08-11 21:40:08*
%MOMM*%
%LPD*%
G01*
G04 APERTURE LIST*
G04 Aperture macros list*
%AMRoundRect*
0 Rectangle with rounded corners*
0 $1 Rounding radius*
0 $2 $3 $4 $5 $6 $7 $8 $9 X,Y pos of 4 corners*
0 Add a 4 corners polygon primitive as box body*
4,1,4,$2,$3,$4,$5,$6,$7,$8,$9,$2,$3,0*
0 Add four circle primitives for the rounded corners*
1,1,$1+$1,$2,$3*
1,1,$1+$1,$4,$5*
1,1,$1+$1,$6,$7*
1,1,$1+$1,$8,$9*
0 Add four rect primitives between the rounded corners*
20,1,$1+$1,$2,$3,$4,$5,0*
20,1,$1+$1,$4,$5,$6,$7,0*
20,1,$1+$1,$6,$7,$8,$9,0*
20,1,$1+$1,$8,$9,$2,$3,0*%
G04 Aperture macros list end*
%ADD10C,0.010000*%
%ADD11R,0.620000X0.600000*%
%ADD12R,0.566000X0.540000*%
%ADD13R,0.600000X0.620000*%
%ADD14R,0.500000X0.650000*%
%ADD15R,0.650000X0.500000*%
%ADD16R,0.700000X1.250000*%
%ADD17R,0.940000X0.750000*%
%ADD18R,1.400000X1.200000*%
%ADD19R,0.700000X0.800000*%
%ADD20R,0.500000X0.800000*%
%ADD21R,0.550000X0.250000*%
%ADD22R,0.550000X0.200000*%
%ADD23R,0.300000X0.600000*%
%ADD24R,0.540000X0.566000*%
%ADD25R,1.700000X0.850000*%
%ADD26R,1.250000X1.000000*%
%ADD27R,0.800000X0.864000*%
%ADD28R,1.300000X1.600000*%
%ADD29RoundRect,0.050400X0.069600X-0.249600X0.069600X0.249600X-0.069600X0.249600X-0.069600X-0.249600X0*%
%ADD30RoundRect,0.050400X0.249600X-0.069600X0.249600X0.069600X-0.249600X0.069600X-0.249600X-0.069600X0*%
%ADD31R,1.000000X1.050000*%
%ADD32R,1.050000X2.200000*%
G04 APERTURE END LIST*
D10*
X195080000Y-118365000D02*
X195080000Y-118365000D01*
G75*
G02*
X195130000Y-118315000I50000J0D01*
G01*
X196090000Y-118315000D01*
G75*
G02*
X196140000Y-118365000I0J-50000D01*
G01*
X196140000Y-119325000D01*
G75*
G02*
X196090000Y-119375000I-50000J0D01*
G01*
X195130000Y-119375000D01*
G75*
G02*
X195080000Y-119325000I0J50000D01*
G01*
X195080000Y-118365000D01*
G36*
X195080000Y-118365000D02*
G01*
X195080000Y-118365000D01*
G75*
G02*
X195130000Y-118315000I50000J0D01*
G01*
X196090000Y-118315000D01*
G75*
G02*
X196140000Y-118365000I0J-50000D01*
G01*
X196140000Y-119325000D01*
G75*
G02*
X196090000Y-119375000I-50000J0D01*
G01*
X195130000Y-119375000D01*
G75*
G02*
X195080000Y-119325000I0J50000D01*
G01*
X195080000Y-118365000D01*
G37*
X195080000Y-119625000D02*
X195080000Y-119625000D01*
G75*
G02*
X195130000Y-119575000I50000J0D01*
G01*
X196090000Y-119575000D01*
G75*
G02*
X196140000Y-119625000I0J-50000D01*
G01*
X196140000Y-120585000D01*
G75*
G02*
X196090000Y-120635000I-50000J0D01*
G01*
X195130000Y-120635000D01*
G75*
G02*
X195080000Y-120585000I0J50000D01*
G01*
X195080000Y-119625000D01*
G36*
X195080000Y-119625000D02*
G01*
X195080000Y-119625000D01*
G75*
G02*
X195130000Y-119575000I50000J0D01*
G01*
X196090000Y-119575000D01*
G75*
G02*
X196140000Y-119625000I0J-50000D01*
G01*
X196140000Y-120585000D01*
G75*
G02*
X196090000Y-120635000I-50000J0D01*
G01*
X195130000Y-120635000D01*
G75*
G02*
X195080000Y-120585000I0J50000D01*
G01*
X195080000Y-119625000D01*
G37*
X195080000Y-120885000D02*
X195080000Y-120885000D01*
G75*
G02*
X195130000Y-120835000I50000J0D01*
G01*
X196090000Y-120835000D01*
G75*
G02*
X196140000Y-120885000I0J-50000D01*
G01*
X196140000Y-121845000D01*
G75*
G02*
X196090000Y-121895000I-50000J0D01*
G01*
X195130000Y-121895000D01*
G75*
G02*
X195080000Y-121845000I0J50000D01*
G01*
X195080000Y-120885000D01*
G36*
X195080000Y-120885000D02*
G01*
X195080000Y-120885000D01*
G75*
G02*
X195130000Y-120835000I50000J0D01*
G01*
X196090000Y-120835000D01*
G75*
G02*
X196140000Y-120885000I0J-50000D01*
G01*
X196140000Y-121845000D01*
G75*
G02*
X196090000Y-121895000I-50000J0D01*
G01*
X195130000Y-121895000D01*
G75*
G02*
X195080000Y-121845000I0J50000D01*
G01*
X195080000Y-120885000D01*
G37*
X195080000Y-122145000D02*
X195080000Y-122145000D01*
G75*
G02*
X195130000Y-122095000I50000J0D01*
G01*
X196090000Y-122095000D01*
G75*
G02*
X196140000Y-122145000I0J-50000D01*
G01*
X196140000Y-123105000D01*
G75*
G02*
X196090000Y-123155000I-50000J0D01*
G01*
X195130000Y-123155000D01*
G75*
G02*
X195080000Y-123105000I0J50000D01*
G01*
X195080000Y-122145000D01*
G36*
X195080000Y-122145000D02*
G01*
X195080000Y-122145000D01*
G75*
G02*
X195130000Y-122095000I50000J0D01*
G01*
X196090000Y-122095000D01*
G75*
G02*
X196140000Y-122145000I0J-50000D01*
G01*
X196140000Y-123105000D01*
G75*
G02*
X196090000Y-123155000I-50000J0D01*
G01*
X195130000Y-123155000D01*
G75*
G02*
X195080000Y-123105000I0J50000D01*
G01*
X195080000Y-122145000D01*
G37*
X196340000Y-118365000D02*
X196340000Y-118365000D01*
G75*
G02*
X196390000Y-118315000I50000J0D01*
G01*
X197350000Y-118315000D01*
G75*
G02*
X197400000Y-118365000I0J-50000D01*
G01*
X197400000Y-119325000D01*
G75*
G02*
X197350000Y-119375000I-50000J0D01*
G01*
X196390000Y-119375000D01*
G75*
G02*
X196340000Y-119325000I0J50000D01*
G01*
X196340000Y-118365000D01*
G36*
X196340000Y-118365000D02*
G01*
X196340000Y-118365000D01*
G75*
G02*
X196390000Y-118315000I50000J0D01*
G01*
X197350000Y-118315000D01*
G75*
G02*
X197400000Y-118365000I0J-50000D01*
G01*
X197400000Y-119325000D01*
G75*
G02*
X197350000Y-119375000I-50000J0D01*
G01*
X196390000Y-119375000D01*
G75*
G02*
X196340000Y-119325000I0J50000D01*
G01*
X196340000Y-118365000D01*
G37*
X196340000Y-119625000D02*
X196340000Y-119625000D01*
G75*
G02*
X196390000Y-119575000I50000J0D01*
G01*
X197350000Y-119575000D01*
G75*
G02*
X197400000Y-119625000I0J-50000D01*
G01*
X197400000Y-120585000D01*
G75*
G02*
X197350000Y-120635000I-50000J0D01*
G01*
X196390000Y-120635000D01*
G75*
G02*
X196340000Y-120585000I0J50000D01*
G01*
X196340000Y-119625000D01*
G36*
X196340000Y-119625000D02*
G01*
X196340000Y-119625000D01*
G75*
G02*
X196390000Y-119575000I50000J0D01*
G01*
X197350000Y-119575000D01*
G75*
G02*
X197400000Y-119625000I0J-50000D01*
G01*
X197400000Y-120585000D01*
G75*
G02*
X197350000Y-120635000I-50000J0D01*
G01*
X196390000Y-120635000D01*
G75*
G02*
X196340000Y-120585000I0J50000D01*
G01*
X196340000Y-119625000D01*
G37*
X196340000Y-120885000D02*
X196340000Y-120885000D01*
G75*
G02*
X196390000Y-120835000I50000J0D01*
G01*
X197350000Y-120835000D01*
G75*
G02*
X197400000Y-120885000I0J-50000D01*
G01*
X197400000Y-121845000D01*
G75*
G02*
X197350000Y-121895000I-50000J0D01*
G01*
X196390000Y-121895000D01*
G75*
G02*
X196340000Y-121845000I0J50000D01*
G01*
X196340000Y-120885000D01*
G36*
X196340000Y-120885000D02*
G01*
X196340000Y-120885000D01*
G75*
G02*
X196390000Y-120835000I50000J0D01*
G01*
X197350000Y-120835000D01*
G75*
G02*
X197400000Y-120885000I0J-50000D01*
G01*
X197400000Y-121845000D01*
G75*
G02*
X197350000Y-121895000I-50000J0D01*
G01*
X196390000Y-121895000D01*
G75*
G02*
X196340000Y-121845000I0J50000D01*
G01*
X196340000Y-120885000D01*
G37*
X196340000Y-122145000D02*
X196340000Y-122145000D01*
G75*
G02*
X196390000Y-122095000I50000J0D01*
G01*
X197350000Y-122095000D01*
G75*
G02*
X197400000Y-122145000I0J-50000D01*
G01*
X197400000Y-123105000D01*
G75*
G02*
X197350000Y-123155000I-50000J0D01*
G01*
X196390000Y-123155000D01*
G75*
G02*
X196340000Y-123105000I0J50000D01*
G01*
X196340000Y-122145000D01*
G36*
X196340000Y-122145000D02*
G01*
X196340000Y-122145000D01*
G75*
G02*
X196390000Y-122095000I50000J0D01*
G01*
X197350000Y-122095000D01*
G75*
G02*
X197400000Y-122145000I0J-50000D01*
G01*
X197400000Y-123105000D01*
G75*
G02*
X197350000Y-123155000I-50000J0D01*
G01*
X196390000Y-123155000D01*
G75*
G02*
X196340000Y-123105000I0J50000D01*
G01*
X196340000Y-122145000D01*
G37*
X197600000Y-118365000D02*
X197600000Y-118365000D01*
G75*
G02*
X197650000Y-118315000I50000J0D01*
G01*
X198610000Y-118315000D01*
G75*
G02*
X198660000Y-118365000I0J-50000D01*
G01*
X198660000Y-119325000D01*
G75*
G02*
X198610000Y-119375000I-50000J0D01*
G01*
X197650000Y-119375000D01*
G75*
G02*
X197600000Y-119325000I0J50000D01*
G01*
X197600000Y-118365000D01*
G36*
X197600000Y-118365000D02*
G01*
X197600000Y-118365000D01*
G75*
G02*
X197650000Y-118315000I50000J0D01*
G01*
X198610000Y-118315000D01*
G75*
G02*
X198660000Y-118365000I0J-50000D01*
G01*
X198660000Y-119325000D01*
G75*
G02*
X198610000Y-119375000I-50000J0D01*
G01*
X197650000Y-119375000D01*
G75*
G02*
X197600000Y-119325000I0J50000D01*
G01*
X197600000Y-118365000D01*
G37*
X197600000Y-119625000D02*
X197600000Y-119625000D01*
G75*
G02*
X197650000Y-119575000I50000J0D01*
G01*
X198610000Y-119575000D01*
G75*
G02*
X198660000Y-119625000I0J-50000D01*
G01*
X198660000Y-120585000D01*
G75*
G02*
X198610000Y-120635000I-50000J0D01*
G01*
X197650000Y-120635000D01*
G75*
G02*
X197600000Y-120585000I0J50000D01*
G01*
X197600000Y-119625000D01*
G36*
X197600000Y-119625000D02*
G01*
X197600000Y-119625000D01*
G75*
G02*
X197650000Y-119575000I50000J0D01*
G01*
X198610000Y-119575000D01*
G75*
G02*
X198660000Y-119625000I0J-50000D01*
G01*
X198660000Y-120585000D01*
G75*
G02*
X198610000Y-120635000I-50000J0D01*
G01*
X197650000Y-120635000D01*
G75*
G02*
X197600000Y-120585000I0J50000D01*
G01*
X197600000Y-119625000D01*
G37*
X197600000Y-120885000D02*
X197600000Y-120885000D01*
G75*
G02*
X197650000Y-120835000I50000J0D01*
G01*
X198610000Y-120835000D01*
G75*
G02*
X198660000Y-120885000I0J-50000D01*
G01*
X198660000Y-121845000D01*
G75*
G02*
X198610000Y-121895000I-50000J0D01*
G01*
X197650000Y-121895000D01*
G75*
G02*
X197600000Y-121845000I0J50000D01*
G01*
X197600000Y-120885000D01*
G36*
X197600000Y-120885000D02*
G01*
X197600000Y-120885000D01*
G75*
G02*
X197650000Y-120835000I50000J0D01*
G01*
X198610000Y-120835000D01*
G75*
G02*
X198660000Y-120885000I0J-50000D01*
G01*
X198660000Y-121845000D01*
G75*
G02*
X198610000Y-121895000I-50000J0D01*
G01*
X197650000Y-121895000D01*
G75*
G02*
X197600000Y-121845000I0J50000D01*
G01*
X197600000Y-120885000D01*
G37*
X197600000Y-122145000D02*
X197600000Y-122145000D01*
G75*
G02*
X197650000Y-122095000I50000J0D01*
G01*
X198610000Y-122095000D01*
G75*
G02*
X198660000Y-122145000I0J-50000D01*
G01*
X198660000Y-123105000D01*
G75*
G02*
X198610000Y-123155000I-50000J0D01*
G01*
X197650000Y-123155000D01*
G75*
G02*
X197600000Y-123105000I0J50000D01*
G01*
X197600000Y-122145000D01*
G36*
X197600000Y-122145000D02*
G01*
X197600000Y-122145000D01*
G75*
G02*
X197650000Y-122095000I50000J0D01*
G01*
X198610000Y-122095000D01*
G75*
G02*
X198660000Y-122145000I0J-50000D01*
G01*
X198660000Y-123105000D01*
G75*
G02*
X198610000Y-123155000I-50000J0D01*
G01*
X197650000Y-123155000D01*
G75*
G02*
X197600000Y-123105000I0J50000D01*
G01*
X197600000Y-122145000D01*
G37*
X198860000Y-118365000D02*
X198860000Y-118365000D01*
G75*
G02*
X198910000Y-118315000I50000J0D01*
G01*
X199870000Y-118315000D01*
G75*
G02*
X199920000Y-118365000I0J-50000D01*
G01*
X199920000Y-119325000D01*
G75*
G02*
X199870000Y-119375000I-50000J0D01*
G01*
X198910000Y-119375000D01*
G75*
G02*
X198860000Y-119325000I0J50000D01*
G01*
X198860000Y-118365000D01*
G36*
X198860000Y-118365000D02*
G01*
X198860000Y-118365000D01*
G75*
G02*
X198910000Y-118315000I50000J0D01*
G01*
X199870000Y-118315000D01*
G75*
G02*
X199920000Y-118365000I0J-50000D01*
G01*
X199920000Y-119325000D01*
G75*
G02*
X199870000Y-119375000I-50000J0D01*
G01*
X198910000Y-119375000D01*
G75*
G02*
X198860000Y-119325000I0J50000D01*
G01*
X198860000Y-118365000D01*
G37*
X198860000Y-119625000D02*
X198860000Y-119625000D01*
G75*
G02*
X198910000Y-119575000I50000J0D01*
G01*
X199870000Y-119575000D01*
G75*
G02*
X199920000Y-119625000I0J-50000D01*
G01*
X199920000Y-120585000D01*
G75*
G02*
X199870000Y-120635000I-50000J0D01*
G01*
X198910000Y-120635000D01*
G75*
G02*
X198860000Y-120585000I0J50000D01*
G01*
X198860000Y-119625000D01*
G36*
X198860000Y-119625000D02*
G01*
X198860000Y-119625000D01*
G75*
G02*
X198910000Y-119575000I50000J0D01*
G01*
X199870000Y-119575000D01*
G75*
G02*
X199920000Y-119625000I0J-50000D01*
G01*
X199920000Y-120585000D01*
G75*
G02*
X199870000Y-120635000I-50000J0D01*
G01*
X198910000Y-120635000D01*
G75*
G02*
X198860000Y-120585000I0J50000D01*
G01*
X198860000Y-119625000D01*
G37*
X198860000Y-120885000D02*
X198860000Y-120885000D01*
G75*
G02*
X198910000Y-120835000I50000J0D01*
G01*
X199870000Y-120835000D01*
G75*
G02*
X199920000Y-120885000I0J-50000D01*
G01*
X199920000Y-121845000D01*
G75*
G02*
X199870000Y-121895000I-50000J0D01*
G01*
X198910000Y-121895000D01*
G75*
G02*
X198860000Y-121845000I0J50000D01*
G01*
X198860000Y-120885000D01*
G36*
X198860000Y-120885000D02*
G01*
X198860000Y-120885000D01*
G75*
G02*
X198910000Y-120835000I50000J0D01*
G01*
X199870000Y-120835000D01*
G75*
G02*
X199920000Y-120885000I0J-50000D01*
G01*
X199920000Y-121845000D01*
G75*
G02*
X199870000Y-121895000I-50000J0D01*
G01*
X198910000Y-121895000D01*
G75*
G02*
X198860000Y-121845000I0J50000D01*
G01*
X198860000Y-120885000D01*
G37*
X198860000Y-122145000D02*
X198860000Y-122145000D01*
G75*
G02*
X198910000Y-122095000I50000J0D01*
G01*
X199870000Y-122095000D01*
G75*
G02*
X199920000Y-122145000I0J-50000D01*
G01*
X199920000Y-123105000D01*
G75*
G02*
X199870000Y-123155000I-50000J0D01*
G01*
X198910000Y-123155000D01*
G75*
G02*
X198860000Y-123105000I0J50000D01*
G01*
X198860000Y-122145000D01*
G36*
X198860000Y-122145000D02*
G01*
X198860000Y-122145000D01*
G75*
G02*
X198910000Y-122095000I50000J0D01*
G01*
X199870000Y-122095000D01*
G75*
G02*
X199920000Y-122145000I0J-50000D01*
G01*
X199920000Y-123105000D01*
G75*
G02*
X199870000Y-123155000I-50000J0D01*
G01*
X198910000Y-123155000D01*
G75*
G02*
X198860000Y-123105000I0J50000D01*
G01*
X198860000Y-122145000D01*
G37*
D11*
X202650000Y-117530000D03*
X202650000Y-116610000D03*
D12*
X174960000Y-130930000D03*
X175820000Y-130930000D03*
D11*
X202670000Y-119170000D03*
X202670000Y-120090000D03*
D13*
X194990000Y-129845000D03*
X195910000Y-129845000D03*
D11*
X195305000Y-115430000D03*
X195305000Y-114510000D03*
D14*
X195455000Y-126080000D03*
X194555000Y-126080000D03*
D15*
X194505000Y-128000000D03*
X194505000Y-128900000D03*
D16*
X178040000Y-98800000D03*
X176140000Y-98800000D03*
X177090000Y-101300000D03*
D13*
X191950000Y-112930000D03*
X192870000Y-112930000D03*
D16*
X187580000Y-98800000D03*
X185680000Y-98800000D03*
X186630000Y-101300000D03*
D17*
X194115000Y-115350000D03*
X194115000Y-113950000D03*
D18*
X189970000Y-124810000D03*
X187770000Y-124810000D03*
X187770000Y-126510000D03*
X189970000Y-126510000D03*
D19*
X179750000Y-102605000D03*
D20*
X180830000Y-102605000D03*
X181840000Y-102605000D03*
D19*
X183070000Y-102605000D03*
D13*
X180500000Y-130950000D03*
X179580000Y-130950000D03*
D12*
X192810000Y-114260000D03*
X191950000Y-114260000D03*
D13*
X193585000Y-127040000D03*
X194505000Y-127040000D03*
D21*
X196525000Y-105250000D03*
D22*
X196525000Y-104750000D03*
D21*
X196525000Y-104250000D03*
D23*
X195850000Y-104100000D03*
D21*
X195175000Y-104250000D03*
D22*
X195175000Y-104750000D03*
D21*
X195175000Y-105250000D03*
D23*
X195850000Y-105400000D03*
D15*
X176780000Y-131850000D03*
X176780000Y-130950000D03*
D11*
X192325000Y-124310000D03*
X192325000Y-125230000D03*
D14*
X195455000Y-127040000D03*
X196355000Y-127040000D03*
D24*
X189140000Y-98800000D03*
X189140000Y-99660000D03*
D12*
X177750000Y-130950000D03*
X178610000Y-130950000D03*
D11*
X174020000Y-130930000D03*
X174020000Y-130010000D03*
D25*
X199750000Y-128975000D03*
X199750000Y-126675000D03*
D11*
X189260000Y-130980000D03*
X189260000Y-131900000D03*
D14*
X193920000Y-130970000D03*
X193020000Y-130970000D03*
D11*
X201460000Y-126435000D03*
X201460000Y-127355000D03*
X195455000Y-128910000D03*
X195455000Y-127990000D03*
D13*
X202950000Y-123480000D03*
X203870000Y-123480000D03*
D12*
X192680000Y-117510000D03*
X191820000Y-117510000D03*
D17*
X198445000Y-113310000D03*
X198445000Y-111910000D03*
D26*
X196755000Y-115260000D03*
X196755000Y-113260000D03*
D11*
X201460000Y-129245000D03*
X201460000Y-128325000D03*
D24*
X179720000Y-98800000D03*
X179720000Y-97940000D03*
D12*
X179970000Y-101300000D03*
X180830000Y-101300000D03*
D14*
X191130000Y-130980000D03*
X190230000Y-130980000D03*
D27*
X187370000Y-120770000D03*
X188770000Y-120770000D03*
D11*
X192075000Y-130975000D03*
X192075000Y-130055000D03*
D12*
X183930000Y-101300000D03*
X183070000Y-101300000D03*
X178810000Y-119320000D03*
X179670000Y-119320000D03*
D24*
X183080000Y-99390000D03*
X183080000Y-100250000D03*
D11*
X190060000Y-120920000D03*
X190060000Y-121840000D03*
D13*
X191975000Y-121810000D03*
X191055000Y-121810000D03*
D28*
X179210000Y-122060000D03*
X181410000Y-122060000D03*
D29*
X194750000Y-124135000D03*
X195250000Y-124135000D03*
X195750000Y-124135000D03*
X196250000Y-124135000D03*
X196750000Y-124135000D03*
X197250000Y-124135000D03*
X197750000Y-124135000D03*
X198250000Y-124135000D03*
X198750000Y-124135000D03*
X199250000Y-124135000D03*
X199750000Y-124135000D03*
X200250000Y-124135000D03*
D30*
X200900000Y-123485000D03*
X200900000Y-122985000D03*
X200900000Y-122485000D03*
X200900000Y-121985000D03*
X200900000Y-121485000D03*
X200900000Y-120985000D03*
X200900000Y-120485000D03*
X200900000Y-119985000D03*
X200900000Y-119485000D03*
X200900000Y-118985000D03*
X200900000Y-118485000D03*
X200900000Y-117985000D03*
D29*
X200250000Y-117335000D03*
X199750000Y-117335000D03*
X199250000Y-117335000D03*
X198750000Y-117335000D03*
X198250000Y-117335000D03*
X197750000Y-117335000D03*
X197250000Y-117335000D03*
X196750000Y-117335000D03*
X196250000Y-117335000D03*
X195750000Y-117335000D03*
X195250000Y-117335000D03*
X194750000Y-117335000D03*
D30*
X194100000Y-117985000D03*
X194100000Y-118485000D03*
X194100000Y-118985000D03*
X194100000Y-119485000D03*
X194100000Y-119985000D03*
X194100000Y-120485000D03*
X194100000Y-120985000D03*
X194100000Y-121485000D03*
X194100000Y-121985000D03*
X194100000Y-122485000D03*
X194100000Y-122985000D03*
X194100000Y-123485000D03*
D24*
X175820000Y-129140000D03*
X175820000Y-130000000D03*
D12*
X178820000Y-120320000D03*
X179680000Y-120320000D03*
D16*
X177230000Y-119560000D03*
X175330000Y-119560000D03*
X176280000Y-122060000D03*
D11*
X196395000Y-127990000D03*
X196395000Y-128910000D03*
D31*
X175800000Y-127890000D03*
D32*
X174330000Y-126370000D03*
X177270000Y-126370000D03*
M02*
